<?xml version="1.0" encoding="UTF-8"?>
<svg xmlns="http://www.w3.org/2000/svg" xmlns:xlink="http://www.w3.org/1999/xlink" width="1720pt" height="440pt" viewBox="0 0 1720 440" version="1.1">
<defs>
<clipPath id="UGWvKuiRnu__clip1">
  <path d="M 24 303 L 1703 303 L 1703 402 L 24 402 Z M 24 303 "/>
</clipPath>
<clipPath id="UGWvKuiRnu__clip2">
  <path d="M 24 321 L 105 321 L 105 402 L 24 402 Z M 24 321 "/>
</clipPath>
<clipPath id="UGWvKuiRnu__clip3">
  <path d="M 246 321 L 380 321 L 380 402 L 246 402 Z M 246 321 "/>
</clipPath>
<clipPath id="UGWvKuiRnu__clip4">
  <path d="M 521 321 L 655 321 L 655 402 L 521 402 Z M 521 321 "/>
</clipPath>
<clipPath id="UGWvKuiRnu__clip5">
  <path d="M 796 321 L 931 321 L 931 402 L 796 402 Z M 796 321 "/>
</clipPath>
<clipPath id="UGWvKuiRnu__clip6">
  <path d="M 1072 321 L 1206 321 L 1206 402 L 1072 402 Z M 1072 321 "/>
</clipPath>
<clipPath id="UGWvKuiRnu__clip7">
  <path d="M 1347 321 L 1481 321 L 1481 402 L 1347 402 Z M 1347 321 "/>
</clipPath>
<clipPath id="UGWvKuiRnu__clip8">
  <path d="M 1622 321 L 1703 321 L 1703 402 L 1622 402 Z M 1622 321 "/>
</clipPath>
</defs>
<g id="surface46008">
<rect x="0" y="0" width="1720" height="440" style="fill:rgb(5.098039%,5.098039%,5.098039%);fill-opacity:1;stroke:none;"/>
<path style="fill:none;stroke-width:1;stroke-linecap:butt;stroke-linejoin:miter;stroke:rgb(6.666667%,6.666667%,6.666667%);stroke-opacity:1;stroke-miterlimit:10;" d="M 19 33.199219 L 19 193.5 " transform="matrix(2,0,0,2,0,0)"/>
<path style="fill:none;stroke-width:1;stroke-linecap:butt;stroke-linejoin:miter;stroke:rgb(6.666667%,6.666667%,6.666667%);stroke-opacity:1;stroke-miterlimit:10;" d="M 19 194.5 L 19 202 " transform="matrix(2,0,0,2,0,0)"/>
<path style="fill:none;stroke-width:1;stroke-linecap:butt;stroke-linejoin:miter;stroke:rgb(6.666667%,6.666667%,6.666667%);stroke-opacity:1;stroke-miterlimit:10;" d="M 156.5 33.199219 L 156.5 193.5 " transform="matrix(2,0,0,2,0,0)"/>
<path style="fill:none;stroke-width:1;stroke-linecap:butt;stroke-linejoin:miter;stroke:rgb(6.666667%,6.666667%,6.666667%);stroke-opacity:1;stroke-miterlimit:10;" d="M 156.5 194.5 L 156.5 202 " transform="matrix(2,0,0,2,0,0)"/>
<path style="fill:none;stroke-width:1;stroke-linecap:butt;stroke-linejoin:miter;stroke:rgb(6.666667%,6.666667%,6.666667%);stroke-opacity:1;stroke-miterlimit:10;" d="M 294 33.199219 L 294 193.5 " transform="matrix(2,0,0,2,0,0)"/>
<path style="fill:none;stroke-width:1;stroke-linecap:butt;stroke-linejoin:miter;stroke:rgb(6.666667%,6.666667%,6.666667%);stroke-opacity:1;stroke-miterlimit:10;" d="M 294 194.5 L 294 202 " transform="matrix(2,0,0,2,0,0)"/>
<path style="fill:none;stroke-width:1;stroke-linecap:butt;stroke-linejoin:miter;stroke:rgb(6.666667%,6.666667%,6.666667%);stroke-opacity:1;stroke-miterlimit:10;" d="M 432 33.199219 L 432 193.5 " transform="matrix(2,0,0,2,0,0)"/>
<path style="fill:none;stroke-width:1;stroke-linecap:butt;stroke-linejoin:miter;stroke:rgb(6.666667%,6.666667%,6.666667%);stroke-opacity:1;stroke-miterlimit:10;" d="M 432 194.5 L 432 202 " transform="matrix(2,0,0,2,0,0)"/>
<path style="fill:none;stroke-width:1;stroke-linecap:butt;stroke-linejoin:miter;stroke:rgb(6.666667%,6.666667%,6.666667%);stroke-opacity:1;stroke-miterlimit:10;" d="M 569.5 33.199219 L 569.5 193.5 " transform="matrix(2,0,0,2,0,0)"/>
<path style="fill:none;stroke-width:1;stroke-linecap:butt;stroke-linejoin:miter;stroke:rgb(6.666667%,6.666667%,6.666667%);stroke-opacity:1;stroke-miterlimit:10;" d="M 569.5 194.5 L 569.5 202 " transform="matrix(2,0,0,2,0,0)"/>
<path style="fill:none;stroke-width:1;stroke-linecap:butt;stroke-linejoin:miter;stroke:rgb(6.666667%,6.666667%,6.666667%);stroke-opacity:1;stroke-miterlimit:10;" d="M 707 33.199219 L 707 193.5 " transform="matrix(2,0,0,2,0,0)"/>
<path style="fill:none;stroke-width:1;stroke-linecap:butt;stroke-linejoin:miter;stroke:rgb(6.666667%,6.666667%,6.666667%);stroke-opacity:1;stroke-miterlimit:10;" d="M 707 194.5 L 707 202 " transform="matrix(2,0,0,2,0,0)"/>
<path style="fill:none;stroke-width:1;stroke-linecap:butt;stroke-linejoin:miter;stroke:rgb(6.666667%,6.666667%,6.666667%);stroke-opacity:1;stroke-miterlimit:10;" d="M 844.5 33.199219 L 844.5 193.5 " transform="matrix(2,0,0,2,0,0)"/>
<path style="fill:none;stroke-width:1;stroke-linecap:butt;stroke-linejoin:miter;stroke:rgb(6.666667%,6.666667%,6.666667%);stroke-opacity:1;stroke-miterlimit:10;" d="M 844.5 194.5 L 844.5 202 " transform="matrix(2,0,0,2,0,0)"/>
<path style="fill:none;stroke-width:1;stroke-linecap:butt;stroke-linejoin:miter;stroke:rgb(6.666667%,6.666667%,6.666667%);stroke-opacity:1;stroke-miterlimit:10;" d="M 19.5 194 L 844.5 194 " transform="matrix(2,0,0,2,0,0)"/>
<path style="fill:none;stroke-width:1;stroke-linecap:butt;stroke-linejoin:miter;stroke:rgb(6.666667%,6.666667%,6.666667%);stroke-opacity:1;stroke-miterlimit:10;" d="M 11 194 L 18.5 194 " transform="matrix(2,0,0,2,0,0)"/>
<path style="fill:none;stroke-width:1;stroke-linecap:butt;stroke-linejoin:miter;stroke:rgb(6.666667%,6.666667%,6.666667%);stroke-opacity:1;stroke-miterlimit:10;" d="M 19.5 33 L 844.5 33 " transform="matrix(2,0,0,2,0,0)"/>
<path style="fill:none;stroke-width:1;stroke-linecap:butt;stroke-linejoin:miter;stroke:rgb(6.666667%,6.666667%,6.666667%);stroke-opacity:1;stroke-miterlimit:10;" d="M 11 33 L 18.5 33 " transform="matrix(2,0,0,2,0,0)"/>
<path style=" stroke:none;fill-rule:nonzero;fill:rgb(23.137255%,50.980392%,96.470588%);fill-opacity:1;" d="M 11.09375 23.167969 L 3.390625 41.027344 L 0.8125 41.027344 L 8.515625 23.167969 Z M 22.09375 23.167969 L 14.390625 41.027344 L 11.8125 41.027344 L 19.515625 23.167969 Z M 34.546875 33.949219 C 34.546875 31.886719 34.984375 30.308594 35.859375 29.214844 C 36.742188 28.121094 38 27.574219 39.625 27.574219 C 40.5625 27.574219 41.628906 27.800781 42.828125 28.246094 L 42.828125 31.074219 C 41.554688 30.398438 40.523438 30.058594 39.734375 30.058594 C 38.953125 30.058594 38.34375 30.378906 37.90625 31.011719 C 37.476562 31.636719 37.265625 32.617188 37.265625 33.949219 C 37.265625 35.335938 37.492188 36.347656 37.953125 36.980469 C 38.421875 37.605469 39.046875 37.917969 39.828125 37.917969 C 40.609375 37.917969 41.644531 37.539062 42.9375 36.777344 L 42.9375 39.652344 C 41.75 40.121094 40.679688 40.355469 39.734375 40.355469 C 38.078125 40.355469 36.796875 39.816406 35.890625 38.730469 C 34.992188 37.636719 34.546875 36.042969 34.546875 33.949219 Z M 45.09375 33.964844 C 45.09375 29.707031 46.710938 27.574219 49.953125 27.574219 C 53.191406 27.574219 54.8125 29.707031 54.8125 33.964844 C 54.8125 38.226562 53.191406 40.355469 49.953125 40.355469 C 46.710938 40.355469 45.09375 38.226562 45.09375 33.964844 Z M 48.34375 37.089844 C 48.695312 37.644531 49.234375 37.917969 49.953125 37.917969 C 50.671875 37.917969 51.207031 37.644531 51.5625 37.089844 C 51.914062 36.527344 52.09375 35.488281 52.09375 33.964844 C 52.09375 32.433594 51.914062 31.394531 51.5625 30.839844 C 51.207031 30.277344 50.671875 29.996094 49.953125 29.996094 C 49.234375 29.996094 48.695312 30.277344 48.34375 30.839844 C 47.988281 31.394531 47.8125 32.433594 47.8125 33.964844 C 47.8125 35.488281 47.988281 36.527344 48.34375 37.089844 Z M 62.28125 40.136719 L 59.65625 40.136719 L 59.65625 31.761719 C 59.644531 30.992188 59.597656 30.523438 59.515625 30.355469 C 59.441406 30.179688 59.328125 30.089844 59.171875 30.089844 C 58.929688 30.089844 58.6875 30.488281 58.4375 31.277344 C 58.195312 32.058594 58.078125 33.394531 58.078125 35.277344 L 58.078125 40.136719 L 55.4375 40.136719 L 55.4375 27.777344 L 57.875 27.777344 L 57.515625 29.730469 L 57.46875 29.699219 C 57.519531 29.011719 57.765625 28.488281 58.203125 28.121094 C 58.640625 27.757812 59.117188 27.574219 59.640625 27.574219 C 60.210938 27.574219 60.675781 27.746094 61.03125 28.089844 C 61.382812 28.425781 61.550781 28.964844 61.53125 29.714844 L 61.484375 29.699219 C 61.898438 28.285156 62.675781 27.574219 63.8125 27.574219 C 64.726562 27.574219 65.398438 27.863281 65.828125 28.433594 C 66.265625 28.996094 66.484375 29.957031 66.484375 31.308594 L 66.484375 40.136719 L 63.875 40.136719 L 63.875 31.761719 C 63.863281 30.980469 63.804688 30.507812 63.703125 30.339844 C 63.609375 30.175781 63.453125 30.089844 63.234375 30.089844 C 62.597656 30.089844 62.28125 31.378906 62.28125 33.949219 Z M 73.28125 40.136719 L 70.65625 40.136719 L 70.65625 31.761719 C 70.644531 30.992188 70.597656 30.523438 70.515625 30.355469 C 70.441406 30.179688 70.328125 30.089844 70.171875 30.089844 C 69.929688 30.089844 69.6875 30.488281 69.4375 31.277344 C 69.195312 32.058594 69.078125 33.394531 69.078125 35.277344 L 69.078125 40.136719 L 66.4375 40.136719 L 66.4375 27.777344 L 68.875 27.777344 L 68.515625 29.730469 L 68.46875 29.699219 C 68.519531 29.011719 68.765625 28.488281 69.203125 28.121094 C 69.640625 27.757812 70.117188 27.574219 70.640625 27.574219 C 71.210938 27.574219 71.675781 27.746094 72.03125 28.089844 C 72.382812 28.425781 72.550781 28.964844 72.53125 29.714844 L 72.484375 29.699219 C 72.898438 28.285156 73.675781 27.574219 74.8125 27.574219 C 75.726562 27.574219 76.398438 27.863281 76.828125 28.433594 C 77.265625 28.996094 77.484375 29.957031 77.484375 31.308594 L 77.484375 40.136719 L 74.875 40.136719 L 74.875 31.761719 C 74.863281 30.980469 74.804688 30.507812 74.703125 30.339844 C 74.609375 30.175781 74.453125 30.089844 74.234375 30.089844 C 73.597656 30.089844 73.28125 31.378906 73.28125 33.949219 Z M 84.875 27.777344 L 84.875 37.730469 L 87.25 37.730469 L 87.25 40.136719 L 79.078125 40.136719 L 79.078125 37.730469 L 82.15625 37.730469 L 82.15625 30.199219 L 79.75 30.199219 L 79.75 27.777344 Z M 81.703125 26.042969 L 81.703125 22.496094 L 84.875 22.496094 L 84.875 26.042969 Z M 94.28125 28.230469 L 98.25 28.230469 L 98.25 30.636719 L 94.28125 30.636719 L 94.28125 36.371094 C 94.28125 37.082031 94.359375 37.523438 94.515625 37.699219 C 94.679688 37.878906 95.046875 37.964844 95.609375 37.964844 C 96.273438 37.964844 97.082031 37.753906 98.03125 37.324219 L 98.03125 39.886719 C 97.082031 40.199219 96.203125 40.355469 95.390625 40.355469 C 94.035156 40.355469 93.066406 40.074219 92.484375 39.511719 C 91.910156 38.941406 91.625 37.964844 91.625 36.589844 L 91.625 30.636719 L 89.4375 30.636719 L 89.4375 28.230469 L 91.625 28.230469 L 91.625 24.042969 L 94.28125 24.042969 Z M 105.0625 29.933594 C 103.957031 29.933594 103.40625 30.320312 103.40625 31.089844 C 103.40625 31.464844 103.519531 31.769531 103.75 31.996094 C 103.988281 32.226562 104.46875 32.441406 105.1875 32.636719 C 106.820312 33.097656 107.925781 33.605469 108.5 34.167969 C 109.070312 34.730469 109.359375 35.585938 109.359375 36.730469 C 109.359375 37.878906 108.960938 38.769531 108.171875 39.402344 C 107.390625 40.039062 106.320312 40.355469 104.96875 40.355469 C 103.625 40.355469 102.257812 40.007812 100.875 39.308594 L 100.875 36.417969 C 102.414062 37.449219 103.703125 37.964844 104.734375 37.964844 C 106.054688 37.964844 106.71875 37.542969 106.71875 36.699219 C 106.71875 36.292969 106.59375 35.976562 106.34375 35.746094 C 106.101562 35.519531 105.5625 35.289062 104.71875 35.058594 C 103.300781 34.652344 102.285156 34.152344 101.671875 33.558594 C 101.066406 32.957031 100.765625 32.132812 100.765625 31.089844 C 100.765625 29.996094 101.128906 29.136719 101.859375 28.511719 C 102.585938 27.886719 103.617188 27.574219 104.953125 27.574219 C 106.242188 27.574219 107.570312 27.882812 108.9375 28.496094 L 108.9375 31.199219 C 107.394531 30.355469 106.101562 29.933594 105.0625 29.933594 Z M 128.09375 36.371094 C 128.09375 37.246094 128.128906 37.730469 128.203125 37.824219 C 128.273438 37.910156 128.632812 37.949219 129.28125 37.949219 C 129.726562 37.949219 130.421875 37.878906 131.359375 37.730469 L 131.359375 40.199219 C 130.390625 40.304688 129.613281 40.355469 129.03125 40.355469 C 127.59375 40.355469 126.625 40.101562 126.125 39.589844 C 125.632812 39.082031 125.390625 38.082031 125.390625 36.589844 L 125.390625 25.574219 L 122.546875 25.574219 L 122.546875 23.167969 L 128.09375 23.167969 Z M 138.0625 27.574219 C 139.675781 27.574219 140.796875 27.914062 141.421875 28.589844 C 142.046875 29.269531 142.359375 30.464844 142.359375 32.183594 L 142.359375 40.136719 L 139.90625 40.136719 L 140.234375 38.089844 L 140.296875 38.136719 C 139.742188 39.617188 138.632812 40.355469 136.96875 40.355469 C 135.882812 40.355469 135.003906 40.007812 134.328125 39.308594 C 133.648438 38.613281 133.3125 37.667969 133.3125 36.480469 C 133.3125 35.003906 133.8125 33.867188 134.8125 33.074219 C 135.8125 32.273438 137.257812 31.871094 139.15625 31.871094 L 139.75 31.871094 L 139.75 31.761719 C 139.75 31.042969 139.628906 30.558594 139.390625 30.308594 C 139.160156 30.058594 138.71875 29.933594 138.0625 29.933594 C 137.601562 29.933594 137.015625 30.023438 136.296875 30.199219 C 135.585938 30.367188 134.78125 30.652344 133.875 31.058594 L 133.875 28.496094 C 134.59375 28.175781 135.332031 27.941406 136.09375 27.792969 C 136.851562 27.648438 137.507812 27.574219 138.0625 27.574219 Z M 139.75 34.074219 L 139.15625 34.074219 C 136.96875 34.074219 135.875 34.839844 135.875 36.371094 C 135.875 36.914062 135.992188 37.316406 136.234375 37.574219 C 136.484375 37.835938 136.832031 37.964844 137.28125 37.964844 C 138.007812 37.964844 138.601562 37.664062 139.0625 37.058594 C 139.519531 36.457031 139.75 35.570312 139.75 34.402344 Z M 149.0625 29.933594 C 147.957031 29.933594 147.40625 30.320312 147.40625 31.089844 C 147.40625 31.464844 147.519531 31.769531 147.75 31.996094 C 147.988281 32.226562 148.46875 32.441406 149.1875 32.636719 C 150.820312 33.097656 151.925781 33.605469 152.5 34.167969 C 153.070312 34.730469 153.359375 35.585938 153.359375 36.730469 C 153.359375 37.878906 152.960938 38.769531 152.171875 39.402344 C 151.390625 40.039062 150.320312 40.355469 148.96875 40.355469 C 147.625 40.355469 146.257812 40.007812 144.875 39.308594 L 144.875 36.417969 C 146.414062 37.449219 147.703125 37.964844 148.734375 37.964844 C 150.054688 37.964844 150.71875 37.542969 150.71875 36.699219 C 150.71875 36.292969 150.59375 35.976562 150.34375 35.746094 C 150.101562 35.519531 149.5625 35.289062 148.71875 35.058594 C 147.300781 34.652344 146.285156 34.152344 145.671875 33.558594 C 145.066406 32.957031 144.765625 32.132812 144.765625 31.089844 C 144.765625 29.996094 145.128906 29.136719 145.859375 28.511719 C 146.585938 27.886719 147.617188 27.574219 148.953125 27.574219 C 150.242188 27.574219 151.570312 27.882812 152.9375 28.496094 L 152.9375 31.199219 C 151.394531 30.355469 150.101562 29.933594 149.0625 29.933594 Z M 160.28125 28.230469 L 164.25 28.230469 L 164.25 30.636719 L 160.28125 30.636719 L 160.28125 36.371094 C 160.28125 37.082031 160.359375 37.523438 160.515625 37.699219 C 160.679688 37.878906 161.046875 37.964844 161.609375 37.964844 C 162.273438 37.964844 163.082031 37.753906 164.03125 37.324219 L 164.03125 39.886719 C 163.082031 40.199219 162.203125 40.355469 161.390625 40.355469 C 160.035156 40.355469 159.066406 40.074219 158.484375 39.511719 C 157.910156 38.941406 157.625 37.964844 157.625 36.589844 L 157.625 30.636719 L 155.4375 30.636719 L 155.4375 28.230469 L 157.625 28.230469 L 157.625 24.042969 L 160.28125 24.042969 Z M 183.8125 25.199219 L 183.984375 25.246094 L 177.65625 25.652344 L 177.65625 23.167969 L 186.25 23.167969 L 186.25 25.292969 C 184.363281 29.667969 182.796875 34.617188 181.546875 40.136719 L 178.671875 40.136719 C 179.992188 34.554688 181.707031 29.574219 183.8125 25.199219 Z M 205.84375 23.167969 L 208.46875 23.167969 L 208.46875 40.136719 L 205.96875 40.136719 L 206.3125 38.074219 L 206.359375 38.105469 C 205.710938 39.605469 204.6875 40.355469 203.28125 40.355469 C 201.96875 40.355469 200.921875 39.808594 200.140625 38.714844 C 199.367188 37.621094 198.984375 36.035156 198.984375 33.949219 C 198.984375 29.699219 200.414062 27.574219 203.28125 27.574219 C 204.800781 27.574219 205.804688 28.308594 206.296875 29.777344 L 206.234375 29.824219 Z M 201.640625 33.949219 C 201.640625 35.304688 201.832031 36.285156 202.21875 36.886719 C 202.613281 37.492188 203.117188 37.792969 203.734375 37.792969 C 204.316406 37.792969 204.8125 37.488281 205.21875 36.871094 C 205.632812 36.246094 205.84375 35.308594 205.84375 34.058594 L 205.84375 33.839844 C 205.84375 32.601562 205.632812 31.675781 205.21875 31.058594 C 204.8125 30.433594 204.316406 30.121094 203.734375 30.121094 C 202.335938 30.121094 201.640625 31.398438 201.640625 33.949219 Z M 215.0625 27.574219 C 216.675781 27.574219 217.796875 27.914062 218.421875 28.589844 C 219.046875 29.269531 219.359375 30.464844 219.359375 32.183594 L 219.359375 40.136719 L 216.90625 40.136719 L 217.234375 38.089844 L 217.296875 38.136719 C 216.742188 39.617188 215.632812 40.355469 213.96875 40.355469 C 212.882812 40.355469 212.003906 40.007812 211.328125 39.308594 C 210.648438 38.613281 210.3125 37.667969 210.3125 36.480469 C 210.3125 35.003906 210.8125 33.867188 211.8125 33.074219 C 212.8125 32.273438 214.257812 31.871094 216.15625 31.871094 L 216.75 31.871094 L 216.75 31.761719 C 216.75 31.042969 216.628906 30.558594 216.390625 30.308594 C 216.160156 30.058594 215.71875 29.933594 215.0625 29.933594 C 214.601562 29.933594 214.015625 30.023438 213.296875 30.199219 C 212.585938 30.367188 211.78125 30.652344 210.875 31.058594 L 210.875 28.496094 C 211.59375 28.175781 212.332031 27.941406 213.09375 27.792969 C 213.851562 27.648438 214.507812 27.574219 215.0625 27.574219 Z M 216.75 34.074219 L 216.15625 34.074219 C 213.96875 34.074219 212.875 34.839844 212.875 36.371094 C 212.875 36.914062 212.992188 37.316406 213.234375 37.574219 C 213.484375 37.835938 213.832031 37.964844 214.28125 37.964844 C 215.007812 37.964844 215.601562 37.664062 216.0625 37.058594 C 216.519531 36.457031 216.75 35.570312 216.75 34.402344 Z M 226.1875 36.980469 L 226.140625 36.980469 L 228.421875 27.777344 L 231.3125 27.777344 L 225.71875 44.980469 L 222.9375 44.980469 L 224.796875 39.449219 L 220.796875 27.777344 L 223.703125 27.777344 Z M 237.0625 29.933594 C 235.957031 29.933594 235.40625 30.320312 235.40625 31.089844 C 235.40625 31.464844 235.519531 31.769531 235.75 31.996094 C 235.988281 32.226562 236.46875 32.441406 237.1875 32.636719 C 238.820312 33.097656 239.925781 33.605469 240.5 34.167969 C 241.070312 34.730469 241.359375 35.585938 241.359375 36.730469 C 241.359375 37.878906 240.960938 38.769531 240.171875 39.402344 C 239.390625 40.039062 238.320312 40.355469 236.96875 40.355469 C 235.625 40.355469 234.257812 40.007812 232.875 39.308594 L 232.875 36.417969 C 234.414062 37.449219 235.703125 37.964844 236.734375 37.964844 C 238.054688 37.964844 238.71875 37.542969 238.71875 36.699219 C 238.71875 36.292969 238.59375 35.976562 238.34375 35.746094 C 238.101562 35.519531 237.5625 35.289062 236.71875 35.058594 C 235.300781 34.652344 234.285156 34.152344 233.671875 33.558594 C 233.066406 32.957031 232.765625 32.132812 232.765625 31.089844 C 232.765625 29.996094 233.128906 29.136719 233.859375 28.511719 C 234.585938 27.886719 235.617188 27.574219 236.953125 27.574219 C 238.242188 27.574219 239.570312 27.882812 240.9375 28.496094 L 240.9375 31.199219 C 239.394531 30.355469 238.101562 29.933594 237.0625 29.933594 Z M 0 19.34375 "/>
<path style="fill:none;stroke-width:1;stroke-linecap:butt;stroke-linejoin:miter;stroke:rgb(0%,0%,0%);stroke-opacity:0.0980392;stroke-miterlimit:10;" d="M 18.5 194 L 845 194 " transform="matrix(2,0,0,2,0,0)"/>
<path style=" stroke:none;fill-rule:nonzero;fill:rgb(33.333333%,33.333333%,33.333333%);fill-opacity:1;" d="M 17.359375 413.863281 C 17.816406 413.625 18.363281 413.503906 19 413.503906 C 19.632812 413.503906 20.179688 413.625 20.640625 413.863281 C 21.097656 414.105469 21.492188 414.503906 21.828125 415.066406 C 22.160156 415.628906 22.40625 416.402344 22.5625 417.378906 C 22.726562 418.347656 22.8125 419.550781 22.8125 420.988281 C 22.8125 422.425781 22.726562 423.640625 22.5625 424.628906 C 22.40625 425.609375 22.160156 426.378906 21.828125 426.941406 C 21.492188 427.503906 21.097656 427.90625 20.640625 428.144531 C 20.179688 428.386719 19.632812 428.503906 19 428.503906 C 18.363281 428.503906 17.816406 428.386719 17.359375 428.144531 C 16.898438 427.90625 16.503906 427.503906 16.171875 426.941406 C 15.847656 426.378906 15.601562 425.609375 15.4375 424.628906 C 15.269531 423.640625 15.1875 422.425781 15.1875 420.988281 C 15.1875 419.550781 15.269531 418.347656 15.4375 417.378906 C 15.601562 416.402344 15.847656 415.628906 16.171875 415.066406 C 16.503906 414.503906 16.898438 414.105469 17.359375 413.863281 Z M 16.828125 423.332031 L 20.765625 416.535156 C 20.410156 415.441406 19.820312 414.894531 19 414.894531 C 18.519531 414.894531 18.117188 415.074219 17.796875 415.425781 C 17.484375 415.769531 17.226562 416.402344 17.03125 417.316406 C 16.84375 418.234375 16.75 419.464844 16.75 421.003906 C 16.75 421.671875 16.773438 422.449219 16.828125 423.332031 Z M 17.171875 425.207031 C 17.503906 426.46875 18.113281 427.097656 19 427.097656 C 19.476562 427.097656 19.878906 426.925781 20.203125 426.582031 C 20.523438 426.238281 20.78125 425.609375 20.96875 424.691406 C 21.15625 423.765625 21.25 422.535156 21.25 421.003906 C 21.25 419.964844 21.207031 419.078125 21.125 418.347656 Z M 30.890625 415.175781 L 30.890625 415.144531 L 25.5 415.144531 L 25.5 413.691406 L 32.5 413.691406 L 32.5 415.144531 C 30.789062 419.09375 29.390625 423.480469 28.296875 428.300781 L 26.546875 428.300781 C 27.660156 423.59375 29.109375 419.21875 30.890625 415.175781 Z M 36 422.910156 L 36 421.472656 L 42.015625 421.472656 L 42.015625 422.910156 Z M 49.15625 428.300781 L 49.15625 415.394531 L 49.125 415.378906 L 45.65625 417.394531 L 45.65625 415.800781 L 49.15625 413.691406 L 50.796875 413.691406 L 50.796875 428.300781 Z M 60.890625 415.175781 L 60.890625 415.144531 L 55.5 415.144531 L 55.5 413.691406 L 62.5 413.691406 L 62.5 415.144531 C 60.789062 419.09375 59.390625 423.480469 58.296875 428.300781 L 56.546875 428.300781 C 57.660156 423.59375 59.109375 419.21875 60.890625 415.175781 Z M 14 409.402344 "/>
<path style=" stroke:none;fill-rule:nonzero;fill:rgb(33.333333%,33.333333%,33.333333%);fill-opacity:1;" d="M 292.527344 413.863281 C 292.984375 413.625 293.53125 413.503906 294.167969 413.503906 C 294.800781 413.503906 295.347656 413.625 295.808594 413.863281 C 296.265625 414.105469 296.660156 414.503906 296.996094 415.066406 C 297.328125 415.628906 297.574219 416.402344 297.730469 417.378906 C 297.894531 418.347656 297.980469 419.550781 297.980469 420.988281 C 297.980469 422.425781 297.894531 423.640625 297.730469 424.628906 C 297.574219 425.609375 297.328125 426.378906 296.996094 426.941406 C 296.660156 427.503906 296.265625 427.90625 295.808594 428.144531 C 295.347656 428.386719 294.800781 428.503906 294.167969 428.503906 C 293.53125 428.503906 292.984375 428.386719 292.527344 428.144531 C 292.066406 427.90625 291.671875 427.503906 291.339844 426.941406 C 291.015625 426.378906 290.769531 425.609375 290.605469 424.628906 C 290.4375 423.640625 290.355469 422.425781 290.355469 420.988281 C 290.355469 419.550781 290.4375 418.347656 290.605469 417.378906 C 290.769531 416.402344 291.015625 415.628906 291.339844 415.066406 C 291.671875 414.503906 292.066406 414.105469 292.527344 413.863281 Z M 291.996094 423.332031 L 295.933594 416.535156 C 295.578125 415.441406 294.988281 414.894531 294.167969 414.894531 C 293.6875 414.894531 293.285156 415.074219 292.964844 415.425781 C 292.652344 415.769531 292.394531 416.402344 292.199219 417.316406 C 292.011719 418.234375 291.917969 419.464844 291.917969 421.003906 C 291.917969 421.671875 291.941406 422.449219 291.996094 423.332031 Z M 292.339844 425.207031 C 292.671875 426.46875 293.28125 427.097656 294.167969 427.097656 C 294.644531 427.097656 295.046875 426.925781 295.371094 426.582031 C 295.691406 426.238281 295.949219 425.609375 296.136719 424.691406 C 296.324219 423.765625 296.417969 422.535156 296.417969 421.003906 C 296.417969 419.964844 296.375 419.078125 296.292969 418.347656 Z M 306.058594 415.175781 L 306.058594 415.144531 L 300.667969 415.144531 L 300.667969 413.691406 L 307.667969 413.691406 L 307.667969 415.144531 C 305.957031 419.09375 304.558594 423.480469 303.464844 428.300781 L 301.714844 428.300781 C 302.828125 423.59375 304.277344 419.21875 306.058594 415.175781 Z M 311.167969 422.910156 L 311.167969 421.472656 L 317.183594 421.472656 L 317.183594 422.910156 Z M 324.324219 428.300781 L 324.324219 415.394531 L 324.292969 415.378906 L 320.824219 417.394531 L 320.824219 415.800781 L 324.324219 413.691406 L 325.964844 413.691406 L 325.964844 428.300781 Z M 334.261719 414.894531 C 333.5625 414.894531 333.019531 415.082031 332.636719 415.457031 C 332.25 415.824219 332.058594 416.339844 332.058594 417.003906 C 332.058594 417.714844 332.25 418.339844 332.636719 418.878906 C 333.03125 419.410156 333.542969 419.75 334.167969 419.894531 C 334.855469 419.707031 335.390625 419.363281 335.777344 418.863281 C 336.160156 418.363281 336.355469 417.746094 336.355469 417.003906 C 336.355469 416.378906 336.160156 415.875 335.777344 415.488281 C 335.390625 415.09375 334.886719 414.894531 334.261719 414.894531 Z M 337.121094 427.488281 C 336.433594 428.167969 335.449219 428.503906 334.167969 428.503906 C 332.894531 428.503906 331.910156 428.167969 331.214844 427.488281 C 330.515625 426.800781 330.167969 425.808594 330.167969 424.503906 C 330.167969 423.589844 330.386719 422.792969 330.824219 422.113281 C 331.269531 421.4375 331.886719 420.9375 332.667969 420.613281 L 332.667969 420.566406 C 332.03125 420.277344 331.503906 419.792969 331.089844 419.113281 C 330.683594 418.4375 330.480469 417.734375 330.480469 417.003906 C 330.480469 415.910156 330.800781 415.058594 331.449219 414.441406 C 332.105469 413.816406 333.011719 413.503906 334.167969 413.503906 C 335.324219 413.503906 336.222656 413.816406 336.871094 414.441406 C 337.527344 415.066406 337.855469 415.921875 337.855469 417.003906 C 337.855469 417.746094 337.652344 418.433594 337.246094 419.066406 C 336.847656 419.703125 336.324219 420.171875 335.667969 420.472656 L 335.667969 420.519531 C 336.449219 420.832031 337.058594 421.332031 337.496094 422.019531 C 337.941406 422.707031 338.167969 423.535156 338.167969 424.503906 C 338.167969 425.808594 337.816406 426.800781 337.121094 427.488281 Z M 334.261719 427.097656 C 334.96875 427.097656 335.53125 426.878906 335.949219 426.441406 C 336.363281 425.996094 336.574219 425.347656 336.574219 424.503906 C 336.574219 422.765625 335.738281 421.699219 334.074219 421.300781 C 333.25 421.519531 332.644531 421.886719 332.261719 422.394531 C 331.875 422.894531 331.683594 423.597656 331.683594 424.503906 C 331.683594 425.316406 331.917969 425.953125 332.386719 426.410156 C 332.855469 426.871094 333.480469 427.097656 334.261719 427.097656 Z M 289.167969 409.402344 "/>
<path style=" stroke:none;fill-rule:nonzero;fill:rgb(33.333333%,33.333333%,33.333333%);fill-opacity:1;" d="M 567.691406 413.863281 C 568.148438 413.625 568.695312 413.503906 569.332031 413.503906 C 569.964844 413.503906 570.511719 413.625 570.972656 413.863281 C 571.429688 414.105469 571.824219 414.503906 572.160156 415.066406 C 572.492188 415.628906 572.738281 416.402344 572.894531 417.378906 C 573.058594 418.347656 573.144531 419.550781 573.144531 420.988281 C 573.144531 422.425781 573.058594 423.640625 572.894531 424.628906 C 572.738281 425.609375 572.492188 426.378906 572.160156 426.941406 C 571.824219 427.503906 571.429688 427.90625 570.972656 428.144531 C 570.511719 428.386719 569.964844 428.503906 569.332031 428.503906 C 568.695312 428.503906 568.148438 428.386719 567.691406 428.144531 C 567.230469 427.90625 566.835938 427.503906 566.503906 426.941406 C 566.179688 426.378906 565.933594 425.609375 565.769531 424.628906 C 565.601562 423.640625 565.519531 422.425781 565.519531 420.988281 C 565.519531 419.550781 565.601562 418.347656 565.769531 417.378906 C 565.933594 416.402344 566.179688 415.628906 566.503906 415.066406 C 566.835938 414.503906 567.230469 414.105469 567.691406 413.863281 Z M 567.160156 423.332031 L 571.097656 416.535156 C 570.742188 415.441406 570.152344 414.894531 569.332031 414.894531 C 568.851562 414.894531 568.449219 415.074219 568.128906 415.425781 C 567.816406 415.769531 567.558594 416.402344 567.363281 417.316406 C 567.175781 418.234375 567.082031 419.464844 567.082031 421.003906 C 567.082031 421.671875 567.105469 422.449219 567.160156 423.332031 Z M 567.503906 425.207031 C 567.835938 426.46875 568.445312 427.097656 569.332031 427.097656 C 569.808594 427.097656 570.210938 426.925781 570.535156 426.582031 C 570.855469 426.238281 571.113281 425.609375 571.300781 424.691406 C 571.488281 423.765625 571.582031 422.535156 571.582031 421.003906 C 571.582031 419.964844 571.539062 419.078125 571.457031 418.347656 Z M 581.222656 415.175781 L 581.222656 415.144531 L 575.832031 415.144531 L 575.832031 413.691406 L 582.832031 413.691406 L 582.832031 415.144531 C 581.121094 419.09375 579.722656 423.480469 578.628906 428.300781 L 576.878906 428.300781 C 577.992188 423.59375 579.441406 419.21875 581.222656 415.175781 Z M 586.332031 422.910156 L 586.332031 421.472656 L 592.347656 421.472656 L 592.347656 422.910156 Z M 599.488281 428.300781 L 599.488281 415.394531 L 599.457031 415.378906 L 595.988281 417.394531 L 595.988281 415.800781 L 599.488281 413.691406 L 601.128906 413.691406 L 601.128906 428.300781 Z M 608.628906 428.503906 C 607.824219 428.503906 607.058594 428.371094 606.332031 428.097656 L 606.332031 426.488281 C 607.027344 426.84375 607.730469 427.019531 608.441406 427.019531 C 609.378906 427.019531 610.050781 426.707031 610.457031 426.082031 C 610.863281 425.449219 611.117188 424.21875 611.222656 422.394531 L 611.191406 422.394531 C 610.523438 423.074219 609.773438 423.410156 608.941406 423.410156 C 607.824219 423.410156 606.976562 423.015625 606.394531 422.222656 C 605.808594 421.433594 605.519531 420.160156 605.519531 418.410156 C 605.519531 416.722656 605.824219 415.484375 606.441406 414.691406 C 607.066406 413.902344 607.996094 413.503906 609.238281 413.503906 C 610.144531 413.503906 610.851562 413.691406 611.363281 414.066406 C 611.882812 414.433594 612.273438 415.097656 612.535156 416.066406 C 612.792969 417.035156 612.925781 418.378906 612.925781 420.097656 C 612.925781 422.214844 612.753906 423.894531 612.410156 425.144531 C 612.074219 426.394531 611.605469 427.269531 611.003906 427.769531 C 610.398438 428.261719 609.605469 428.503906 608.628906 428.503906 Z M 609.238281 414.941406 C 608.507812 414.941406 607.976562 415.199219 607.644531 415.707031 C 607.320312 416.207031 607.160156 417.105469 607.160156 418.394531 C 607.160156 419.6875 607.324219 420.613281 607.660156 421.175781 C 608.003906 421.730469 608.496094 422.003906 609.144531 422.003906 C 609.789062 422.003906 610.300781 421.730469 610.675781 421.175781 C 611.058594 420.613281 611.253906 419.753906 611.253906 418.597656 C 611.253906 417.277344 611.085938 416.339844 610.753906 415.785156 C 610.417969 415.222656 609.914062 414.941406 609.238281 414.941406 Z M 564.332031 409.402344 "/>
<path style=" stroke:none;fill-rule:nonzero;fill:rgb(33.333333%,33.333333%,33.333333%);fill-opacity:1;" d="M 842.859375 413.863281 C 843.316406 413.625 843.863281 413.503906 844.5 413.503906 C 845.132812 413.503906 845.679688 413.625 846.140625 413.863281 C 846.597656 414.105469 846.992188 414.503906 847.328125 415.066406 C 847.660156 415.628906 847.90625 416.402344 848.0625 417.378906 C 848.226562 418.347656 848.3125 419.550781 848.3125 420.988281 C 848.3125 422.425781 848.226562 423.640625 848.0625 424.628906 C 847.90625 425.609375 847.660156 426.378906 847.328125 426.941406 C 846.992188 427.503906 846.597656 427.90625 846.140625 428.144531 C 845.679688 428.386719 845.132812 428.503906 844.5 428.503906 C 843.863281 428.503906 843.316406 428.386719 842.859375 428.144531 C 842.398438 427.90625 842.003906 427.503906 841.671875 426.941406 C 841.347656 426.378906 841.101562 425.609375 840.9375 424.628906 C 840.769531 423.640625 840.6875 422.425781 840.6875 420.988281 C 840.6875 419.550781 840.769531 418.347656 840.9375 417.378906 C 841.101562 416.402344 841.347656 415.628906 841.671875 415.066406 C 842.003906 414.503906 842.398438 414.105469 842.859375 413.863281 Z M 842.328125 423.332031 L 846.265625 416.535156 C 845.910156 415.441406 845.320312 414.894531 844.5 414.894531 C 844.019531 414.894531 843.617188 415.074219 843.296875 415.425781 C 842.984375 415.769531 842.726562 416.402344 842.53125 417.316406 C 842.34375 418.234375 842.25 419.464844 842.25 421.003906 C 842.25 421.671875 842.273438 422.449219 842.328125 423.332031 Z M 842.671875 425.207031 C 843.003906 426.46875 843.613281 427.097656 844.5 427.097656 C 844.976562 427.097656 845.378906 426.925781 845.703125 426.582031 C 846.023438 426.238281 846.28125 425.609375 846.46875 424.691406 C 846.65625 423.765625 846.75 422.535156 846.75 421.003906 C 846.75 419.964844 846.707031 419.078125 846.625 418.347656 Z M 856.390625 415.175781 L 856.390625 415.144531 L 851 415.144531 L 851 413.691406 L 858 413.691406 L 858 415.144531 C 856.289062 419.09375 854.890625 423.480469 853.796875 428.300781 L 852.046875 428.300781 C 853.160156 423.59375 854.609375 419.21875 856.390625 415.175781 Z M 861.5 422.910156 L 861.5 421.472656 L 867.515625 421.472656 L 867.515625 422.910156 Z M 873 426.816406 L 873 426.863281 L 877.90625 426.863281 L 877.90625 428.300781 L 871.109375 428.300781 L 871.109375 426.863281 C 874.453125 423.019531 876.125 419.828125 876.125 417.285156 C 876.125 415.753906 875.503906 414.988281 874.265625 414.988281 C 873.859375 414.988281 873.347656 415.140625 872.734375 415.441406 C 872.128906 415.734375 871.585938 416.097656 871.109375 416.535156 L 871.109375 414.785156 C 872.109375 413.933594 873.238281 413.503906 874.5 413.503906 C 875.632812 413.503906 876.46875 413.816406 877 414.441406 C 877.53125 415.066406 877.796875 416.015625 877.796875 417.285156 C 877.796875 418.621094 877.4375 420.015625 876.71875 421.472656 C 876 422.921875 874.757812 424.703125 873 426.816406 Z M 882.859375 413.863281 C 883.316406 413.625 883.863281 413.503906 884.5 413.503906 C 885.132812 413.503906 885.679688 413.625 886.140625 413.863281 C 886.597656 414.105469 886.992188 414.503906 887.328125 415.066406 C 887.660156 415.628906 887.90625 416.402344 888.0625 417.378906 C 888.226562 418.347656 888.3125 419.550781 888.3125 420.988281 C 888.3125 422.425781 888.226562 423.640625 888.0625 424.628906 C 887.90625 425.609375 887.660156 426.378906 887.328125 426.941406 C 886.992188 427.503906 886.597656 427.90625 886.140625 428.144531 C 885.679688 428.386719 885.132812 428.503906 884.5 428.503906 C 883.863281 428.503906 883.316406 428.386719 882.859375 428.144531 C 882.398438 427.90625 882.003906 427.503906 881.671875 426.941406 C 881.347656 426.378906 881.101562 425.609375 880.9375 424.628906 C 880.769531 423.640625 880.6875 422.425781 880.6875 420.988281 C 880.6875 419.550781 880.769531 418.347656 880.9375 417.378906 C 881.101562 416.402344 881.347656 415.628906 881.671875 415.066406 C 882.003906 414.503906 882.398438 414.105469 882.859375 413.863281 Z M 882.328125 423.332031 L 886.265625 416.535156 C 885.910156 415.441406 885.320312 414.894531 884.5 414.894531 C 884.019531 414.894531 883.617188 415.074219 883.296875 415.425781 C 882.984375 415.769531 882.726562 416.402344 882.53125 417.316406 C 882.34375 418.234375 882.25 419.464844 882.25 421.003906 C 882.25 421.671875 882.273438 422.449219 882.328125 423.332031 Z M 882.671875 425.207031 C 883.003906 426.46875 883.613281 427.097656 884.5 427.097656 C 884.976562 427.097656 885.378906 426.925781 885.703125 426.582031 C 886.023438 426.238281 886.28125 425.609375 886.46875 424.691406 C 886.65625 423.765625 886.75 422.535156 886.75 421.003906 C 886.75 419.964844 886.707031 419.078125 886.625 418.347656 Z M 839.5 409.402344 "/>
<path style=" stroke:none;fill-rule:nonzero;fill:rgb(33.333333%,33.333333%,33.333333%);fill-opacity:1;" d="M 1118.027344 413.863281 C 1118.484375 413.625 1119.03125 413.503906 1119.667969 413.503906 C 1120.300781 413.503906 1120.847656 413.625 1121.308594 413.863281 C 1121.765625 414.105469 1122.160156 414.503906 1122.496094 415.066406 C 1122.828125 415.628906 1123.074219 416.402344 1123.230469 417.378906 C 1123.394531 418.347656 1123.480469 419.550781 1123.480469 420.988281 C 1123.480469 422.425781 1123.394531 423.640625 1123.230469 424.628906 C 1123.074219 425.609375 1122.828125 426.378906 1122.496094 426.941406 C 1122.160156 427.503906 1121.765625 427.90625 1121.308594 428.144531 C 1120.847656 428.386719 1120.300781 428.503906 1119.667969 428.503906 C 1119.03125 428.503906 1118.484375 428.386719 1118.027344 428.144531 C 1117.566406 427.90625 1117.171875 427.503906 1116.839844 426.941406 C 1116.515625 426.378906 1116.269531 425.609375 1116.105469 424.628906 C 1115.9375 423.640625 1115.855469 422.425781 1115.855469 420.988281 C 1115.855469 419.550781 1115.9375 418.347656 1116.105469 417.378906 C 1116.269531 416.402344 1116.515625 415.628906 1116.839844 415.066406 C 1117.171875 414.503906 1117.566406 414.105469 1118.027344 413.863281 Z M 1117.496094 423.332031 L 1121.433594 416.535156 C 1121.078125 415.441406 1120.488281 414.894531 1119.667969 414.894531 C 1119.1875 414.894531 1118.785156 415.074219 1118.464844 415.425781 C 1118.152344 415.769531 1117.894531 416.402344 1117.699219 417.316406 C 1117.511719 418.234375 1117.417969 419.464844 1117.417969 421.003906 C 1117.417969 421.671875 1117.441406 422.449219 1117.496094 423.332031 Z M 1117.839844 425.207031 C 1118.171875 426.46875 1118.78125 427.097656 1119.667969 427.097656 C 1120.144531 427.097656 1120.546875 426.925781 1120.871094 426.582031 C 1121.191406 426.238281 1121.449219 425.609375 1121.636719 424.691406 C 1121.824219 423.765625 1121.917969 422.535156 1121.917969 421.003906 C 1121.917969 419.964844 1121.875 419.078125 1121.792969 418.347656 Z M 1131.558594 415.175781 L 1131.558594 415.144531 L 1126.167969 415.144531 L 1126.167969 413.691406 L 1133.167969 413.691406 L 1133.167969 415.144531 C 1131.457031 419.09375 1130.058594 423.480469 1128.964844 428.300781 L 1127.214844 428.300781 C 1128.328125 423.59375 1129.777344 419.21875 1131.558594 415.175781 Z M 1136.667969 422.910156 L 1136.667969 421.472656 L 1142.683594 421.472656 L 1142.683594 422.910156 Z M 1148.167969 426.816406 L 1148.167969 426.863281 L 1153.074219 426.863281 L 1153.074219 428.300781 L 1146.277344 428.300781 L 1146.277344 426.863281 C 1149.621094 423.019531 1151.292969 419.828125 1151.292969 417.285156 C 1151.292969 415.753906 1150.671875 414.988281 1149.433594 414.988281 C 1149.027344 414.988281 1148.515625 415.140625 1147.902344 415.441406 C 1147.296875 415.734375 1146.753906 416.097656 1146.277344 416.535156 L 1146.277344 414.785156 C 1147.277344 413.933594 1148.40625 413.503906 1149.667969 413.503906 C 1150.800781 413.503906 1151.636719 413.816406 1152.167969 414.441406 C 1152.699219 415.066406 1152.964844 416.015625 1152.964844 417.285156 C 1152.964844 418.621094 1152.605469 420.015625 1151.886719 421.472656 C 1151.167969 422.921875 1149.925781 424.703125 1148.167969 426.816406 Z M 1159.824219 428.300781 L 1159.824219 415.394531 L 1159.792969 415.378906 L 1156.324219 417.394531 L 1156.324219 415.800781 L 1159.824219 413.691406 L 1161.464844 413.691406 L 1161.464844 428.300781 Z M 1114.667969 409.402344 "/>
<path style=" stroke:none;fill-rule:nonzero;fill:rgb(33.333333%,33.333333%,33.333333%);fill-opacity:1;" d="M 1393.191406 413.863281 C 1393.648438 413.625 1394.195312 413.503906 1394.832031 413.503906 C 1395.464844 413.503906 1396.011719 413.625 1396.472656 413.863281 C 1396.929688 414.105469 1397.324219 414.503906 1397.660156 415.066406 C 1397.992188 415.628906 1398.238281 416.402344 1398.394531 417.378906 C 1398.558594 418.347656 1398.644531 419.550781 1398.644531 420.988281 C 1398.644531 422.425781 1398.558594 423.640625 1398.394531 424.628906 C 1398.238281 425.609375 1397.992188 426.378906 1397.660156 426.941406 C 1397.324219 427.503906 1396.929688 427.90625 1396.472656 428.144531 C 1396.011719 428.386719 1395.464844 428.503906 1394.832031 428.503906 C 1394.195312 428.503906 1393.648438 428.386719 1393.191406 428.144531 C 1392.730469 427.90625 1392.335938 427.503906 1392.003906 426.941406 C 1391.679688 426.378906 1391.433594 425.609375 1391.269531 424.628906 C 1391.101562 423.640625 1391.019531 422.425781 1391.019531 420.988281 C 1391.019531 419.550781 1391.101562 418.347656 1391.269531 417.378906 C 1391.433594 416.402344 1391.679688 415.628906 1392.003906 415.066406 C 1392.335938 414.503906 1392.730469 414.105469 1393.191406 413.863281 Z M 1392.660156 423.332031 L 1396.597656 416.535156 C 1396.242188 415.441406 1395.652344 414.894531 1394.832031 414.894531 C 1394.351562 414.894531 1393.949219 415.074219 1393.628906 415.425781 C 1393.316406 415.769531 1393.058594 416.402344 1392.863281 417.316406 C 1392.675781 418.234375 1392.582031 419.464844 1392.582031 421.003906 C 1392.582031 421.671875 1392.605469 422.449219 1392.660156 423.332031 Z M 1393.003906 425.207031 C 1393.335938 426.46875 1393.945312 427.097656 1394.832031 427.097656 C 1395.308594 427.097656 1395.710938 426.925781 1396.035156 426.582031 C 1396.355469 426.238281 1396.613281 425.609375 1396.800781 424.691406 C 1396.988281 423.765625 1397.082031 422.535156 1397.082031 421.003906 C 1397.082031 419.964844 1397.039062 419.078125 1396.957031 418.347656 Z M 1406.722656 415.175781 L 1406.722656 415.144531 L 1401.332031 415.144531 L 1401.332031 413.691406 L 1408.332031 413.691406 L 1408.332031 415.144531 C 1406.621094 419.09375 1405.222656 423.480469 1404.128906 428.300781 L 1402.378906 428.300781 C 1403.492188 423.59375 1404.941406 419.21875 1406.722656 415.175781 Z M 1411.832031 422.910156 L 1411.832031 421.472656 L 1417.847656 421.472656 L 1417.847656 422.910156 Z M 1423.332031 426.816406 L 1423.332031 426.863281 L 1428.238281 426.863281 L 1428.238281 428.300781 L 1421.441406 428.300781 L 1421.441406 426.863281 C 1424.785156 423.019531 1426.457031 419.828125 1426.457031 417.285156 C 1426.457031 415.753906 1425.835938 414.988281 1424.597656 414.988281 C 1424.191406 414.988281 1423.679688 415.140625 1423.066406 415.441406 C 1422.460938 415.734375 1421.917969 416.097656 1421.441406 416.535156 L 1421.441406 414.785156 C 1422.441406 413.933594 1423.570312 413.503906 1424.832031 413.503906 C 1425.964844 413.503906 1426.800781 413.816406 1427.332031 414.441406 C 1427.863281 415.066406 1428.128906 416.015625 1428.128906 417.285156 C 1428.128906 418.621094 1427.769531 420.015625 1427.050781 421.472656 C 1426.332031 422.921875 1425.089844 424.703125 1423.332031 426.816406 Z M 1433.332031 426.816406 L 1433.332031 426.863281 L 1438.238281 426.863281 L 1438.238281 428.300781 L 1431.441406 428.300781 L 1431.441406 426.863281 C 1434.785156 423.019531 1436.457031 419.828125 1436.457031 417.285156 C 1436.457031 415.753906 1435.835938 414.988281 1434.597656 414.988281 C 1434.191406 414.988281 1433.679688 415.140625 1433.066406 415.441406 C 1432.460938 415.734375 1431.917969 416.097656 1431.441406 416.535156 L 1431.441406 414.785156 C 1432.441406 413.933594 1433.570312 413.503906 1434.832031 413.503906 C 1435.964844 413.503906 1436.800781 413.816406 1437.332031 414.441406 C 1437.863281 415.066406 1438.128906 416.015625 1438.128906 417.285156 C 1438.128906 418.621094 1437.769531 420.015625 1437.050781 421.472656 C 1436.332031 422.921875 1435.089844 424.703125 1433.332031 426.816406 Z M 1389.832031 409.402344 "/>
<path style=" stroke:none;fill-rule:nonzero;fill:rgb(33.333333%,33.333333%,33.333333%);fill-opacity:1;" d="M 1668.359375 413.863281 C 1668.816406 413.625 1669.363281 413.503906 1670 413.503906 C 1670.632812 413.503906 1671.179688 413.625 1671.640625 413.863281 C 1672.097656 414.105469 1672.492188 414.503906 1672.828125 415.066406 C 1673.160156 415.628906 1673.40625 416.402344 1673.5625 417.378906 C 1673.726562 418.347656 1673.8125 419.550781 1673.8125 420.988281 C 1673.8125 422.425781 1673.726562 423.640625 1673.5625 424.628906 C 1673.40625 425.609375 1673.160156 426.378906 1672.828125 426.941406 C 1672.492188 427.503906 1672.097656 427.90625 1671.640625 428.144531 C 1671.179688 428.386719 1670.632812 428.503906 1670 428.503906 C 1669.363281 428.503906 1668.816406 428.386719 1668.359375 428.144531 C 1667.898438 427.90625 1667.503906 427.503906 1667.171875 426.941406 C 1666.847656 426.378906 1666.601562 425.609375 1666.4375 424.628906 C 1666.269531 423.640625 1666.1875 422.425781 1666.1875 420.988281 C 1666.1875 419.550781 1666.269531 418.347656 1666.4375 417.378906 C 1666.601562 416.402344 1666.847656 415.628906 1667.171875 415.066406 C 1667.503906 414.503906 1667.898438 414.105469 1668.359375 413.863281 Z M 1667.828125 423.332031 L 1671.765625 416.535156 C 1671.410156 415.441406 1670.820312 414.894531 1670 414.894531 C 1669.519531 414.894531 1669.117188 415.074219 1668.796875 415.425781 C 1668.484375 415.769531 1668.226562 416.402344 1668.03125 417.316406 C 1667.84375 418.234375 1667.75 419.464844 1667.75 421.003906 C 1667.75 421.671875 1667.773438 422.449219 1667.828125 423.332031 Z M 1668.171875 425.207031 C 1668.503906 426.46875 1669.113281 427.097656 1670 427.097656 C 1670.476562 427.097656 1670.878906 426.925781 1671.203125 426.582031 C 1671.523438 426.238281 1671.78125 425.609375 1671.96875 424.691406 C 1672.15625 423.765625 1672.25 422.535156 1672.25 421.003906 C 1672.25 419.964844 1672.207031 419.078125 1672.125 418.347656 Z M 1681.890625 415.175781 L 1681.890625 415.144531 L 1676.5 415.144531 L 1676.5 413.691406 L 1683.5 413.691406 L 1683.5 415.144531 C 1681.789062 419.09375 1680.390625 423.480469 1679.296875 428.300781 L 1677.546875 428.300781 C 1678.660156 423.59375 1680.109375 419.21875 1681.890625 415.175781 Z M 1687 422.910156 L 1687 421.472656 L 1693.015625 421.472656 L 1693.015625 422.910156 Z M 1698.5 426.816406 L 1698.5 426.863281 L 1703.40625 426.863281 L 1703.40625 428.300781 L 1696.609375 428.300781 L 1696.609375 426.863281 C 1699.953125 423.019531 1701.625 419.828125 1701.625 417.285156 C 1701.625 415.753906 1701.003906 414.988281 1699.765625 414.988281 C 1699.359375 414.988281 1698.847656 415.140625 1698.234375 415.441406 C 1697.628906 415.734375 1697.085938 416.097656 1696.609375 416.535156 L 1696.609375 414.785156 C 1697.609375 413.933594 1698.738281 413.503906 1700 413.503906 C 1701.132812 413.503906 1701.96875 413.816406 1702.5 414.441406 C 1703.03125 415.066406 1703.296875 416.015625 1703.296875 417.285156 C 1703.296875 418.621094 1702.9375 420.015625 1702.21875 421.472656 C 1701.5 422.921875 1700.257812 424.703125 1698.5 426.816406 Z M 1711.609375 415.175781 L 1711.609375 415.144531 L 1706.609375 415.144531 L 1706.609375 413.691406 L 1713.5 413.691406 L 1713.5 415.144531 L 1709.90625 419.707031 L 1709.90625 419.753906 L 1710.09375 419.753906 C 1711.3125 419.753906 1712.195312 420.097656 1712.75 420.785156 C 1713.3125 421.464844 1713.59375 422.574219 1713.59375 424.113281 C 1713.59375 427.042969 1712.296875 428.503906 1709.703125 428.503906 C 1708.734375 428.503906 1707.765625 428.300781 1706.796875 427.894531 L 1706.796875 426.160156 C 1707.828125 426.734375 1708.691406 427.019531 1709.390625 427.019531 C 1710.253906 427.019531 1710.890625 426.792969 1711.296875 426.332031 C 1711.710938 425.863281 1711.921875 425.125 1711.921875 424.113281 C 1711.921875 422.917969 1711.753906 422.128906 1711.421875 421.753906 C 1711.085938 421.378906 1710.410156 421.191406 1709.390625 421.191406 L 1708.015625 421.191406 L 1708.015625 419.753906 Z M 1665 409.402344 "/>
<path style="fill:none;stroke-width:1;stroke-linecap:butt;stroke-linejoin:miter;stroke:rgb(0%,0%,0%);stroke-opacity:0.0980392;stroke-miterlimit:10;" d="M 19 32.5 L 19 194.5 " transform="matrix(2,0,0,2,0,0)"/>
<path style=" stroke:none;fill-rule:nonzero;fill:rgb(33.333333%,33.333333%,33.333333%);fill-opacity:1;" d="M 9.359375 379.863281 C 9.816406 379.625 10.363281 379.503906 11 379.503906 C 11.632812 379.503906 12.179688 379.625 12.640625 379.863281 C 13.097656 380.105469 13.492188 380.503906 13.828125 381.066406 C 14.160156 381.628906 14.40625 382.402344 14.5625 383.378906 C 14.726562 384.347656 14.8125 385.550781 14.8125 386.988281 C 14.8125 388.425781 14.726562 389.640625 14.5625 390.628906 C 14.40625 391.609375 14.160156 392.378906 13.828125 392.941406 C 13.492188 393.503906 13.097656 393.90625 12.640625 394.144531 C 12.179688 394.386719 11.632812 394.503906 11 394.503906 C 10.363281 394.503906 9.816406 394.386719 9.359375 394.144531 C 8.898438 393.90625 8.503906 393.503906 8.171875 392.941406 C 7.847656 392.378906 7.601562 391.609375 7.4375 390.628906 C 7.269531 389.640625 7.1875 388.425781 7.1875 386.988281 C 7.1875 385.550781 7.269531 384.347656 7.4375 383.378906 C 7.601562 382.402344 7.847656 381.628906 8.171875 381.066406 C 8.503906 380.503906 8.898438 380.105469 9.359375 379.863281 Z M 8.828125 389.332031 L 12.765625 382.535156 C 12.410156 381.441406 11.820312 380.894531 11 380.894531 C 10.519531 380.894531 10.117188 381.074219 9.796875 381.425781 C 9.484375 381.769531 9.226562 382.402344 9.03125 383.316406 C 8.84375 384.234375 8.75 385.464844 8.75 387.003906 C 8.75 387.671875 8.773438 388.449219 8.828125 389.332031 Z M 9.171875 391.207031 C 9.503906 392.46875 10.113281 393.097656 11 393.097656 C 11.476562 393.097656 11.878906 392.925781 12.203125 392.582031 C 12.523438 392.238281 12.78125 391.609375 12.96875 390.691406 C 13.15625 389.765625 13.25 388.535156 13.25 387.003906 C 13.25 385.964844 13.207031 385.078125 13.125 384.347656 Z M 6 375.402344 "/>
<path style=" stroke:none;fill-rule:nonzero;fill:rgb(33.333333%,33.333333%,33.333333%);fill-opacity:1;" d="M 11.15625 72.699219 L 11.15625 59.792969 L 11.125 59.777344 L 7.65625 61.792969 L 7.65625 60.199219 L 11.15625 58.089844 L 12.796875 58.089844 L 12.796875 72.699219 Z M 6 53.800781 "/>
<g clip-path="url(#UGWvKuiRnu__clip1)" clip-rule="nonzero">
<path style="fill:none;stroke-width:3;stroke-linecap:butt;stroke-linejoin:miter;stroke:rgb(23.137255%,50.980392%,96.470588%);stroke-opacity:1;stroke-miterlimit:10;" d="M 19 194 C 60.275391 194 115.308594 194 156.583984 194 C 197.857422 194 252.892578 194 294.166016 194 C 335.441406 194 390.474609 194 431.75 194 C 473.025391 194 528.058594 194 569.333984 194 C 610.607422 194 665.642578 194 706.916016 194 C 748.191406 194 803.224609 194 844.5 194 " transform="matrix(2,0,0,2,0,0)"/>
</g>
<path style=" stroke:none;fill-rule:nonzero;fill:rgb(23.137255%,50.980392%,96.470588%);fill-opacity:1;" d="M 48 388 C 48 393.523438 43.523438 398 38 398 C 32.476562 398 28 393.523438 28 388 C 28 382.476562 32.476562 378 38 378 C 43.523438 378 48 382.476562 48 388 Z M 48 388 "/>
<g clip-path="url(#UGWvKuiRnu__clip2)" clip-rule="nonzero">
<path style="fill:none;stroke-width:2;stroke-linecap:butt;stroke-linejoin:miter;stroke:rgb(5.098039%,5.098039%,5.098039%);stroke-opacity:1;stroke-miterlimit:10;" d="M 24 194 C 24 196.761719 21.761719 199 19 199 C 16.238281 199 14 196.761719 14 194 C 14 191.238281 16.238281 189 19 189 C 21.761719 189 24 191.238281 24 194 Z M 24 194 " transform="matrix(2,0,0,2,0,0)"/>
</g>
<path style=" stroke:none;fill-rule:nonzero;fill:rgb(23.137255%,50.980392%,96.470588%);fill-opacity:1;" d="M 323.167969 388 C 323.167969 393.523438 318.691406 398 313.167969 398 C 307.644531 398 303.167969 393.523438 303.167969 388 C 303.167969 382.476562 307.644531 378 313.167969 378 C 318.691406 378 323.167969 382.476562 323.167969 388 Z M 323.167969 388 "/>
<g clip-path="url(#UGWvKuiRnu__clip3)" clip-rule="nonzero">
<path style="fill:none;stroke-width:2;stroke-linecap:butt;stroke-linejoin:miter;stroke:rgb(5.098039%,5.098039%,5.098039%);stroke-opacity:1;stroke-miterlimit:10;" d="M 161.583984 194 C 161.583984 196.761719 159.345703 199 156.583984 199 C 153.822266 199 151.583984 196.761719 151.583984 194 C 151.583984 191.238281 153.822266 189 156.583984 189 C 159.345703 189 161.583984 191.238281 161.583984 194 Z M 161.583984 194 " transform="matrix(2,0,0,2,0,0)"/>
</g>
<path style=" stroke:none;fill-rule:nonzero;fill:rgb(23.137255%,50.980392%,96.470588%);fill-opacity:1;" d="M 598.332031 388 C 598.332031 393.523438 593.855469 398 588.332031 398 C 582.808594 398 578.332031 393.523438 578.332031 388 C 578.332031 382.476562 582.808594 378 588.332031 378 C 593.855469 378 598.332031 382.476562 598.332031 388 Z M 598.332031 388 "/>
<g clip-path="url(#UGWvKuiRnu__clip4)" clip-rule="nonzero">
<path style="fill:none;stroke-width:2;stroke-linecap:butt;stroke-linejoin:miter;stroke:rgb(5.098039%,5.098039%,5.098039%);stroke-opacity:1;stroke-miterlimit:10;" d="M 299.166016 194 C 299.166016 196.761719 296.927734 199 294.166016 199 C 291.404297 199 289.166016 196.761719 289.166016 194 C 289.166016 191.238281 291.404297 189 294.166016 189 C 296.927734 189 299.166016 191.238281 299.166016 194 Z M 299.166016 194 " transform="matrix(2,0,0,2,0,0)"/>
</g>
<path style=" stroke:none;fill-rule:nonzero;fill:rgb(23.137255%,50.980392%,96.470588%);fill-opacity:1;" d="M 873.5 388 C 873.5 393.523438 869.023438 398 863.5 398 C 857.976562 398 853.5 393.523438 853.5 388 C 853.5 382.476562 857.976562 378 863.5 378 C 869.023438 378 873.5 382.476562 873.5 388 Z M 873.5 388 "/>
<g clip-path="url(#UGWvKuiRnu__clip5)" clip-rule="nonzero">
<path style="fill:none;stroke-width:2;stroke-linecap:butt;stroke-linejoin:miter;stroke:rgb(5.098039%,5.098039%,5.098039%);stroke-opacity:1;stroke-miterlimit:10;" d="M 436.75 194 C 436.75 196.761719 434.511719 199 431.75 199 C 428.988281 199 426.75 196.761719 426.75 194 C 426.75 191.238281 428.988281 189 431.75 189 C 434.511719 189 436.75 191.238281 436.75 194 Z M 436.75 194 " transform="matrix(2,0,0,2,0,0)"/>
</g>
<path style=" stroke:none;fill-rule:nonzero;fill:rgb(23.137255%,50.980392%,96.470588%);fill-opacity:1;" d="M 1148.667969 388 C 1148.667969 393.523438 1144.191406 398 1138.667969 398 C 1133.144531 398 1128.667969 393.523438 1128.667969 388 C 1128.667969 382.476562 1133.144531 378 1138.667969 378 C 1144.191406 378 1148.667969 382.476562 1148.667969 388 Z M 1148.667969 388 "/>
<g clip-path="url(#UGWvKuiRnu__clip6)" clip-rule="nonzero">
<path style="fill:none;stroke-width:2;stroke-linecap:butt;stroke-linejoin:miter;stroke:rgb(5.098039%,5.098039%,5.098039%);stroke-opacity:1;stroke-miterlimit:10;" d="M 574.333984 194 C 574.333984 196.761719 572.095703 199 569.333984 199 C 566.572266 199 564.333984 196.761719 564.333984 194 C 564.333984 191.238281 566.572266 189 569.333984 189 C 572.095703 189 574.333984 191.238281 574.333984 194 Z M 574.333984 194 " transform="matrix(2,0,0,2,0,0)"/>
</g>
<path style=" stroke:none;fill-rule:nonzero;fill:rgb(23.137255%,50.980392%,96.470588%);fill-opacity:1;" d="M 1423.832031 388 C 1423.832031 393.523438 1419.355469 398 1413.832031 398 C 1408.308594 398 1403.832031 393.523438 1403.832031 388 C 1403.832031 382.476562 1408.308594 378 1413.832031 378 C 1419.355469 378 1423.832031 382.476562 1423.832031 388 Z M 1423.832031 388 "/>
<g clip-path="url(#UGWvKuiRnu__clip7)" clip-rule="nonzero">
<path style="fill:none;stroke-width:2;stroke-linecap:butt;stroke-linejoin:miter;stroke:rgb(5.098039%,5.098039%,5.098039%);stroke-opacity:1;stroke-miterlimit:10;" d="M 711.916016 194 C 711.916016 196.761719 709.677734 199 706.916016 199 C 704.154297 199 701.916016 196.761719 701.916016 194 C 701.916016 191.238281 704.154297 189 706.916016 189 C 709.677734 189 711.916016 191.238281 711.916016 194 Z M 711.916016 194 " transform="matrix(2,0,0,2,0,0)"/>
</g>
<path style=" stroke:none;fill-rule:nonzero;fill:rgb(23.137255%,50.980392%,96.470588%);fill-opacity:1;" d="M 1699 388 C 1699 393.523438 1694.523438 398 1689 398 C 1683.476562 398 1679 393.523438 1679 388 C 1679 382.476562 1683.476562 378 1689 378 C 1694.523438 378 1699 382.476562 1699 388 Z M 1699 388 "/>
<g clip-path="url(#UGWvKuiRnu__clip8)" clip-rule="nonzero">
<path style="fill:none;stroke-width:2;stroke-linecap:butt;stroke-linejoin:miter;stroke:rgb(5.098039%,5.098039%,5.098039%);stroke-opacity:1;stroke-miterlimit:10;" d="M 849.5 194 C 849.5 196.761719 847.261719 199 844.5 199 C 841.738281 199 839.5 196.761719 839.5 194 C 839.5 191.238281 841.738281 189 844.5 189 C 847.261719 189 849.5 191.238281 849.5 194 Z M 849.5 194 " transform="matrix(2,0,0,2,0,0)"/>
</g>
<path style=" stroke:none;fill-rule:nonzero;fill:rgb(62.745098%,62.745098%,62.745098%);fill-opacity:1;" d="M 1689.359375 341.863281 C 1689.816406 341.625 1690.363281 341.503906 1691 341.503906 C 1691.632812 341.503906 1692.179688 341.625 1692.640625 341.863281 C 1693.097656 342.105469 1693.492188 342.503906 1693.828125 343.066406 C 1694.160156 343.628906 1694.40625 344.402344 1694.5625 345.378906 C 1694.726562 346.347656 1694.8125 347.550781 1694.8125 348.988281 C 1694.8125 350.425781 1694.726562 351.640625 1694.5625 352.628906 C 1694.40625 353.609375 1694.160156 354.378906 1693.828125 354.941406 C 1693.492188 355.503906 1693.097656 355.90625 1692.640625 356.144531 C 1692.179688 356.386719 1691.632812 356.503906 1691 356.503906 C 1690.363281 356.503906 1689.816406 356.386719 1689.359375 356.144531 C 1688.898438 355.90625 1688.503906 355.503906 1688.171875 354.941406 C 1687.847656 354.378906 1687.601562 353.609375 1687.4375 352.628906 C 1687.269531 351.640625 1687.1875 350.425781 1687.1875 348.988281 C 1687.1875 347.550781 1687.269531 346.347656 1687.4375 345.378906 C 1687.601562 344.402344 1687.847656 343.628906 1688.171875 343.066406 C 1688.503906 342.503906 1688.898438 342.105469 1689.359375 341.863281 Z M 1688.828125 351.332031 L 1692.765625 344.535156 C 1692.410156 343.441406 1691.820312 342.894531 1691 342.894531 C 1690.519531 342.894531 1690.117188 343.074219 1689.796875 343.425781 C 1689.484375 343.769531 1689.226562 344.402344 1689.03125 345.316406 C 1688.84375 346.234375 1688.75 347.464844 1688.75 349.003906 C 1688.75 349.671875 1688.773438 350.449219 1688.828125 351.332031 Z M 1689.171875 353.207031 C 1689.503906 354.46875 1690.113281 355.097656 1691 355.097656 C 1691.476562 355.097656 1691.878906 354.925781 1692.203125 354.582031 C 1692.523438 354.238281 1692.78125 353.609375 1692.96875 352.691406 C 1693.15625 351.765625 1693.25 350.535156 1693.25 349.003906 C 1693.25 347.964844 1693.207031 347.078125 1693.125 346.347656 Z M 1686 337.402344 "/>
<path style=" stroke:none;fill-rule:nonzero;fill:rgb(62.745098%,62.745098%,62.745098%);fill-opacity:1;" d="M 1413.359375 341.863281 C 1413.816406 341.625 1414.363281 341.503906 1415 341.503906 C 1415.632812 341.503906 1416.179688 341.625 1416.640625 341.863281 C 1417.097656 342.105469 1417.492188 342.503906 1417.828125 343.066406 C 1418.160156 343.628906 1418.40625 344.402344 1418.5625 345.378906 C 1418.726562 346.347656 1418.8125 347.550781 1418.8125 348.988281 C 1418.8125 350.425781 1418.726562 351.640625 1418.5625 352.628906 C 1418.40625 353.609375 1418.160156 354.378906 1417.828125 354.941406 C 1417.492188 355.503906 1417.097656 355.90625 1416.640625 356.144531 C 1416.179688 356.386719 1415.632812 356.503906 1415 356.503906 C 1414.363281 356.503906 1413.816406 356.386719 1413.359375 356.144531 C 1412.898438 355.90625 1412.503906 355.503906 1412.171875 354.941406 C 1411.847656 354.378906 1411.601562 353.609375 1411.4375 352.628906 C 1411.269531 351.640625 1411.1875 350.425781 1411.1875 348.988281 C 1411.1875 347.550781 1411.269531 346.347656 1411.4375 345.378906 C 1411.601562 344.402344 1411.847656 343.628906 1412.171875 343.066406 C 1412.503906 342.503906 1412.898438 342.105469 1413.359375 341.863281 Z M 1412.828125 351.332031 L 1416.765625 344.535156 C 1416.410156 343.441406 1415.820312 342.894531 1415 342.894531 C 1414.519531 342.894531 1414.117188 343.074219 1413.796875 343.425781 C 1413.484375 343.769531 1413.226562 344.402344 1413.03125 345.316406 C 1412.84375 346.234375 1412.75 347.464844 1412.75 349.003906 C 1412.75 349.671875 1412.773438 350.449219 1412.828125 351.332031 Z M 1413.171875 353.207031 C 1413.503906 354.46875 1414.113281 355.097656 1415 355.097656 C 1415.476562 355.097656 1415.878906 354.925781 1416.203125 354.582031 C 1416.523438 354.238281 1416.78125 353.609375 1416.96875 352.691406 C 1417.15625 351.765625 1417.25 350.535156 1417.25 349.003906 C 1417.25 347.964844 1417.207031 347.078125 1417.125 346.347656 Z M 1410 337.402344 "/>
<path style=" stroke:none;fill-rule:nonzero;fill:rgb(62.745098%,62.745098%,62.745098%);fill-opacity:1;" d="M 1137.359375 341.863281 C 1137.816406 341.625 1138.363281 341.503906 1139 341.503906 C 1139.632812 341.503906 1140.179688 341.625 1140.640625 341.863281 C 1141.097656 342.105469 1141.492188 342.503906 1141.828125 343.066406 C 1142.160156 343.628906 1142.40625 344.402344 1142.5625 345.378906 C 1142.726562 346.347656 1142.8125 347.550781 1142.8125 348.988281 C 1142.8125 350.425781 1142.726562 351.640625 1142.5625 352.628906 C 1142.40625 353.609375 1142.160156 354.378906 1141.828125 354.941406 C 1141.492188 355.503906 1141.097656 355.90625 1140.640625 356.144531 C 1140.179688 356.386719 1139.632812 356.503906 1139 356.503906 C 1138.363281 356.503906 1137.816406 356.386719 1137.359375 356.144531 C 1136.898438 355.90625 1136.503906 355.503906 1136.171875 354.941406 C 1135.847656 354.378906 1135.601562 353.609375 1135.4375 352.628906 C 1135.269531 351.640625 1135.1875 350.425781 1135.1875 348.988281 C 1135.1875 347.550781 1135.269531 346.347656 1135.4375 345.378906 C 1135.601562 344.402344 1135.847656 343.628906 1136.171875 343.066406 C 1136.503906 342.503906 1136.898438 342.105469 1137.359375 341.863281 Z M 1136.828125 351.332031 L 1140.765625 344.535156 C 1140.410156 343.441406 1139.820312 342.894531 1139 342.894531 C 1138.519531 342.894531 1138.117188 343.074219 1137.796875 343.425781 C 1137.484375 343.769531 1137.226562 344.402344 1137.03125 345.316406 C 1136.84375 346.234375 1136.75 347.464844 1136.75 349.003906 C 1136.75 349.671875 1136.773438 350.449219 1136.828125 351.332031 Z M 1137.171875 353.207031 C 1137.503906 354.46875 1138.113281 355.097656 1139 355.097656 C 1139.476562 355.097656 1139.878906 354.925781 1140.203125 354.582031 C 1140.523438 354.238281 1140.78125 353.609375 1140.96875 352.691406 C 1141.15625 351.765625 1141.25 350.535156 1141.25 349.003906 C 1141.25 347.964844 1141.207031 347.078125 1141.125 346.347656 Z M 1134 337.402344 "/>
<path style=" stroke:none;fill-rule:nonzero;fill:rgb(62.745098%,62.745098%,62.745098%);fill-opacity:1;" d="M 863.359375 341.863281 C 863.816406 341.625 864.363281 341.503906 865 341.503906 C 865.632812 341.503906 866.179688 341.625 866.640625 341.863281 C 867.097656 342.105469 867.492188 342.503906 867.828125 343.066406 C 868.160156 343.628906 868.40625 344.402344 868.5625 345.378906 C 868.726562 346.347656 868.8125 347.550781 868.8125 348.988281 C 868.8125 350.425781 868.726562 351.640625 868.5625 352.628906 C 868.40625 353.609375 868.160156 354.378906 867.828125 354.941406 C 867.492188 355.503906 867.097656 355.90625 866.640625 356.144531 C 866.179688 356.386719 865.632812 356.503906 865 356.503906 C 864.363281 356.503906 863.816406 356.386719 863.359375 356.144531 C 862.898438 355.90625 862.503906 355.503906 862.171875 354.941406 C 861.847656 354.378906 861.601562 353.609375 861.4375 352.628906 C 861.269531 351.640625 861.1875 350.425781 861.1875 348.988281 C 861.1875 347.550781 861.269531 346.347656 861.4375 345.378906 C 861.601562 344.402344 861.847656 343.628906 862.171875 343.066406 C 862.503906 342.503906 862.898438 342.105469 863.359375 341.863281 Z M 862.828125 351.332031 L 866.765625 344.535156 C 866.410156 343.441406 865.820312 342.894531 865 342.894531 C 864.519531 342.894531 864.117188 343.074219 863.796875 343.425781 C 863.484375 343.769531 863.226562 344.402344 863.03125 345.316406 C 862.84375 346.234375 862.75 347.464844 862.75 349.003906 C 862.75 349.671875 862.773438 350.449219 862.828125 351.332031 Z M 863.171875 353.207031 C 863.503906 354.46875 864.113281 355.097656 865 355.097656 C 865.476562 355.097656 865.878906 354.925781 866.203125 354.582031 C 866.523438 354.238281 866.78125 353.609375 866.96875 352.691406 C 867.15625 351.765625 867.25 350.535156 867.25 349.003906 C 867.25 347.964844 867.207031 347.078125 867.125 346.347656 Z M 860 337.402344 "/>
<path style=" stroke:none;fill-rule:nonzero;fill:rgb(62.745098%,62.745098%,62.745098%);fill-opacity:1;" d="M 587.359375 341.863281 C 587.816406 341.625 588.363281 341.503906 589 341.503906 C 589.632812 341.503906 590.179688 341.625 590.640625 341.863281 C 591.097656 342.105469 591.492188 342.503906 591.828125 343.066406 C 592.160156 343.628906 592.40625 344.402344 592.5625 345.378906 C 592.726562 346.347656 592.8125 347.550781 592.8125 348.988281 C 592.8125 350.425781 592.726562 351.640625 592.5625 352.628906 C 592.40625 353.609375 592.160156 354.378906 591.828125 354.941406 C 591.492188 355.503906 591.097656 355.90625 590.640625 356.144531 C 590.179688 356.386719 589.632812 356.503906 589 356.503906 C 588.363281 356.503906 587.816406 356.386719 587.359375 356.144531 C 586.898438 355.90625 586.503906 355.503906 586.171875 354.941406 C 585.847656 354.378906 585.601562 353.609375 585.4375 352.628906 C 585.269531 351.640625 585.1875 350.425781 585.1875 348.988281 C 585.1875 347.550781 585.269531 346.347656 585.4375 345.378906 C 585.601562 344.402344 585.847656 343.628906 586.171875 343.066406 C 586.503906 342.503906 586.898438 342.105469 587.359375 341.863281 Z M 586.828125 351.332031 L 590.765625 344.535156 C 590.410156 343.441406 589.820312 342.894531 589 342.894531 C 588.519531 342.894531 588.117188 343.074219 587.796875 343.425781 C 587.484375 343.769531 587.226562 344.402344 587.03125 345.316406 C 586.84375 346.234375 586.75 347.464844 586.75 349.003906 C 586.75 349.671875 586.773438 350.449219 586.828125 351.332031 Z M 587.171875 353.207031 C 587.503906 354.46875 588.113281 355.097656 589 355.097656 C 589.476562 355.097656 589.878906 354.925781 590.203125 354.582031 C 590.523438 354.238281 590.78125 353.609375 590.96875 352.691406 C 591.15625 351.765625 591.25 350.535156 591.25 349.003906 C 591.25 347.964844 591.207031 347.078125 591.125 346.347656 Z M 584 337.402344 "/>
<path style=" stroke:none;fill-rule:nonzero;fill:rgb(62.745098%,62.745098%,62.745098%);fill-opacity:1;" d="M 313.359375 341.863281 C 313.816406 341.625 314.363281 341.503906 315 341.503906 C 315.632812 341.503906 316.179688 341.625 316.640625 341.863281 C 317.097656 342.105469 317.492188 342.503906 317.828125 343.066406 C 318.160156 343.628906 318.40625 344.402344 318.5625 345.378906 C 318.726562 346.347656 318.8125 347.550781 318.8125 348.988281 C 318.8125 350.425781 318.726562 351.640625 318.5625 352.628906 C 318.40625 353.609375 318.160156 354.378906 317.828125 354.941406 C 317.492188 355.503906 317.097656 355.90625 316.640625 356.144531 C 316.179688 356.386719 315.632812 356.503906 315 356.503906 C 314.363281 356.503906 313.816406 356.386719 313.359375 356.144531 C 312.898438 355.90625 312.503906 355.503906 312.171875 354.941406 C 311.847656 354.378906 311.601562 353.609375 311.4375 352.628906 C 311.269531 351.640625 311.1875 350.425781 311.1875 348.988281 C 311.1875 347.550781 311.269531 346.347656 311.4375 345.378906 C 311.601562 344.402344 311.847656 343.628906 312.171875 343.066406 C 312.503906 342.503906 312.898438 342.105469 313.359375 341.863281 Z M 312.828125 351.332031 L 316.765625 344.535156 C 316.410156 343.441406 315.820312 342.894531 315 342.894531 C 314.519531 342.894531 314.117188 343.074219 313.796875 343.425781 C 313.484375 343.769531 313.226562 344.402344 313.03125 345.316406 C 312.84375 346.234375 312.75 347.464844 312.75 349.003906 C 312.75 349.671875 312.773438 350.449219 312.828125 351.332031 Z M 313.171875 353.207031 C 313.503906 354.46875 314.113281 355.097656 315 355.097656 C 315.476562 355.097656 315.878906 354.925781 316.203125 354.582031 C 316.523438 354.238281 316.78125 353.609375 316.96875 352.691406 C 317.15625 351.765625 317.25 350.535156 317.25 349.003906 C 317.25 347.964844 317.207031 347.078125 317.125 346.347656 Z M 310 337.402344 "/>
<path style=" stroke:none;fill-rule:nonzero;fill:rgb(62.745098%,62.745098%,62.745098%);fill-opacity:1;" d="M 37.359375 341.863281 C 37.816406 341.625 38.363281 341.503906 39 341.503906 C 39.632812 341.503906 40.179688 341.625 40.640625 341.863281 C 41.097656 342.105469 41.492188 342.503906 41.828125 343.066406 C 42.160156 343.628906 42.40625 344.402344 42.5625 345.378906 C 42.726562 346.347656 42.8125 347.550781 42.8125 348.988281 C 42.8125 350.425781 42.726562 351.640625 42.5625 352.628906 C 42.40625 353.609375 42.160156 354.378906 41.828125 354.941406 C 41.492188 355.503906 41.097656 355.90625 40.640625 356.144531 C 40.179688 356.386719 39.632812 356.503906 39 356.503906 C 38.363281 356.503906 37.816406 356.386719 37.359375 356.144531 C 36.898438 355.90625 36.503906 355.503906 36.171875 354.941406 C 35.847656 354.378906 35.601562 353.609375 35.4375 352.628906 C 35.269531 351.640625 35.1875 350.425781 35.1875 348.988281 C 35.1875 347.550781 35.269531 346.347656 35.4375 345.378906 C 35.601562 344.402344 35.847656 343.628906 36.171875 343.066406 C 36.503906 342.503906 36.898438 342.105469 37.359375 341.863281 Z M 36.828125 351.332031 L 40.765625 344.535156 C 40.410156 343.441406 39.820312 342.894531 39 342.894531 C 38.519531 342.894531 38.117188 343.074219 37.796875 343.425781 C 37.484375 343.769531 37.226562 344.402344 37.03125 345.316406 C 36.84375 346.234375 36.75 347.464844 36.75 349.003906 C 36.75 349.671875 36.773438 350.449219 36.828125 351.332031 Z M 37.171875 353.207031 C 37.503906 354.46875 38.113281 355.097656 39 355.097656 C 39.476562 355.097656 39.878906 354.925781 40.203125 354.582031 C 40.523438 354.238281 40.78125 353.609375 40.96875 352.691406 C 41.15625 351.765625 41.25 350.535156 41.25 349.003906 C 41.25 347.964844 41.207031 347.078125 41.125 346.347656 Z M 34 337.402344 "/>
</g>
</svg>
