<?xml version="1.0" encoding="UTF-8"?>
<svg xmlns="http://www.w3.org/2000/svg" xmlns:xlink="http://www.w3.org/1999/xlink" width="1720pt" height="440pt" viewBox="0 0 1720 440" version="1.1">
<defs>
<clipPath id="hS1VJrDWva__clip1">
  <path d="M 38 66.398438 L 1689 66.398438 L 1689 388 L 38 388 Z M 38 66.398438 "/>
</clipPath>
<clipPath id="hS1VJrDWva__clip2">
  <path d="M 24 52.398438 L 1703 52.398438 L 1703 402 L 24 402 Z M 24 52.398438 "/>
</clipPath>
<clipPath id="hS1VJrDWva__clip3">
  <path d="M 24 321 L 105 321 L 105 402 L 24 402 Z M 24 321 "/>
</clipPath>
<clipPath id="hS1VJrDWva__clip4">
  <path d="M 246 321 L 380 321 L 380 402 L 246 402 Z M 246 321 "/>
</clipPath>
<clipPath id="hS1VJrDWva__clip5">
  <path d="M 521 321 L 655 321 L 655 402 L 521 402 Z M 521 321 "/>
</clipPath>
<clipPath id="hS1VJrDWva__clip6">
  <path d="M 796 52.398438 L 931 52.398438 L 931 133 L 796 133 Z M 796 52.398438 "/>
</clipPath>
<clipPath id="hS1VJrDWva__clip7">
  <path d="M 1072 321 L 1206 321 L 1206 402 L 1072 402 Z M 1072 321 "/>
</clipPath>
<clipPath id="hS1VJrDWva__clip8">
  <path d="M 1347 321 L 1481 321 L 1481 402 L 1347 402 Z M 1347 321 "/>
</clipPath>
<clipPath id="hS1VJrDWva__clip9">
  <path d="M 1622 52.398438 L 1703 52.398438 L 1703 133 L 1622 133 Z M 1622 52.398438 "/>
</clipPath>
</defs>
<g id="surface218212">
<rect x="0" y="0" width="1720" height="440" style="fill:rgb(96.078431%,96.078431%,95.686275%);fill-opacity:1;stroke:none;"/>
<path style="fill:none;stroke-width:1;stroke-linecap:butt;stroke-linejoin:miter;stroke:rgb(92.156863%,92.156863%,91.764706%);stroke-opacity:1;stroke-miterlimit:10;" d="M 19 33.199219 L 19 193.5 " transform="matrix(2,0,0,2,0,0)"/>
<path style="fill:none;stroke-width:1;stroke-linecap:butt;stroke-linejoin:miter;stroke:rgb(92.156863%,92.156863%,91.764706%);stroke-opacity:1;stroke-miterlimit:10;" d="M 19 194.5 L 19 202 " transform="matrix(2,0,0,2,0,0)"/>
<path style="fill:none;stroke-width:1;stroke-linecap:butt;stroke-linejoin:miter;stroke:rgb(92.156863%,92.156863%,91.764706%);stroke-opacity:1;stroke-miterlimit:10;" d="M 156.5 33.199219 L 156.5 193.5 " transform="matrix(2,0,0,2,0,0)"/>
<path style="fill:none;stroke-width:1;stroke-linecap:butt;stroke-linejoin:miter;stroke:rgb(92.156863%,92.156863%,91.764706%);stroke-opacity:1;stroke-miterlimit:10;" d="M 156.5 194.5 L 156.5 202 " transform="matrix(2,0,0,2,0,0)"/>
<path style="fill:none;stroke-width:1;stroke-linecap:butt;stroke-linejoin:miter;stroke:rgb(92.156863%,92.156863%,91.764706%);stroke-opacity:1;stroke-miterlimit:10;" d="M 294 33.199219 L 294 193.5 " transform="matrix(2,0,0,2,0,0)"/>
<path style="fill:none;stroke-width:1;stroke-linecap:butt;stroke-linejoin:miter;stroke:rgb(92.156863%,92.156863%,91.764706%);stroke-opacity:1;stroke-miterlimit:10;" d="M 294 194.5 L 294 202 " transform="matrix(2,0,0,2,0,0)"/>
<path style="fill:none;stroke-width:1;stroke-linecap:butt;stroke-linejoin:miter;stroke:rgb(92.156863%,92.156863%,91.764706%);stroke-opacity:1;stroke-miterlimit:10;" d="M 432 33.199219 L 432 193.5 " transform="matrix(2,0,0,2,0,0)"/>
<path style="fill:none;stroke-width:1;stroke-linecap:butt;stroke-linejoin:miter;stroke:rgb(92.156863%,92.156863%,91.764706%);stroke-opacity:1;stroke-miterlimit:10;" d="M 432 194.5 L 432 202 " transform="matrix(2,0,0,2,0,0)"/>
<path style="fill:none;stroke-width:1;stroke-linecap:butt;stroke-linejoin:miter;stroke:rgb(92.156863%,92.156863%,91.764706%);stroke-opacity:1;stroke-miterlimit:10;" d="M 569.5 33.199219 L 569.5 193.5 " transform="matrix(2,0,0,2,0,0)"/>
<path style="fill:none;stroke-width:1;stroke-linecap:butt;stroke-linejoin:miter;stroke:rgb(92.156863%,92.156863%,91.764706%);stroke-opacity:1;stroke-miterlimit:10;" d="M 569.5 194.5 L 569.5 202 " transform="matrix(2,0,0,2,0,0)"/>
<path style="fill:none;stroke-width:1;stroke-linecap:butt;stroke-linejoin:miter;stroke:rgb(92.156863%,92.156863%,91.764706%);stroke-opacity:1;stroke-miterlimit:10;" d="M 707 33.199219 L 707 193.5 " transform="matrix(2,0,0,2,0,0)"/>
<path style="fill:none;stroke-width:1;stroke-linecap:butt;stroke-linejoin:miter;stroke:rgb(92.156863%,92.156863%,91.764706%);stroke-opacity:1;stroke-miterlimit:10;" d="M 707 194.5 L 707 202 " transform="matrix(2,0,0,2,0,0)"/>
<path style="fill:none;stroke-width:1;stroke-linecap:butt;stroke-linejoin:miter;stroke:rgb(92.156863%,92.156863%,91.764706%);stroke-opacity:1;stroke-miterlimit:10;" d="M 844.5 33.199219 L 844.5 193.5 " transform="matrix(2,0,0,2,0,0)"/>
<path style="fill:none;stroke-width:1;stroke-linecap:butt;stroke-linejoin:miter;stroke:rgb(92.156863%,92.156863%,91.764706%);stroke-opacity:1;stroke-miterlimit:10;" d="M 844.5 194.5 L 844.5 202 " transform="matrix(2,0,0,2,0,0)"/>
<path style="fill:none;stroke-width:1;stroke-linecap:butt;stroke-linejoin:miter;stroke:rgb(92.156863%,92.156863%,91.764706%);stroke-opacity:1;stroke-miterlimit:10;" d="M 19.5 194 L 844.5 194 " transform="matrix(2,0,0,2,0,0)"/>
<path style="fill:none;stroke-width:1;stroke-linecap:butt;stroke-linejoin:miter;stroke:rgb(92.156863%,92.156863%,91.764706%);stroke-opacity:1;stroke-miterlimit:10;" d="M 11 194 L 18.5 194 " transform="matrix(2,0,0,2,0,0)"/>
<path style="fill:none;stroke-width:1;stroke-linecap:butt;stroke-linejoin:miter;stroke:rgb(92.156863%,92.156863%,91.764706%);stroke-opacity:1;stroke-miterlimit:10;" d="M 19.5 140.5 L 844.5 140.5 " transform="matrix(2,0,0,2,0,0)"/>
<path style="fill:none;stroke-width:1;stroke-linecap:butt;stroke-linejoin:miter;stroke:rgb(92.156863%,92.156863%,91.764706%);stroke-opacity:1;stroke-miterlimit:10;" d="M 11 140.5 L 18.5 140.5 " transform="matrix(2,0,0,2,0,0)"/>
<path style="fill:none;stroke-width:1;stroke-linecap:butt;stroke-linejoin:miter;stroke:rgb(92.156863%,92.156863%,91.764706%);stroke-opacity:1;stroke-miterlimit:10;" d="M 19.5 87 L 844.5 87 " transform="matrix(2,0,0,2,0,0)"/>
<path style="fill:none;stroke-width:1;stroke-linecap:butt;stroke-linejoin:miter;stroke:rgb(92.156863%,92.156863%,91.764706%);stroke-opacity:1;stroke-miterlimit:10;" d="M 11 87 L 18.5 87 " transform="matrix(2,0,0,2,0,0)"/>
<path style="fill:none;stroke-width:1;stroke-linecap:butt;stroke-linejoin:miter;stroke:rgb(92.156863%,92.156863%,91.764706%);stroke-opacity:1;stroke-miterlimit:10;" d="M 19.5 33 L 844.5 33 " transform="matrix(2,0,0,2,0,0)"/>
<path style="fill:none;stroke-width:1;stroke-linecap:butt;stroke-linejoin:miter;stroke:rgb(92.156863%,92.156863%,91.764706%);stroke-opacity:1;stroke-miterlimit:10;" d="M 11 33 L 18.5 33 " transform="matrix(2,0,0,2,0,0)"/>
<path style=" stroke:none;fill-rule:nonzero;fill:rgb(11.372549%,30.588235%,84.705882%);fill-opacity:1;" d="M 11.09375 23.167969 L 3.390625 41.027344 L 0.8125 41.027344 L 8.515625 23.167969 Z M 23.09375 23.167969 L 15.390625 41.027344 L 12.8125 41.027344 L 20.515625 23.167969 Z M 37.546875 33.949219 C 37.546875 31.886719 37.984375 30.308594 38.859375 29.214844 C 39.742188 28.121094 41 27.574219 42.625 27.574219 C 43.5625 27.574219 44.628906 27.800781 45.828125 28.246094 L 45.828125 31.074219 C 44.554688 30.398438 43.523438 30.058594 42.734375 30.058594 C 41.953125 30.058594 41.34375 30.378906 40.90625 31.011719 C 40.476562 31.636719 40.265625 32.617188 40.265625 33.949219 C 40.265625 35.335938 40.492188 36.347656 40.953125 36.980469 C 41.421875 37.605469 42.046875 37.917969 42.828125 37.917969 C 43.609375 37.917969 44.644531 37.539062 45.9375 36.777344 L 45.9375 39.652344 C 44.75 40.121094 43.679688 40.355469 42.734375 40.355469 C 41.078125 40.355469 39.796875 39.816406 38.890625 38.730469 C 37.992188 37.636719 37.546875 36.042969 37.546875 33.949219 Z M 49.09375 33.964844 C 49.09375 29.707031 50.710938 27.574219 53.953125 27.574219 C 57.191406 27.574219 58.8125 29.707031 58.8125 33.964844 C 58.8125 38.226562 57.191406 40.355469 53.953125 40.355469 C 50.710938 40.355469 49.09375 38.226562 49.09375 33.964844 Z M 52.34375 37.089844 C 52.695312 37.644531 53.234375 37.917969 53.953125 37.917969 C 54.671875 37.917969 55.207031 37.644531 55.5625 37.089844 C 55.914062 36.527344 56.09375 35.488281 56.09375 33.964844 C 56.09375 32.433594 55.914062 31.394531 55.5625 30.839844 C 55.207031 30.277344 54.671875 29.996094 53.953125 29.996094 C 53.234375 29.996094 52.695312 30.277344 52.34375 30.839844 C 51.988281 31.394531 51.8125 32.433594 51.8125 33.964844 C 51.8125 35.488281 51.988281 36.527344 52.34375 37.089844 Z M 67.28125 40.136719 L 64.65625 40.136719 L 64.65625 31.761719 C 64.644531 30.992188 64.597656 30.523438 64.515625 30.355469 C 64.441406 30.179688 64.328125 30.089844 64.171875 30.089844 C 63.929688 30.089844 63.6875 30.488281 63.4375 31.277344 C 63.195312 32.058594 63.078125 33.394531 63.078125 35.277344 L 63.078125 40.136719 L 60.4375 40.136719 L 60.4375 27.777344 L 62.875 27.777344 L 62.515625 29.730469 L 62.46875 29.699219 C 62.519531 29.011719 62.765625 28.488281 63.203125 28.121094 C 63.640625 27.757812 64.117188 27.574219 64.640625 27.574219 C 65.210938 27.574219 65.675781 27.746094 66.03125 28.089844 C 66.382812 28.425781 66.550781 28.964844 66.53125 29.714844 L 66.484375 29.699219 C 66.898438 28.285156 67.675781 27.574219 68.8125 27.574219 C 69.726562 27.574219 70.398438 27.863281 70.828125 28.433594 C 71.265625 28.996094 71.484375 29.957031 71.484375 31.308594 L 71.484375 40.136719 L 68.875 40.136719 L 68.875 31.761719 C 68.863281 30.980469 68.804688 30.507812 68.703125 30.339844 C 68.609375 30.175781 68.453125 30.089844 68.234375 30.089844 C 67.597656 30.089844 67.28125 31.378906 67.28125 33.949219 Z M 79.28125 40.136719 L 76.65625 40.136719 L 76.65625 31.761719 C 76.644531 30.992188 76.597656 30.523438 76.515625 30.355469 C 76.441406 30.179688 76.328125 30.089844 76.171875 30.089844 C 75.929688 30.089844 75.6875 30.488281 75.4375 31.277344 C 75.195312 32.058594 75.078125 33.394531 75.078125 35.277344 L 75.078125 40.136719 L 72.4375 40.136719 L 72.4375 27.777344 L 74.875 27.777344 L 74.515625 29.730469 L 74.46875 29.699219 C 74.519531 29.011719 74.765625 28.488281 75.203125 28.121094 C 75.640625 27.757812 76.117188 27.574219 76.640625 27.574219 C 77.210938 27.574219 77.675781 27.746094 78.03125 28.089844 C 78.382812 28.425781 78.550781 28.964844 78.53125 29.714844 L 78.484375 29.699219 C 78.898438 28.285156 79.675781 27.574219 80.8125 27.574219 C 81.726562 27.574219 82.398438 27.863281 82.828125 28.433594 C 83.265625 28.996094 83.484375 29.957031 83.484375 31.308594 L 83.484375 40.136719 L 80.875 40.136719 L 80.875 31.761719 C 80.863281 30.980469 80.804688 30.507812 80.703125 30.339844 C 80.609375 30.175781 80.453125 30.089844 80.234375 30.089844 C 79.597656 30.089844 79.28125 31.378906 79.28125 33.949219 Z M 91.875 27.777344 L 91.875 37.730469 L 94.25 37.730469 L 94.25 40.136719 L 86.078125 40.136719 L 86.078125 37.730469 L 89.15625 37.730469 L 89.15625 30.199219 L 86.75 30.199219 L 86.75 27.777344 Z M 88.703125 26.042969 L 88.703125 22.496094 L 91.875 22.496094 L 91.875 26.042969 Z M 102.28125 28.230469 L 106.25 28.230469 L 106.25 30.636719 L 102.28125 30.636719 L 102.28125 36.371094 C 102.28125 37.082031 102.359375 37.523438 102.515625 37.699219 C 102.679688 37.878906 103.046875 37.964844 103.609375 37.964844 C 104.273438 37.964844 105.082031 37.753906 106.03125 37.324219 L 106.03125 39.886719 C 105.082031 40.199219 104.203125 40.355469 103.390625 40.355469 C 102.035156 40.355469 101.066406 40.074219 100.484375 39.511719 C 99.910156 38.941406 99.625 37.964844 99.625 36.589844 L 99.625 30.636719 L 97.4375 30.636719 L 97.4375 28.230469 L 99.625 28.230469 L 99.625 24.042969 L 102.28125 24.042969 Z M 114.0625 29.933594 C 112.957031 29.933594 112.40625 30.320312 112.40625 31.089844 C 112.40625 31.464844 112.519531 31.769531 112.75 31.996094 C 112.988281 32.226562 113.46875 32.441406 114.1875 32.636719 C 115.820312 33.097656 116.925781 33.605469 117.5 34.167969 C 118.070312 34.730469 118.359375 35.585938 118.359375 36.730469 C 118.359375 37.878906 117.960938 38.769531 117.171875 39.402344 C 116.390625 40.039062 115.320312 40.355469 113.96875 40.355469 C 112.625 40.355469 111.257812 40.007812 109.875 39.308594 L 109.875 36.417969 C 111.414062 37.449219 112.703125 37.964844 113.734375 37.964844 C 115.054688 37.964844 115.71875 37.542969 115.71875 36.699219 C 115.71875 36.292969 115.59375 35.976562 115.34375 35.746094 C 115.101562 35.519531 114.5625 35.289062 113.71875 35.058594 C 112.300781 34.652344 111.285156 34.152344 110.671875 33.558594 C 110.066406 32.957031 109.765625 32.132812 109.765625 31.089844 C 109.765625 29.996094 110.128906 29.136719 110.859375 28.511719 C 111.585938 27.886719 112.617188 27.574219 113.953125 27.574219 C 115.242188 27.574219 116.570312 27.882812 117.9375 28.496094 L 117.9375 31.199219 C 116.394531 30.355469 115.101562 29.933594 114.0625 29.933594 Z M 139.09375 36.371094 C 139.09375 37.246094 139.128906 37.730469 139.203125 37.824219 C 139.273438 37.910156 139.632812 37.949219 140.28125 37.949219 C 140.726562 37.949219 141.421875 37.878906 142.359375 37.730469 L 142.359375 40.199219 C 141.390625 40.304688 140.613281 40.355469 140.03125 40.355469 C 138.59375 40.355469 137.625 40.101562 137.125 39.589844 C 136.632812 39.082031 136.390625 38.082031 136.390625 36.589844 L 136.390625 25.574219 L 133.546875 25.574219 L 133.546875 23.167969 L 139.09375 23.167969 Z M 150.0625 27.574219 C 151.675781 27.574219 152.796875 27.914062 153.421875 28.589844 C 154.046875 29.269531 154.359375 30.464844 154.359375 32.183594 L 154.359375 40.136719 L 151.90625 40.136719 L 152.234375 38.089844 L 152.296875 38.136719 C 151.742188 39.617188 150.632812 40.355469 148.96875 40.355469 C 147.882812 40.355469 147.003906 40.007812 146.328125 39.308594 C 145.648438 38.613281 145.3125 37.667969 145.3125 36.480469 C 145.3125 35.003906 145.8125 33.867188 146.8125 33.074219 C 147.8125 32.273438 149.257812 31.871094 151.15625 31.871094 L 151.75 31.871094 L 151.75 31.761719 C 151.75 31.042969 151.628906 30.558594 151.390625 30.308594 C 151.160156 30.058594 150.71875 29.933594 150.0625 29.933594 C 149.601562 29.933594 149.015625 30.023438 148.296875 30.199219 C 147.585938 30.367188 146.78125 30.652344 145.875 31.058594 L 145.875 28.496094 C 146.59375 28.175781 147.332031 27.941406 148.09375 27.792969 C 148.851562 27.648438 149.507812 27.574219 150.0625 27.574219 Z M 151.75 34.074219 L 151.15625 34.074219 C 148.96875 34.074219 147.875 34.839844 147.875 36.371094 C 147.875 36.914062 147.992188 37.316406 148.234375 37.574219 C 148.484375 37.835938 148.832031 37.964844 149.28125 37.964844 C 150.007812 37.964844 150.601562 37.664062 151.0625 37.058594 C 151.519531 36.457031 151.75 35.570312 151.75 34.402344 Z M 162.0625 29.933594 C 160.957031 29.933594 160.40625 30.320312 160.40625 31.089844 C 160.40625 31.464844 160.519531 31.769531 160.75 31.996094 C 160.988281 32.226562 161.46875 32.441406 162.1875 32.636719 C 163.820312 33.097656 164.925781 33.605469 165.5 34.167969 C 166.070312 34.730469 166.359375 35.585938 166.359375 36.730469 C 166.359375 37.878906 165.960938 38.769531 165.171875 39.402344 C 164.390625 40.039062 163.320312 40.355469 161.96875 40.355469 C 160.625 40.355469 159.257812 40.007812 157.875 39.308594 L 157.875 36.417969 C 159.414062 37.449219 160.703125 37.964844 161.734375 37.964844 C 163.054688 37.964844 163.71875 37.542969 163.71875 36.699219 C 163.71875 36.292969 163.59375 35.976562 163.34375 35.746094 C 163.101562 35.519531 162.5625 35.289062 161.71875 35.058594 C 160.300781 34.652344 159.285156 34.152344 158.671875 33.558594 C 158.066406 32.957031 157.765625 32.132812 157.765625 31.089844 C 157.765625 29.996094 158.128906 29.136719 158.859375 28.511719 C 159.585938 27.886719 160.617188 27.574219 161.953125 27.574219 C 163.242188 27.574219 164.570312 27.882812 165.9375 28.496094 L 165.9375 31.199219 C 164.394531 30.355469 163.101562 29.933594 162.0625 29.933594 Z M 174.28125 28.230469 L 178.25 28.230469 L 178.25 30.636719 L 174.28125 30.636719 L 174.28125 36.371094 C 174.28125 37.082031 174.359375 37.523438 174.515625 37.699219 C 174.679688 37.878906 175.046875 37.964844 175.609375 37.964844 C 176.273438 37.964844 177.082031 37.753906 178.03125 37.324219 L 178.03125 39.886719 C 177.082031 40.199219 176.203125 40.355469 175.390625 40.355469 C 174.035156 40.355469 173.066406 40.074219 172.484375 39.511719 C 171.910156 38.941406 171.625 37.964844 171.625 36.589844 L 171.625 30.636719 L 169.4375 30.636719 L 169.4375 28.230469 L 171.625 28.230469 L 171.625 24.042969 L 174.28125 24.042969 Z M 199.8125 25.199219 L 199.984375 25.246094 L 193.65625 25.652344 L 193.65625 23.167969 L 202.25 23.167969 L 202.25 25.292969 C 200.363281 29.667969 198.796875 34.617188 197.546875 40.136719 L 194.671875 40.136719 C 195.992188 34.554688 197.707031 29.574219 199.8125 25.199219 Z M 223.84375 23.167969 L 226.46875 23.167969 L 226.46875 40.136719 L 223.96875 40.136719 L 224.3125 38.074219 L 224.359375 38.105469 C 223.710938 39.605469 222.6875 40.355469 221.28125 40.355469 C 219.96875 40.355469 218.921875 39.808594 218.140625 38.714844 C 217.367188 37.621094 216.984375 36.035156 216.984375 33.949219 C 216.984375 29.699219 218.414062 27.574219 221.28125 27.574219 C 222.800781 27.574219 223.804688 28.308594 224.296875 29.777344 L 224.234375 29.824219 Z M 219.640625 33.949219 C 219.640625 35.304688 219.832031 36.285156 220.21875 36.886719 C 220.613281 37.492188 221.117188 37.792969 221.734375 37.792969 C 222.316406 37.792969 222.8125 37.488281 223.21875 36.871094 C 223.632812 36.246094 223.84375 35.308594 223.84375 34.058594 L 223.84375 33.839844 C 223.84375 32.601562 223.632812 31.675781 223.21875 31.058594 C 222.8125 30.433594 222.316406 30.121094 221.734375 30.121094 C 220.335938 30.121094 219.640625 31.398438 219.640625 33.949219 Z M 234.0625 27.574219 C 235.675781 27.574219 236.796875 27.914062 237.421875 28.589844 C 238.046875 29.269531 238.359375 30.464844 238.359375 32.183594 L 238.359375 40.136719 L 235.90625 40.136719 L 236.234375 38.089844 L 236.296875 38.136719 C 235.742188 39.617188 234.632812 40.355469 232.96875 40.355469 C 231.882812 40.355469 231.003906 40.007812 230.328125 39.308594 C 229.648438 38.613281 229.3125 37.667969 229.3125 36.480469 C 229.3125 35.003906 229.8125 33.867188 230.8125 33.074219 C 231.8125 32.273438 233.257812 31.871094 235.15625 31.871094 L 235.75 31.871094 L 235.75 31.761719 C 235.75 31.042969 235.628906 30.558594 235.390625 30.308594 C 235.160156 30.058594 234.71875 29.933594 234.0625 29.933594 C 233.601562 29.933594 233.015625 30.023438 232.296875 30.199219 C 231.585938 30.367188 230.78125 30.652344 229.875 31.058594 L 229.875 28.496094 C 230.59375 28.175781 231.332031 27.941406 232.09375 27.792969 C 232.851562 27.648438 233.507812 27.574219 234.0625 27.574219 Z M 235.75 34.074219 L 235.15625 34.074219 C 232.96875 34.074219 231.875 34.839844 231.875 36.371094 C 231.875 36.914062 231.992188 37.316406 232.234375 37.574219 C 232.484375 37.835938 232.832031 37.964844 233.28125 37.964844 C 234.007812 37.964844 234.601562 37.664062 235.0625 37.058594 C 235.519531 36.457031 235.75 35.570312 235.75 34.402344 Z M 246.1875 36.980469 L 246.140625 36.980469 L 248.421875 27.777344 L 251.3125 27.777344 L 245.71875 44.980469 L 242.9375 44.980469 L 244.796875 39.449219 L 240.796875 27.777344 L 243.703125 27.777344 Z M 258.0625 29.933594 C 256.957031 29.933594 256.40625 30.320312 256.40625 31.089844 C 256.40625 31.464844 256.519531 31.769531 256.75 31.996094 C 256.988281 32.226562 257.46875 32.441406 258.1875 32.636719 C 259.820312 33.097656 260.925781 33.605469 261.5 34.167969 C 262.070312 34.730469 262.359375 35.585938 262.359375 36.730469 C 262.359375 37.878906 261.960938 38.769531 261.171875 39.402344 C 260.390625 40.039062 259.320312 40.355469 257.96875 40.355469 C 256.625 40.355469 255.257812 40.007812 253.875 39.308594 L 253.875 36.417969 C 255.414062 37.449219 256.703125 37.964844 257.734375 37.964844 C 259.054688 37.964844 259.71875 37.542969 259.71875 36.699219 C 259.71875 36.292969 259.59375 35.976562 259.34375 35.746094 C 259.101562 35.519531 258.5625 35.289062 257.71875 35.058594 C 256.300781 34.652344 255.285156 34.152344 254.671875 33.558594 C 254.066406 32.957031 253.765625 32.132812 253.765625 31.089844 C 253.765625 29.996094 254.128906 29.136719 254.859375 28.511719 C 255.585938 27.886719 256.617188 27.574219 257.953125 27.574219 C 259.242188 27.574219 260.570312 27.882812 261.9375 28.496094 L 261.9375 31.199219 C 260.394531 30.355469 259.101562 29.933594 258.0625 29.933594 Z M 0 19.34375 "/>
<path style="fill:none;stroke-width:1;stroke-linecap:butt;stroke-linejoin:miter;stroke:rgb(0%,0%,0%);stroke-opacity:0.0980392;stroke-miterlimit:10;" d="M 18.5 194 L 845 194 " transform="matrix(2,0,0,2,0,0)"/>
<path style=" stroke:none;fill-rule:nonzero;fill:rgb(65.882353%,63.529412%,61.960784%);fill-opacity:1;" d="M 17.359375 413.863281 C 17.816406 413.625 18.363281 413.503906 19 413.503906 C 19.632812 413.503906 20.179688 413.625 20.640625 413.863281 C 21.097656 414.105469 21.492188 414.503906 21.828125 415.066406 C 22.160156 415.628906 22.40625 416.402344 22.5625 417.378906 C 22.726562 418.347656 22.8125 419.550781 22.8125 420.988281 C 22.8125 422.425781 22.726562 423.640625 22.5625 424.628906 C 22.40625 425.609375 22.160156 426.378906 21.828125 426.941406 C 21.492188 427.503906 21.097656 427.90625 20.640625 428.144531 C 20.179688 428.386719 19.632812 428.503906 19 428.503906 C 18.363281 428.503906 17.816406 428.386719 17.359375 428.144531 C 16.898438 427.90625 16.503906 427.503906 16.171875 426.941406 C 15.847656 426.378906 15.601562 425.609375 15.4375 424.628906 C 15.269531 423.640625 15.1875 422.425781 15.1875 420.988281 C 15.1875 419.550781 15.269531 418.347656 15.4375 417.378906 C 15.601562 416.402344 15.847656 415.628906 16.171875 415.066406 C 16.503906 414.503906 16.898438 414.105469 17.359375 413.863281 Z M 16.828125 423.332031 L 20.765625 416.535156 C 20.410156 415.441406 19.820312 414.894531 19 414.894531 C 18.519531 414.894531 18.117188 415.074219 17.796875 415.425781 C 17.484375 415.769531 17.226562 416.402344 17.03125 417.316406 C 16.84375 418.234375 16.75 419.464844 16.75 421.003906 C 16.75 421.671875 16.773438 422.449219 16.828125 423.332031 Z M 17.171875 425.207031 C 17.503906 426.46875 18.113281 427.097656 19 427.097656 C 19.476562 427.097656 19.878906 426.925781 20.203125 426.582031 C 20.523438 426.238281 20.78125 425.609375 20.96875 424.691406 C 21.15625 423.765625 21.25 422.535156 21.25 421.003906 C 21.25 419.964844 21.207031 419.078125 21.125 418.347656 Z M 27.59375 419.691406 L 27.640625 419.691406 C 28.078125 419.308594 28.660156 419.113281 29.390625 419.113281 C 31.523438 419.113281 32.59375 420.640625 32.59375 423.691406 C 32.59375 425.359375 32.265625 426.578125 31.609375 427.347656 C 30.953125 428.121094 29.984375 428.503906 28.703125 428.503906 C 27.710938 428.503906 26.742188 428.300781 25.796875 427.894531 L 25.796875 426.160156 C 26.796875 426.734375 27.734375 427.019531 28.609375 427.019531 C 30.148438 427.019531 30.921875 425.910156 30.921875 423.691406 C 30.921875 421.609375 30.28125 420.566406 29 420.566406 C 28.382812 420.566406 27.851562 420.84375 27.40625 421.394531 L 25.890625 421.394531 L 26.109375 413.691406 L 32.203125 413.691406 L 32.203125 415.144531 L 27.734375 415.144531 Z M 36 422.910156 L 36 421.472656 L 42.015625 421.472656 L 42.015625 422.910156 Z M 49.15625 428.300781 L 49.15625 415.394531 L 49.125 415.378906 L 45.65625 417.394531 L 45.65625 415.800781 L 49.15625 413.691406 L 50.796875 413.691406 L 50.796875 428.300781 Z M 58.296875 428.503906 C 57.492188 428.503906 56.726562 428.371094 56 428.097656 L 56 426.488281 C 56.695312 426.84375 57.398438 427.019531 58.109375 427.019531 C 59.046875 427.019531 59.71875 426.707031 60.125 426.082031 C 60.53125 425.449219 60.785156 424.21875 60.890625 422.394531 L 60.859375 422.394531 C 60.191406 423.074219 59.441406 423.410156 58.609375 423.410156 C 57.492188 423.410156 56.644531 423.015625 56.0625 422.222656 C 55.476562 421.433594 55.1875 420.160156 55.1875 418.410156 C 55.1875 416.722656 55.492188 415.484375 56.109375 414.691406 C 56.734375 413.902344 57.664062 413.503906 58.90625 413.503906 C 59.8125 413.503906 60.519531 413.691406 61.03125 414.066406 C 61.550781 414.433594 61.941406 415.097656 62.203125 416.066406 C 62.460938 417.035156 62.59375 418.378906 62.59375 420.097656 C 62.59375 422.214844 62.421875 423.894531 62.078125 425.144531 C 61.742188 426.394531 61.273438 427.269531 60.671875 427.769531 C 60.066406 428.261719 59.273438 428.503906 58.296875 428.503906 Z M 58.90625 414.941406 C 58.175781 414.941406 57.644531 415.199219 57.3125 415.707031 C 56.988281 416.207031 56.828125 417.105469 56.828125 418.394531 C 56.828125 419.6875 56.992188 420.613281 57.328125 421.175781 C 57.671875 421.730469 58.164062 422.003906 58.8125 422.003906 C 59.457031 422.003906 59.96875 421.730469 60.34375 421.175781 C 60.726562 420.613281 60.921875 419.753906 60.921875 418.597656 C 60.921875 417.277344 60.753906 416.339844 60.421875 415.785156 C 60.085938 415.222656 59.582031 414.941406 58.90625 414.941406 Z M 14 409.402344 "/>
<path style=" stroke:none;fill-rule:nonzero;fill:rgb(65.882353%,63.529412%,61.960784%);fill-opacity:1;" d="M 292.527344 413.863281 C 292.984375 413.625 293.53125 413.503906 294.167969 413.503906 C 294.800781 413.503906 295.347656 413.625 295.808594 413.863281 C 296.265625 414.105469 296.660156 414.503906 296.996094 415.066406 C 297.328125 415.628906 297.574219 416.402344 297.730469 417.378906 C 297.894531 418.347656 297.980469 419.550781 297.980469 420.988281 C 297.980469 422.425781 297.894531 423.640625 297.730469 424.628906 C 297.574219 425.609375 297.328125 426.378906 296.996094 426.941406 C 296.660156 427.503906 296.265625 427.90625 295.808594 428.144531 C 295.347656 428.386719 294.800781 428.503906 294.167969 428.503906 C 293.53125 428.503906 292.984375 428.386719 292.527344 428.144531 C 292.066406 427.90625 291.671875 427.503906 291.339844 426.941406 C 291.015625 426.378906 290.769531 425.609375 290.605469 424.628906 C 290.4375 423.640625 290.355469 422.425781 290.355469 420.988281 C 290.355469 419.550781 290.4375 418.347656 290.605469 417.378906 C 290.769531 416.402344 291.015625 415.628906 291.339844 415.066406 C 291.671875 414.503906 292.066406 414.105469 292.527344 413.863281 Z M 291.996094 423.332031 L 295.933594 416.535156 C 295.578125 415.441406 294.988281 414.894531 294.167969 414.894531 C 293.6875 414.894531 293.285156 415.074219 292.964844 415.425781 C 292.652344 415.769531 292.394531 416.402344 292.199219 417.316406 C 292.011719 418.234375 291.917969 419.464844 291.917969 421.003906 C 291.917969 421.671875 291.941406 422.449219 291.996094 423.332031 Z M 292.339844 425.207031 C 292.671875 426.46875 293.28125 427.097656 294.167969 427.097656 C 294.644531 427.097656 295.046875 426.925781 295.371094 426.582031 C 295.691406 426.238281 295.949219 425.609375 296.136719 424.691406 C 296.324219 423.765625 296.417969 422.535156 296.417969 421.003906 C 296.417969 419.964844 296.375 419.078125 296.292969 418.347656 Z M 302.761719 419.691406 L 302.808594 419.691406 C 303.246094 419.308594 303.828125 419.113281 304.558594 419.113281 C 306.691406 419.113281 307.761719 420.640625 307.761719 423.691406 C 307.761719 425.359375 307.433594 426.578125 306.777344 427.347656 C 306.121094 428.121094 305.152344 428.503906 303.871094 428.503906 C 302.878906 428.503906 301.910156 428.300781 300.964844 427.894531 L 300.964844 426.160156 C 301.964844 426.734375 302.902344 427.019531 303.777344 427.019531 C 305.316406 427.019531 306.089844 425.910156 306.089844 423.691406 C 306.089844 421.609375 305.449219 420.566406 304.167969 420.566406 C 303.550781 420.566406 303.019531 420.84375 302.574219 421.394531 L 301.058594 421.394531 L 301.277344 413.691406 L 307.371094 413.691406 L 307.371094 415.144531 L 302.902344 415.144531 Z M 311.167969 422.910156 L 311.167969 421.472656 L 317.183594 421.472656 L 317.183594 422.910156 Z M 322.667969 426.816406 L 322.667969 426.863281 L 327.574219 426.863281 L 327.574219 428.300781 L 320.777344 428.300781 L 320.777344 426.863281 C 324.121094 423.019531 325.792969 419.828125 325.792969 417.285156 C 325.792969 415.753906 325.171875 414.988281 323.933594 414.988281 C 323.527344 414.988281 323.015625 415.140625 322.402344 415.441406 C 321.796875 415.734375 321.253906 416.097656 320.777344 416.535156 L 320.777344 414.785156 C 321.777344 413.933594 322.90625 413.503906 324.167969 413.503906 C 325.300781 413.503906 326.136719 413.816406 326.667969 414.441406 C 327.199219 415.066406 327.464844 416.015625 327.464844 417.285156 C 327.464844 418.621094 327.105469 420.015625 326.386719 421.472656 C 325.667969 422.921875 324.425781 424.703125 322.667969 426.816406 Z M 332.527344 413.863281 C 332.984375 413.625 333.53125 413.503906 334.167969 413.503906 C 334.800781 413.503906 335.347656 413.625 335.808594 413.863281 C 336.265625 414.105469 336.660156 414.503906 336.996094 415.066406 C 337.328125 415.628906 337.574219 416.402344 337.730469 417.378906 C 337.894531 418.347656 337.980469 419.550781 337.980469 420.988281 C 337.980469 422.425781 337.894531 423.640625 337.730469 424.628906 C 337.574219 425.609375 337.328125 426.378906 336.996094 426.941406 C 336.660156 427.503906 336.265625 427.90625 335.808594 428.144531 C 335.347656 428.386719 334.800781 428.503906 334.167969 428.503906 C 333.53125 428.503906 332.984375 428.386719 332.527344 428.144531 C 332.066406 427.90625 331.671875 427.503906 331.339844 426.941406 C 331.015625 426.378906 330.769531 425.609375 330.605469 424.628906 C 330.4375 423.640625 330.355469 422.425781 330.355469 420.988281 C 330.355469 419.550781 330.4375 418.347656 330.605469 417.378906 C 330.769531 416.402344 331.015625 415.628906 331.339844 415.066406 C 331.671875 414.503906 332.066406 414.105469 332.527344 413.863281 Z M 331.996094 423.332031 L 335.933594 416.535156 C 335.578125 415.441406 334.988281 414.894531 334.167969 414.894531 C 333.6875 414.894531 333.285156 415.074219 332.964844 415.425781 C 332.652344 415.769531 332.394531 416.402344 332.199219 417.316406 C 332.011719 418.234375 331.917969 419.464844 331.917969 421.003906 C 331.917969 421.671875 331.941406 422.449219 331.996094 423.332031 Z M 332.339844 425.207031 C 332.671875 426.46875 333.28125 427.097656 334.167969 427.097656 C 334.644531 427.097656 335.046875 426.925781 335.371094 426.582031 C 335.691406 426.238281 335.949219 425.609375 336.136719 424.691406 C 336.324219 423.765625 336.417969 422.535156 336.417969 421.003906 C 336.417969 419.964844 336.375 419.078125 336.292969 418.347656 Z M 289.167969 409.402344 "/>
<path style=" stroke:none;fill-rule:nonzero;fill:rgb(65.882353%,63.529412%,61.960784%);fill-opacity:1;" d="M 567.691406 413.863281 C 568.148438 413.625 568.695312 413.503906 569.332031 413.503906 C 569.964844 413.503906 570.511719 413.625 570.972656 413.863281 C 571.429688 414.105469 571.824219 414.503906 572.160156 415.066406 C 572.492188 415.628906 572.738281 416.402344 572.894531 417.378906 C 573.058594 418.347656 573.144531 419.550781 573.144531 420.988281 C 573.144531 422.425781 573.058594 423.640625 572.894531 424.628906 C 572.738281 425.609375 572.492188 426.378906 572.160156 426.941406 C 571.824219 427.503906 571.429688 427.90625 570.972656 428.144531 C 570.511719 428.386719 569.964844 428.503906 569.332031 428.503906 C 568.695312 428.503906 568.148438 428.386719 567.691406 428.144531 C 567.230469 427.90625 566.835938 427.503906 566.503906 426.941406 C 566.179688 426.378906 565.933594 425.609375 565.769531 424.628906 C 565.601562 423.640625 565.519531 422.425781 565.519531 420.988281 C 565.519531 419.550781 565.601562 418.347656 565.769531 417.378906 C 565.933594 416.402344 566.179688 415.628906 566.503906 415.066406 C 566.835938 414.503906 567.230469 414.105469 567.691406 413.863281 Z M 567.160156 423.332031 L 571.097656 416.535156 C 570.742188 415.441406 570.152344 414.894531 569.332031 414.894531 C 568.851562 414.894531 568.449219 415.074219 568.128906 415.425781 C 567.816406 415.769531 567.558594 416.402344 567.363281 417.316406 C 567.175781 418.234375 567.082031 419.464844 567.082031 421.003906 C 567.082031 421.671875 567.105469 422.449219 567.160156 423.332031 Z M 567.503906 425.207031 C 567.835938 426.46875 568.445312 427.097656 569.332031 427.097656 C 569.808594 427.097656 570.210938 426.925781 570.535156 426.582031 C 570.855469 426.238281 571.113281 425.609375 571.300781 424.691406 C 571.488281 423.765625 571.582031 422.535156 571.582031 421.003906 C 571.582031 419.964844 571.539062 419.078125 571.457031 418.347656 Z M 577.925781 419.691406 L 577.972656 419.691406 C 578.410156 419.308594 578.992188 419.113281 579.722656 419.113281 C 581.855469 419.113281 582.925781 420.640625 582.925781 423.691406 C 582.925781 425.359375 582.597656 426.578125 581.941406 427.347656 C 581.285156 428.121094 580.316406 428.503906 579.035156 428.503906 C 578.042969 428.503906 577.074219 428.300781 576.128906 427.894531 L 576.128906 426.160156 C 577.128906 426.734375 578.066406 427.019531 578.941406 427.019531 C 580.480469 427.019531 581.253906 425.910156 581.253906 423.691406 C 581.253906 421.609375 580.613281 420.566406 579.332031 420.566406 C 578.714844 420.566406 578.183594 420.84375 577.738281 421.394531 L 576.222656 421.394531 L 576.441406 413.691406 L 582.535156 413.691406 L 582.535156 415.144531 L 578.066406 415.144531 Z M 586.332031 422.910156 L 586.332031 421.472656 L 592.347656 421.472656 L 592.347656 422.910156 Z M 597.832031 426.816406 L 597.832031 426.863281 L 602.738281 426.863281 L 602.738281 428.300781 L 595.941406 428.300781 L 595.941406 426.863281 C 599.285156 423.019531 600.957031 419.828125 600.957031 417.285156 C 600.957031 415.753906 600.335938 414.988281 599.097656 414.988281 C 598.691406 414.988281 598.179688 415.140625 597.566406 415.441406 C 596.960938 415.734375 596.417969 416.097656 595.941406 416.535156 L 595.941406 414.785156 C 596.941406 413.933594 598.070312 413.503906 599.332031 413.503906 C 600.464844 413.503906 601.300781 413.816406 601.832031 414.441406 C 602.363281 415.066406 602.628906 416.015625 602.628906 417.285156 C 602.628906 418.621094 602.269531 420.015625 601.550781 421.472656 C 600.832031 422.921875 599.589844 424.703125 597.832031 426.816406 Z M 609.488281 428.300781 L 609.488281 415.394531 L 609.457031 415.378906 L 605.988281 417.394531 L 605.988281 415.800781 L 609.488281 413.691406 L 611.128906 413.691406 L 611.128906 428.300781 Z M 564.332031 409.402344 "/>
<path style=" stroke:none;fill-rule:nonzero;fill:rgb(65.882353%,63.529412%,61.960784%);fill-opacity:1;" d="M 842.859375 413.863281 C 843.316406 413.625 843.863281 413.503906 844.5 413.503906 C 845.132812 413.503906 845.679688 413.625 846.140625 413.863281 C 846.597656 414.105469 846.992188 414.503906 847.328125 415.066406 C 847.660156 415.628906 847.90625 416.402344 848.0625 417.378906 C 848.226562 418.347656 848.3125 419.550781 848.3125 420.988281 C 848.3125 422.425781 848.226562 423.640625 848.0625 424.628906 C 847.90625 425.609375 847.660156 426.378906 847.328125 426.941406 C 846.992188 427.503906 846.597656 427.90625 846.140625 428.144531 C 845.679688 428.386719 845.132812 428.503906 844.5 428.503906 C 843.863281 428.503906 843.316406 428.386719 842.859375 428.144531 C 842.398438 427.90625 842.003906 427.503906 841.671875 426.941406 C 841.347656 426.378906 841.101562 425.609375 840.9375 424.628906 C 840.769531 423.640625 840.6875 422.425781 840.6875 420.988281 C 840.6875 419.550781 840.769531 418.347656 840.9375 417.378906 C 841.101562 416.402344 841.347656 415.628906 841.671875 415.066406 C 842.003906 414.503906 842.398438 414.105469 842.859375 413.863281 Z M 842.328125 423.332031 L 846.265625 416.535156 C 845.910156 415.441406 845.320312 414.894531 844.5 414.894531 C 844.019531 414.894531 843.617188 415.074219 843.296875 415.425781 C 842.984375 415.769531 842.726562 416.402344 842.53125 417.316406 C 842.34375 418.234375 842.25 419.464844 842.25 421.003906 C 842.25 421.671875 842.273438 422.449219 842.328125 423.332031 Z M 842.671875 425.207031 C 843.003906 426.46875 843.613281 427.097656 844.5 427.097656 C 844.976562 427.097656 845.378906 426.925781 845.703125 426.582031 C 846.023438 426.238281 846.28125 425.609375 846.46875 424.691406 C 846.65625 423.765625 846.75 422.535156 846.75 421.003906 C 846.75 419.964844 846.707031 419.078125 846.625 418.347656 Z M 853.09375 419.691406 L 853.140625 419.691406 C 853.578125 419.308594 854.160156 419.113281 854.890625 419.113281 C 857.023438 419.113281 858.09375 420.640625 858.09375 423.691406 C 858.09375 425.359375 857.765625 426.578125 857.109375 427.347656 C 856.453125 428.121094 855.484375 428.503906 854.203125 428.503906 C 853.210938 428.503906 852.242188 428.300781 851.296875 427.894531 L 851.296875 426.160156 C 852.296875 426.734375 853.234375 427.019531 854.109375 427.019531 C 855.648438 427.019531 856.421875 425.910156 856.421875 423.691406 C 856.421875 421.609375 855.78125 420.566406 854.5 420.566406 C 853.882812 420.566406 853.351562 420.84375 852.90625 421.394531 L 851.390625 421.394531 L 851.609375 413.691406 L 857.703125 413.691406 L 857.703125 415.144531 L 853.234375 415.144531 Z M 861.5 422.910156 L 861.5 421.472656 L 867.515625 421.472656 L 867.515625 422.910156 Z M 873 426.816406 L 873 426.863281 L 877.90625 426.863281 L 877.90625 428.300781 L 871.109375 428.300781 L 871.109375 426.863281 C 874.453125 423.019531 876.125 419.828125 876.125 417.285156 C 876.125 415.753906 875.503906 414.988281 874.265625 414.988281 C 873.859375 414.988281 873.347656 415.140625 872.734375 415.441406 C 872.128906 415.734375 871.585938 416.097656 871.109375 416.535156 L 871.109375 414.785156 C 872.109375 413.933594 873.238281 413.503906 874.5 413.503906 C 875.632812 413.503906 876.46875 413.816406 877 414.441406 C 877.53125 415.066406 877.796875 416.015625 877.796875 417.285156 C 877.796875 418.621094 877.4375 420.015625 876.71875 421.472656 C 876 422.921875 874.757812 424.703125 873 426.816406 Z M 883 426.816406 L 883 426.863281 L 887.90625 426.863281 L 887.90625 428.300781 L 881.109375 428.300781 L 881.109375 426.863281 C 884.453125 423.019531 886.125 419.828125 886.125 417.285156 C 886.125 415.753906 885.503906 414.988281 884.265625 414.988281 C 883.859375 414.988281 883.347656 415.140625 882.734375 415.441406 C 882.128906 415.734375 881.585938 416.097656 881.109375 416.535156 L 881.109375 414.785156 C 882.109375 413.933594 883.238281 413.503906 884.5 413.503906 C 885.632812 413.503906 886.46875 413.816406 887 414.441406 C 887.53125 415.066406 887.796875 416.015625 887.796875 417.285156 C 887.796875 418.621094 887.4375 420.015625 886.71875 421.472656 C 886 422.921875 884.757812 424.703125 883 426.816406 Z M 839.5 409.402344 "/>
<path style=" stroke:none;fill-rule:nonzero;fill:rgb(65.882353%,63.529412%,61.960784%);fill-opacity:1;" d="M 1118.027344 413.863281 C 1118.484375 413.625 1119.03125 413.503906 1119.667969 413.503906 C 1120.300781 413.503906 1120.847656 413.625 1121.308594 413.863281 C 1121.765625 414.105469 1122.160156 414.503906 1122.496094 415.066406 C 1122.828125 415.628906 1123.074219 416.402344 1123.230469 417.378906 C 1123.394531 418.347656 1123.480469 419.550781 1123.480469 420.988281 C 1123.480469 422.425781 1123.394531 423.640625 1123.230469 424.628906 C 1123.074219 425.609375 1122.828125 426.378906 1122.496094 426.941406 C 1122.160156 427.503906 1121.765625 427.90625 1121.308594 428.144531 C 1120.847656 428.386719 1120.300781 428.503906 1119.667969 428.503906 C 1119.03125 428.503906 1118.484375 428.386719 1118.027344 428.144531 C 1117.566406 427.90625 1117.171875 427.503906 1116.839844 426.941406 C 1116.515625 426.378906 1116.269531 425.609375 1116.105469 424.628906 C 1115.9375 423.640625 1115.855469 422.425781 1115.855469 420.988281 C 1115.855469 419.550781 1115.9375 418.347656 1116.105469 417.378906 C 1116.269531 416.402344 1116.515625 415.628906 1116.839844 415.066406 C 1117.171875 414.503906 1117.566406 414.105469 1118.027344 413.863281 Z M 1117.496094 423.332031 L 1121.433594 416.535156 C 1121.078125 415.441406 1120.488281 414.894531 1119.667969 414.894531 C 1119.1875 414.894531 1118.785156 415.074219 1118.464844 415.425781 C 1118.152344 415.769531 1117.894531 416.402344 1117.699219 417.316406 C 1117.511719 418.234375 1117.417969 419.464844 1117.417969 421.003906 C 1117.417969 421.671875 1117.441406 422.449219 1117.496094 423.332031 Z M 1117.839844 425.207031 C 1118.171875 426.46875 1118.78125 427.097656 1119.667969 427.097656 C 1120.144531 427.097656 1120.546875 426.925781 1120.871094 426.582031 C 1121.191406 426.238281 1121.449219 425.609375 1121.636719 424.691406 C 1121.824219 423.765625 1121.917969 422.535156 1121.917969 421.003906 C 1121.917969 419.964844 1121.875 419.078125 1121.792969 418.347656 Z M 1128.261719 419.691406 L 1128.308594 419.691406 C 1128.746094 419.308594 1129.328125 419.113281 1130.058594 419.113281 C 1132.191406 419.113281 1133.261719 420.640625 1133.261719 423.691406 C 1133.261719 425.359375 1132.933594 426.578125 1132.277344 427.347656 C 1131.621094 428.121094 1130.652344 428.503906 1129.371094 428.503906 C 1128.378906 428.503906 1127.410156 428.300781 1126.464844 427.894531 L 1126.464844 426.160156 C 1127.464844 426.734375 1128.402344 427.019531 1129.277344 427.019531 C 1130.816406 427.019531 1131.589844 425.910156 1131.589844 423.691406 C 1131.589844 421.609375 1130.949219 420.566406 1129.667969 420.566406 C 1129.050781 420.566406 1128.519531 420.84375 1128.074219 421.394531 L 1126.558594 421.394531 L 1126.777344 413.691406 L 1132.871094 413.691406 L 1132.871094 415.144531 L 1128.402344 415.144531 Z M 1136.667969 422.910156 L 1136.667969 421.472656 L 1142.683594 421.472656 L 1142.683594 422.910156 Z M 1148.167969 426.816406 L 1148.167969 426.863281 L 1153.074219 426.863281 L 1153.074219 428.300781 L 1146.277344 428.300781 L 1146.277344 426.863281 C 1149.621094 423.019531 1151.292969 419.828125 1151.292969 417.285156 C 1151.292969 415.753906 1150.671875 414.988281 1149.433594 414.988281 C 1149.027344 414.988281 1148.515625 415.140625 1147.902344 415.441406 C 1147.296875 415.734375 1146.753906 416.097656 1146.277344 416.535156 L 1146.277344 414.785156 C 1147.277344 413.933594 1148.40625 413.503906 1149.667969 413.503906 C 1150.800781 413.503906 1151.636719 413.816406 1152.167969 414.441406 C 1152.699219 415.066406 1152.964844 416.015625 1152.964844 417.285156 C 1152.964844 418.621094 1152.605469 420.015625 1151.886719 421.472656 C 1151.167969 422.921875 1149.925781 424.703125 1148.167969 426.816406 Z M 1161.277344 415.175781 L 1161.277344 415.144531 L 1156.277344 415.144531 L 1156.277344 413.691406 L 1163.167969 413.691406 L 1163.167969 415.144531 L 1159.574219 419.707031 L 1159.574219 419.753906 L 1159.761719 419.753906 C 1160.980469 419.753906 1161.863281 420.097656 1162.417969 420.785156 C 1162.980469 421.464844 1163.261719 422.574219 1163.261719 424.113281 C 1163.261719 427.042969 1161.964844 428.503906 1159.371094 428.503906 C 1158.402344 428.503906 1157.433594 428.300781 1156.464844 427.894531 L 1156.464844 426.160156 C 1157.496094 426.734375 1158.359375 427.019531 1159.058594 427.019531 C 1159.921875 427.019531 1160.558594 426.792969 1160.964844 426.332031 C 1161.378906 425.863281 1161.589844 425.125 1161.589844 424.113281 C 1161.589844 422.917969 1161.421875 422.128906 1161.089844 421.753906 C 1160.753906 421.378906 1160.078125 421.191406 1159.058594 421.191406 L 1157.683594 421.191406 L 1157.683594 419.753906 Z M 1114.667969 409.402344 "/>
<path style=" stroke:none;fill-rule:nonzero;fill:rgb(65.882353%,63.529412%,61.960784%);fill-opacity:1;" d="M 1393.191406 413.863281 C 1393.648438 413.625 1394.195312 413.503906 1394.832031 413.503906 C 1395.464844 413.503906 1396.011719 413.625 1396.472656 413.863281 C 1396.929688 414.105469 1397.324219 414.503906 1397.660156 415.066406 C 1397.992188 415.628906 1398.238281 416.402344 1398.394531 417.378906 C 1398.558594 418.347656 1398.644531 419.550781 1398.644531 420.988281 C 1398.644531 422.425781 1398.558594 423.640625 1398.394531 424.628906 C 1398.238281 425.609375 1397.992188 426.378906 1397.660156 426.941406 C 1397.324219 427.503906 1396.929688 427.90625 1396.472656 428.144531 C 1396.011719 428.386719 1395.464844 428.503906 1394.832031 428.503906 C 1394.195312 428.503906 1393.648438 428.386719 1393.191406 428.144531 C 1392.730469 427.90625 1392.335938 427.503906 1392.003906 426.941406 C 1391.679688 426.378906 1391.433594 425.609375 1391.269531 424.628906 C 1391.101562 423.640625 1391.019531 422.425781 1391.019531 420.988281 C 1391.019531 419.550781 1391.101562 418.347656 1391.269531 417.378906 C 1391.433594 416.402344 1391.679688 415.628906 1392.003906 415.066406 C 1392.335938 414.503906 1392.730469 414.105469 1393.191406 413.863281 Z M 1392.660156 423.332031 L 1396.597656 416.535156 C 1396.242188 415.441406 1395.652344 414.894531 1394.832031 414.894531 C 1394.351562 414.894531 1393.949219 415.074219 1393.628906 415.425781 C 1393.316406 415.769531 1393.058594 416.402344 1392.863281 417.316406 C 1392.675781 418.234375 1392.582031 419.464844 1392.582031 421.003906 C 1392.582031 421.671875 1392.605469 422.449219 1392.660156 423.332031 Z M 1393.003906 425.207031 C 1393.335938 426.46875 1393.945312 427.097656 1394.832031 427.097656 C 1395.308594 427.097656 1395.710938 426.925781 1396.035156 426.582031 C 1396.355469 426.238281 1396.613281 425.609375 1396.800781 424.691406 C 1396.988281 423.765625 1397.082031 422.535156 1397.082031 421.003906 C 1397.082031 419.964844 1397.039062 419.078125 1396.957031 418.347656 Z M 1403.425781 419.691406 L 1403.472656 419.691406 C 1403.910156 419.308594 1404.492188 419.113281 1405.222656 419.113281 C 1407.355469 419.113281 1408.425781 420.640625 1408.425781 423.691406 C 1408.425781 425.359375 1408.097656 426.578125 1407.441406 427.347656 C 1406.785156 428.121094 1405.816406 428.503906 1404.535156 428.503906 C 1403.542969 428.503906 1402.574219 428.300781 1401.628906 427.894531 L 1401.628906 426.160156 C 1402.628906 426.734375 1403.566406 427.019531 1404.441406 427.019531 C 1405.980469 427.019531 1406.753906 425.910156 1406.753906 423.691406 C 1406.753906 421.609375 1406.113281 420.566406 1404.832031 420.566406 C 1404.214844 420.566406 1403.683594 420.84375 1403.238281 421.394531 L 1401.722656 421.394531 L 1401.941406 413.691406 L 1408.035156 413.691406 L 1408.035156 415.144531 L 1403.566406 415.144531 Z M 1411.832031 422.910156 L 1411.832031 421.472656 L 1417.847656 421.472656 L 1417.847656 422.910156 Z M 1423.332031 426.816406 L 1423.332031 426.863281 L 1428.238281 426.863281 L 1428.238281 428.300781 L 1421.441406 428.300781 L 1421.441406 426.863281 C 1424.785156 423.019531 1426.457031 419.828125 1426.457031 417.285156 C 1426.457031 415.753906 1425.835938 414.988281 1424.597656 414.988281 C 1424.191406 414.988281 1423.679688 415.140625 1423.066406 415.441406 C 1422.460938 415.734375 1421.917969 416.097656 1421.441406 416.535156 L 1421.441406 414.785156 C 1422.441406 413.933594 1423.570312 413.503906 1424.832031 413.503906 C 1425.964844 413.503906 1426.800781 413.816406 1427.332031 414.441406 C 1427.863281 415.066406 1428.128906 416.015625 1428.128906 417.285156 C 1428.128906 418.621094 1427.769531 420.015625 1427.050781 421.472656 C 1426.332031 422.921875 1425.089844 424.703125 1423.332031 426.816406 Z M 1435.691406 416.488281 L 1435.660156 416.488281 L 1432.160156 423.332031 L 1432.160156 423.363281 L 1435.691406 423.363281 Z M 1435.691406 424.785156 L 1430.628906 424.785156 L 1430.628906 423.144531 L 1435.503906 413.691406 L 1437.332031 413.691406 L 1437.332031 423.363281 L 1439.035156 423.363281 L 1439.035156 424.785156 L 1437.332031 424.785156 L 1437.332031 428.300781 L 1435.691406 428.300781 Z M 1389.832031 409.402344 "/>
<path style=" stroke:none;fill-rule:nonzero;fill:rgb(65.882353%,63.529412%,61.960784%);fill-opacity:1;" d="M 1668.359375 413.863281 C 1668.816406 413.625 1669.363281 413.503906 1670 413.503906 C 1670.632812 413.503906 1671.179688 413.625 1671.640625 413.863281 C 1672.097656 414.105469 1672.492188 414.503906 1672.828125 415.066406 C 1673.160156 415.628906 1673.40625 416.402344 1673.5625 417.378906 C 1673.726562 418.347656 1673.8125 419.550781 1673.8125 420.988281 C 1673.8125 422.425781 1673.726562 423.640625 1673.5625 424.628906 C 1673.40625 425.609375 1673.160156 426.378906 1672.828125 426.941406 C 1672.492188 427.503906 1672.097656 427.90625 1671.640625 428.144531 C 1671.179688 428.386719 1670.632812 428.503906 1670 428.503906 C 1669.363281 428.503906 1668.816406 428.386719 1668.359375 428.144531 C 1667.898438 427.90625 1667.503906 427.503906 1667.171875 426.941406 C 1666.847656 426.378906 1666.601562 425.609375 1666.4375 424.628906 C 1666.269531 423.640625 1666.1875 422.425781 1666.1875 420.988281 C 1666.1875 419.550781 1666.269531 418.347656 1666.4375 417.378906 C 1666.601562 416.402344 1666.847656 415.628906 1667.171875 415.066406 C 1667.503906 414.503906 1667.898438 414.105469 1668.359375 413.863281 Z M 1667.828125 423.332031 L 1671.765625 416.535156 C 1671.410156 415.441406 1670.820312 414.894531 1670 414.894531 C 1669.519531 414.894531 1669.117188 415.074219 1668.796875 415.425781 C 1668.484375 415.769531 1668.226562 416.402344 1668.03125 417.316406 C 1667.84375 418.234375 1667.75 419.464844 1667.75 421.003906 C 1667.75 421.671875 1667.773438 422.449219 1667.828125 423.332031 Z M 1668.171875 425.207031 C 1668.503906 426.46875 1669.113281 427.097656 1670 427.097656 C 1670.476562 427.097656 1670.878906 426.925781 1671.203125 426.582031 C 1671.523438 426.238281 1671.78125 425.609375 1671.96875 424.691406 C 1672.15625 423.765625 1672.25 422.535156 1672.25 421.003906 C 1672.25 419.964844 1672.207031 419.078125 1672.125 418.347656 Z M 1678.59375 419.691406 L 1678.640625 419.691406 C 1679.078125 419.308594 1679.660156 419.113281 1680.390625 419.113281 C 1682.523438 419.113281 1683.59375 420.640625 1683.59375 423.691406 C 1683.59375 425.359375 1683.265625 426.578125 1682.609375 427.347656 C 1681.953125 428.121094 1680.984375 428.503906 1679.703125 428.503906 C 1678.710938 428.503906 1677.742188 428.300781 1676.796875 427.894531 L 1676.796875 426.160156 C 1677.796875 426.734375 1678.734375 427.019531 1679.609375 427.019531 C 1681.148438 427.019531 1681.921875 425.910156 1681.921875 423.691406 C 1681.921875 421.609375 1681.28125 420.566406 1680 420.566406 C 1679.382812 420.566406 1678.851562 420.84375 1678.40625 421.394531 L 1676.890625 421.394531 L 1677.109375 413.691406 L 1683.203125 413.691406 L 1683.203125 415.144531 L 1678.734375 415.144531 Z M 1687 422.910156 L 1687 421.472656 L 1693.015625 421.472656 L 1693.015625 422.910156 Z M 1698.5 426.816406 L 1698.5 426.863281 L 1703.40625 426.863281 L 1703.40625 428.300781 L 1696.609375 428.300781 L 1696.609375 426.863281 C 1699.953125 423.019531 1701.625 419.828125 1701.625 417.285156 C 1701.625 415.753906 1701.003906 414.988281 1699.765625 414.988281 C 1699.359375 414.988281 1698.847656 415.140625 1698.234375 415.441406 C 1697.628906 415.734375 1697.085938 416.097656 1696.609375 416.535156 L 1696.609375 414.785156 C 1697.609375 413.933594 1698.738281 413.503906 1700 413.503906 C 1701.132812 413.503906 1701.96875 413.816406 1702.5 414.441406 C 1703.03125 415.066406 1703.296875 416.015625 1703.296875 417.285156 C 1703.296875 418.621094 1702.9375 420.015625 1702.21875 421.472656 C 1701.5 422.921875 1700.257812 424.703125 1698.5 426.816406 Z M 1708.59375 419.691406 L 1708.640625 419.691406 C 1709.078125 419.308594 1709.660156 419.113281 1710.390625 419.113281 C 1712.523438 419.113281 1713.59375 420.640625 1713.59375 423.691406 C 1713.59375 425.359375 1713.265625 426.578125 1712.609375 427.347656 C 1711.953125 428.121094 1710.984375 428.503906 1709.703125 428.503906 C 1708.710938 428.503906 1707.742188 428.300781 1706.796875 427.894531 L 1706.796875 426.160156 C 1707.796875 426.734375 1708.734375 427.019531 1709.609375 427.019531 C 1711.148438 427.019531 1711.921875 425.910156 1711.921875 423.691406 C 1711.921875 421.609375 1711.28125 420.566406 1710 420.566406 C 1709.382812 420.566406 1708.851562 420.84375 1708.40625 421.394531 L 1706.890625 421.394531 L 1707.109375 413.691406 L 1713.203125 413.691406 L 1713.203125 415.144531 L 1708.734375 415.144531 Z M 1665 409.402344 "/>
<path style="fill:none;stroke-width:1;stroke-linecap:butt;stroke-linejoin:miter;stroke:rgb(0%,0%,0%);stroke-opacity:0.0980392;stroke-miterlimit:10;" d="M 19 32.5 L 19 194.5 " transform="matrix(2,0,0,2,0,0)"/>
<path style=" stroke:none;fill-rule:nonzero;fill:rgb(65.882353%,63.529412%,61.960784%);fill-opacity:1;" d="M 9.359375 379.863281 C 9.816406 379.625 10.363281 379.503906 11 379.503906 C 11.632812 379.503906 12.179688 379.625 12.640625 379.863281 C 13.097656 380.105469 13.492188 380.503906 13.828125 381.066406 C 14.160156 381.628906 14.40625 382.402344 14.5625 383.378906 C 14.726562 384.347656 14.8125 385.550781 14.8125 386.988281 C 14.8125 388.425781 14.726562 389.640625 14.5625 390.628906 C 14.40625 391.609375 14.160156 392.378906 13.828125 392.941406 C 13.492188 393.503906 13.097656 393.90625 12.640625 394.144531 C 12.179688 394.386719 11.632812 394.503906 11 394.503906 C 10.363281 394.503906 9.816406 394.386719 9.359375 394.144531 C 8.898438 393.90625 8.503906 393.503906 8.171875 392.941406 C 7.847656 392.378906 7.601562 391.609375 7.4375 390.628906 C 7.269531 389.640625 7.1875 388.425781 7.1875 386.988281 C 7.1875 385.550781 7.269531 384.347656 7.4375 383.378906 C 7.601562 382.402344 7.847656 381.628906 8.171875 381.066406 C 8.503906 380.503906 8.898438 380.105469 9.359375 379.863281 Z M 8.828125 389.332031 L 12.765625 382.535156 C 12.410156 381.441406 11.820312 380.894531 11 380.894531 C 10.519531 380.894531 10.117188 381.074219 9.796875 381.425781 C 9.484375 381.769531 9.226562 382.402344 9.03125 383.316406 C 8.84375 384.234375 8.75 385.464844 8.75 387.003906 C 8.75 387.671875 8.773438 388.449219 8.828125 389.332031 Z M 9.171875 391.207031 C 9.503906 392.46875 10.113281 393.097656 11 393.097656 C 11.476562 393.097656 11.878906 392.925781 12.203125 392.582031 C 12.523438 392.238281 12.78125 391.609375 12.96875 390.691406 C 13.15625 389.765625 13.25 388.535156 13.25 387.003906 C 13.25 385.964844 13.207031 385.078125 13.125 384.347656 Z M 6 375.402344 "/>
<path style=" stroke:none;fill-rule:nonzero;fill:rgb(65.882353%,63.529412%,61.960784%);fill-opacity:1;" d="M 11.15625 287.101562 L 11.15625 274.195312 L 11.125 274.179688 L 7.65625 276.195312 L 7.65625 274.601562 L 11.15625 272.492188 L 12.796875 272.492188 L 12.796875 287.101562 Z M 6 268.203125 "/>
<path style=" stroke:none;fill-rule:nonzero;fill:rgb(65.882353%,63.529412%,61.960784%);fill-opacity:1;" d="M 9.5 178.417969 L 9.5 178.464844 L 14.40625 178.464844 L 14.40625 179.902344 L 7.609375 179.902344 L 7.609375 178.464844 C 10.953125 174.621094 12.625 171.429688 12.625 168.886719 C 12.625 167.355469 12.003906 166.589844 10.765625 166.589844 C 10.359375 166.589844 9.847656 166.742188 9.234375 167.042969 C 8.628906 167.335938 8.085938 167.699219 7.609375 168.136719 L 7.609375 166.386719 C 8.609375 165.535156 9.738281 165.105469 11 165.105469 C 12.132812 165.105469 12.96875 165.417969 13.5 166.042969 C 14.03125 166.667969 14.296875 167.617188 14.296875 168.886719 C 14.296875 170.222656 13.9375 171.617188 13.21875 173.074219 C 12.5 174.523438 11.257812 176.304688 9.5 178.417969 Z M 6 161.003906 "/>
<path style=" stroke:none;fill-rule:nonzero;fill:rgb(65.882353%,63.529412%,61.960784%);fill-opacity:1;" d="M 12.609375 59.574219 L 12.609375 59.542969 L 7.609375 59.542969 L 7.609375 58.089844 L 14.5 58.089844 L 14.5 59.542969 L 10.90625 64.105469 L 10.90625 64.152344 L 11.09375 64.152344 C 12.3125 64.152344 13.195312 64.496094 13.75 65.183594 C 14.3125 65.863281 14.59375 66.972656 14.59375 68.511719 C 14.59375 71.441406 13.296875 72.902344 10.703125 72.902344 C 9.734375 72.902344 8.765625 72.699219 7.796875 72.292969 L 7.796875 70.558594 C 8.828125 71.132812 9.691406 71.417969 10.390625 71.417969 C 11.253906 71.417969 11.890625 71.191406 12.296875 70.730469 C 12.710938 70.261719 12.921875 69.523438 12.921875 68.511719 C 12.921875 67.316406 12.753906 66.527344 12.421875 66.152344 C 12.085938 65.777344 11.410156 65.589844 10.390625 65.589844 L 9.015625 65.589844 L 9.015625 64.152344 Z M 6 53.800781 "/>
<g clip-path="url(#hS1VJrDWva__clip1)" clip-rule="nonzero">
<path style=" stroke:none;fill-rule:nonzero;fill:rgb(14.509804%,38.823529%,92.156863%);fill-opacity:0.2;" d="M 38 388 C 120.550781 388 230.617188 388 313.167969 388 C 395.714844 388 523.285156 388 588.332031 388 C 688.386719 329.53125 780.949219 66.398438 863.5 66.398438 C 946.050781 66.398438 1038.613281 329.53125 1138.667969 388 C 1203.714844 388 1348.785156 388 1413.832031 388 C 1513.886719 329.53125 1606.449219 162.878906 1689 66.398438 L 1689 388 Z M 38 388 "/>
</g>
<g clip-path="url(#hS1VJrDWva__clip2)" clip-rule="nonzero">
<path style="fill:none;stroke-width:3;stroke-linecap:butt;stroke-linejoin:miter;stroke:rgb(11.372549%,30.588235%,84.705882%);stroke-opacity:1;stroke-miterlimit:10;" d="M 19 194 C 60.275391 194 115.308594 194 156.583984 194 C 197.857422 194 261.642578 194 294.166016 194 C 344.193359 164.765625 390.474609 33.199219 431.75 33.199219 C 473.025391 33.199219 519.306641 164.765625 569.333984 194 C 601.857422 194 674.392578 194 706.916016 194 C 756.943359 164.765625 803.224609 81.439453 844.5 33.199219 " transform="matrix(2,0,0,2,0,0)"/>
</g>
<path style=" stroke:none;fill-rule:nonzero;fill:rgb(11.372549%,30.588235%,84.705882%);fill-opacity:1;" d="M 48 388 C 48 393.523438 43.523438 398 38 398 C 32.476562 398 28 393.523438 28 388 C 28 382.476562 32.476562 378 38 378 C 43.523438 378 48 382.476562 48 388 Z M 48 388 "/>
<g clip-path="url(#hS1VJrDWva__clip3)" clip-rule="nonzero">
<path style="fill:none;stroke-width:2;stroke-linecap:butt;stroke-linejoin:miter;stroke:rgb(96.078431%,96.078431%,95.686275%);stroke-opacity:1;stroke-miterlimit:10;" d="M 24 194 C 24 196.761719 21.761719 199 19 199 C 16.238281 199 14 196.761719 14 194 C 14 191.238281 16.238281 189 19 189 C 21.761719 189 24 191.238281 24 194 Z M 24 194 " transform="matrix(2,0,0,2,0,0)"/>
</g>
<path style=" stroke:none;fill-rule:nonzero;fill:rgb(11.372549%,30.588235%,84.705882%);fill-opacity:1;" d="M 323.167969 388 C 323.167969 393.523438 318.691406 398 313.167969 398 C 307.644531 398 303.167969 393.523438 303.167969 388 C 303.167969 382.476562 307.644531 378 313.167969 378 C 318.691406 378 323.167969 382.476562 323.167969 388 Z M 323.167969 388 "/>
<g clip-path="url(#hS1VJrDWva__clip4)" clip-rule="nonzero">
<path style="fill:none;stroke-width:2;stroke-linecap:butt;stroke-linejoin:miter;stroke:rgb(96.078431%,96.078431%,95.686275%);stroke-opacity:1;stroke-miterlimit:10;" d="M 161.583984 194 C 161.583984 196.761719 159.345703 199 156.583984 199 C 153.822266 199 151.583984 196.761719 151.583984 194 C 151.583984 191.238281 153.822266 189 156.583984 189 C 159.345703 189 161.583984 191.238281 161.583984 194 Z M 161.583984 194 " transform="matrix(2,0,0,2,0,0)"/>
</g>
<path style=" stroke:none;fill-rule:nonzero;fill:rgb(11.372549%,30.588235%,84.705882%);fill-opacity:1;" d="M 598.332031 388 C 598.332031 393.523438 593.855469 398 588.332031 398 C 582.808594 398 578.332031 393.523438 578.332031 388 C 578.332031 382.476562 582.808594 378 588.332031 378 C 593.855469 378 598.332031 382.476562 598.332031 388 Z M 598.332031 388 "/>
<g clip-path="url(#hS1VJrDWva__clip5)" clip-rule="nonzero">
<path style="fill:none;stroke-width:2;stroke-linecap:butt;stroke-linejoin:miter;stroke:rgb(96.078431%,96.078431%,95.686275%);stroke-opacity:1;stroke-miterlimit:10;" d="M 299.166016 194 C 299.166016 196.761719 296.927734 199 294.166016 199 C 291.404297 199 289.166016 196.761719 289.166016 194 C 289.166016 191.238281 291.404297 189 294.166016 189 C 296.927734 189 299.166016 191.238281 299.166016 194 Z M 299.166016 194 " transform="matrix(2,0,0,2,0,0)"/>
</g>
<path style=" stroke:none;fill-rule:nonzero;fill:rgb(11.372549%,30.588235%,84.705882%);fill-opacity:1;" d="M 873.5 66.398438 C 873.5 71.921875 869.023438 76.398438 863.5 76.398438 C 857.976562 76.398438 853.5 71.921875 853.5 66.398438 C 853.5 60.878906 857.976562 56.398438 863.5 56.398438 C 869.023438 56.398438 873.5 60.878906 873.5 66.398438 Z M 873.5 66.398438 "/>
<g clip-path="url(#hS1VJrDWva__clip6)" clip-rule="nonzero">
<path style="fill:none;stroke-width:2;stroke-linecap:butt;stroke-linejoin:miter;stroke:rgb(96.078431%,96.078431%,95.686275%);stroke-opacity:1;stroke-miterlimit:10;" d="M 436.75 33.199219 C 436.75 35.960938 434.511719 38.199219 431.75 38.199219 C 428.988281 38.199219 426.75 35.960938 426.75 33.199219 C 426.75 30.439453 428.988281 28.199219 431.75 28.199219 C 434.511719 28.199219 436.75 30.439453 436.75 33.199219 Z M 436.75 33.199219 " transform="matrix(2,0,0,2,0,0)"/>
</g>
<path style=" stroke:none;fill-rule:nonzero;fill:rgb(11.372549%,30.588235%,84.705882%);fill-opacity:1;" d="M 1148.667969 388 C 1148.667969 393.523438 1144.191406 398 1138.667969 398 C 1133.144531 398 1128.667969 393.523438 1128.667969 388 C 1128.667969 382.476562 1133.144531 378 1138.667969 378 C 1144.191406 378 1148.667969 382.476562 1148.667969 388 Z M 1148.667969 388 "/>
<g clip-path="url(#hS1VJrDWva__clip7)" clip-rule="nonzero">
<path style="fill:none;stroke-width:2;stroke-linecap:butt;stroke-linejoin:miter;stroke:rgb(96.078431%,96.078431%,95.686275%);stroke-opacity:1;stroke-miterlimit:10;" d="M 574.333984 194 C 574.333984 196.761719 572.095703 199 569.333984 199 C 566.572266 199 564.333984 196.761719 564.333984 194 C 564.333984 191.238281 566.572266 189 569.333984 189 C 572.095703 189 574.333984 191.238281 574.333984 194 Z M 574.333984 194 " transform="matrix(2,0,0,2,0,0)"/>
</g>
<path style=" stroke:none;fill-rule:nonzero;fill:rgb(11.372549%,30.588235%,84.705882%);fill-opacity:1;" d="M 1423.832031 388 C 1423.832031 393.523438 1419.355469 398 1413.832031 398 C 1408.308594 398 1403.832031 393.523438 1403.832031 388 C 1403.832031 382.476562 1408.308594 378 1413.832031 378 C 1419.355469 378 1423.832031 382.476562 1423.832031 388 Z M 1423.832031 388 "/>
<g clip-path="url(#hS1VJrDWva__clip8)" clip-rule="nonzero">
<path style="fill:none;stroke-width:2;stroke-linecap:butt;stroke-linejoin:miter;stroke:rgb(96.078431%,96.078431%,95.686275%);stroke-opacity:1;stroke-miterlimit:10;" d="M 711.916016 194 C 711.916016 196.761719 709.677734 199 706.916016 199 C 704.154297 199 701.916016 196.761719 701.916016 194 C 701.916016 191.238281 704.154297 189 706.916016 189 C 709.677734 189 711.916016 191.238281 711.916016 194 Z M 711.916016 194 " transform="matrix(2,0,0,2,0,0)"/>
</g>
<path style=" stroke:none;fill-rule:nonzero;fill:rgb(11.372549%,30.588235%,84.705882%);fill-opacity:1;" d="M 1699 66.398438 C 1699 71.921875 1694.523438 76.398438 1689 76.398438 C 1683.476562 76.398438 1679 71.921875 1679 66.398438 C 1679 60.878906 1683.476562 56.398438 1689 56.398438 C 1694.523438 56.398438 1699 60.878906 1699 66.398438 Z M 1699 66.398438 "/>
<g clip-path="url(#hS1VJrDWva__clip9)" clip-rule="nonzero">
<path style="fill:none;stroke-width:2;stroke-linecap:butt;stroke-linejoin:miter;stroke:rgb(96.078431%,96.078431%,95.686275%);stroke-opacity:1;stroke-miterlimit:10;" d="M 849.5 33.199219 C 849.5 35.960938 847.261719 38.199219 844.5 38.199219 C 841.738281 38.199219 839.5 35.960938 839.5 33.199219 C 839.5 30.439453 841.738281 28.199219 844.5 28.199219 C 847.261719 28.199219 849.5 30.439453 849.5 33.199219 Z M 849.5 33.199219 " transform="matrix(2,0,0,2,0,0)"/>
</g>
<path style=" stroke:none;fill-rule:nonzero;fill:rgb(34.117647%,32.54902%,30.588235%);fill-opacity:1;" d="M 1692.609375 21.175781 L 1692.609375 21.144531 L 1687.609375 21.144531 L 1687.609375 19.691406 L 1694.5 19.691406 L 1694.5 21.144531 L 1690.90625 25.707031 L 1690.90625 25.753906 L 1691.09375 25.753906 C 1692.3125 25.753906 1693.195312 26.097656 1693.75 26.785156 C 1694.3125 27.464844 1694.59375 28.574219 1694.59375 30.113281 C 1694.59375 33.042969 1693.296875 34.503906 1690.703125 34.503906 C 1689.734375 34.503906 1688.765625 34.300781 1687.796875 33.894531 L 1687.796875 32.160156 C 1688.828125 32.734375 1689.691406 33.019531 1690.390625 33.019531 C 1691.253906 33.019531 1691.890625 32.792969 1692.296875 32.332031 C 1692.710938 31.863281 1692.921875 31.125 1692.921875 30.113281 C 1692.921875 28.917969 1692.753906 28.128906 1692.421875 27.753906 C 1692.085938 27.378906 1691.410156 27.191406 1690.390625 27.191406 L 1689.015625 27.191406 L 1689.015625 25.753906 Z M 1686 15.402344 "/>
<path style=" stroke:none;fill-rule:nonzero;fill:rgb(34.117647%,32.54902%,30.588235%);fill-opacity:1;" d="M 1413.359375 341.863281 C 1413.816406 341.625 1414.363281 341.503906 1415 341.503906 C 1415.632812 341.503906 1416.179688 341.625 1416.640625 341.863281 C 1417.097656 342.105469 1417.492188 342.503906 1417.828125 343.066406 C 1418.160156 343.628906 1418.40625 344.402344 1418.5625 345.378906 C 1418.726562 346.347656 1418.8125 347.550781 1418.8125 348.988281 C 1418.8125 350.425781 1418.726562 351.640625 1418.5625 352.628906 C 1418.40625 353.609375 1418.160156 354.378906 1417.828125 354.941406 C 1417.492188 355.503906 1417.097656 355.90625 1416.640625 356.144531 C 1416.179688 356.386719 1415.632812 356.503906 1415 356.503906 C 1414.363281 356.503906 1413.816406 356.386719 1413.359375 356.144531 C 1412.898438 355.90625 1412.503906 355.503906 1412.171875 354.941406 C 1411.847656 354.378906 1411.601562 353.609375 1411.4375 352.628906 C 1411.269531 351.640625 1411.1875 350.425781 1411.1875 348.988281 C 1411.1875 347.550781 1411.269531 346.347656 1411.4375 345.378906 C 1411.601562 344.402344 1411.847656 343.628906 1412.171875 343.066406 C 1412.503906 342.503906 1412.898438 342.105469 1413.359375 341.863281 Z M 1412.828125 351.332031 L 1416.765625 344.535156 C 1416.410156 343.441406 1415.820312 342.894531 1415 342.894531 C 1414.519531 342.894531 1414.117188 343.074219 1413.796875 343.425781 C 1413.484375 343.769531 1413.226562 344.402344 1413.03125 345.316406 C 1412.84375 346.234375 1412.75 347.464844 1412.75 349.003906 C 1412.75 349.671875 1412.773438 350.449219 1412.828125 351.332031 Z M 1413.171875 353.207031 C 1413.503906 354.46875 1414.113281 355.097656 1415 355.097656 C 1415.476562 355.097656 1415.878906 354.925781 1416.203125 354.582031 C 1416.523438 354.238281 1416.78125 353.609375 1416.96875 352.691406 C 1417.15625 351.765625 1417.25 350.535156 1417.25 349.003906 C 1417.25 347.964844 1417.207031 347.078125 1417.125 346.347656 Z M 1410 337.402344 "/>
<path style=" stroke:none;fill-rule:nonzero;fill:rgb(34.117647%,32.54902%,30.588235%);fill-opacity:1;" d="M 1137.359375 341.863281 C 1137.816406 341.625 1138.363281 341.503906 1139 341.503906 C 1139.632812 341.503906 1140.179688 341.625 1140.640625 341.863281 C 1141.097656 342.105469 1141.492188 342.503906 1141.828125 343.066406 C 1142.160156 343.628906 1142.40625 344.402344 1142.5625 345.378906 C 1142.726562 346.347656 1142.8125 347.550781 1142.8125 348.988281 C 1142.8125 350.425781 1142.726562 351.640625 1142.5625 352.628906 C 1142.40625 353.609375 1142.160156 354.378906 1141.828125 354.941406 C 1141.492188 355.503906 1141.097656 355.90625 1140.640625 356.144531 C 1140.179688 356.386719 1139.632812 356.503906 1139 356.503906 C 1138.363281 356.503906 1137.816406 356.386719 1137.359375 356.144531 C 1136.898438 355.90625 1136.503906 355.503906 1136.171875 354.941406 C 1135.847656 354.378906 1135.601562 353.609375 1135.4375 352.628906 C 1135.269531 351.640625 1135.1875 350.425781 1135.1875 348.988281 C 1135.1875 347.550781 1135.269531 346.347656 1135.4375 345.378906 C 1135.601562 344.402344 1135.847656 343.628906 1136.171875 343.066406 C 1136.503906 342.503906 1136.898438 342.105469 1137.359375 341.863281 Z M 1136.828125 351.332031 L 1140.765625 344.535156 C 1140.410156 343.441406 1139.820312 342.894531 1139 342.894531 C 1138.519531 342.894531 1138.117188 343.074219 1137.796875 343.425781 C 1137.484375 343.769531 1137.226562 344.402344 1137.03125 345.316406 C 1136.84375 346.234375 1136.75 347.464844 1136.75 349.003906 C 1136.75 349.671875 1136.773438 350.449219 1136.828125 351.332031 Z M 1137.171875 353.207031 C 1137.503906 354.46875 1138.113281 355.097656 1139 355.097656 C 1139.476562 355.097656 1139.878906 354.925781 1140.203125 354.582031 C 1140.523438 354.238281 1140.78125 353.609375 1140.96875 352.691406 C 1141.15625 351.765625 1141.25 350.535156 1141.25 349.003906 C 1141.25 347.964844 1141.207031 347.078125 1141.125 346.347656 Z M 1134 337.402344 "/>
<path style=" stroke:none;fill-rule:nonzero;fill:rgb(34.117647%,32.54902%,30.588235%);fill-opacity:1;" d="M 866.609375 21.175781 L 866.609375 21.144531 L 861.609375 21.144531 L 861.609375 19.691406 L 868.5 19.691406 L 868.5 21.144531 L 864.90625 25.707031 L 864.90625 25.753906 L 865.09375 25.753906 C 866.3125 25.753906 867.195312 26.097656 867.75 26.785156 C 868.3125 27.464844 868.59375 28.574219 868.59375 30.113281 C 868.59375 33.042969 867.296875 34.503906 864.703125 34.503906 C 863.734375 34.503906 862.765625 34.300781 861.796875 33.894531 L 861.796875 32.160156 C 862.828125 32.734375 863.691406 33.019531 864.390625 33.019531 C 865.253906 33.019531 865.890625 32.792969 866.296875 32.332031 C 866.710938 31.863281 866.921875 31.125 866.921875 30.113281 C 866.921875 28.917969 866.753906 28.128906 866.421875 27.753906 C 866.085938 27.378906 865.410156 27.191406 864.390625 27.191406 L 863.015625 27.191406 L 863.015625 25.753906 Z M 860 15.402344 "/>
<path style=" stroke:none;fill-rule:nonzero;fill:rgb(34.117647%,32.54902%,30.588235%);fill-opacity:1;" d="M 587.359375 341.863281 C 587.816406 341.625 588.363281 341.503906 589 341.503906 C 589.632812 341.503906 590.179688 341.625 590.640625 341.863281 C 591.097656 342.105469 591.492188 342.503906 591.828125 343.066406 C 592.160156 343.628906 592.40625 344.402344 592.5625 345.378906 C 592.726562 346.347656 592.8125 347.550781 592.8125 348.988281 C 592.8125 350.425781 592.726562 351.640625 592.5625 352.628906 C 592.40625 353.609375 592.160156 354.378906 591.828125 354.941406 C 591.492188 355.503906 591.097656 355.90625 590.640625 356.144531 C 590.179688 356.386719 589.632812 356.503906 589 356.503906 C 588.363281 356.503906 587.816406 356.386719 587.359375 356.144531 C 586.898438 355.90625 586.503906 355.503906 586.171875 354.941406 C 585.847656 354.378906 585.601562 353.609375 585.4375 352.628906 C 585.269531 351.640625 585.1875 350.425781 585.1875 348.988281 C 585.1875 347.550781 585.269531 346.347656 585.4375 345.378906 C 585.601562 344.402344 585.847656 343.628906 586.171875 343.066406 C 586.503906 342.503906 586.898438 342.105469 587.359375 341.863281 Z M 586.828125 351.332031 L 590.765625 344.535156 C 590.410156 343.441406 589.820312 342.894531 589 342.894531 C 588.519531 342.894531 588.117188 343.074219 587.796875 343.425781 C 587.484375 343.769531 587.226562 344.402344 587.03125 345.316406 C 586.84375 346.234375 586.75 347.464844 586.75 349.003906 C 586.75 349.671875 586.773438 350.449219 586.828125 351.332031 Z M 587.171875 353.207031 C 587.503906 354.46875 588.113281 355.097656 589 355.097656 C 589.476562 355.097656 589.878906 354.925781 590.203125 354.582031 C 590.523438 354.238281 590.78125 353.609375 590.96875 352.691406 C 591.15625 351.765625 591.25 350.535156 591.25 349.003906 C 591.25 347.964844 591.207031 347.078125 591.125 346.347656 Z M 584 337.402344 "/>
<path style=" stroke:none;fill-rule:nonzero;fill:rgb(34.117647%,32.54902%,30.588235%);fill-opacity:1;" d="M 313.359375 341.863281 C 313.816406 341.625 314.363281 341.503906 315 341.503906 C 315.632812 341.503906 316.179688 341.625 316.640625 341.863281 C 317.097656 342.105469 317.492188 342.503906 317.828125 343.066406 C 318.160156 343.628906 318.40625 344.402344 318.5625 345.378906 C 318.726562 346.347656 318.8125 347.550781 318.8125 348.988281 C 318.8125 350.425781 318.726562 351.640625 318.5625 352.628906 C 318.40625 353.609375 318.160156 354.378906 317.828125 354.941406 C 317.492188 355.503906 317.097656 355.90625 316.640625 356.144531 C 316.179688 356.386719 315.632812 356.503906 315 356.503906 C 314.363281 356.503906 313.816406 356.386719 313.359375 356.144531 C 312.898438 355.90625 312.503906 355.503906 312.171875 354.941406 C 311.847656 354.378906 311.601562 353.609375 311.4375 352.628906 C 311.269531 351.640625 311.1875 350.425781 311.1875 348.988281 C 311.1875 347.550781 311.269531 346.347656 311.4375 345.378906 C 311.601562 344.402344 311.847656 343.628906 312.171875 343.066406 C 312.503906 342.503906 312.898438 342.105469 313.359375 341.863281 Z M 312.828125 351.332031 L 316.765625 344.535156 C 316.410156 343.441406 315.820312 342.894531 315 342.894531 C 314.519531 342.894531 314.117188 343.074219 313.796875 343.425781 C 313.484375 343.769531 313.226562 344.402344 313.03125 345.316406 C 312.84375 346.234375 312.75 347.464844 312.75 349.003906 C 312.75 349.671875 312.773438 350.449219 312.828125 351.332031 Z M 313.171875 353.207031 C 313.503906 354.46875 314.113281 355.097656 315 355.097656 C 315.476562 355.097656 315.878906 354.925781 316.203125 354.582031 C 316.523438 354.238281 316.78125 353.609375 316.96875 352.691406 C 317.15625 351.765625 317.25 350.535156 317.25 349.003906 C 317.25 347.964844 317.207031 347.078125 317.125 346.347656 Z M 310 337.402344 "/>
<path style=" stroke:none;fill-rule:nonzero;fill:rgb(34.117647%,32.54902%,30.588235%);fill-opacity:1;" d="M 37.359375 341.863281 C 37.816406 341.625 38.363281 341.503906 39 341.503906 C 39.632812 341.503906 40.179688 341.625 40.640625 341.863281 C 41.097656 342.105469 41.492188 342.503906 41.828125 343.066406 C 42.160156 343.628906 42.40625 344.402344 42.5625 345.378906 C 42.726562 346.347656 42.8125 347.550781 42.8125 348.988281 C 42.8125 350.425781 42.726562 351.640625 42.5625 352.628906 C 42.40625 353.609375 42.160156 354.378906 41.828125 354.941406 C 41.492188 355.503906 41.097656 355.90625 40.640625 356.144531 C 40.179688 356.386719 39.632812 356.503906 39 356.503906 C 38.363281 356.503906 37.816406 356.386719 37.359375 356.144531 C 36.898438 355.90625 36.503906 355.503906 36.171875 354.941406 C 35.847656 354.378906 35.601562 353.609375 35.4375 352.628906 C 35.269531 351.640625 35.1875 350.425781 35.1875 348.988281 C 35.1875 347.550781 35.269531 346.347656 35.4375 345.378906 C 35.601562 344.402344 35.847656 343.628906 36.171875 343.066406 C 36.503906 342.503906 36.898438 342.105469 37.359375 341.863281 Z M 36.828125 351.332031 L 40.765625 344.535156 C 40.410156 343.441406 39.820312 342.894531 39 342.894531 C 38.519531 342.894531 38.117188 343.074219 37.796875 343.425781 C 37.484375 343.769531 37.226562 344.402344 37.03125 345.316406 C 36.84375 346.234375 36.75 347.464844 36.75 349.003906 C 36.75 349.671875 36.773438 350.449219 36.828125 351.332031 Z M 37.171875 353.207031 C 37.503906 354.46875 38.113281 355.097656 39 355.097656 C 39.476562 355.097656 39.878906 354.925781 40.203125 354.582031 C 40.523438 354.238281 40.78125 353.609375 40.96875 352.691406 C 41.15625 351.765625 41.25 350.535156 41.25 349.003906 C 41.25 347.964844 41.207031 347.078125 41.125 346.347656 Z M 34 337.402344 "/>
</g>
</svg>
