<?xml version="1.0" encoding="UTF-8"?>
<svg xmlns="http://www.w3.org/2000/svg" xmlns:xlink="http://www.w3.org/1999/xlink" width="1720pt" height="440pt" viewBox="0 0 1720 440" version="1.1">
<defs>
<clipPath id="b4KWU0g2nK__clip1">
  <path d="M 24 303 L 1703 303 L 1703 402 L 24 402 Z M 24 303 "/>
</clipPath>
<clipPath id="b4KWU0g2nK__clip2">
  <path d="M 24 321 L 105 321 L 105 402 L 24 402 Z M 24 321 "/>
</clipPath>
<clipPath id="b4KWU0g2nK__clip3">
  <path d="M 246 321 L 380 321 L 380 402 L 246 402 Z M 246 321 "/>
</clipPath>
<clipPath id="b4KWU0g2nK__clip4">
  <path d="M 521 321 L 655 321 L 655 402 L 521 402 Z M 521 321 "/>
</clipPath>
<clipPath id="b4KWU0g2nK__clip5">
  <path d="M 796 321 L 931 321 L 931 402 L 796 402 Z M 796 321 "/>
</clipPath>
<clipPath id="b4KWU0g2nK__clip6">
  <path d="M 1072 321 L 1206 321 L 1206 402 L 1072 402 Z M 1072 321 "/>
</clipPath>
<clipPath id="b4KWU0g2nK__clip7">
  <path d="M 1347 321 L 1481 321 L 1481 402 L 1347 402 Z M 1347 321 "/>
</clipPath>
<clipPath id="b4KWU0g2nK__clip8">
  <path d="M 1622 321 L 1703 321 L 1703 402 L 1622 402 Z M 1622 321 "/>
</clipPath>
</defs>
<g id="surface89890">
<rect x="0" y="0" width="1720" height="440" style="fill:rgb(5.098039%,5.098039%,5.098039%);fill-opacity:1;stroke:none;"/>
<path style="fill:none;stroke-width:1;stroke-linecap:butt;stroke-linejoin:miter;stroke:rgb(6.666667%,6.666667%,6.666667%);stroke-opacity:1;stroke-miterlimit:10;" d="M 19 33.199219 L 19 193.5 " transform="matrix(2,0,0,2,0,0)"/>
<path style="fill:none;stroke-width:1;stroke-linecap:butt;stroke-linejoin:miter;stroke:rgb(6.666667%,6.666667%,6.666667%);stroke-opacity:1;stroke-miterlimit:10;" d="M 19 194.5 L 19 202 " transform="matrix(2,0,0,2,0,0)"/>
<path style="fill:none;stroke-width:1;stroke-linecap:butt;stroke-linejoin:miter;stroke:rgb(6.666667%,6.666667%,6.666667%);stroke-opacity:1;stroke-miterlimit:10;" d="M 156.5 33.199219 L 156.5 193.5 " transform="matrix(2,0,0,2,0,0)"/>
<path style="fill:none;stroke-width:1;stroke-linecap:butt;stroke-linejoin:miter;stroke:rgb(6.666667%,6.666667%,6.666667%);stroke-opacity:1;stroke-miterlimit:10;" d="M 156.5 194.5 L 156.5 202 " transform="matrix(2,0,0,2,0,0)"/>
<path style="fill:none;stroke-width:1;stroke-linecap:butt;stroke-linejoin:miter;stroke:rgb(6.666667%,6.666667%,6.666667%);stroke-opacity:1;stroke-miterlimit:10;" d="M 294 33.199219 L 294 193.5 " transform="matrix(2,0,0,2,0,0)"/>
<path style="fill:none;stroke-width:1;stroke-linecap:butt;stroke-linejoin:miter;stroke:rgb(6.666667%,6.666667%,6.666667%);stroke-opacity:1;stroke-miterlimit:10;" d="M 294 194.5 L 294 202 " transform="matrix(2,0,0,2,0,0)"/>
<path style="fill:none;stroke-width:1;stroke-linecap:butt;stroke-linejoin:miter;stroke:rgb(6.666667%,6.666667%,6.666667%);stroke-opacity:1;stroke-miterlimit:10;" d="M 432 33.199219 L 432 193.5 " transform="matrix(2,0,0,2,0,0)"/>
<path style="fill:none;stroke-width:1;stroke-linecap:butt;stroke-linejoin:miter;stroke:rgb(6.666667%,6.666667%,6.666667%);stroke-opacity:1;stroke-miterlimit:10;" d="M 432 194.5 L 432 202 " transform="matrix(2,0,0,2,0,0)"/>
<path style="fill:none;stroke-width:1;stroke-linecap:butt;stroke-linejoin:miter;stroke:rgb(6.666667%,6.666667%,6.666667%);stroke-opacity:1;stroke-miterlimit:10;" d="M 569.5 33.199219 L 569.5 193.5 " transform="matrix(2,0,0,2,0,0)"/>
<path style="fill:none;stroke-width:1;stroke-linecap:butt;stroke-linejoin:miter;stroke:rgb(6.666667%,6.666667%,6.666667%);stroke-opacity:1;stroke-miterlimit:10;" d="M 569.5 194.5 L 569.5 202 " transform="matrix(2,0,0,2,0,0)"/>
<path style="fill:none;stroke-width:1;stroke-linecap:butt;stroke-linejoin:miter;stroke:rgb(6.666667%,6.666667%,6.666667%);stroke-opacity:1;stroke-miterlimit:10;" d="M 707 33.199219 L 707 193.5 " transform="matrix(2,0,0,2,0,0)"/>
<path style="fill:none;stroke-width:1;stroke-linecap:butt;stroke-linejoin:miter;stroke:rgb(6.666667%,6.666667%,6.666667%);stroke-opacity:1;stroke-miterlimit:10;" d="M 707 194.5 L 707 202 " transform="matrix(2,0,0,2,0,0)"/>
<path style="fill:none;stroke-width:1;stroke-linecap:butt;stroke-linejoin:miter;stroke:rgb(6.666667%,6.666667%,6.666667%);stroke-opacity:1;stroke-miterlimit:10;" d="M 844.5 33.199219 L 844.5 193.5 " transform="matrix(2,0,0,2,0,0)"/>
<path style="fill:none;stroke-width:1;stroke-linecap:butt;stroke-linejoin:miter;stroke:rgb(6.666667%,6.666667%,6.666667%);stroke-opacity:1;stroke-miterlimit:10;" d="M 844.5 194.5 L 844.5 202 " transform="matrix(2,0,0,2,0,0)"/>
<path style="fill:none;stroke-width:1;stroke-linecap:butt;stroke-linejoin:miter;stroke:rgb(6.666667%,6.666667%,6.666667%);stroke-opacity:1;stroke-miterlimit:10;" d="M 19.5 194 L 844.5 194 " transform="matrix(2,0,0,2,0,0)"/>
<path style="fill:none;stroke-width:1;stroke-linecap:butt;stroke-linejoin:miter;stroke:rgb(6.666667%,6.666667%,6.666667%);stroke-opacity:1;stroke-miterlimit:10;" d="M 11 194 L 18.5 194 " transform="matrix(2,0,0,2,0,0)"/>
<path style="fill:none;stroke-width:1;stroke-linecap:butt;stroke-linejoin:miter;stroke:rgb(6.666667%,6.666667%,6.666667%);stroke-opacity:1;stroke-miterlimit:10;" d="M 19.5 33 L 844.5 33 " transform="matrix(2,0,0,2,0,0)"/>
<path style="fill:none;stroke-width:1;stroke-linecap:butt;stroke-linejoin:miter;stroke:rgb(6.666667%,6.666667%,6.666667%);stroke-opacity:1;stroke-miterlimit:10;" d="M 11 33 L 18.5 33 " transform="matrix(2,0,0,2,0,0)"/>
<path style=" stroke:none;fill-rule:nonzero;fill:rgb(23.137255%,50.980392%,96.470588%);fill-opacity:1;" d="M 11.09375 23.167969 L 3.390625 41.027344 L 0.8125 41.027344 L 8.515625 23.167969 Z M 22.09375 23.167969 L 14.390625 41.027344 L 11.8125 41.027344 L 19.515625 23.167969 Z M 34.546875 33.949219 C 34.546875 31.886719 34.984375 30.308594 35.859375 29.214844 C 36.742188 28.121094 38 27.574219 39.625 27.574219 C 40.5625 27.574219 41.628906 27.800781 42.828125 28.246094 L 42.828125 31.074219 C 41.554688 30.398438 40.523438 30.058594 39.734375 30.058594 C 38.953125 30.058594 38.34375 30.378906 37.90625 31.011719 C 37.476562 31.636719 37.265625 32.617188 37.265625 33.949219 C 37.265625 35.335938 37.492188 36.347656 37.953125 36.980469 C 38.421875 37.605469 39.046875 37.917969 39.828125 37.917969 C 40.609375 37.917969 41.644531 37.539062 42.9375 36.777344 L 42.9375 39.652344 C 41.75 40.121094 40.679688 40.355469 39.734375 40.355469 C 38.078125 40.355469 36.796875 39.816406 35.890625 38.730469 C 34.992188 37.636719 34.546875 36.042969 34.546875 33.949219 Z M 45.09375 33.964844 C 45.09375 29.707031 46.710938 27.574219 49.953125 27.574219 C 53.191406 27.574219 54.8125 29.707031 54.8125 33.964844 C 54.8125 38.226562 53.191406 40.355469 49.953125 40.355469 C 46.710938 40.355469 45.09375 38.226562 45.09375 33.964844 Z M 48.34375 37.089844 C 48.695312 37.644531 49.234375 37.917969 49.953125 37.917969 C 50.671875 37.917969 51.207031 37.644531 51.5625 37.089844 C 51.914062 36.527344 52.09375 35.488281 52.09375 33.964844 C 52.09375 32.433594 51.914062 31.394531 51.5625 30.839844 C 51.207031 30.277344 50.671875 29.996094 49.953125 29.996094 C 49.234375 29.996094 48.695312 30.277344 48.34375 30.839844 C 47.988281 31.394531 47.8125 32.433594 47.8125 33.964844 C 47.8125 35.488281 47.988281 36.527344 48.34375 37.089844 Z M 62.28125 40.136719 L 59.65625 40.136719 L 59.65625 31.761719 C 59.644531 30.992188 59.597656 30.523438 59.515625 30.355469 C 59.441406 30.179688 59.328125 30.089844 59.171875 30.089844 C 58.929688 30.089844 58.6875 30.488281 58.4375 31.277344 C 58.195312 32.058594 58.078125 33.394531 58.078125 35.277344 L 58.078125 40.136719 L 55.4375 40.136719 L 55.4375 27.777344 L 57.875 27.777344 L 57.515625 29.730469 L 57.46875 29.699219 C 57.519531 29.011719 57.765625 28.488281 58.203125 28.121094 C 58.640625 27.757812 59.117188 27.574219 59.640625 27.574219 C 60.210938 27.574219 60.675781 27.746094 61.03125 28.089844 C 61.382812 28.425781 61.550781 28.964844 61.53125 29.714844 L 61.484375 29.699219 C 61.898438 28.285156 62.675781 27.574219 63.8125 27.574219 C 64.726562 27.574219 65.398438 27.863281 65.828125 28.433594 C 66.265625 28.996094 66.484375 29.957031 66.484375 31.308594 L 66.484375 40.136719 L 63.875 40.136719 L 63.875 31.761719 C 63.863281 30.980469 63.804688 30.507812 63.703125 30.339844 C 63.609375 30.175781 63.453125 30.089844 63.234375 30.089844 C 62.597656 30.089844 62.28125 31.378906 62.28125 33.949219 Z M 73.28125 40.136719 L 70.65625 40.136719 L 70.65625 31.761719 C 70.644531 30.992188 70.597656 30.523438 70.515625 30.355469 C 70.441406 30.179688 70.328125 30.089844 70.171875 30.089844 C 69.929688 30.089844 69.6875 30.488281 69.4375 31.277344 C 69.195312 32.058594 69.078125 33.394531 69.078125 35.277344 L 69.078125 40.136719 L 66.4375 40.136719 L 66.4375 27.777344 L 68.875 27.777344 L 68.515625 29.730469 L 68.46875 29.699219 C 68.519531 29.011719 68.765625 28.488281 69.203125 28.121094 C 69.640625 27.757812 70.117188 27.574219 70.640625 27.574219 C 71.210938 27.574219 71.675781 27.746094 72.03125 28.089844 C 72.382812 28.425781 72.550781 28.964844 72.53125 29.714844 L 72.484375 29.699219 C 72.898438 28.285156 73.675781 27.574219 74.8125 27.574219 C 75.726562 27.574219 76.398438 27.863281 76.828125 28.433594 C 77.265625 28.996094 77.484375 29.957031 77.484375 31.308594 L 77.484375 40.136719 L 74.875 40.136719 L 74.875 31.761719 C 74.863281 30.980469 74.804688 30.507812 74.703125 30.339844 C 74.609375 30.175781 74.453125 30.089844 74.234375 30.089844 C 73.597656 30.089844 73.28125 31.378906 73.28125 33.949219 Z M 84.875 27.777344 L 84.875 37.730469 L 87.25 37.730469 L 87.25 40.136719 L 79.078125 40.136719 L 79.078125 37.730469 L 82.15625 37.730469 L 82.15625 30.199219 L 79.75 30.199219 L 79.75 27.777344 Z M 81.703125 26.042969 L 81.703125 22.496094 L 84.875 22.496094 L 84.875 26.042969 Z M 94.28125 28.230469 L 98.25 28.230469 L 98.25 30.636719 L 94.28125 30.636719 L 94.28125 36.371094 C 94.28125 37.082031 94.359375 37.523438 94.515625 37.699219 C 94.679688 37.878906 95.046875 37.964844 95.609375 37.964844 C 96.273438 37.964844 97.082031 37.753906 98.03125 37.324219 L 98.03125 39.886719 C 97.082031 40.199219 96.203125 40.355469 95.390625 40.355469 C 94.035156 40.355469 93.066406 40.074219 92.484375 39.511719 C 91.910156 38.941406 91.625 37.964844 91.625 36.589844 L 91.625 30.636719 L 89.4375 30.636719 L 89.4375 28.230469 L 91.625 28.230469 L 91.625 24.042969 L 94.28125 24.042969 Z M 105.0625 29.933594 C 103.957031 29.933594 103.40625 30.320312 103.40625 31.089844 C 103.40625 31.464844 103.519531 31.769531 103.75 31.996094 C 103.988281 32.226562 104.46875 32.441406 105.1875 32.636719 C 106.820312 33.097656 107.925781 33.605469 108.5 34.167969 C 109.070312 34.730469 109.359375 35.585938 109.359375 36.730469 C 109.359375 37.878906 108.960938 38.769531 108.171875 39.402344 C 107.390625 40.039062 106.320312 40.355469 104.96875 40.355469 C 103.625 40.355469 102.257812 40.007812 100.875 39.308594 L 100.875 36.417969 C 102.414062 37.449219 103.703125 37.964844 104.734375 37.964844 C 106.054688 37.964844 106.71875 37.542969 106.71875 36.699219 C 106.71875 36.292969 106.59375 35.976562 106.34375 35.746094 C 106.101562 35.519531 105.5625 35.289062 104.71875 35.058594 C 103.300781 34.652344 102.285156 34.152344 101.671875 33.558594 C 101.066406 32.957031 100.765625 32.132812 100.765625 31.089844 C 100.765625 29.996094 101.128906 29.136719 101.859375 28.511719 C 102.585938 27.886719 103.617188 27.574219 104.953125 27.574219 C 106.242188 27.574219 107.570312 27.882812 108.9375 28.496094 L 108.9375 31.199219 C 107.394531 30.355469 106.101562 29.933594 105.0625 29.933594 Z M 128.09375 36.371094 C 128.09375 37.246094 128.128906 37.730469 128.203125 37.824219 C 128.273438 37.910156 128.632812 37.949219 129.28125 37.949219 C 129.726562 37.949219 130.421875 37.878906 131.359375 37.730469 L 131.359375 40.199219 C 130.390625 40.304688 129.613281 40.355469 129.03125 40.355469 C 127.59375 40.355469 126.625 40.101562 126.125 39.589844 C 125.632812 39.082031 125.390625 38.082031 125.390625 36.589844 L 125.390625 25.574219 L 122.546875 25.574219 L 122.546875 23.167969 L 128.09375 23.167969 Z M 138.0625 27.574219 C 139.675781 27.574219 140.796875 27.914062 141.421875 28.589844 C 142.046875 29.269531 142.359375 30.464844 142.359375 32.183594 L 142.359375 40.136719 L 139.90625 40.136719 L 140.234375 38.089844 L 140.296875 38.136719 C 139.742188 39.617188 138.632812 40.355469 136.96875 40.355469 C 135.882812 40.355469 135.003906 40.007812 134.328125 39.308594 C 133.648438 38.613281 133.3125 37.667969 133.3125 36.480469 C 133.3125 35.003906 133.8125 33.867188 134.8125 33.074219 C 135.8125 32.273438 137.257812 31.871094 139.15625 31.871094 L 139.75 31.871094 L 139.75 31.761719 C 139.75 31.042969 139.628906 30.558594 139.390625 30.308594 C 139.160156 30.058594 138.71875 29.933594 138.0625 29.933594 C 137.601562 29.933594 137.015625 30.023438 136.296875 30.199219 C 135.585938 30.367188 134.78125 30.652344 133.875 31.058594 L 133.875 28.496094 C 134.59375 28.175781 135.332031 27.941406 136.09375 27.792969 C 136.851562 27.648438 137.507812 27.574219 138.0625 27.574219 Z M 139.75 34.074219 L 139.15625 34.074219 C 136.96875 34.074219 135.875 34.839844 135.875 36.371094 C 135.875 36.914062 135.992188 37.316406 136.234375 37.574219 C 136.484375 37.835938 136.832031 37.964844 137.28125 37.964844 C 138.007812 37.964844 138.601562 37.664062 139.0625 37.058594 C 139.519531 36.457031 139.75 35.570312 139.75 34.402344 Z M 149.0625 29.933594 C 147.957031 29.933594 147.40625 30.320312 147.40625 31.089844 C 147.40625 31.464844 147.519531 31.769531 147.75 31.996094 C 147.988281 32.226562 148.46875 32.441406 149.1875 32.636719 C 150.820312 33.097656 151.925781 33.605469 152.5 34.167969 C 153.070312 34.730469 153.359375 35.585938 153.359375 36.730469 C 153.359375 37.878906 152.960938 38.769531 152.171875 39.402344 C 151.390625 40.039062 150.320312 40.355469 148.96875 40.355469 C 147.625 40.355469 146.257812 40.007812 144.875 39.308594 L 144.875 36.417969 C 146.414062 37.449219 147.703125 37.964844 148.734375 37.964844 C 150.054688 37.964844 150.71875 37.542969 150.71875 36.699219 C 150.71875 36.292969 150.59375 35.976562 150.34375 35.746094 C 150.101562 35.519531 149.5625 35.289062 148.71875 35.058594 C 147.300781 34.652344 146.285156 34.152344 145.671875 33.558594 C 145.066406 32.957031 144.765625 32.132812 144.765625 31.089844 C 144.765625 29.996094 145.128906 29.136719 145.859375 28.511719 C 146.585938 27.886719 147.617188 27.574219 148.953125 27.574219 C 150.242188 27.574219 151.570312 27.882812 152.9375 28.496094 L 152.9375 31.199219 C 151.394531 30.355469 150.101562 29.933594 149.0625 29.933594 Z M 160.28125 28.230469 L 164.25 28.230469 L 164.25 30.636719 L 160.28125 30.636719 L 160.28125 36.371094 C 160.28125 37.082031 160.359375 37.523438 160.515625 37.699219 C 160.679688 37.878906 161.046875 37.964844 161.609375 37.964844 C 162.273438 37.964844 163.082031 37.753906 164.03125 37.324219 L 164.03125 39.886719 C 163.082031 40.199219 162.203125 40.355469 161.390625 40.355469 C 160.035156 40.355469 159.066406 40.074219 158.484375 39.511719 C 157.910156 38.941406 157.625 37.964844 157.625 36.589844 L 157.625 30.636719 L 155.4375 30.636719 L 155.4375 28.230469 L 157.625 28.230469 L 157.625 24.042969 L 160.28125 24.042969 Z M 183.8125 25.199219 L 183.984375 25.246094 L 177.65625 25.652344 L 177.65625 23.167969 L 186.25 23.167969 L 186.25 25.292969 C 184.363281 29.667969 182.796875 34.617188 181.546875 40.136719 L 178.671875 40.136719 C 179.992188 34.554688 181.707031 29.574219 183.8125 25.199219 Z M 205.84375 23.167969 L 208.46875 23.167969 L 208.46875 40.136719 L 205.96875 40.136719 L 206.3125 38.074219 L 206.359375 38.105469 C 205.710938 39.605469 204.6875 40.355469 203.28125 40.355469 C 201.96875 40.355469 200.921875 39.808594 200.140625 38.714844 C 199.367188 37.621094 198.984375 36.035156 198.984375 33.949219 C 198.984375 29.699219 200.414062 27.574219 203.28125 27.574219 C 204.800781 27.574219 205.804688 28.308594 206.296875 29.777344 L 206.234375 29.824219 Z M 201.640625 33.949219 C 201.640625 35.304688 201.832031 36.285156 202.21875 36.886719 C 202.613281 37.492188 203.117188 37.792969 203.734375 37.792969 C 204.316406 37.792969 204.8125 37.488281 205.21875 36.871094 C 205.632812 36.246094 205.84375 35.308594 205.84375 34.058594 L 205.84375 33.839844 C 205.84375 32.601562 205.632812 31.675781 205.21875 31.058594 C 204.8125 30.433594 204.316406 30.121094 203.734375 30.121094 C 202.335938 30.121094 201.640625 31.398438 201.640625 33.949219 Z M 215.0625 27.574219 C 216.675781 27.574219 217.796875 27.914062 218.421875 28.589844 C 219.046875 29.269531 219.359375 30.464844 219.359375 32.183594 L 219.359375 40.136719 L 216.90625 40.136719 L 217.234375 38.089844 L 217.296875 38.136719 C 216.742188 39.617188 215.632812 40.355469 213.96875 40.355469 C 212.882812 40.355469 212.003906 40.007812 211.328125 39.308594 C 210.648438 38.613281 210.3125 37.667969 210.3125 36.480469 C 210.3125 35.003906 210.8125 33.867188 211.8125 33.074219 C 212.8125 32.273438 214.257812 31.871094 216.15625 31.871094 L 216.75 31.871094 L 216.75 31.761719 C 216.75 31.042969 216.628906 30.558594 216.390625 30.308594 C 216.160156 30.058594 215.71875 29.933594 215.0625 29.933594 C 214.601562 29.933594 214.015625 30.023438 213.296875 30.199219 C 212.585938 30.367188 211.78125 30.652344 210.875 31.058594 L 210.875 28.496094 C 211.59375 28.175781 212.332031 27.941406 213.09375 27.792969 C 213.851562 27.648438 214.507812 27.574219 215.0625 27.574219 Z M 216.75 34.074219 L 216.15625 34.074219 C 213.96875 34.074219 212.875 34.839844 212.875 36.371094 C 212.875 36.914062 212.992188 37.316406 213.234375 37.574219 C 213.484375 37.835938 213.832031 37.964844 214.28125 37.964844 C 215.007812 37.964844 215.601562 37.664062 216.0625 37.058594 C 216.519531 36.457031 216.75 35.570312 216.75 34.402344 Z M 226.1875 36.980469 L 226.140625 36.980469 L 228.421875 27.777344 L 231.3125 27.777344 L 225.71875 44.980469 L 222.9375 44.980469 L 224.796875 39.449219 L 220.796875 27.777344 L 223.703125 27.777344 Z M 237.0625 29.933594 C 235.957031 29.933594 235.40625 30.320312 235.40625 31.089844 C 235.40625 31.464844 235.519531 31.769531 235.75 31.996094 C 235.988281 32.226562 236.46875 32.441406 237.1875 32.636719 C 238.820312 33.097656 239.925781 33.605469 240.5 34.167969 C 241.070312 34.730469 241.359375 35.585938 241.359375 36.730469 C 241.359375 37.878906 240.960938 38.769531 240.171875 39.402344 C 239.390625 40.039062 238.320312 40.355469 236.96875 40.355469 C 235.625 40.355469 234.257812 40.007812 232.875 39.308594 L 232.875 36.417969 C 234.414062 37.449219 235.703125 37.964844 236.734375 37.964844 C 238.054688 37.964844 238.71875 37.542969 238.71875 36.699219 C 238.71875 36.292969 238.59375 35.976562 238.34375 35.746094 C 238.101562 35.519531 237.5625 35.289062 236.71875 35.058594 C 235.300781 34.652344 234.285156 34.152344 233.671875 33.558594 C 233.066406 32.957031 232.765625 32.132812 232.765625 31.089844 C 232.765625 29.996094 233.128906 29.136719 233.859375 28.511719 C 234.585938 27.886719 235.617188 27.574219 236.953125 27.574219 C 238.242188 27.574219 239.570312 27.882812 240.9375 28.496094 L 240.9375 31.199219 C 239.394531 30.355469 238.101562 29.933594 237.0625 29.933594 Z M 0 19.34375 "/>
<path style="fill:none;stroke-width:1;stroke-linecap:butt;stroke-linejoin:miter;stroke:rgb(0%,0%,0%);stroke-opacity:0.0980392;stroke-miterlimit:10;" d="M 18.5 194 L 845 194 " transform="matrix(2,0,0,2,0,0)"/>
<path style=" stroke:none;fill-rule:nonzero;fill:rgb(33.333333%,33.333333%,33.333333%);fill-opacity:1;" d="M 17.359375 413.863281 C 17.816406 413.625 18.363281 413.503906 19 413.503906 C 19.632812 413.503906 20.179688 413.625 20.640625 413.863281 C 21.097656 414.105469 21.492188 414.503906 21.828125 415.066406 C 22.160156 415.628906 22.40625 416.402344 22.5625 417.378906 C 22.726562 418.347656 22.8125 419.550781 22.8125 420.988281 C 22.8125 422.425781 22.726562 423.640625 22.5625 424.628906 C 22.40625 425.609375 22.160156 426.378906 21.828125 426.941406 C 21.492188 427.503906 21.097656 427.90625 20.640625 428.144531 C 20.179688 428.386719 19.632812 428.503906 19 428.503906 C 18.363281 428.503906 17.816406 428.386719 17.359375 428.144531 C 16.898438 427.90625 16.503906 427.503906 16.171875 426.941406 C 15.847656 426.378906 15.601562 425.609375 15.4375 424.628906 C 15.269531 423.640625 15.1875 422.425781 15.1875 420.988281 C 15.1875 419.550781 15.269531 418.347656 15.4375 417.378906 C 15.601562 416.402344 15.847656 415.628906 16.171875 415.066406 C 16.503906 414.503906 16.898438 414.105469 17.359375 413.863281 Z M 16.828125 423.332031 L 20.765625 416.535156 C 20.410156 415.441406 19.820312 414.894531 19 414.894531 C 18.519531 414.894531 18.117188 415.074219 17.796875 415.425781 C 17.484375 415.769531 17.226562 416.402344 17.03125 417.316406 C 16.84375 418.234375 16.75 419.464844 16.75 421.003906 C 16.75 421.671875 16.773438 422.449219 16.828125 423.332031 Z M 17.171875 425.207031 C 17.503906 426.46875 18.113281 427.097656 19 427.097656 C 19.476562 427.097656 19.878906 426.925781 20.203125 426.582031 C 20.523438 426.238281 20.78125 425.609375 20.96875 424.691406 C 21.15625 423.765625 21.25 422.535156 21.25 421.003906 C 21.25 419.964844 21.207031 419.078125 21.125 418.347656 Z M 29.703125 413.503906 C 30.515625 413.503906 31.285156 413.636719 32.015625 413.894531 L 32.015625 415.441406 C 31.335938 415.109375 30.632812 414.941406 29.90625 414.941406 C 28.96875 414.941406 28.289062 415.265625 27.875 415.910156 C 27.46875 416.558594 27.210938 417.785156 27.109375 419.597656 L 27.140625 419.597656 C 27.804688 418.933594 28.554688 418.597656 29.390625 418.597656 C 30.566406 418.597656 31.429688 418.972656 31.984375 419.722656 C 32.535156 420.472656 32.8125 421.703125 32.8125 423.410156 C 32.8125 425.191406 32.5 426.488281 31.875 427.300781 C 31.25 428.105469 30.320312 428.503906 29.09375 428.503906 C 28.238281 428.503906 27.550781 428.3125 27.03125 427.925781 C 26.507812 427.542969 26.109375 426.863281 25.828125 425.894531 C 25.546875 424.925781 25.40625 423.59375 25.40625 421.894531 C 25.40625 419.792969 25.570312 418.113281 25.90625 416.863281 C 26.25 415.613281 26.722656 414.746094 27.328125 414.253906 C 27.929688 413.753906 28.722656 413.503906 29.703125 413.503906 Z M 29.09375 427.050781 C 29.8125 427.050781 30.335938 426.792969 30.671875 426.269531 C 31.003906 425.75 31.171875 424.796875 31.171875 423.410156 C 31.171875 422.140625 31.007812 421.253906 30.6875 420.753906 C 30.375 420.253906 29.878906 420.003906 29.203125 420.003906 C 27.796875 420.003906 27.09375 421.066406 27.09375 423.191406 C 27.09375 424.621094 27.253906 425.621094 27.578125 426.191406 C 27.910156 426.765625 28.414062 427.050781 29.09375 427.050781 Z M 36 422.910156 L 36 421.472656 L 42.015625 421.472656 L 42.015625 422.910156 Z M 47.5 426.816406 L 47.5 426.863281 L 52.40625 426.863281 L 52.40625 428.300781 L 45.609375 428.300781 L 45.609375 426.863281 C 48.953125 423.019531 50.625 419.828125 50.625 417.285156 C 50.625 415.753906 50.003906 414.988281 48.765625 414.988281 C 48.359375 414.988281 47.847656 415.140625 47.234375 415.441406 C 46.628906 415.734375 46.085938 416.097656 45.609375 416.535156 L 45.609375 414.785156 C 46.609375 413.933594 47.738281 413.503906 49 413.503906 C 50.132812 413.503906 50.96875 413.816406 51.5 414.441406 C 52.03125 415.066406 52.296875 416.015625 52.296875 417.285156 C 52.296875 418.621094 51.9375 420.015625 51.21875 421.472656 C 50.5 422.921875 49.257812 424.703125 47.5 426.816406 Z M 59.09375 414.894531 C 58.394531 414.894531 57.851562 415.082031 57.46875 415.457031 C 57.082031 415.824219 56.890625 416.339844 56.890625 417.003906 C 56.890625 417.714844 57.082031 418.339844 57.46875 418.878906 C 57.863281 419.410156 58.375 419.75 59 419.894531 C 59.6875 419.707031 60.222656 419.363281 60.609375 418.863281 C 60.992188 418.363281 61.1875 417.746094 61.1875 417.003906 C 61.1875 416.378906 60.992188 415.875 60.609375 415.488281 C 60.222656 415.09375 59.71875 414.894531 59.09375 414.894531 Z M 61.953125 427.488281 C 61.265625 428.167969 60.28125 428.503906 59 428.503906 C 57.726562 428.503906 56.742188 428.167969 56.046875 427.488281 C 55.347656 426.800781 55 425.808594 55 424.503906 C 55 423.589844 55.21875 422.792969 55.65625 422.113281 C 56.101562 421.4375 56.71875 420.9375 57.5 420.613281 L 57.5 420.566406 C 56.863281 420.277344 56.335938 419.792969 55.921875 419.113281 C 55.515625 418.4375 55.3125 417.734375 55.3125 417.003906 C 55.3125 415.910156 55.632812 415.058594 56.28125 414.441406 C 56.9375 413.816406 57.84375 413.503906 59 413.503906 C 60.15625 413.503906 61.054688 413.816406 61.703125 414.441406 C 62.359375 415.066406 62.6875 415.921875 62.6875 417.003906 C 62.6875 417.746094 62.484375 418.433594 62.078125 419.066406 C 61.679688 419.703125 61.15625 420.171875 60.5 420.472656 L 60.5 420.519531 C 61.28125 420.832031 61.890625 421.332031 62.328125 422.019531 C 62.773438 422.707031 63 423.535156 63 424.503906 C 63 425.808594 62.648438 426.800781 61.953125 427.488281 Z M 59.09375 427.097656 C 59.800781 427.097656 60.363281 426.878906 60.78125 426.441406 C 61.195312 425.996094 61.40625 425.347656 61.40625 424.503906 C 61.40625 422.765625 60.570312 421.699219 58.90625 421.300781 C 58.082031 421.519531 57.476562 421.886719 57.09375 422.394531 C 56.707031 422.894531 56.515625 423.597656 56.515625 424.503906 C 56.515625 425.316406 56.75 425.953125 57.21875 426.410156 C 57.6875 426.871094 58.3125 427.097656 59.09375 427.097656 Z M 14 409.402344 "/>
<path style=" stroke:none;fill-rule:nonzero;fill:rgb(33.333333%,33.333333%,33.333333%);fill-opacity:1;" d="M 292.527344 413.863281 C 292.984375 413.625 293.53125 413.503906 294.167969 413.503906 C 294.800781 413.503906 295.347656 413.625 295.808594 413.863281 C 296.265625 414.105469 296.660156 414.503906 296.996094 415.066406 C 297.328125 415.628906 297.574219 416.402344 297.730469 417.378906 C 297.894531 418.347656 297.980469 419.550781 297.980469 420.988281 C 297.980469 422.425781 297.894531 423.640625 297.730469 424.628906 C 297.574219 425.609375 297.328125 426.378906 296.996094 426.941406 C 296.660156 427.503906 296.265625 427.90625 295.808594 428.144531 C 295.347656 428.386719 294.800781 428.503906 294.167969 428.503906 C 293.53125 428.503906 292.984375 428.386719 292.527344 428.144531 C 292.066406 427.90625 291.671875 427.503906 291.339844 426.941406 C 291.015625 426.378906 290.769531 425.609375 290.605469 424.628906 C 290.4375 423.640625 290.355469 422.425781 290.355469 420.988281 C 290.355469 419.550781 290.4375 418.347656 290.605469 417.378906 C 290.769531 416.402344 291.015625 415.628906 291.339844 415.066406 C 291.671875 414.503906 292.066406 414.105469 292.527344 413.863281 Z M 291.996094 423.332031 L 295.933594 416.535156 C 295.578125 415.441406 294.988281 414.894531 294.167969 414.894531 C 293.6875 414.894531 293.285156 415.074219 292.964844 415.425781 C 292.652344 415.769531 292.394531 416.402344 292.199219 417.316406 C 292.011719 418.234375 291.917969 419.464844 291.917969 421.003906 C 291.917969 421.671875 291.941406 422.449219 291.996094 423.332031 Z M 292.339844 425.207031 C 292.671875 426.46875 293.28125 427.097656 294.167969 427.097656 C 294.644531 427.097656 295.046875 426.925781 295.371094 426.582031 C 295.691406 426.238281 295.949219 425.609375 296.136719 424.691406 C 296.324219 423.765625 296.417969 422.535156 296.417969 421.003906 C 296.417969 419.964844 296.375 419.078125 296.292969 418.347656 Z M 304.871094 413.503906 C 305.683594 413.503906 306.453125 413.636719 307.183594 413.894531 L 307.183594 415.441406 C 306.503906 415.109375 305.800781 414.941406 305.074219 414.941406 C 304.136719 414.941406 303.457031 415.265625 303.042969 415.910156 C 302.636719 416.558594 302.378906 417.785156 302.277344 419.597656 L 302.308594 419.597656 C 302.972656 418.933594 303.722656 418.597656 304.558594 418.597656 C 305.734375 418.597656 306.597656 418.972656 307.152344 419.722656 C 307.703125 420.472656 307.980469 421.703125 307.980469 423.410156 C 307.980469 425.191406 307.667969 426.488281 307.042969 427.300781 C 306.417969 428.105469 305.488281 428.503906 304.261719 428.503906 C 303.40625 428.503906 302.71875 428.3125 302.199219 427.925781 C 301.675781 427.542969 301.277344 426.863281 300.996094 425.894531 C 300.714844 424.925781 300.574219 423.59375 300.574219 421.894531 C 300.574219 419.792969 300.738281 418.113281 301.074219 416.863281 C 301.417969 415.613281 301.890625 414.746094 302.496094 414.253906 C 303.097656 413.753906 303.890625 413.503906 304.871094 413.503906 Z M 304.261719 427.050781 C 304.980469 427.050781 305.503906 426.792969 305.839844 426.269531 C 306.171875 425.75 306.339844 424.796875 306.339844 423.410156 C 306.339844 422.140625 306.175781 421.253906 305.855469 420.753906 C 305.542969 420.253906 305.046875 420.003906 304.371094 420.003906 C 302.964844 420.003906 302.261719 421.066406 302.261719 423.191406 C 302.261719 424.621094 302.421875 425.621094 302.746094 426.191406 C 303.078125 426.765625 303.582031 427.050781 304.261719 427.050781 Z M 311.167969 422.910156 L 311.167969 421.472656 L 317.183594 421.472656 L 317.183594 422.910156 Z M 322.667969 426.816406 L 322.667969 426.863281 L 327.574219 426.863281 L 327.574219 428.300781 L 320.777344 428.300781 L 320.777344 426.863281 C 324.121094 423.019531 325.792969 419.828125 325.792969 417.285156 C 325.792969 415.753906 325.171875 414.988281 323.933594 414.988281 C 323.527344 414.988281 323.015625 415.140625 322.402344 415.441406 C 321.796875 415.734375 321.253906 416.097656 320.777344 416.535156 L 320.777344 414.785156 C 321.777344 413.933594 322.90625 413.503906 324.167969 413.503906 C 325.300781 413.503906 326.136719 413.816406 326.667969 414.441406 C 327.199219 415.066406 327.464844 416.015625 327.464844 417.285156 C 327.464844 418.621094 327.105469 420.015625 326.386719 421.472656 C 325.667969 422.921875 324.425781 424.703125 322.667969 426.816406 Z M 333.464844 428.503906 C 332.660156 428.503906 331.894531 428.371094 331.167969 428.097656 L 331.167969 426.488281 C 331.863281 426.84375 332.566406 427.019531 333.277344 427.019531 C 334.214844 427.019531 334.886719 426.707031 335.292969 426.082031 C 335.699219 425.449219 335.953125 424.21875 336.058594 422.394531 L 336.027344 422.394531 C 335.359375 423.074219 334.609375 423.410156 333.777344 423.410156 C 332.660156 423.410156 331.8125 423.015625 331.230469 422.222656 C 330.644531 421.433594 330.355469 420.160156 330.355469 418.410156 C 330.355469 416.722656 330.660156 415.484375 331.277344 414.691406 C 331.902344 413.902344 332.832031 413.503906 334.074219 413.503906 C 334.980469 413.503906 335.6875 413.691406 336.199219 414.066406 C 336.71875 414.433594 337.109375 415.097656 337.371094 416.066406 C 337.628906 417.035156 337.761719 418.378906 337.761719 420.097656 C 337.761719 422.214844 337.589844 423.894531 337.246094 425.144531 C 336.910156 426.394531 336.441406 427.269531 335.839844 427.769531 C 335.234375 428.261719 334.441406 428.503906 333.464844 428.503906 Z M 334.074219 414.941406 C 333.34375 414.941406 332.8125 415.199219 332.480469 415.707031 C 332.15625 416.207031 331.996094 417.105469 331.996094 418.394531 C 331.996094 419.6875 332.160156 420.613281 332.496094 421.175781 C 332.839844 421.730469 333.332031 422.003906 333.980469 422.003906 C 334.625 422.003906 335.136719 421.730469 335.511719 421.175781 C 335.894531 420.613281 336.089844 419.753906 336.089844 418.597656 C 336.089844 417.277344 335.921875 416.339844 335.589844 415.785156 C 335.253906 415.222656 334.75 414.941406 334.074219 414.941406 Z M 289.167969 409.402344 "/>
<path style=" stroke:none;fill-rule:nonzero;fill:rgb(33.333333%,33.333333%,33.333333%);fill-opacity:1;" d="M 567.691406 413.863281 C 568.148438 413.625 568.695312 413.503906 569.332031 413.503906 C 569.964844 413.503906 570.511719 413.625 570.972656 413.863281 C 571.429688 414.105469 571.824219 414.503906 572.160156 415.066406 C 572.492188 415.628906 572.738281 416.402344 572.894531 417.378906 C 573.058594 418.347656 573.144531 419.550781 573.144531 420.988281 C 573.144531 422.425781 573.058594 423.640625 572.894531 424.628906 C 572.738281 425.609375 572.492188 426.378906 572.160156 426.941406 C 571.824219 427.503906 571.429688 427.90625 570.972656 428.144531 C 570.511719 428.386719 569.964844 428.503906 569.332031 428.503906 C 568.695312 428.503906 568.148438 428.386719 567.691406 428.144531 C 567.230469 427.90625 566.835938 427.503906 566.503906 426.941406 C 566.179688 426.378906 565.933594 425.609375 565.769531 424.628906 C 565.601562 423.640625 565.519531 422.425781 565.519531 420.988281 C 565.519531 419.550781 565.601562 418.347656 565.769531 417.378906 C 565.933594 416.402344 566.179688 415.628906 566.503906 415.066406 C 566.835938 414.503906 567.230469 414.105469 567.691406 413.863281 Z M 567.160156 423.332031 L 571.097656 416.535156 C 570.742188 415.441406 570.152344 414.894531 569.332031 414.894531 C 568.851562 414.894531 568.449219 415.074219 568.128906 415.425781 C 567.816406 415.769531 567.558594 416.402344 567.363281 417.316406 C 567.175781 418.234375 567.082031 419.464844 567.082031 421.003906 C 567.082031 421.671875 567.105469 422.449219 567.160156 423.332031 Z M 567.503906 425.207031 C 567.835938 426.46875 568.445312 427.097656 569.332031 427.097656 C 569.808594 427.097656 570.210938 426.925781 570.535156 426.582031 C 570.855469 426.238281 571.113281 425.609375 571.300781 424.691406 C 571.488281 423.765625 571.582031 422.535156 571.582031 421.003906 C 571.582031 419.964844 571.539062 419.078125 571.457031 418.347656 Z M 580.035156 413.503906 C 580.847656 413.503906 581.617188 413.636719 582.347656 413.894531 L 582.347656 415.441406 C 581.667969 415.109375 580.964844 414.941406 580.238281 414.941406 C 579.300781 414.941406 578.621094 415.265625 578.207031 415.910156 C 577.800781 416.558594 577.542969 417.785156 577.441406 419.597656 L 577.472656 419.597656 C 578.136719 418.933594 578.886719 418.597656 579.722656 418.597656 C 580.898438 418.597656 581.761719 418.972656 582.316406 419.722656 C 582.867188 420.472656 583.144531 421.703125 583.144531 423.410156 C 583.144531 425.191406 582.832031 426.488281 582.207031 427.300781 C 581.582031 428.105469 580.652344 428.503906 579.425781 428.503906 C 578.570312 428.503906 577.882812 428.3125 577.363281 427.925781 C 576.839844 427.542969 576.441406 426.863281 576.160156 425.894531 C 575.878906 424.925781 575.738281 423.59375 575.738281 421.894531 C 575.738281 419.792969 575.902344 418.113281 576.238281 416.863281 C 576.582031 415.613281 577.054688 414.746094 577.660156 414.253906 C 578.261719 413.753906 579.054688 413.503906 580.035156 413.503906 Z M 579.425781 427.050781 C 580.144531 427.050781 580.667969 426.792969 581.003906 426.269531 C 581.335938 425.75 581.503906 424.796875 581.503906 423.410156 C 581.503906 422.140625 581.339844 421.253906 581.019531 420.753906 C 580.707031 420.253906 580.210938 420.003906 579.535156 420.003906 C 578.128906 420.003906 577.425781 421.066406 577.425781 423.191406 C 577.425781 424.621094 577.585938 425.621094 577.910156 426.191406 C 578.242188 426.765625 578.746094 427.050781 579.425781 427.050781 Z M 586.332031 422.910156 L 586.332031 421.472656 L 592.347656 421.472656 L 592.347656 422.910156 Z M 600.941406 415.175781 L 600.941406 415.144531 L 595.941406 415.144531 L 595.941406 413.691406 L 602.832031 413.691406 L 602.832031 415.144531 L 599.238281 419.707031 L 599.238281 419.753906 L 599.425781 419.753906 C 600.644531 419.753906 601.527344 420.097656 602.082031 420.785156 C 602.644531 421.464844 602.925781 422.574219 602.925781 424.113281 C 602.925781 427.042969 601.628906 428.503906 599.035156 428.503906 C 598.066406 428.503906 597.097656 428.300781 596.128906 427.894531 L 596.128906 426.160156 C 597.160156 426.734375 598.023438 427.019531 598.722656 427.019531 C 599.585938 427.019531 600.222656 426.792969 600.628906 426.332031 C 601.042969 425.863281 601.253906 425.125 601.253906 424.113281 C 601.253906 422.917969 601.085938 422.128906 600.753906 421.753906 C 600.417969 421.378906 599.742188 421.191406 598.722656 421.191406 L 597.347656 421.191406 L 597.347656 419.753906 Z M 607.691406 413.863281 C 608.148438 413.625 608.695312 413.503906 609.332031 413.503906 C 609.964844 413.503906 610.511719 413.625 610.972656 413.863281 C 611.429688 414.105469 611.824219 414.503906 612.160156 415.066406 C 612.492188 415.628906 612.738281 416.402344 612.894531 417.378906 C 613.058594 418.347656 613.144531 419.550781 613.144531 420.988281 C 613.144531 422.425781 613.058594 423.640625 612.894531 424.628906 C 612.738281 425.609375 612.492188 426.378906 612.160156 426.941406 C 611.824219 427.503906 611.429688 427.90625 610.972656 428.144531 C 610.511719 428.386719 609.964844 428.503906 609.332031 428.503906 C 608.695312 428.503906 608.148438 428.386719 607.691406 428.144531 C 607.230469 427.90625 606.835938 427.503906 606.503906 426.941406 C 606.179688 426.378906 605.933594 425.609375 605.769531 424.628906 C 605.601562 423.640625 605.519531 422.425781 605.519531 420.988281 C 605.519531 419.550781 605.601562 418.347656 605.769531 417.378906 C 605.933594 416.402344 606.179688 415.628906 606.503906 415.066406 C 606.835938 414.503906 607.230469 414.105469 607.691406 413.863281 Z M 607.160156 423.332031 L 611.097656 416.535156 C 610.742188 415.441406 610.152344 414.894531 609.332031 414.894531 C 608.851562 414.894531 608.449219 415.074219 608.128906 415.425781 C 607.816406 415.769531 607.558594 416.402344 607.363281 417.316406 C 607.175781 418.234375 607.082031 419.464844 607.082031 421.003906 C 607.082031 421.671875 607.105469 422.449219 607.160156 423.332031 Z M 607.503906 425.207031 C 607.835938 426.46875 608.445312 427.097656 609.332031 427.097656 C 609.808594 427.097656 610.210938 426.925781 610.535156 426.582031 C 610.855469 426.238281 611.113281 425.609375 611.300781 424.691406 C 611.488281 423.765625 611.582031 422.535156 611.582031 421.003906 C 611.582031 419.964844 611.539062 419.078125 611.457031 418.347656 Z M 564.332031 409.402344 "/>
<path style=" stroke:none;fill-rule:nonzero;fill:rgb(33.333333%,33.333333%,33.333333%);fill-opacity:1;" d="M 842.859375 413.863281 C 843.316406 413.625 843.863281 413.503906 844.5 413.503906 C 845.132812 413.503906 845.679688 413.625 846.140625 413.863281 C 846.597656 414.105469 846.992188 414.503906 847.328125 415.066406 C 847.660156 415.628906 847.90625 416.402344 848.0625 417.378906 C 848.226562 418.347656 848.3125 419.550781 848.3125 420.988281 C 848.3125 422.425781 848.226562 423.640625 848.0625 424.628906 C 847.90625 425.609375 847.660156 426.378906 847.328125 426.941406 C 846.992188 427.503906 846.597656 427.90625 846.140625 428.144531 C 845.679688 428.386719 845.132812 428.503906 844.5 428.503906 C 843.863281 428.503906 843.316406 428.386719 842.859375 428.144531 C 842.398438 427.90625 842.003906 427.503906 841.671875 426.941406 C 841.347656 426.378906 841.101562 425.609375 840.9375 424.628906 C 840.769531 423.640625 840.6875 422.425781 840.6875 420.988281 C 840.6875 419.550781 840.769531 418.347656 840.9375 417.378906 C 841.101562 416.402344 841.347656 415.628906 841.671875 415.066406 C 842.003906 414.503906 842.398438 414.105469 842.859375 413.863281 Z M 842.328125 423.332031 L 846.265625 416.535156 C 845.910156 415.441406 845.320312 414.894531 844.5 414.894531 C 844.019531 414.894531 843.617188 415.074219 843.296875 415.425781 C 842.984375 415.769531 842.726562 416.402344 842.53125 417.316406 C 842.34375 418.234375 842.25 419.464844 842.25 421.003906 C 842.25 421.671875 842.273438 422.449219 842.328125 423.332031 Z M 842.671875 425.207031 C 843.003906 426.46875 843.613281 427.097656 844.5 427.097656 C 844.976562 427.097656 845.378906 426.925781 845.703125 426.582031 C 846.023438 426.238281 846.28125 425.609375 846.46875 424.691406 C 846.65625 423.765625 846.75 422.535156 846.75 421.003906 C 846.75 419.964844 846.707031 419.078125 846.625 418.347656 Z M 856.390625 415.175781 L 856.390625 415.144531 L 851 415.144531 L 851 413.691406 L 858 413.691406 L 858 415.144531 C 856.289062 419.09375 854.890625 423.480469 853.796875 428.300781 L 852.046875 428.300781 C 853.160156 423.59375 854.609375 419.21875 856.390625 415.175781 Z M 861.5 422.910156 L 861.5 421.472656 L 867.515625 421.472656 L 867.515625 422.910156 Z M 872.859375 413.863281 C 873.316406 413.625 873.863281 413.503906 874.5 413.503906 C 875.132812 413.503906 875.679688 413.625 876.140625 413.863281 C 876.597656 414.105469 876.992188 414.503906 877.328125 415.066406 C 877.660156 415.628906 877.90625 416.402344 878.0625 417.378906 C 878.226562 418.347656 878.3125 419.550781 878.3125 420.988281 C 878.3125 422.425781 878.226562 423.640625 878.0625 424.628906 C 877.90625 425.609375 877.660156 426.378906 877.328125 426.941406 C 876.992188 427.503906 876.597656 427.90625 876.140625 428.144531 C 875.679688 428.386719 875.132812 428.503906 874.5 428.503906 C 873.863281 428.503906 873.316406 428.386719 872.859375 428.144531 C 872.398438 427.90625 872.003906 427.503906 871.671875 426.941406 C 871.347656 426.378906 871.101562 425.609375 870.9375 424.628906 C 870.769531 423.640625 870.6875 422.425781 870.6875 420.988281 C 870.6875 419.550781 870.769531 418.347656 870.9375 417.378906 C 871.101562 416.402344 871.347656 415.628906 871.671875 415.066406 C 872.003906 414.503906 872.398438 414.105469 872.859375 413.863281 Z M 872.328125 423.332031 L 876.265625 416.535156 C 875.910156 415.441406 875.320312 414.894531 874.5 414.894531 C 874.019531 414.894531 873.617188 415.074219 873.296875 415.425781 C 872.984375 415.769531 872.726562 416.402344 872.53125 417.316406 C 872.34375 418.234375 872.25 419.464844 872.25 421.003906 C 872.25 421.671875 872.273438 422.449219 872.328125 423.332031 Z M 872.671875 425.207031 C 873.003906 426.46875 873.613281 427.097656 874.5 427.097656 C 874.976562 427.097656 875.378906 426.925781 875.703125 426.582031 C 876.023438 426.238281 876.28125 425.609375 876.46875 424.691406 C 876.65625 423.765625 876.75 422.535156 876.75 421.003906 C 876.75 419.964844 876.707031 419.078125 876.625 418.347656 Z M 884.65625 428.300781 L 884.65625 415.394531 L 884.625 415.378906 L 881.15625 417.394531 L 881.15625 415.800781 L 884.65625 413.691406 L 886.296875 413.691406 L 886.296875 428.300781 Z M 839.5 409.402344 "/>
<path style=" stroke:none;fill-rule:nonzero;fill:rgb(33.333333%,33.333333%,33.333333%);fill-opacity:1;" d="M 1118.027344 413.863281 C 1118.484375 413.625 1119.03125 413.503906 1119.667969 413.503906 C 1120.300781 413.503906 1120.847656 413.625 1121.308594 413.863281 C 1121.765625 414.105469 1122.160156 414.503906 1122.496094 415.066406 C 1122.828125 415.628906 1123.074219 416.402344 1123.230469 417.378906 C 1123.394531 418.347656 1123.480469 419.550781 1123.480469 420.988281 C 1123.480469 422.425781 1123.394531 423.640625 1123.230469 424.628906 C 1123.074219 425.609375 1122.828125 426.378906 1122.496094 426.941406 C 1122.160156 427.503906 1121.765625 427.90625 1121.308594 428.144531 C 1120.847656 428.386719 1120.300781 428.503906 1119.667969 428.503906 C 1119.03125 428.503906 1118.484375 428.386719 1118.027344 428.144531 C 1117.566406 427.90625 1117.171875 427.503906 1116.839844 426.941406 C 1116.515625 426.378906 1116.269531 425.609375 1116.105469 424.628906 C 1115.9375 423.640625 1115.855469 422.425781 1115.855469 420.988281 C 1115.855469 419.550781 1115.9375 418.347656 1116.105469 417.378906 C 1116.269531 416.402344 1116.515625 415.628906 1116.839844 415.066406 C 1117.171875 414.503906 1117.566406 414.105469 1118.027344 413.863281 Z M 1117.496094 423.332031 L 1121.433594 416.535156 C 1121.078125 415.441406 1120.488281 414.894531 1119.667969 414.894531 C 1119.1875 414.894531 1118.785156 415.074219 1118.464844 415.425781 C 1118.152344 415.769531 1117.894531 416.402344 1117.699219 417.316406 C 1117.511719 418.234375 1117.417969 419.464844 1117.417969 421.003906 C 1117.417969 421.671875 1117.441406 422.449219 1117.496094 423.332031 Z M 1117.839844 425.207031 C 1118.171875 426.46875 1118.78125 427.097656 1119.667969 427.097656 C 1120.144531 427.097656 1120.546875 426.925781 1120.871094 426.582031 C 1121.191406 426.238281 1121.449219 425.609375 1121.636719 424.691406 C 1121.824219 423.765625 1121.917969 422.535156 1121.917969 421.003906 C 1121.917969 419.964844 1121.875 419.078125 1121.792969 418.347656 Z M 1131.558594 415.175781 L 1131.558594 415.144531 L 1126.167969 415.144531 L 1126.167969 413.691406 L 1133.167969 413.691406 L 1133.167969 415.144531 C 1131.457031 419.09375 1130.058594 423.480469 1128.964844 428.300781 L 1127.214844 428.300781 C 1128.328125 423.59375 1129.777344 419.21875 1131.558594 415.175781 Z M 1136.667969 422.910156 L 1136.667969 421.472656 L 1142.683594 421.472656 L 1142.683594 422.910156 Z M 1148.027344 413.863281 C 1148.484375 413.625 1149.03125 413.503906 1149.667969 413.503906 C 1150.300781 413.503906 1150.847656 413.625 1151.308594 413.863281 C 1151.765625 414.105469 1152.160156 414.503906 1152.496094 415.066406 C 1152.828125 415.628906 1153.074219 416.402344 1153.230469 417.378906 C 1153.394531 418.347656 1153.480469 419.550781 1153.480469 420.988281 C 1153.480469 422.425781 1153.394531 423.640625 1153.230469 424.628906 C 1153.074219 425.609375 1152.828125 426.378906 1152.496094 426.941406 C 1152.160156 427.503906 1151.765625 427.90625 1151.308594 428.144531 C 1150.847656 428.386719 1150.300781 428.503906 1149.667969 428.503906 C 1149.03125 428.503906 1148.484375 428.386719 1148.027344 428.144531 C 1147.566406 427.90625 1147.171875 427.503906 1146.839844 426.941406 C 1146.515625 426.378906 1146.269531 425.609375 1146.105469 424.628906 C 1145.9375 423.640625 1145.855469 422.425781 1145.855469 420.988281 C 1145.855469 419.550781 1145.9375 418.347656 1146.105469 417.378906 C 1146.269531 416.402344 1146.515625 415.628906 1146.839844 415.066406 C 1147.171875 414.503906 1147.566406 414.105469 1148.027344 413.863281 Z M 1147.496094 423.332031 L 1151.433594 416.535156 C 1151.078125 415.441406 1150.488281 414.894531 1149.667969 414.894531 C 1149.1875 414.894531 1148.785156 415.074219 1148.464844 415.425781 C 1148.152344 415.769531 1147.894531 416.402344 1147.699219 417.316406 C 1147.511719 418.234375 1147.417969 419.464844 1147.417969 421.003906 C 1147.417969 421.671875 1147.441406 422.449219 1147.496094 423.332031 Z M 1147.839844 425.207031 C 1148.171875 426.46875 1148.78125 427.097656 1149.667969 427.097656 C 1150.144531 427.097656 1150.546875 426.925781 1150.871094 426.582031 C 1151.191406 426.238281 1151.449219 425.609375 1151.636719 424.691406 C 1151.824219 423.765625 1151.917969 422.535156 1151.917969 421.003906 C 1151.917969 419.964844 1151.875 419.078125 1151.792969 418.347656 Z M 1158.167969 426.816406 L 1158.167969 426.863281 L 1163.074219 426.863281 L 1163.074219 428.300781 L 1156.277344 428.300781 L 1156.277344 426.863281 C 1159.621094 423.019531 1161.292969 419.828125 1161.292969 417.285156 C 1161.292969 415.753906 1160.671875 414.988281 1159.433594 414.988281 C 1159.027344 414.988281 1158.515625 415.140625 1157.902344 415.441406 C 1157.296875 415.734375 1156.753906 416.097656 1156.277344 416.535156 L 1156.277344 414.785156 C 1157.277344 413.933594 1158.40625 413.503906 1159.667969 413.503906 C 1160.800781 413.503906 1161.636719 413.816406 1162.167969 414.441406 C 1162.699219 415.066406 1162.964844 416.015625 1162.964844 417.285156 C 1162.964844 418.621094 1162.605469 420.015625 1161.886719 421.472656 C 1161.167969 422.921875 1159.925781 424.703125 1158.167969 426.816406 Z M 1114.667969 409.402344 "/>
<path style=" stroke:none;fill-rule:nonzero;fill:rgb(33.333333%,33.333333%,33.333333%);fill-opacity:1;" d="M 1393.191406 413.863281 C 1393.648438 413.625 1394.195312 413.503906 1394.832031 413.503906 C 1395.464844 413.503906 1396.011719 413.625 1396.472656 413.863281 C 1396.929688 414.105469 1397.324219 414.503906 1397.660156 415.066406 C 1397.992188 415.628906 1398.238281 416.402344 1398.394531 417.378906 C 1398.558594 418.347656 1398.644531 419.550781 1398.644531 420.988281 C 1398.644531 422.425781 1398.558594 423.640625 1398.394531 424.628906 C 1398.238281 425.609375 1397.992188 426.378906 1397.660156 426.941406 C 1397.324219 427.503906 1396.929688 427.90625 1396.472656 428.144531 C 1396.011719 428.386719 1395.464844 428.503906 1394.832031 428.503906 C 1394.195312 428.503906 1393.648438 428.386719 1393.191406 428.144531 C 1392.730469 427.90625 1392.335938 427.503906 1392.003906 426.941406 C 1391.679688 426.378906 1391.433594 425.609375 1391.269531 424.628906 C 1391.101562 423.640625 1391.019531 422.425781 1391.019531 420.988281 C 1391.019531 419.550781 1391.101562 418.347656 1391.269531 417.378906 C 1391.433594 416.402344 1391.679688 415.628906 1392.003906 415.066406 C 1392.335938 414.503906 1392.730469 414.105469 1393.191406 413.863281 Z M 1392.660156 423.332031 L 1396.597656 416.535156 C 1396.242188 415.441406 1395.652344 414.894531 1394.832031 414.894531 C 1394.351562 414.894531 1393.949219 415.074219 1393.628906 415.425781 C 1393.316406 415.769531 1393.058594 416.402344 1392.863281 417.316406 C 1392.675781 418.234375 1392.582031 419.464844 1392.582031 421.003906 C 1392.582031 421.671875 1392.605469 422.449219 1392.660156 423.332031 Z M 1393.003906 425.207031 C 1393.335938 426.46875 1393.945312 427.097656 1394.832031 427.097656 C 1395.308594 427.097656 1395.710938 426.925781 1396.035156 426.582031 C 1396.355469 426.238281 1396.613281 425.609375 1396.800781 424.691406 C 1396.988281 423.765625 1397.082031 422.535156 1397.082031 421.003906 C 1397.082031 419.964844 1397.039062 419.078125 1396.957031 418.347656 Z M 1406.722656 415.175781 L 1406.722656 415.144531 L 1401.332031 415.144531 L 1401.332031 413.691406 L 1408.332031 413.691406 L 1408.332031 415.144531 C 1406.621094 419.09375 1405.222656 423.480469 1404.128906 428.300781 L 1402.378906 428.300781 C 1403.492188 423.59375 1404.941406 419.21875 1406.722656 415.175781 Z M 1411.832031 422.910156 L 1411.832031 421.472656 L 1417.847656 421.472656 L 1417.847656 422.910156 Z M 1423.191406 413.863281 C 1423.648438 413.625 1424.195312 413.503906 1424.832031 413.503906 C 1425.464844 413.503906 1426.011719 413.625 1426.472656 413.863281 C 1426.929688 414.105469 1427.324219 414.503906 1427.660156 415.066406 C 1427.992188 415.628906 1428.238281 416.402344 1428.394531 417.378906 C 1428.558594 418.347656 1428.644531 419.550781 1428.644531 420.988281 C 1428.644531 422.425781 1428.558594 423.640625 1428.394531 424.628906 C 1428.238281 425.609375 1427.992188 426.378906 1427.660156 426.941406 C 1427.324219 427.503906 1426.929688 427.90625 1426.472656 428.144531 C 1426.011719 428.386719 1425.464844 428.503906 1424.832031 428.503906 C 1424.195312 428.503906 1423.648438 428.386719 1423.191406 428.144531 C 1422.730469 427.90625 1422.335938 427.503906 1422.003906 426.941406 C 1421.679688 426.378906 1421.433594 425.609375 1421.269531 424.628906 C 1421.101562 423.640625 1421.019531 422.425781 1421.019531 420.988281 C 1421.019531 419.550781 1421.101562 418.347656 1421.269531 417.378906 C 1421.433594 416.402344 1421.679688 415.628906 1422.003906 415.066406 C 1422.335938 414.503906 1422.730469 414.105469 1423.191406 413.863281 Z M 1422.660156 423.332031 L 1426.597656 416.535156 C 1426.242188 415.441406 1425.652344 414.894531 1424.832031 414.894531 C 1424.351562 414.894531 1423.949219 415.074219 1423.628906 415.425781 C 1423.316406 415.769531 1423.058594 416.402344 1422.863281 417.316406 C 1422.675781 418.234375 1422.582031 419.464844 1422.582031 421.003906 C 1422.582031 421.671875 1422.605469 422.449219 1422.660156 423.332031 Z M 1423.003906 425.207031 C 1423.335938 426.46875 1423.945312 427.097656 1424.832031 427.097656 C 1425.308594 427.097656 1425.710938 426.925781 1426.035156 426.582031 C 1426.355469 426.238281 1426.613281 425.609375 1426.800781 424.691406 C 1426.988281 423.765625 1427.082031 422.535156 1427.082031 421.003906 C 1427.082031 419.964844 1427.039062 419.078125 1426.957031 418.347656 Z M 1436.441406 415.175781 L 1436.441406 415.144531 L 1431.441406 415.144531 L 1431.441406 413.691406 L 1438.332031 413.691406 L 1438.332031 415.144531 L 1434.738281 419.707031 L 1434.738281 419.753906 L 1434.925781 419.753906 C 1436.144531 419.753906 1437.027344 420.097656 1437.582031 420.785156 C 1438.144531 421.464844 1438.425781 422.574219 1438.425781 424.113281 C 1438.425781 427.042969 1437.128906 428.503906 1434.535156 428.503906 C 1433.566406 428.503906 1432.597656 428.300781 1431.628906 427.894531 L 1431.628906 426.160156 C 1432.660156 426.734375 1433.523438 427.019531 1434.222656 427.019531 C 1435.085938 427.019531 1435.722656 426.792969 1436.128906 426.332031 C 1436.542969 425.863281 1436.753906 425.125 1436.753906 424.113281 C 1436.753906 422.917969 1436.585938 422.128906 1436.253906 421.753906 C 1435.917969 421.378906 1435.242188 421.191406 1434.222656 421.191406 L 1432.847656 421.191406 L 1432.847656 419.753906 Z M 1389.832031 409.402344 "/>
<path style=" stroke:none;fill-rule:nonzero;fill:rgb(33.333333%,33.333333%,33.333333%);fill-opacity:1;" d="M 1668.359375 413.863281 C 1668.816406 413.625 1669.363281 413.503906 1670 413.503906 C 1670.632812 413.503906 1671.179688 413.625 1671.640625 413.863281 C 1672.097656 414.105469 1672.492188 414.503906 1672.828125 415.066406 C 1673.160156 415.628906 1673.40625 416.402344 1673.5625 417.378906 C 1673.726562 418.347656 1673.8125 419.550781 1673.8125 420.988281 C 1673.8125 422.425781 1673.726562 423.640625 1673.5625 424.628906 C 1673.40625 425.609375 1673.160156 426.378906 1672.828125 426.941406 C 1672.492188 427.503906 1672.097656 427.90625 1671.640625 428.144531 C 1671.179688 428.386719 1670.632812 428.503906 1670 428.503906 C 1669.363281 428.503906 1668.816406 428.386719 1668.359375 428.144531 C 1667.898438 427.90625 1667.503906 427.503906 1667.171875 426.941406 C 1666.847656 426.378906 1666.601562 425.609375 1666.4375 424.628906 C 1666.269531 423.640625 1666.1875 422.425781 1666.1875 420.988281 C 1666.1875 419.550781 1666.269531 418.347656 1666.4375 417.378906 C 1666.601562 416.402344 1666.847656 415.628906 1667.171875 415.066406 C 1667.503906 414.503906 1667.898438 414.105469 1668.359375 413.863281 Z M 1667.828125 423.332031 L 1671.765625 416.535156 C 1671.410156 415.441406 1670.820312 414.894531 1670 414.894531 C 1669.519531 414.894531 1669.117188 415.074219 1668.796875 415.425781 C 1668.484375 415.769531 1668.226562 416.402344 1668.03125 417.316406 C 1667.84375 418.234375 1667.75 419.464844 1667.75 421.003906 C 1667.75 421.671875 1667.773438 422.449219 1667.828125 423.332031 Z M 1668.171875 425.207031 C 1668.503906 426.46875 1669.113281 427.097656 1670 427.097656 C 1670.476562 427.097656 1670.878906 426.925781 1671.203125 426.582031 C 1671.523438 426.238281 1671.78125 425.609375 1671.96875 424.691406 C 1672.15625 423.765625 1672.25 422.535156 1672.25 421.003906 C 1672.25 419.964844 1672.207031 419.078125 1672.125 418.347656 Z M 1681.890625 415.175781 L 1681.890625 415.144531 L 1676.5 415.144531 L 1676.5 413.691406 L 1683.5 413.691406 L 1683.5 415.144531 C 1681.789062 419.09375 1680.390625 423.480469 1679.296875 428.300781 L 1677.546875 428.300781 C 1678.660156 423.59375 1680.109375 419.21875 1681.890625 415.175781 Z M 1687 422.910156 L 1687 421.472656 L 1693.015625 421.472656 L 1693.015625 422.910156 Z M 1698.359375 413.863281 C 1698.816406 413.625 1699.363281 413.503906 1700 413.503906 C 1700.632812 413.503906 1701.179688 413.625 1701.640625 413.863281 C 1702.097656 414.105469 1702.492188 414.503906 1702.828125 415.066406 C 1703.160156 415.628906 1703.40625 416.402344 1703.5625 417.378906 C 1703.726562 418.347656 1703.8125 419.550781 1703.8125 420.988281 C 1703.8125 422.425781 1703.726562 423.640625 1703.5625 424.628906 C 1703.40625 425.609375 1703.160156 426.378906 1702.828125 426.941406 C 1702.492188 427.503906 1702.097656 427.90625 1701.640625 428.144531 C 1701.179688 428.386719 1700.632812 428.503906 1700 428.503906 C 1699.363281 428.503906 1698.816406 428.386719 1698.359375 428.144531 C 1697.898438 427.90625 1697.503906 427.503906 1697.171875 426.941406 C 1696.847656 426.378906 1696.601562 425.609375 1696.4375 424.628906 C 1696.269531 423.640625 1696.1875 422.425781 1696.1875 420.988281 C 1696.1875 419.550781 1696.269531 418.347656 1696.4375 417.378906 C 1696.601562 416.402344 1696.847656 415.628906 1697.171875 415.066406 C 1697.503906 414.503906 1697.898438 414.105469 1698.359375 413.863281 Z M 1697.828125 423.332031 L 1701.765625 416.535156 C 1701.410156 415.441406 1700.820312 414.894531 1700 414.894531 C 1699.519531 414.894531 1699.117188 415.074219 1698.796875 415.425781 C 1698.484375 415.769531 1698.226562 416.402344 1698.03125 417.316406 C 1697.84375 418.234375 1697.75 419.464844 1697.75 421.003906 C 1697.75 421.671875 1697.773438 422.449219 1697.828125 423.332031 Z M 1698.171875 425.207031 C 1698.503906 426.46875 1699.113281 427.097656 1700 427.097656 C 1700.476562 427.097656 1700.878906 426.925781 1701.203125 426.582031 C 1701.523438 426.238281 1701.78125 425.609375 1701.96875 424.691406 C 1702.15625 423.765625 1702.25 422.535156 1702.25 421.003906 C 1702.25 419.964844 1702.207031 419.078125 1702.125 418.347656 Z M 1710.859375 416.488281 L 1710.828125 416.488281 L 1707.328125 423.332031 L 1707.328125 423.363281 L 1710.859375 423.363281 Z M 1710.859375 424.785156 L 1705.796875 424.785156 L 1705.796875 423.144531 L 1710.671875 413.691406 L 1712.5 413.691406 L 1712.5 423.363281 L 1714.203125 423.363281 L 1714.203125 424.785156 L 1712.5 424.785156 L 1712.5 428.300781 L 1710.859375 428.300781 Z M 1665 409.402344 "/>
<path style="fill:none;stroke-width:1;stroke-linecap:butt;stroke-linejoin:miter;stroke:rgb(0%,0%,0%);stroke-opacity:0.0980392;stroke-miterlimit:10;" d="M 19 32.5 L 19 194.5 " transform="matrix(2,0,0,2,0,0)"/>
<path style=" stroke:none;fill-rule:nonzero;fill:rgb(33.333333%,33.333333%,33.333333%);fill-opacity:1;" d="M 9.359375 379.863281 C 9.816406 379.625 10.363281 379.503906 11 379.503906 C 11.632812 379.503906 12.179688 379.625 12.640625 379.863281 C 13.097656 380.105469 13.492188 380.503906 13.828125 381.066406 C 14.160156 381.628906 14.40625 382.402344 14.5625 383.378906 C 14.726562 384.347656 14.8125 385.550781 14.8125 386.988281 C 14.8125 388.425781 14.726562 389.640625 14.5625 390.628906 C 14.40625 391.609375 14.160156 392.378906 13.828125 392.941406 C 13.492188 393.503906 13.097656 393.90625 12.640625 394.144531 C 12.179688 394.386719 11.632812 394.503906 11 394.503906 C 10.363281 394.503906 9.816406 394.386719 9.359375 394.144531 C 8.898438 393.90625 8.503906 393.503906 8.171875 392.941406 C 7.847656 392.378906 7.601562 391.609375 7.4375 390.628906 C 7.269531 389.640625 7.1875 388.425781 7.1875 386.988281 C 7.1875 385.550781 7.269531 384.347656 7.4375 383.378906 C 7.601562 382.402344 7.847656 381.628906 8.171875 381.066406 C 8.503906 380.503906 8.898438 380.105469 9.359375 379.863281 Z M 8.828125 389.332031 L 12.765625 382.535156 C 12.410156 381.441406 11.820312 380.894531 11 380.894531 C 10.519531 380.894531 10.117188 381.074219 9.796875 381.425781 C 9.484375 381.769531 9.226562 382.402344 9.03125 383.316406 C 8.84375 384.234375 8.75 385.464844 8.75 387.003906 C 8.75 387.671875 8.773438 388.449219 8.828125 389.332031 Z M 9.171875 391.207031 C 9.503906 392.46875 10.113281 393.097656 11 393.097656 C 11.476562 393.097656 11.878906 392.925781 12.203125 392.582031 C 12.523438 392.238281 12.78125 391.609375 12.96875 390.691406 C 13.15625 389.765625 13.25 388.535156 13.25 387.003906 C 13.25 385.964844 13.207031 385.078125 13.125 384.347656 Z M 6 375.402344 "/>
<path style=" stroke:none;fill-rule:nonzero;fill:rgb(33.333333%,33.333333%,33.333333%);fill-opacity:1;" d="M 11.15625 72.699219 L 11.15625 59.792969 L 11.125 59.777344 L 7.65625 61.792969 L 7.65625 60.199219 L 11.15625 58.089844 L 12.796875 58.089844 L 12.796875 72.699219 Z M 6 53.800781 "/>
<g clip-path="url(#b4KWU0g2nK__clip1)" clip-rule="nonzero">
<path style="fill:none;stroke-width:3;stroke-linecap:butt;stroke-linejoin:miter;stroke:rgb(23.137255%,50.980392%,96.470588%);stroke-opacity:1;stroke-miterlimit:10;" d="M 19 194 C 60.275391 194 115.308594 194 156.583984 194 C 197.857422 194 252.892578 194 294.166016 194 C 335.441406 194 390.474609 194 431.75 194 C 473.025391 194 528.058594 194 569.333984 194 C 610.607422 194 665.642578 194 706.916016 194 C 748.191406 194 803.224609 194 844.5 194 " transform="matrix(2,0,0,2,0,0)"/>
</g>
<path style=" stroke:none;fill-rule:nonzero;fill:rgb(23.137255%,50.980392%,96.470588%);fill-opacity:1;" d="M 48 388 C 48 393.523438 43.523438 398 38 398 C 32.476562 398 28 393.523438 28 388 C 28 382.476562 32.476562 378 38 378 C 43.523438 378 48 382.476562 48 388 Z M 48 388 "/>
<g clip-path="url(#b4KWU0g2nK__clip2)" clip-rule="nonzero">
<path style="fill:none;stroke-width:2;stroke-linecap:butt;stroke-linejoin:miter;stroke:rgb(5.098039%,5.098039%,5.098039%);stroke-opacity:1;stroke-miterlimit:10;" d="M 24 194 C 24 196.761719 21.761719 199 19 199 C 16.238281 199 14 196.761719 14 194 C 14 191.238281 16.238281 189 19 189 C 21.761719 189 24 191.238281 24 194 Z M 24 194 " transform="matrix(2,0,0,2,0,0)"/>
</g>
<path style=" stroke:none;fill-rule:nonzero;fill:rgb(23.137255%,50.980392%,96.470588%);fill-opacity:1;" d="M 323.167969 388 C 323.167969 393.523438 318.691406 398 313.167969 398 C 307.644531 398 303.167969 393.523438 303.167969 388 C 303.167969 382.476562 307.644531 378 313.167969 378 C 318.691406 378 323.167969 382.476562 323.167969 388 Z M 323.167969 388 "/>
<g clip-path="url(#b4KWU0g2nK__clip3)" clip-rule="nonzero">
<path style="fill:none;stroke-width:2;stroke-linecap:butt;stroke-linejoin:miter;stroke:rgb(5.098039%,5.098039%,5.098039%);stroke-opacity:1;stroke-miterlimit:10;" d="M 161.583984 194 C 161.583984 196.761719 159.345703 199 156.583984 199 C 153.822266 199 151.583984 196.761719 151.583984 194 C 151.583984 191.238281 153.822266 189 156.583984 189 C 159.345703 189 161.583984 191.238281 161.583984 194 Z M 161.583984 194 " transform="matrix(2,0,0,2,0,0)"/>
</g>
<path style=" stroke:none;fill-rule:nonzero;fill:rgb(23.137255%,50.980392%,96.470588%);fill-opacity:1;" d="M 598.332031 388 C 598.332031 393.523438 593.855469 398 588.332031 398 C 582.808594 398 578.332031 393.523438 578.332031 388 C 578.332031 382.476562 582.808594 378 588.332031 378 C 593.855469 378 598.332031 382.476562 598.332031 388 Z M 598.332031 388 "/>
<g clip-path="url(#b4KWU0g2nK__clip4)" clip-rule="nonzero">
<path style="fill:none;stroke-width:2;stroke-linecap:butt;stroke-linejoin:miter;stroke:rgb(5.098039%,5.098039%,5.098039%);stroke-opacity:1;stroke-miterlimit:10;" d="M 299.166016 194 C 299.166016 196.761719 296.927734 199 294.166016 199 C 291.404297 199 289.166016 196.761719 289.166016 194 C 289.166016 191.238281 291.404297 189 294.166016 189 C 296.927734 189 299.166016 191.238281 299.166016 194 Z M 299.166016 194 " transform="matrix(2,0,0,2,0,0)"/>
</g>
<path style=" stroke:none;fill-rule:nonzero;fill:rgb(23.137255%,50.980392%,96.470588%);fill-opacity:1;" d="M 873.5 388 C 873.5 393.523438 869.023438 398 863.5 398 C 857.976562 398 853.5 393.523438 853.5 388 C 853.5 382.476562 857.976562 378 863.5 378 C 869.023438 378 873.5 382.476562 873.5 388 Z M 873.5 388 "/>
<g clip-path="url(#b4KWU0g2nK__clip5)" clip-rule="nonzero">
<path style="fill:none;stroke-width:2;stroke-linecap:butt;stroke-linejoin:miter;stroke:rgb(5.098039%,5.098039%,5.098039%);stroke-opacity:1;stroke-miterlimit:10;" d="M 436.75 194 C 436.75 196.761719 434.511719 199 431.75 199 C 428.988281 199 426.75 196.761719 426.75 194 C 426.75 191.238281 428.988281 189 431.75 189 C 434.511719 189 436.75 191.238281 436.75 194 Z M 436.75 194 " transform="matrix(2,0,0,2,0,0)"/>
</g>
<path style=" stroke:none;fill-rule:nonzero;fill:rgb(23.137255%,50.980392%,96.470588%);fill-opacity:1;" d="M 1148.667969 388 C 1148.667969 393.523438 1144.191406 398 1138.667969 398 C 1133.144531 398 1128.667969 393.523438 1128.667969 388 C 1128.667969 382.476562 1133.144531 378 1138.667969 378 C 1144.191406 378 1148.667969 382.476562 1148.667969 388 Z M 1148.667969 388 "/>
<g clip-path="url(#b4KWU0g2nK__clip6)" clip-rule="nonzero">
<path style="fill:none;stroke-width:2;stroke-linecap:butt;stroke-linejoin:miter;stroke:rgb(5.098039%,5.098039%,5.098039%);stroke-opacity:1;stroke-miterlimit:10;" d="M 574.333984 194 C 574.333984 196.761719 572.095703 199 569.333984 199 C 566.572266 199 564.333984 196.761719 564.333984 194 C 564.333984 191.238281 566.572266 189 569.333984 189 C 572.095703 189 574.333984 191.238281 574.333984 194 Z M 574.333984 194 " transform="matrix(2,0,0,2,0,0)"/>
</g>
<path style=" stroke:none;fill-rule:nonzero;fill:rgb(23.137255%,50.980392%,96.470588%);fill-opacity:1;" d="M 1423.832031 388 C 1423.832031 393.523438 1419.355469 398 1413.832031 398 C 1408.308594 398 1403.832031 393.523438 1403.832031 388 C 1403.832031 382.476562 1408.308594 378 1413.832031 378 C 1419.355469 378 1423.832031 382.476562 1423.832031 388 Z M 1423.832031 388 "/>
<g clip-path="url(#b4KWU0g2nK__clip7)" clip-rule="nonzero">
<path style="fill:none;stroke-width:2;stroke-linecap:butt;stroke-linejoin:miter;stroke:rgb(5.098039%,5.098039%,5.098039%);stroke-opacity:1;stroke-miterlimit:10;" d="M 711.916016 194 C 711.916016 196.761719 709.677734 199 706.916016 199 C 704.154297 199 701.916016 196.761719 701.916016 194 C 701.916016 191.238281 704.154297 189 706.916016 189 C 709.677734 189 711.916016 191.238281 711.916016 194 Z M 711.916016 194 " transform="matrix(2,0,0,2,0,0)"/>
</g>
<path style=" stroke:none;fill-rule:nonzero;fill:rgb(23.137255%,50.980392%,96.470588%);fill-opacity:1;" d="M 1699 388 C 1699 393.523438 1694.523438 398 1689 398 C 1683.476562 398 1679 393.523438 1679 388 C 1679 382.476562 1683.476562 378 1689 378 C 1694.523438 378 1699 382.476562 1699 388 Z M 1699 388 "/>
<g clip-path="url(#b4KWU0g2nK__clip8)" clip-rule="nonzero">
<path style="fill:none;stroke-width:2;stroke-linecap:butt;stroke-linejoin:miter;stroke:rgb(5.098039%,5.098039%,5.098039%);stroke-opacity:1;stroke-miterlimit:10;" d="M 849.5 194 C 849.5 196.761719 847.261719 199 844.5 199 C 841.738281 199 839.5 196.761719 839.5 194 C 839.5 191.238281 841.738281 189 844.5 189 C 847.261719 189 849.5 191.238281 849.5 194 Z M 849.5 194 " transform="matrix(2,0,0,2,0,0)"/>
</g>
<path style=" stroke:none;fill-rule:nonzero;fill:rgb(62.745098%,62.745098%,62.745098%);fill-opacity:1;" d="M 1689.359375 341.863281 C 1689.816406 341.625 1690.363281 341.503906 1691 341.503906 C 1691.632812 341.503906 1692.179688 341.625 1692.640625 341.863281 C 1693.097656 342.105469 1693.492188 342.503906 1693.828125 343.066406 C 1694.160156 343.628906 1694.40625 344.402344 1694.5625 345.378906 C 1694.726562 346.347656 1694.8125 347.550781 1694.8125 348.988281 C 1694.8125 350.425781 1694.726562 351.640625 1694.5625 352.628906 C 1694.40625 353.609375 1694.160156 354.378906 1693.828125 354.941406 C 1693.492188 355.503906 1693.097656 355.90625 1692.640625 356.144531 C 1692.179688 356.386719 1691.632812 356.503906 1691 356.503906 C 1690.363281 356.503906 1689.816406 356.386719 1689.359375 356.144531 C 1688.898438 355.90625 1688.503906 355.503906 1688.171875 354.941406 C 1687.847656 354.378906 1687.601562 353.609375 1687.4375 352.628906 C 1687.269531 351.640625 1687.1875 350.425781 1687.1875 348.988281 C 1687.1875 347.550781 1687.269531 346.347656 1687.4375 345.378906 C 1687.601562 344.402344 1687.847656 343.628906 1688.171875 343.066406 C 1688.503906 342.503906 1688.898438 342.105469 1689.359375 341.863281 Z M 1688.828125 351.332031 L 1692.765625 344.535156 C 1692.410156 343.441406 1691.820312 342.894531 1691 342.894531 C 1690.519531 342.894531 1690.117188 343.074219 1689.796875 343.425781 C 1689.484375 343.769531 1689.226562 344.402344 1689.03125 345.316406 C 1688.84375 346.234375 1688.75 347.464844 1688.75 349.003906 C 1688.75 349.671875 1688.773438 350.449219 1688.828125 351.332031 Z M 1689.171875 353.207031 C 1689.503906 354.46875 1690.113281 355.097656 1691 355.097656 C 1691.476562 355.097656 1691.878906 354.925781 1692.203125 354.582031 C 1692.523438 354.238281 1692.78125 353.609375 1692.96875 352.691406 C 1693.15625 351.765625 1693.25 350.535156 1693.25 349.003906 C 1693.25 347.964844 1693.207031 347.078125 1693.125 346.347656 Z M 1686 337.402344 "/>
<path style=" stroke:none;fill-rule:nonzero;fill:rgb(62.745098%,62.745098%,62.745098%);fill-opacity:1;" d="M 1413.359375 341.863281 C 1413.816406 341.625 1414.363281 341.503906 1415 341.503906 C 1415.632812 341.503906 1416.179688 341.625 1416.640625 341.863281 C 1417.097656 342.105469 1417.492188 342.503906 1417.828125 343.066406 C 1418.160156 343.628906 1418.40625 344.402344 1418.5625 345.378906 C 1418.726562 346.347656 1418.8125 347.550781 1418.8125 348.988281 C 1418.8125 350.425781 1418.726562 351.640625 1418.5625 352.628906 C 1418.40625 353.609375 1418.160156 354.378906 1417.828125 354.941406 C 1417.492188 355.503906 1417.097656 355.90625 1416.640625 356.144531 C 1416.179688 356.386719 1415.632812 356.503906 1415 356.503906 C 1414.363281 356.503906 1413.816406 356.386719 1413.359375 356.144531 C 1412.898438 355.90625 1412.503906 355.503906 1412.171875 354.941406 C 1411.847656 354.378906 1411.601562 353.609375 1411.4375 352.628906 C 1411.269531 351.640625 1411.1875 350.425781 1411.1875 348.988281 C 1411.1875 347.550781 1411.269531 346.347656 1411.4375 345.378906 C 1411.601562 344.402344 1411.847656 343.628906 1412.171875 343.066406 C 1412.503906 342.503906 1412.898438 342.105469 1413.359375 341.863281 Z M 1412.828125 351.332031 L 1416.765625 344.535156 C 1416.410156 343.441406 1415.820312 342.894531 1415 342.894531 C 1414.519531 342.894531 1414.117188 343.074219 1413.796875 343.425781 C 1413.484375 343.769531 1413.226562 344.402344 1413.03125 345.316406 C 1412.84375 346.234375 1412.75 347.464844 1412.75 349.003906 C 1412.75 349.671875 1412.773438 350.449219 1412.828125 351.332031 Z M 1413.171875 353.207031 C 1413.503906 354.46875 1414.113281 355.097656 1415 355.097656 C 1415.476562 355.097656 1415.878906 354.925781 1416.203125 354.582031 C 1416.523438 354.238281 1416.78125 353.609375 1416.96875 352.691406 C 1417.15625 351.765625 1417.25 350.535156 1417.25 349.003906 C 1417.25 347.964844 1417.207031 347.078125 1417.125 346.347656 Z M 1410 337.402344 "/>
<path style=" stroke:none;fill-rule:nonzero;fill:rgb(62.745098%,62.745098%,62.745098%);fill-opacity:1;" d="M 1137.359375 341.863281 C 1137.816406 341.625 1138.363281 341.503906 1139 341.503906 C 1139.632812 341.503906 1140.179688 341.625 1140.640625 341.863281 C 1141.097656 342.105469 1141.492188 342.503906 1141.828125 343.066406 C 1142.160156 343.628906 1142.40625 344.402344 1142.5625 345.378906 C 1142.726562 346.347656 1142.8125 347.550781 1142.8125 348.988281 C 1142.8125 350.425781 1142.726562 351.640625 1142.5625 352.628906 C 1142.40625 353.609375 1142.160156 354.378906 1141.828125 354.941406 C 1141.492188 355.503906 1141.097656 355.90625 1140.640625 356.144531 C 1140.179688 356.386719 1139.632812 356.503906 1139 356.503906 C 1138.363281 356.503906 1137.816406 356.386719 1137.359375 356.144531 C 1136.898438 355.90625 1136.503906 355.503906 1136.171875 354.941406 C 1135.847656 354.378906 1135.601562 353.609375 1135.4375 352.628906 C 1135.269531 351.640625 1135.1875 350.425781 1135.1875 348.988281 C 1135.1875 347.550781 1135.269531 346.347656 1135.4375 345.378906 C 1135.601562 344.402344 1135.847656 343.628906 1136.171875 343.066406 C 1136.503906 342.503906 1136.898438 342.105469 1137.359375 341.863281 Z M 1136.828125 351.332031 L 1140.765625 344.535156 C 1140.410156 343.441406 1139.820312 342.894531 1139 342.894531 C 1138.519531 342.894531 1138.117188 343.074219 1137.796875 343.425781 C 1137.484375 343.769531 1137.226562 344.402344 1137.03125 345.316406 C 1136.84375 346.234375 1136.75 347.464844 1136.75 349.003906 C 1136.75 349.671875 1136.773438 350.449219 1136.828125 351.332031 Z M 1137.171875 353.207031 C 1137.503906 354.46875 1138.113281 355.097656 1139 355.097656 C 1139.476562 355.097656 1139.878906 354.925781 1140.203125 354.582031 C 1140.523438 354.238281 1140.78125 353.609375 1140.96875 352.691406 C 1141.15625 351.765625 1141.25 350.535156 1141.25 349.003906 C 1141.25 347.964844 1141.207031 347.078125 1141.125 346.347656 Z M 1134 337.402344 "/>
<path style=" stroke:none;fill-rule:nonzero;fill:rgb(62.745098%,62.745098%,62.745098%);fill-opacity:1;" d="M 863.359375 341.863281 C 863.816406 341.625 864.363281 341.503906 865 341.503906 C 865.632812 341.503906 866.179688 341.625 866.640625 341.863281 C 867.097656 342.105469 867.492188 342.503906 867.828125 343.066406 C 868.160156 343.628906 868.40625 344.402344 868.5625 345.378906 C 868.726562 346.347656 868.8125 347.550781 868.8125 348.988281 C 868.8125 350.425781 868.726562 351.640625 868.5625 352.628906 C 868.40625 353.609375 868.160156 354.378906 867.828125 354.941406 C 867.492188 355.503906 867.097656 355.90625 866.640625 356.144531 C 866.179688 356.386719 865.632812 356.503906 865 356.503906 C 864.363281 356.503906 863.816406 356.386719 863.359375 356.144531 C 862.898438 355.90625 862.503906 355.503906 862.171875 354.941406 C 861.847656 354.378906 861.601562 353.609375 861.4375 352.628906 C 861.269531 351.640625 861.1875 350.425781 861.1875 348.988281 C 861.1875 347.550781 861.269531 346.347656 861.4375 345.378906 C 861.601562 344.402344 861.847656 343.628906 862.171875 343.066406 C 862.503906 342.503906 862.898438 342.105469 863.359375 341.863281 Z M 862.828125 351.332031 L 866.765625 344.535156 C 866.410156 343.441406 865.820312 342.894531 865 342.894531 C 864.519531 342.894531 864.117188 343.074219 863.796875 343.425781 C 863.484375 343.769531 863.226562 344.402344 863.03125 345.316406 C 862.84375 346.234375 862.75 347.464844 862.75 349.003906 C 862.75 349.671875 862.773438 350.449219 862.828125 351.332031 Z M 863.171875 353.207031 C 863.503906 354.46875 864.113281 355.097656 865 355.097656 C 865.476562 355.097656 865.878906 354.925781 866.203125 354.582031 C 866.523438 354.238281 866.78125 353.609375 866.96875 352.691406 C 867.15625 351.765625 867.25 350.535156 867.25 349.003906 C 867.25 347.964844 867.207031 347.078125 867.125 346.347656 Z M 860 337.402344 "/>
<path style=" stroke:none;fill-rule:nonzero;fill:rgb(62.745098%,62.745098%,62.745098%);fill-opacity:1;" d="M 587.359375 341.863281 C 587.816406 341.625 588.363281 341.503906 589 341.503906 C 589.632812 341.503906 590.179688 341.625 590.640625 341.863281 C 591.097656 342.105469 591.492188 342.503906 591.828125 343.066406 C 592.160156 343.628906 592.40625 344.402344 592.5625 345.378906 C 592.726562 346.347656 592.8125 347.550781 592.8125 348.988281 C 592.8125 350.425781 592.726562 351.640625 592.5625 352.628906 C 592.40625 353.609375 592.160156 354.378906 591.828125 354.941406 C 591.492188 355.503906 591.097656 355.90625 590.640625 356.144531 C 590.179688 356.386719 589.632812 356.503906 589 356.503906 C 588.363281 356.503906 587.816406 356.386719 587.359375 356.144531 C 586.898438 355.90625 586.503906 355.503906 586.171875 354.941406 C 585.847656 354.378906 585.601562 353.609375 585.4375 352.628906 C 585.269531 351.640625 585.1875 350.425781 585.1875 348.988281 C 585.1875 347.550781 585.269531 346.347656 585.4375 345.378906 C 585.601562 344.402344 585.847656 343.628906 586.171875 343.066406 C 586.503906 342.503906 586.898438 342.105469 587.359375 341.863281 Z M 586.828125 351.332031 L 590.765625 344.535156 C 590.410156 343.441406 589.820312 342.894531 589 342.894531 C 588.519531 342.894531 588.117188 343.074219 587.796875 343.425781 C 587.484375 343.769531 587.226562 344.402344 587.03125 345.316406 C 586.84375 346.234375 586.75 347.464844 586.75 349.003906 C 586.75 349.671875 586.773438 350.449219 586.828125 351.332031 Z M 587.171875 353.207031 C 587.503906 354.46875 588.113281 355.097656 589 355.097656 C 589.476562 355.097656 589.878906 354.925781 590.203125 354.582031 C 590.523438 354.238281 590.78125 353.609375 590.96875 352.691406 C 591.15625 351.765625 591.25 350.535156 591.25 349.003906 C 591.25 347.964844 591.207031 347.078125 591.125 346.347656 Z M 584 337.402344 "/>
<path style=" stroke:none;fill-rule:nonzero;fill:rgb(62.745098%,62.745098%,62.745098%);fill-opacity:1;" d="M 313.359375 341.863281 C 313.816406 341.625 314.363281 341.503906 315 341.503906 C 315.632812 341.503906 316.179688 341.625 316.640625 341.863281 C 317.097656 342.105469 317.492188 342.503906 317.828125 343.066406 C 318.160156 343.628906 318.40625 344.402344 318.5625 345.378906 C 318.726562 346.347656 318.8125 347.550781 318.8125 348.988281 C 318.8125 350.425781 318.726562 351.640625 318.5625 352.628906 C 318.40625 353.609375 318.160156 354.378906 317.828125 354.941406 C 317.492188 355.503906 317.097656 355.90625 316.640625 356.144531 C 316.179688 356.386719 315.632812 356.503906 315 356.503906 C 314.363281 356.503906 313.816406 356.386719 313.359375 356.144531 C 312.898438 355.90625 312.503906 355.503906 312.171875 354.941406 C 311.847656 354.378906 311.601562 353.609375 311.4375 352.628906 C 311.269531 351.640625 311.1875 350.425781 311.1875 348.988281 C 311.1875 347.550781 311.269531 346.347656 311.4375 345.378906 C 311.601562 344.402344 311.847656 343.628906 312.171875 343.066406 C 312.503906 342.503906 312.898438 342.105469 313.359375 341.863281 Z M 312.828125 351.332031 L 316.765625 344.535156 C 316.410156 343.441406 315.820312 342.894531 315 342.894531 C 314.519531 342.894531 314.117188 343.074219 313.796875 343.425781 C 313.484375 343.769531 313.226562 344.402344 313.03125 345.316406 C 312.84375 346.234375 312.75 347.464844 312.75 349.003906 C 312.75 349.671875 312.773438 350.449219 312.828125 351.332031 Z M 313.171875 353.207031 C 313.503906 354.46875 314.113281 355.097656 315 355.097656 C 315.476562 355.097656 315.878906 354.925781 316.203125 354.582031 C 316.523438 354.238281 316.78125 353.609375 316.96875 352.691406 C 317.15625 351.765625 317.25 350.535156 317.25 349.003906 C 317.25 347.964844 317.207031 347.078125 317.125 346.347656 Z M 310 337.402344 "/>
<path style=" stroke:none;fill-rule:nonzero;fill:rgb(62.745098%,62.745098%,62.745098%);fill-opacity:1;" d="M 37.359375 341.863281 C 37.816406 341.625 38.363281 341.503906 39 341.503906 C 39.632812 341.503906 40.179688 341.625 40.640625 341.863281 C 41.097656 342.105469 41.492188 342.503906 41.828125 343.066406 C 42.160156 343.628906 42.40625 344.402344 42.5625 345.378906 C 42.726562 346.347656 42.8125 347.550781 42.8125 348.988281 C 42.8125 350.425781 42.726562 351.640625 42.5625 352.628906 C 42.40625 353.609375 42.160156 354.378906 41.828125 354.941406 C 41.492188 355.503906 41.097656 355.90625 40.640625 356.144531 C 40.179688 356.386719 39.632812 356.503906 39 356.503906 C 38.363281 356.503906 37.816406 356.386719 37.359375 356.144531 C 36.898438 355.90625 36.503906 355.503906 36.171875 354.941406 C 35.847656 354.378906 35.601562 353.609375 35.4375 352.628906 C 35.269531 351.640625 35.1875 350.425781 35.1875 348.988281 C 35.1875 347.550781 35.269531 346.347656 35.4375 345.378906 C 35.601562 344.402344 35.847656 343.628906 36.171875 343.066406 C 36.503906 342.503906 36.898438 342.105469 37.359375 341.863281 Z M 36.828125 351.332031 L 40.765625 344.535156 C 40.410156 343.441406 39.820312 342.894531 39 342.894531 C 38.519531 342.894531 38.117188 343.074219 37.796875 343.425781 C 37.484375 343.769531 37.226562 344.402344 37.03125 345.316406 C 36.84375 346.234375 36.75 347.464844 36.75 349.003906 C 36.75 349.671875 36.773438 350.449219 36.828125 351.332031 Z M 37.171875 353.207031 C 37.503906 354.46875 38.113281 355.097656 39 355.097656 C 39.476562 355.097656 39.878906 354.925781 40.203125 354.582031 C 40.523438 354.238281 40.78125 353.609375 40.96875 352.691406 C 41.15625 351.765625 41.25 350.535156 41.25 349.003906 C 41.25 347.964844 41.207031 347.078125 41.125 346.347656 Z M 34 337.402344 "/>
</g>
</svg>
