<?xml version="1.0" encoding="UTF-8"?>
<svg xmlns="http://www.w3.org/2000/svg" xmlns:xlink="http://www.w3.org/1999/xlink" width="1720pt" height="440pt" viewBox="0 0 1720 440" version="1.1">
<defs>
<clipPath id="8V0KWj7he7__clip1">
  <path d="M 48 66.398438 L 1689 66.398438 L 1689 388 L 48 388 Z M 48 66.398438 "/>
</clipPath>
<clipPath id="8V0KWj7he7__clip2">
  <path d="M 34 52.398438 L 1703 52.398438 L 1703 402 L 34 402 Z M 34 52.398438 "/>
</clipPath>
<clipPath id="8V0KWj7he7__clip3">
  <path d="M 34 321 L 115 321 L 115 402 L 34 402 Z M 34 321 "/>
</clipPath>
<clipPath id="8V0KWj7he7__clip4">
  <path d="M 254 321 L 389 321 L 389 402 L 254 402 Z M 254 321 "/>
</clipPath>
<clipPath id="8V0KWj7he7__clip5">
  <path d="M 528 321 L 662 321 L 662 402 L 528 402 Z M 528 321 "/>
</clipPath>
<clipPath id="8V0KWj7he7__clip6">
  <path d="M 801 321 L 936 321 L 936 402 L 801 402 Z M 801 321 "/>
</clipPath>
<clipPath id="8V0KWj7he7__clip7">
  <path d="M 1075 321 L 1209 321 L 1209 402 L 1075 402 Z M 1075 321 "/>
</clipPath>
<clipPath id="8V0KWj7he7__clip8">
  <path d="M 1348 52.398438 L 1483 52.398438 L 1483 133 L 1348 133 Z M 1348 52.398438 "/>
</clipPath>
<clipPath id="8V0KWj7he7__clip9">
  <path d="M 1622 321 L 1703 321 L 1703 402 L 1622 402 Z M 1622 321 "/>
</clipPath>
</defs>
<g id="surface70146">
<rect x="0" y="0" width="1720" height="440" style="fill:rgb(5.098039%,5.098039%,5.098039%);fill-opacity:1;stroke:none;"/>
<path style="fill:none;stroke-width:1;stroke-linecap:butt;stroke-linejoin:miter;stroke:rgb(6.666667%,6.666667%,6.666667%);stroke-opacity:1;stroke-miterlimit:10;" d="M 24 33.199219 L 24 193.5 " transform="matrix(2,0,0,2,0,0)"/>
<path style="fill:none;stroke-width:1;stroke-linecap:butt;stroke-linejoin:miter;stroke:rgb(6.666667%,6.666667%,6.666667%);stroke-opacity:1;stroke-miterlimit:10;" d="M 24 194.5 L 24 202 " transform="matrix(2,0,0,2,0,0)"/>
<path style="fill:none;stroke-width:1;stroke-linecap:butt;stroke-linejoin:miter;stroke:rgb(6.666667%,6.666667%,6.666667%);stroke-opacity:1;stroke-miterlimit:10;" d="M 161 33.199219 L 161 193.5 " transform="matrix(2,0,0,2,0,0)"/>
<path style="fill:none;stroke-width:1;stroke-linecap:butt;stroke-linejoin:miter;stroke:rgb(6.666667%,6.666667%,6.666667%);stroke-opacity:1;stroke-miterlimit:10;" d="M 161 194.5 L 161 202 " transform="matrix(2,0,0,2,0,0)"/>
<path style="fill:none;stroke-width:1;stroke-linecap:butt;stroke-linejoin:miter;stroke:rgb(6.666667%,6.666667%,6.666667%);stroke-opacity:1;stroke-miterlimit:10;" d="M 297.5 33.199219 L 297.5 193.5 " transform="matrix(2,0,0,2,0,0)"/>
<path style="fill:none;stroke-width:1;stroke-linecap:butt;stroke-linejoin:miter;stroke:rgb(6.666667%,6.666667%,6.666667%);stroke-opacity:1;stroke-miterlimit:10;" d="M 297.5 194.5 L 297.5 202 " transform="matrix(2,0,0,2,0,0)"/>
<path style="fill:none;stroke-width:1;stroke-linecap:butt;stroke-linejoin:miter;stroke:rgb(6.666667%,6.666667%,6.666667%);stroke-opacity:1;stroke-miterlimit:10;" d="M 434.5 33.199219 L 434.5 193.5 " transform="matrix(2,0,0,2,0,0)"/>
<path style="fill:none;stroke-width:1;stroke-linecap:butt;stroke-linejoin:miter;stroke:rgb(6.666667%,6.666667%,6.666667%);stroke-opacity:1;stroke-miterlimit:10;" d="M 434.5 194.5 L 434.5 202 " transform="matrix(2,0,0,2,0,0)"/>
<path style="fill:none;stroke-width:1;stroke-linecap:butt;stroke-linejoin:miter;stroke:rgb(6.666667%,6.666667%,6.666667%);stroke-opacity:1;stroke-miterlimit:10;" d="M 571 33.199219 L 571 193.5 " transform="matrix(2,0,0,2,0,0)"/>
<path style="fill:none;stroke-width:1;stroke-linecap:butt;stroke-linejoin:miter;stroke:rgb(6.666667%,6.666667%,6.666667%);stroke-opacity:1;stroke-miterlimit:10;" d="M 571 194.5 L 571 202 " transform="matrix(2,0,0,2,0,0)"/>
<path style="fill:none;stroke-width:1;stroke-linecap:butt;stroke-linejoin:miter;stroke:rgb(6.666667%,6.666667%,6.666667%);stroke-opacity:1;stroke-miterlimit:10;" d="M 708 33.199219 L 708 193.5 " transform="matrix(2,0,0,2,0,0)"/>
<path style="fill:none;stroke-width:1;stroke-linecap:butt;stroke-linejoin:miter;stroke:rgb(6.666667%,6.666667%,6.666667%);stroke-opacity:1;stroke-miterlimit:10;" d="M 708 194.5 L 708 202 " transform="matrix(2,0,0,2,0,0)"/>
<path style="fill:none;stroke-width:1;stroke-linecap:butt;stroke-linejoin:miter;stroke:rgb(6.666667%,6.666667%,6.666667%);stroke-opacity:1;stroke-miterlimit:10;" d="M 844.5 33.199219 L 844.5 193.5 " transform="matrix(2,0,0,2,0,0)"/>
<path style="fill:none;stroke-width:1;stroke-linecap:butt;stroke-linejoin:miter;stroke:rgb(6.666667%,6.666667%,6.666667%);stroke-opacity:1;stroke-miterlimit:10;" d="M 844.5 194.5 L 844.5 202 " transform="matrix(2,0,0,2,0,0)"/>
<path style="fill:none;stroke-width:1;stroke-linecap:butt;stroke-linejoin:miter;stroke:rgb(6.666667%,6.666667%,6.666667%);stroke-opacity:1;stroke-miterlimit:10;" d="M 24.5 194 L 844.5 194 " transform="matrix(2,0,0,2,0,0)"/>
<path style="fill:none;stroke-width:1;stroke-linecap:butt;stroke-linejoin:miter;stroke:rgb(6.666667%,6.666667%,6.666667%);stroke-opacity:1;stroke-miterlimit:10;" d="M 16 194 L 23.5 194 " transform="matrix(2,0,0,2,0,0)"/>
<path style="fill:none;stroke-width:1;stroke-linecap:butt;stroke-linejoin:miter;stroke:rgb(6.666667%,6.666667%,6.666667%);stroke-opacity:1;stroke-miterlimit:10;" d="M 24.5 172 L 844.5 172 " transform="matrix(2,0,0,2,0,0)"/>
<path style="fill:none;stroke-width:1;stroke-linecap:butt;stroke-linejoin:miter;stroke:rgb(6.666667%,6.666667%,6.666667%);stroke-opacity:1;stroke-miterlimit:10;" d="M 16 172 L 23.5 172 " transform="matrix(2,0,0,2,0,0)"/>
<path style="fill:none;stroke-width:1;stroke-linecap:butt;stroke-linejoin:miter;stroke:rgb(6.666667%,6.666667%,6.666667%);stroke-opacity:1;stroke-miterlimit:10;" d="M 24.5 150 L 844.5 150 " transform="matrix(2,0,0,2,0,0)"/>
<path style="fill:none;stroke-width:1;stroke-linecap:butt;stroke-linejoin:miter;stroke:rgb(6.666667%,6.666667%,6.666667%);stroke-opacity:1;stroke-miterlimit:10;" d="M 16 150 L 23.5 150 " transform="matrix(2,0,0,2,0,0)"/>
<path style="fill:none;stroke-width:1;stroke-linecap:butt;stroke-linejoin:miter;stroke:rgb(6.666667%,6.666667%,6.666667%);stroke-opacity:1;stroke-miterlimit:10;" d="M 24.5 128 L 844.5 128 " transform="matrix(2,0,0,2,0,0)"/>
<path style="fill:none;stroke-width:1;stroke-linecap:butt;stroke-linejoin:miter;stroke:rgb(6.666667%,6.666667%,6.666667%);stroke-opacity:1;stroke-miterlimit:10;" d="M 16 128 L 23.5 128 " transform="matrix(2,0,0,2,0,0)"/>
<path style="fill:none;stroke-width:1;stroke-linecap:butt;stroke-linejoin:miter;stroke:rgb(6.666667%,6.666667%,6.666667%);stroke-opacity:1;stroke-miterlimit:10;" d="M 24.5 106.5 L 844.5 106.5 " transform="matrix(2,0,0,2,0,0)"/>
<path style="fill:none;stroke-width:1;stroke-linecap:butt;stroke-linejoin:miter;stroke:rgb(6.666667%,6.666667%,6.666667%);stroke-opacity:1;stroke-miterlimit:10;" d="M 16 106.5 L 23.5 106.5 " transform="matrix(2,0,0,2,0,0)"/>
<path style="fill:none;stroke-width:1;stroke-linecap:butt;stroke-linejoin:miter;stroke:rgb(6.666667%,6.666667%,6.666667%);stroke-opacity:1;stroke-miterlimit:10;" d="M 24.5 84.5 L 844.5 84.5 " transform="matrix(2,0,0,2,0,0)"/>
<path style="fill:none;stroke-width:1;stroke-linecap:butt;stroke-linejoin:miter;stroke:rgb(6.666667%,6.666667%,6.666667%);stroke-opacity:1;stroke-miterlimit:10;" d="M 16 84.5 L 23.5 84.5 " transform="matrix(2,0,0,2,0,0)"/>
<path style="fill:none;stroke-width:1;stroke-linecap:butt;stroke-linejoin:miter;stroke:rgb(6.666667%,6.666667%,6.666667%);stroke-opacity:1;stroke-miterlimit:10;" d="M 24.5 62.5 L 844.5 62.5 " transform="matrix(2,0,0,2,0,0)"/>
<path style="fill:none;stroke-width:1;stroke-linecap:butt;stroke-linejoin:miter;stroke:rgb(6.666667%,6.666667%,6.666667%);stroke-opacity:1;stroke-miterlimit:10;" d="M 16 62.5 L 23.5 62.5 " transform="matrix(2,0,0,2,0,0)"/>
<path style="fill:none;stroke-width:1;stroke-linecap:butt;stroke-linejoin:miter;stroke:rgb(6.666667%,6.666667%,6.666667%);stroke-opacity:1;stroke-miterlimit:10;" d="M 24.5 40.5 L 844.5 40.5 " transform="matrix(2,0,0,2,0,0)"/>
<path style="fill:none;stroke-width:1;stroke-linecap:butt;stroke-linejoin:miter;stroke:rgb(6.666667%,6.666667%,6.666667%);stroke-opacity:1;stroke-miterlimit:10;" d="M 16 40.5 L 23.5 40.5 " transform="matrix(2,0,0,2,0,0)"/>
<path style=" stroke:none;fill-rule:nonzero;fill:rgb(23.137255%,50.980392%,96.470588%);fill-opacity:1;" d="M 11.09375 23.167969 L 3.390625 41.027344 L 0.8125 41.027344 L 8.515625 23.167969 Z M 23.09375 23.167969 L 15.390625 41.027344 L 12.8125 41.027344 L 20.515625 23.167969 Z M 37.546875 33.949219 C 37.546875 31.886719 37.984375 30.308594 38.859375 29.214844 C 39.742188 28.121094 41 27.574219 42.625 27.574219 C 43.5625 27.574219 44.628906 27.800781 45.828125 28.246094 L 45.828125 31.074219 C 44.554688 30.398438 43.523438 30.058594 42.734375 30.058594 C 41.953125 30.058594 41.34375 30.378906 40.90625 31.011719 C 40.476562 31.636719 40.265625 32.617188 40.265625 33.949219 C 40.265625 35.335938 40.492188 36.347656 40.953125 36.980469 C 41.421875 37.605469 42.046875 37.917969 42.828125 37.917969 C 43.609375 37.917969 44.644531 37.539062 45.9375 36.777344 L 45.9375 39.652344 C 44.75 40.121094 43.679688 40.355469 42.734375 40.355469 C 41.078125 40.355469 39.796875 39.816406 38.890625 38.730469 C 37.992188 37.636719 37.546875 36.042969 37.546875 33.949219 Z M 49.09375 33.964844 C 49.09375 29.707031 50.710938 27.574219 53.953125 27.574219 C 57.191406 27.574219 58.8125 29.707031 58.8125 33.964844 C 58.8125 38.226562 57.191406 40.355469 53.953125 40.355469 C 50.710938 40.355469 49.09375 38.226562 49.09375 33.964844 Z M 52.34375 37.089844 C 52.695312 37.644531 53.234375 37.917969 53.953125 37.917969 C 54.671875 37.917969 55.207031 37.644531 55.5625 37.089844 C 55.914062 36.527344 56.09375 35.488281 56.09375 33.964844 C 56.09375 32.433594 55.914062 31.394531 55.5625 30.839844 C 55.207031 30.277344 54.671875 29.996094 53.953125 29.996094 C 53.234375 29.996094 52.695312 30.277344 52.34375 30.839844 C 51.988281 31.394531 51.8125 32.433594 51.8125 33.964844 C 51.8125 35.488281 51.988281 36.527344 52.34375 37.089844 Z M 67.28125 40.136719 L 64.65625 40.136719 L 64.65625 31.761719 C 64.644531 30.992188 64.597656 30.523438 64.515625 30.355469 C 64.441406 30.179688 64.328125 30.089844 64.171875 30.089844 C 63.929688 30.089844 63.6875 30.488281 63.4375 31.277344 C 63.195312 32.058594 63.078125 33.394531 63.078125 35.277344 L 63.078125 40.136719 L 60.4375 40.136719 L 60.4375 27.777344 L 62.875 27.777344 L 62.515625 29.730469 L 62.46875 29.699219 C 62.519531 29.011719 62.765625 28.488281 63.203125 28.121094 C 63.640625 27.757812 64.117188 27.574219 64.640625 27.574219 C 65.210938 27.574219 65.675781 27.746094 66.03125 28.089844 C 66.382812 28.425781 66.550781 28.964844 66.53125 29.714844 L 66.484375 29.699219 C 66.898438 28.285156 67.675781 27.574219 68.8125 27.574219 C 69.726562 27.574219 70.398438 27.863281 70.828125 28.433594 C 71.265625 28.996094 71.484375 29.957031 71.484375 31.308594 L 71.484375 40.136719 L 68.875 40.136719 L 68.875 31.761719 C 68.863281 30.980469 68.804688 30.507812 68.703125 30.339844 C 68.609375 30.175781 68.453125 30.089844 68.234375 30.089844 C 67.597656 30.089844 67.28125 31.378906 67.28125 33.949219 Z M 79.28125 40.136719 L 76.65625 40.136719 L 76.65625 31.761719 C 76.644531 30.992188 76.597656 30.523438 76.515625 30.355469 C 76.441406 30.179688 76.328125 30.089844 76.171875 30.089844 C 75.929688 30.089844 75.6875 30.488281 75.4375 31.277344 C 75.195312 32.058594 75.078125 33.394531 75.078125 35.277344 L 75.078125 40.136719 L 72.4375 40.136719 L 72.4375 27.777344 L 74.875 27.777344 L 74.515625 29.730469 L 74.46875 29.699219 C 74.519531 29.011719 74.765625 28.488281 75.203125 28.121094 C 75.640625 27.757812 76.117188 27.574219 76.640625 27.574219 C 77.210938 27.574219 77.675781 27.746094 78.03125 28.089844 C 78.382812 28.425781 78.550781 28.964844 78.53125 29.714844 L 78.484375 29.699219 C 78.898438 28.285156 79.675781 27.574219 80.8125 27.574219 C 81.726562 27.574219 82.398438 27.863281 82.828125 28.433594 C 83.265625 28.996094 83.484375 29.957031 83.484375 31.308594 L 83.484375 40.136719 L 80.875 40.136719 L 80.875 31.761719 C 80.863281 30.980469 80.804688 30.507812 80.703125 30.339844 C 80.609375 30.175781 80.453125 30.089844 80.234375 30.089844 C 79.597656 30.089844 79.28125 31.378906 79.28125 33.949219 Z M 91.875 27.777344 L 91.875 37.730469 L 94.25 37.730469 L 94.25 40.136719 L 86.078125 40.136719 L 86.078125 37.730469 L 89.15625 37.730469 L 89.15625 30.199219 L 86.75 30.199219 L 86.75 27.777344 Z M 88.703125 26.042969 L 88.703125 22.496094 L 91.875 22.496094 L 91.875 26.042969 Z M 102.28125 28.230469 L 106.25 28.230469 L 106.25 30.636719 L 102.28125 30.636719 L 102.28125 36.371094 C 102.28125 37.082031 102.359375 37.523438 102.515625 37.699219 C 102.679688 37.878906 103.046875 37.964844 103.609375 37.964844 C 104.273438 37.964844 105.082031 37.753906 106.03125 37.324219 L 106.03125 39.886719 C 105.082031 40.199219 104.203125 40.355469 103.390625 40.355469 C 102.035156 40.355469 101.066406 40.074219 100.484375 39.511719 C 99.910156 38.941406 99.625 37.964844 99.625 36.589844 L 99.625 30.636719 L 97.4375 30.636719 L 97.4375 28.230469 L 99.625 28.230469 L 99.625 24.042969 L 102.28125 24.042969 Z M 114.0625 29.933594 C 112.957031 29.933594 112.40625 30.320312 112.40625 31.089844 C 112.40625 31.464844 112.519531 31.769531 112.75 31.996094 C 112.988281 32.226562 113.46875 32.441406 114.1875 32.636719 C 115.820312 33.097656 116.925781 33.605469 117.5 34.167969 C 118.070312 34.730469 118.359375 35.585938 118.359375 36.730469 C 118.359375 37.878906 117.960938 38.769531 117.171875 39.402344 C 116.390625 40.039062 115.320312 40.355469 113.96875 40.355469 C 112.625 40.355469 111.257812 40.007812 109.875 39.308594 L 109.875 36.417969 C 111.414062 37.449219 112.703125 37.964844 113.734375 37.964844 C 115.054688 37.964844 115.71875 37.542969 115.71875 36.699219 C 115.71875 36.292969 115.59375 35.976562 115.34375 35.746094 C 115.101562 35.519531 114.5625 35.289062 113.71875 35.058594 C 112.300781 34.652344 111.285156 34.152344 110.671875 33.558594 C 110.066406 32.957031 109.765625 32.132812 109.765625 31.089844 C 109.765625 29.996094 110.128906 29.136719 110.859375 28.511719 C 111.585938 27.886719 112.617188 27.574219 113.953125 27.574219 C 115.242188 27.574219 116.570312 27.882812 117.9375 28.496094 L 117.9375 31.199219 C 116.394531 30.355469 115.101562 29.933594 114.0625 29.933594 Z M 139.09375 36.371094 C 139.09375 37.246094 139.128906 37.730469 139.203125 37.824219 C 139.273438 37.910156 139.632812 37.949219 140.28125 37.949219 C 140.726562 37.949219 141.421875 37.878906 142.359375 37.730469 L 142.359375 40.199219 C 141.390625 40.304688 140.613281 40.355469 140.03125 40.355469 C 138.59375 40.355469 137.625 40.101562 137.125 39.589844 C 136.632812 39.082031 136.390625 38.082031 136.390625 36.589844 L 136.390625 25.574219 L 133.546875 25.574219 L 133.546875 23.167969 L 139.09375 23.167969 Z M 150.0625 27.574219 C 151.675781 27.574219 152.796875 27.914062 153.421875 28.589844 C 154.046875 29.269531 154.359375 30.464844 154.359375 32.183594 L 154.359375 40.136719 L 151.90625 40.136719 L 152.234375 38.089844 L 152.296875 38.136719 C 151.742188 39.617188 150.632812 40.355469 148.96875 40.355469 C 147.882812 40.355469 147.003906 40.007812 146.328125 39.308594 C 145.648438 38.613281 145.3125 37.667969 145.3125 36.480469 C 145.3125 35.003906 145.8125 33.867188 146.8125 33.074219 C 147.8125 32.273438 149.257812 31.871094 151.15625 31.871094 L 151.75 31.871094 L 151.75 31.761719 C 151.75 31.042969 151.628906 30.558594 151.390625 30.308594 C 151.160156 30.058594 150.71875 29.933594 150.0625 29.933594 C 149.601562 29.933594 149.015625 30.023438 148.296875 30.199219 C 147.585938 30.367188 146.78125 30.652344 145.875 31.058594 L 145.875 28.496094 C 146.59375 28.175781 147.332031 27.941406 148.09375 27.792969 C 148.851562 27.648438 149.507812 27.574219 150.0625 27.574219 Z M 151.75 34.074219 L 151.15625 34.074219 C 148.96875 34.074219 147.875 34.839844 147.875 36.371094 C 147.875 36.914062 147.992188 37.316406 148.234375 37.574219 C 148.484375 37.835938 148.832031 37.964844 149.28125 37.964844 C 150.007812 37.964844 150.601562 37.664062 151.0625 37.058594 C 151.519531 36.457031 151.75 35.570312 151.75 34.402344 Z M 162.0625 29.933594 C 160.957031 29.933594 160.40625 30.320312 160.40625 31.089844 C 160.40625 31.464844 160.519531 31.769531 160.75 31.996094 C 160.988281 32.226562 161.46875 32.441406 162.1875 32.636719 C 163.820312 33.097656 164.925781 33.605469 165.5 34.167969 C 166.070312 34.730469 166.359375 35.585938 166.359375 36.730469 C 166.359375 37.878906 165.960938 38.769531 165.171875 39.402344 C 164.390625 40.039062 163.320312 40.355469 161.96875 40.355469 C 160.625 40.355469 159.257812 40.007812 157.875 39.308594 L 157.875 36.417969 C 159.414062 37.449219 160.703125 37.964844 161.734375 37.964844 C 163.054688 37.964844 163.71875 37.542969 163.71875 36.699219 C 163.71875 36.292969 163.59375 35.976562 163.34375 35.746094 C 163.101562 35.519531 162.5625 35.289062 161.71875 35.058594 C 160.300781 34.652344 159.285156 34.152344 158.671875 33.558594 C 158.066406 32.957031 157.765625 32.132812 157.765625 31.089844 C 157.765625 29.996094 158.128906 29.136719 158.859375 28.511719 C 159.585938 27.886719 160.617188 27.574219 161.953125 27.574219 C 163.242188 27.574219 164.570312 27.882812 165.9375 28.496094 L 165.9375 31.199219 C 164.394531 30.355469 163.101562 29.933594 162.0625 29.933594 Z M 174.28125 28.230469 L 178.25 28.230469 L 178.25 30.636719 L 174.28125 30.636719 L 174.28125 36.371094 C 174.28125 37.082031 174.359375 37.523438 174.515625 37.699219 C 174.679688 37.878906 175.046875 37.964844 175.609375 37.964844 C 176.273438 37.964844 177.082031 37.753906 178.03125 37.324219 L 178.03125 39.886719 C 177.082031 40.199219 176.203125 40.355469 175.390625 40.355469 C 174.035156 40.355469 173.066406 40.074219 172.484375 39.511719 C 171.910156 38.941406 171.625 37.964844 171.625 36.589844 L 171.625 30.636719 L 169.4375 30.636719 L 169.4375 28.230469 L 171.625 28.230469 L 171.625 24.042969 L 174.28125 24.042969 Z M 199.8125 25.199219 L 199.984375 25.246094 L 193.65625 25.652344 L 193.65625 23.167969 L 202.25 23.167969 L 202.25 25.292969 C 200.363281 29.667969 198.796875 34.617188 197.546875 40.136719 L 194.671875 40.136719 C 195.992188 34.554688 197.707031 29.574219 199.8125 25.199219 Z M 223.84375 23.167969 L 226.46875 23.167969 L 226.46875 40.136719 L 223.96875 40.136719 L 224.3125 38.074219 L 224.359375 38.105469 C 223.710938 39.605469 222.6875 40.355469 221.28125 40.355469 C 219.96875 40.355469 218.921875 39.808594 218.140625 38.714844 C 217.367188 37.621094 216.984375 36.035156 216.984375 33.949219 C 216.984375 29.699219 218.414062 27.574219 221.28125 27.574219 C 222.800781 27.574219 223.804688 28.308594 224.296875 29.777344 L 224.234375 29.824219 Z M 219.640625 33.949219 C 219.640625 35.304688 219.832031 36.285156 220.21875 36.886719 C 220.613281 37.492188 221.117188 37.792969 221.734375 37.792969 C 222.316406 37.792969 222.8125 37.488281 223.21875 36.871094 C 223.632812 36.246094 223.84375 35.308594 223.84375 34.058594 L 223.84375 33.839844 C 223.84375 32.601562 223.632812 31.675781 223.21875 31.058594 C 222.8125 30.433594 222.316406 30.121094 221.734375 30.121094 C 220.335938 30.121094 219.640625 31.398438 219.640625 33.949219 Z M 234.0625 27.574219 C 235.675781 27.574219 236.796875 27.914062 237.421875 28.589844 C 238.046875 29.269531 238.359375 30.464844 238.359375 32.183594 L 238.359375 40.136719 L 235.90625 40.136719 L 236.234375 38.089844 L 236.296875 38.136719 C 235.742188 39.617188 234.632812 40.355469 232.96875 40.355469 C 231.882812 40.355469 231.003906 40.007812 230.328125 39.308594 C 229.648438 38.613281 229.3125 37.667969 229.3125 36.480469 C 229.3125 35.003906 229.8125 33.867188 230.8125 33.074219 C 231.8125 32.273438 233.257812 31.871094 235.15625 31.871094 L 235.75 31.871094 L 235.75 31.761719 C 235.75 31.042969 235.628906 30.558594 235.390625 30.308594 C 235.160156 30.058594 234.71875 29.933594 234.0625 29.933594 C 233.601562 29.933594 233.015625 30.023438 232.296875 30.199219 C 231.585938 30.367188 230.78125 30.652344 229.875 31.058594 L 229.875 28.496094 C 230.59375 28.175781 231.332031 27.941406 232.09375 27.792969 C 232.851562 27.648438 233.507812 27.574219 234.0625 27.574219 Z M 235.75 34.074219 L 235.15625 34.074219 C 232.96875 34.074219 231.875 34.839844 231.875 36.371094 C 231.875 36.914062 231.992188 37.316406 232.234375 37.574219 C 232.484375 37.835938 232.832031 37.964844 233.28125 37.964844 C 234.007812 37.964844 234.601562 37.664062 235.0625 37.058594 C 235.519531 36.457031 235.75 35.570312 235.75 34.402344 Z M 246.1875 36.980469 L 246.140625 36.980469 L 248.421875 27.777344 L 251.3125 27.777344 L 245.71875 44.980469 L 242.9375 44.980469 L 244.796875 39.449219 L 240.796875 27.777344 L 243.703125 27.777344 Z M 258.0625 29.933594 C 256.957031 29.933594 256.40625 30.320312 256.40625 31.089844 C 256.40625 31.464844 256.519531 31.769531 256.75 31.996094 C 256.988281 32.226562 257.46875 32.441406 258.1875 32.636719 C 259.820312 33.097656 260.925781 33.605469 261.5 34.167969 C 262.070312 34.730469 262.359375 35.585938 262.359375 36.730469 C 262.359375 37.878906 261.960938 38.769531 261.171875 39.402344 C 260.390625 40.039062 259.320312 40.355469 257.96875 40.355469 C 256.625 40.355469 255.257812 40.007812 253.875 39.308594 L 253.875 36.417969 C 255.414062 37.449219 256.703125 37.964844 257.734375 37.964844 C 259.054688 37.964844 259.71875 37.542969 259.71875 36.699219 C 259.71875 36.292969 259.59375 35.976562 259.34375 35.746094 C 259.101562 35.519531 258.5625 35.289062 257.71875 35.058594 C 256.300781 34.652344 255.285156 34.152344 254.671875 33.558594 C 254.066406 32.957031 253.765625 32.132812 253.765625 31.089844 C 253.765625 29.996094 254.128906 29.136719 254.859375 28.511719 C 255.585938 27.886719 256.617188 27.574219 257.953125 27.574219 C 259.242188 27.574219 260.570312 27.882812 261.9375 28.496094 L 261.9375 31.199219 C 260.394531 30.355469 259.101562 29.933594 258.0625 29.933594 Z M 0 19.34375 "/>
<path style="fill:none;stroke-width:1;stroke-linecap:butt;stroke-linejoin:miter;stroke:rgb(0%,0%,0%);stroke-opacity:0.0980392;stroke-miterlimit:10;" d="M 23.5 194 L 845 194 " transform="matrix(2,0,0,2,0,0)"/>
<path style=" stroke:none;fill-rule:nonzero;fill:rgb(33.333333%,33.333333%,33.333333%);fill-opacity:1;" d="M 27.359375 413.863281 C 27.816406 413.625 28.363281 413.503906 29 413.503906 C 29.632812 413.503906 30.179688 413.625 30.640625 413.863281 C 31.097656 414.105469 31.492188 414.503906 31.828125 415.066406 C 32.160156 415.628906 32.40625 416.402344 32.5625 417.378906 C 32.726562 418.347656 32.8125 419.550781 32.8125 420.988281 C 32.8125 422.425781 32.726562 423.640625 32.5625 424.628906 C 32.40625 425.609375 32.160156 426.378906 31.828125 426.941406 C 31.492188 427.503906 31.097656 427.90625 30.640625 428.144531 C 30.179688 428.386719 29.632812 428.503906 29 428.503906 C 28.363281 428.503906 27.816406 428.386719 27.359375 428.144531 C 26.898438 427.90625 26.503906 427.503906 26.171875 426.941406 C 25.847656 426.378906 25.601562 425.609375 25.4375 424.628906 C 25.269531 423.640625 25.1875 422.425781 25.1875 420.988281 C 25.1875 419.550781 25.269531 418.347656 25.4375 417.378906 C 25.601562 416.402344 25.847656 415.628906 26.171875 415.066406 C 26.503906 414.503906 26.898438 414.105469 27.359375 413.863281 Z M 26.828125 423.332031 L 30.765625 416.535156 C 30.410156 415.441406 29.820312 414.894531 29 414.894531 C 28.519531 414.894531 28.117188 415.074219 27.796875 415.425781 C 27.484375 415.769531 27.226562 416.402344 27.03125 417.316406 C 26.84375 418.234375 26.75 419.464844 26.75 421.003906 C 26.75 421.671875 26.773438 422.449219 26.828125 423.332031 Z M 27.171875 425.207031 C 27.503906 426.46875 28.113281 427.097656 29 427.097656 C 29.476562 427.097656 29.878906 426.925781 30.203125 426.582031 C 30.523438 426.238281 30.78125 425.609375 30.96875 424.691406 C 31.15625 423.765625 31.25 422.535156 31.25 421.003906 C 31.25 419.964844 31.207031 419.078125 31.125 418.347656 Z M 39.703125 413.503906 C 40.515625 413.503906 41.285156 413.636719 42.015625 413.894531 L 42.015625 415.441406 C 41.335938 415.109375 40.632812 414.941406 39.90625 414.941406 C 38.96875 414.941406 38.289062 415.265625 37.875 415.910156 C 37.46875 416.558594 37.210938 417.785156 37.109375 419.597656 L 37.140625 419.597656 C 37.804688 418.933594 38.554688 418.597656 39.390625 418.597656 C 40.566406 418.597656 41.429688 418.972656 41.984375 419.722656 C 42.535156 420.472656 42.8125 421.703125 42.8125 423.410156 C 42.8125 425.191406 42.5 426.488281 41.875 427.300781 C 41.25 428.105469 40.320312 428.503906 39.09375 428.503906 C 38.238281 428.503906 37.550781 428.3125 37.03125 427.925781 C 36.507812 427.542969 36.109375 426.863281 35.828125 425.894531 C 35.546875 424.925781 35.40625 423.59375 35.40625 421.894531 C 35.40625 419.792969 35.570312 418.113281 35.90625 416.863281 C 36.25 415.613281 36.722656 414.746094 37.328125 414.253906 C 37.929688 413.753906 38.722656 413.503906 39.703125 413.503906 Z M 39.09375 427.050781 C 39.8125 427.050781 40.335938 426.792969 40.671875 426.269531 C 41.003906 425.75 41.171875 424.796875 41.171875 423.410156 C 41.171875 422.140625 41.007812 421.253906 40.6875 420.753906 C 40.375 420.253906 39.878906 420.003906 39.203125 420.003906 C 37.796875 420.003906 37.09375 421.066406 37.09375 423.191406 C 37.09375 424.621094 37.253906 425.621094 37.578125 426.191406 C 37.910156 426.765625 38.414062 427.050781 39.09375 427.050781 Z M 46 422.910156 L 46 421.472656 L 52.015625 421.472656 L 52.015625 422.910156 Z M 57.359375 413.863281 C 57.816406 413.625 58.363281 413.503906 59 413.503906 C 59.632812 413.503906 60.179688 413.625 60.640625 413.863281 C 61.097656 414.105469 61.492188 414.503906 61.828125 415.066406 C 62.160156 415.628906 62.40625 416.402344 62.5625 417.378906 C 62.726562 418.347656 62.8125 419.550781 62.8125 420.988281 C 62.8125 422.425781 62.726562 423.640625 62.5625 424.628906 C 62.40625 425.609375 62.160156 426.378906 61.828125 426.941406 C 61.492188 427.503906 61.097656 427.90625 60.640625 428.144531 C 60.179688 428.386719 59.632812 428.503906 59 428.503906 C 58.363281 428.503906 57.816406 428.386719 57.359375 428.144531 C 56.898438 427.90625 56.503906 427.503906 56.171875 426.941406 C 55.847656 426.378906 55.601562 425.609375 55.4375 424.628906 C 55.269531 423.640625 55.1875 422.425781 55.1875 420.988281 C 55.1875 419.550781 55.269531 418.347656 55.4375 417.378906 C 55.601562 416.402344 55.847656 415.628906 56.171875 415.066406 C 56.503906 414.503906 56.898438 414.105469 57.359375 413.863281 Z M 56.828125 423.332031 L 60.765625 416.535156 C 60.410156 415.441406 59.820312 414.894531 59 414.894531 C 58.519531 414.894531 58.117188 415.074219 57.796875 415.425781 C 57.484375 415.769531 57.226562 416.402344 57.03125 417.316406 C 56.84375 418.234375 56.75 419.464844 56.75 421.003906 C 56.75 421.671875 56.773438 422.449219 56.828125 423.332031 Z M 57.171875 425.207031 C 57.503906 426.46875 58.113281 427.097656 59 427.097656 C 59.476562 427.097656 59.878906 426.925781 60.203125 426.582031 C 60.523438 426.238281 60.78125 425.609375 60.96875 424.691406 C 61.15625 423.765625 61.25 422.535156 61.25 421.003906 C 61.25 419.964844 61.207031 419.078125 61.125 418.347656 Z M 69.703125 413.503906 C 70.515625 413.503906 71.285156 413.636719 72.015625 413.894531 L 72.015625 415.441406 C 71.335938 415.109375 70.632812 414.941406 69.90625 414.941406 C 68.96875 414.941406 68.289062 415.265625 67.875 415.910156 C 67.46875 416.558594 67.210938 417.785156 67.109375 419.597656 L 67.140625 419.597656 C 67.804688 418.933594 68.554688 418.597656 69.390625 418.597656 C 70.566406 418.597656 71.429688 418.972656 71.984375 419.722656 C 72.535156 420.472656 72.8125 421.703125 72.8125 423.410156 C 72.8125 425.191406 72.5 426.488281 71.875 427.300781 C 71.25 428.105469 70.320312 428.503906 69.09375 428.503906 C 68.238281 428.503906 67.550781 428.3125 67.03125 427.925781 C 66.507812 427.542969 66.109375 426.863281 65.828125 425.894531 C 65.546875 424.925781 65.40625 423.59375 65.40625 421.894531 C 65.40625 419.792969 65.570312 418.113281 65.90625 416.863281 C 66.25 415.613281 66.722656 414.746094 67.328125 414.253906 C 67.929688 413.753906 68.722656 413.503906 69.703125 413.503906 Z M 69.09375 427.050781 C 69.8125 427.050781 70.335938 426.792969 70.671875 426.269531 C 71.003906 425.75 71.171875 424.796875 71.171875 423.410156 C 71.171875 422.140625 71.007812 421.253906 70.6875 420.753906 C 70.375 420.253906 69.878906 420.003906 69.203125 420.003906 C 67.796875 420.003906 67.09375 421.066406 67.09375 423.191406 C 67.09375 424.621094 67.253906 425.621094 67.578125 426.191406 C 67.910156 426.765625 68.414062 427.050781 69.09375 427.050781 Z M 24 409.402344 "/>
<path style=" stroke:none;fill-rule:nonzero;fill:rgb(33.333333%,33.333333%,33.333333%);fill-opacity:1;" d="M 300.859375 413.863281 C 301.316406 413.625 301.863281 413.503906 302.5 413.503906 C 303.132812 413.503906 303.679688 413.625 304.140625 413.863281 C 304.597656 414.105469 304.992188 414.503906 305.328125 415.066406 C 305.660156 415.628906 305.90625 416.402344 306.0625 417.378906 C 306.226562 418.347656 306.3125 419.550781 306.3125 420.988281 C 306.3125 422.425781 306.226562 423.640625 306.0625 424.628906 C 305.90625 425.609375 305.660156 426.378906 305.328125 426.941406 C 304.992188 427.503906 304.597656 427.90625 304.140625 428.144531 C 303.679688 428.386719 303.132812 428.503906 302.5 428.503906 C 301.863281 428.503906 301.316406 428.386719 300.859375 428.144531 C 300.398438 427.90625 300.003906 427.503906 299.671875 426.941406 C 299.347656 426.378906 299.101562 425.609375 298.9375 424.628906 C 298.769531 423.640625 298.6875 422.425781 298.6875 420.988281 C 298.6875 419.550781 298.769531 418.347656 298.9375 417.378906 C 299.101562 416.402344 299.347656 415.628906 299.671875 415.066406 C 300.003906 414.503906 300.398438 414.105469 300.859375 413.863281 Z M 300.328125 423.332031 L 304.265625 416.535156 C 303.910156 415.441406 303.320312 414.894531 302.5 414.894531 C 302.019531 414.894531 301.617188 415.074219 301.296875 415.425781 C 300.984375 415.769531 300.726562 416.402344 300.53125 417.316406 C 300.34375 418.234375 300.25 419.464844 300.25 421.003906 C 300.25 421.671875 300.273438 422.449219 300.328125 423.332031 Z M 300.671875 425.207031 C 301.003906 426.46875 301.613281 427.097656 302.5 427.097656 C 302.976562 427.097656 303.378906 426.925781 303.703125 426.582031 C 304.023438 426.238281 304.28125 425.609375 304.46875 424.691406 C 304.65625 423.765625 304.75 422.535156 304.75 421.003906 C 304.75 419.964844 304.707031 419.078125 304.625 418.347656 Z M 313.203125 413.503906 C 314.015625 413.503906 314.785156 413.636719 315.515625 413.894531 L 315.515625 415.441406 C 314.835938 415.109375 314.132812 414.941406 313.40625 414.941406 C 312.46875 414.941406 311.789062 415.265625 311.375 415.910156 C 310.96875 416.558594 310.710938 417.785156 310.609375 419.597656 L 310.640625 419.597656 C 311.304688 418.933594 312.054688 418.597656 312.890625 418.597656 C 314.066406 418.597656 314.929688 418.972656 315.484375 419.722656 C 316.035156 420.472656 316.3125 421.703125 316.3125 423.410156 C 316.3125 425.191406 316 426.488281 315.375 427.300781 C 314.75 428.105469 313.820312 428.503906 312.59375 428.503906 C 311.738281 428.503906 311.050781 428.3125 310.53125 427.925781 C 310.007812 427.542969 309.609375 426.863281 309.328125 425.894531 C 309.046875 424.925781 308.90625 423.59375 308.90625 421.894531 C 308.90625 419.792969 309.070312 418.113281 309.40625 416.863281 C 309.75 415.613281 310.222656 414.746094 310.828125 414.253906 C 311.429688 413.753906 312.222656 413.503906 313.203125 413.503906 Z M 312.59375 427.050781 C 313.3125 427.050781 313.835938 426.792969 314.171875 426.269531 C 314.503906 425.75 314.671875 424.796875 314.671875 423.410156 C 314.671875 422.140625 314.507812 421.253906 314.1875 420.753906 C 313.875 420.253906 313.378906 420.003906 312.703125 420.003906 C 311.296875 420.003906 310.59375 421.066406 310.59375 423.191406 C 310.59375 424.621094 310.753906 425.621094 311.078125 426.191406 C 311.410156 426.765625 311.914062 427.050781 312.59375 427.050781 Z M 319.5 422.910156 L 319.5 421.472656 L 325.515625 421.472656 L 325.515625 422.910156 Z M 330.859375 413.863281 C 331.316406 413.625 331.863281 413.503906 332.5 413.503906 C 333.132812 413.503906 333.679688 413.625 334.140625 413.863281 C 334.597656 414.105469 334.992188 414.503906 335.328125 415.066406 C 335.660156 415.628906 335.90625 416.402344 336.0625 417.378906 C 336.226562 418.347656 336.3125 419.550781 336.3125 420.988281 C 336.3125 422.425781 336.226562 423.640625 336.0625 424.628906 C 335.90625 425.609375 335.660156 426.378906 335.328125 426.941406 C 334.992188 427.503906 334.597656 427.90625 334.140625 428.144531 C 333.679688 428.386719 333.132812 428.503906 332.5 428.503906 C 331.863281 428.503906 331.316406 428.386719 330.859375 428.144531 C 330.398438 427.90625 330.003906 427.503906 329.671875 426.941406 C 329.347656 426.378906 329.101562 425.609375 328.9375 424.628906 C 328.769531 423.640625 328.6875 422.425781 328.6875 420.988281 C 328.6875 419.550781 328.769531 418.347656 328.9375 417.378906 C 329.101562 416.402344 329.347656 415.628906 329.671875 415.066406 C 330.003906 414.503906 330.398438 414.105469 330.859375 413.863281 Z M 330.328125 423.332031 L 334.265625 416.535156 C 333.910156 415.441406 333.320312 414.894531 332.5 414.894531 C 332.019531 414.894531 331.617188 415.074219 331.296875 415.425781 C 330.984375 415.769531 330.726562 416.402344 330.53125 417.316406 C 330.34375 418.234375 330.25 419.464844 330.25 421.003906 C 330.25 421.671875 330.273438 422.449219 330.328125 423.332031 Z M 330.671875 425.207031 C 331.003906 426.46875 331.613281 427.097656 332.5 427.097656 C 332.976562 427.097656 333.378906 426.925781 333.703125 426.582031 C 334.023438 426.238281 334.28125 425.609375 334.46875 424.691406 C 334.65625 423.765625 334.75 422.535156 334.75 421.003906 C 334.75 419.964844 334.707031 419.078125 334.625 418.347656 Z M 344.390625 415.175781 L 344.390625 415.144531 L 339 415.144531 L 339 413.691406 L 346 413.691406 L 346 415.144531 C 344.289062 419.09375 342.890625 423.480469 341.796875 428.300781 L 340.046875 428.300781 C 341.160156 423.59375 342.609375 419.21875 344.390625 415.175781 Z M 297.5 409.402344 "/>
<path style=" stroke:none;fill-rule:nonzero;fill:rgb(33.333333%,33.333333%,33.333333%);fill-opacity:1;" d="M 574.359375 413.863281 C 574.816406 413.625 575.363281 413.503906 576 413.503906 C 576.632812 413.503906 577.179688 413.625 577.640625 413.863281 C 578.097656 414.105469 578.492188 414.503906 578.828125 415.066406 C 579.160156 415.628906 579.40625 416.402344 579.5625 417.378906 C 579.726562 418.347656 579.8125 419.550781 579.8125 420.988281 C 579.8125 422.425781 579.726562 423.640625 579.5625 424.628906 C 579.40625 425.609375 579.160156 426.378906 578.828125 426.941406 C 578.492188 427.503906 578.097656 427.90625 577.640625 428.144531 C 577.179688 428.386719 576.632812 428.503906 576 428.503906 C 575.363281 428.503906 574.816406 428.386719 574.359375 428.144531 C 573.898438 427.90625 573.503906 427.503906 573.171875 426.941406 C 572.847656 426.378906 572.601562 425.609375 572.4375 424.628906 C 572.269531 423.640625 572.1875 422.425781 572.1875 420.988281 C 572.1875 419.550781 572.269531 418.347656 572.4375 417.378906 C 572.601562 416.402344 572.847656 415.628906 573.171875 415.066406 C 573.503906 414.503906 573.898438 414.105469 574.359375 413.863281 Z M 573.828125 423.332031 L 577.765625 416.535156 C 577.410156 415.441406 576.820312 414.894531 576 414.894531 C 575.519531 414.894531 575.117188 415.074219 574.796875 415.425781 C 574.484375 415.769531 574.226562 416.402344 574.03125 417.316406 C 573.84375 418.234375 573.75 419.464844 573.75 421.003906 C 573.75 421.671875 573.773438 422.449219 573.828125 423.332031 Z M 574.171875 425.207031 C 574.503906 426.46875 575.113281 427.097656 576 427.097656 C 576.476562 427.097656 576.878906 426.925781 577.203125 426.582031 C 577.523438 426.238281 577.78125 425.609375 577.96875 424.691406 C 578.15625 423.765625 578.25 422.535156 578.25 421.003906 C 578.25 419.964844 578.207031 419.078125 578.125 418.347656 Z M 586.703125 413.503906 C 587.515625 413.503906 588.285156 413.636719 589.015625 413.894531 L 589.015625 415.441406 C 588.335938 415.109375 587.632812 414.941406 586.90625 414.941406 C 585.96875 414.941406 585.289062 415.265625 584.875 415.910156 C 584.46875 416.558594 584.210938 417.785156 584.109375 419.597656 L 584.140625 419.597656 C 584.804688 418.933594 585.554688 418.597656 586.390625 418.597656 C 587.566406 418.597656 588.429688 418.972656 588.984375 419.722656 C 589.535156 420.472656 589.8125 421.703125 589.8125 423.410156 C 589.8125 425.191406 589.5 426.488281 588.875 427.300781 C 588.25 428.105469 587.320312 428.503906 586.09375 428.503906 C 585.238281 428.503906 584.550781 428.3125 584.03125 427.925781 C 583.507812 427.542969 583.109375 426.863281 582.828125 425.894531 C 582.546875 424.925781 582.40625 423.59375 582.40625 421.894531 C 582.40625 419.792969 582.570312 418.113281 582.90625 416.863281 C 583.25 415.613281 583.722656 414.746094 584.328125 414.253906 C 584.929688 413.753906 585.722656 413.503906 586.703125 413.503906 Z M 586.09375 427.050781 C 586.8125 427.050781 587.335938 426.792969 587.671875 426.269531 C 588.003906 425.75 588.171875 424.796875 588.171875 423.410156 C 588.171875 422.140625 588.007812 421.253906 587.6875 420.753906 C 587.375 420.253906 586.878906 420.003906 586.203125 420.003906 C 584.796875 420.003906 584.09375 421.066406 584.09375 423.191406 C 584.09375 424.621094 584.253906 425.621094 584.578125 426.191406 C 584.910156 426.765625 585.414062 427.050781 586.09375 427.050781 Z M 593 422.910156 L 593 421.472656 L 599.015625 421.472656 L 599.015625 422.910156 Z M 604.359375 413.863281 C 604.816406 413.625 605.363281 413.503906 606 413.503906 C 606.632812 413.503906 607.179688 413.625 607.640625 413.863281 C 608.097656 414.105469 608.492188 414.503906 608.828125 415.066406 C 609.160156 415.628906 609.40625 416.402344 609.5625 417.378906 C 609.726562 418.347656 609.8125 419.550781 609.8125 420.988281 C 609.8125 422.425781 609.726562 423.640625 609.5625 424.628906 C 609.40625 425.609375 609.160156 426.378906 608.828125 426.941406 C 608.492188 427.503906 608.097656 427.90625 607.640625 428.144531 C 607.179688 428.386719 606.632812 428.503906 606 428.503906 C 605.363281 428.503906 604.816406 428.386719 604.359375 428.144531 C 603.898438 427.90625 603.503906 427.503906 603.171875 426.941406 C 602.847656 426.378906 602.601562 425.609375 602.4375 424.628906 C 602.269531 423.640625 602.1875 422.425781 602.1875 420.988281 C 602.1875 419.550781 602.269531 418.347656 602.4375 417.378906 C 602.601562 416.402344 602.847656 415.628906 603.171875 415.066406 C 603.503906 414.503906 603.898438 414.105469 604.359375 413.863281 Z M 603.828125 423.332031 L 607.765625 416.535156 C 607.410156 415.441406 606.820312 414.894531 606 414.894531 C 605.519531 414.894531 605.117188 415.074219 604.796875 415.425781 C 604.484375 415.769531 604.226562 416.402344 604.03125 417.316406 C 603.84375 418.234375 603.75 419.464844 603.75 421.003906 C 603.75 421.671875 603.773438 422.449219 603.828125 423.332031 Z M 604.171875 425.207031 C 604.503906 426.46875 605.113281 427.097656 606 427.097656 C 606.476562 427.097656 606.878906 426.925781 607.203125 426.582031 C 607.523438 426.238281 607.78125 425.609375 607.96875 424.691406 C 608.15625 423.765625 608.25 422.535156 608.25 421.003906 C 608.25 419.964844 608.207031 419.078125 608.125 418.347656 Z M 616.09375 414.894531 C 615.394531 414.894531 614.851562 415.082031 614.46875 415.457031 C 614.082031 415.824219 613.890625 416.339844 613.890625 417.003906 C 613.890625 417.714844 614.082031 418.339844 614.46875 418.878906 C 614.863281 419.410156 615.375 419.75 616 419.894531 C 616.6875 419.707031 617.222656 419.363281 617.609375 418.863281 C 617.992188 418.363281 618.1875 417.746094 618.1875 417.003906 C 618.1875 416.378906 617.992188 415.875 617.609375 415.488281 C 617.222656 415.09375 616.71875 414.894531 616.09375 414.894531 Z M 618.953125 427.488281 C 618.265625 428.167969 617.28125 428.503906 616 428.503906 C 614.726562 428.503906 613.742188 428.167969 613.046875 427.488281 C 612.347656 426.800781 612 425.808594 612 424.503906 C 612 423.589844 612.21875 422.792969 612.65625 422.113281 C 613.101562 421.4375 613.71875 420.9375 614.5 420.613281 L 614.5 420.566406 C 613.863281 420.277344 613.335938 419.792969 612.921875 419.113281 C 612.515625 418.4375 612.3125 417.734375 612.3125 417.003906 C 612.3125 415.910156 612.632812 415.058594 613.28125 414.441406 C 613.9375 413.816406 614.84375 413.503906 616 413.503906 C 617.15625 413.503906 618.054688 413.816406 618.703125 414.441406 C 619.359375 415.066406 619.6875 415.921875 619.6875 417.003906 C 619.6875 417.746094 619.484375 418.433594 619.078125 419.066406 C 618.679688 419.703125 618.15625 420.171875 617.5 420.472656 L 617.5 420.519531 C 618.28125 420.832031 618.890625 421.332031 619.328125 422.019531 C 619.773438 422.707031 620 423.535156 620 424.503906 C 620 425.808594 619.648438 426.800781 618.953125 427.488281 Z M 616.09375 427.097656 C 616.800781 427.097656 617.363281 426.878906 617.78125 426.441406 C 618.195312 425.996094 618.40625 425.347656 618.40625 424.503906 C 618.40625 422.765625 617.570312 421.699219 615.90625 421.300781 C 615.082031 421.519531 614.476562 421.886719 614.09375 422.394531 C 613.707031 422.894531 613.515625 423.597656 613.515625 424.503906 C 613.515625 425.316406 613.75 425.953125 614.21875 426.410156 C 614.6875 426.871094 615.3125 427.097656 616.09375 427.097656 Z M 571 409.402344 "/>
<path style=" stroke:none;fill-rule:nonzero;fill:rgb(33.333333%,33.333333%,33.333333%);fill-opacity:1;" d="M 847.859375 413.863281 C 848.316406 413.625 848.863281 413.503906 849.5 413.503906 C 850.132812 413.503906 850.679688 413.625 851.140625 413.863281 C 851.597656 414.105469 851.992188 414.503906 852.328125 415.066406 C 852.660156 415.628906 852.90625 416.402344 853.0625 417.378906 C 853.226562 418.347656 853.3125 419.550781 853.3125 420.988281 C 853.3125 422.425781 853.226562 423.640625 853.0625 424.628906 C 852.90625 425.609375 852.660156 426.378906 852.328125 426.941406 C 851.992188 427.503906 851.597656 427.90625 851.140625 428.144531 C 850.679688 428.386719 850.132812 428.503906 849.5 428.503906 C 848.863281 428.503906 848.316406 428.386719 847.859375 428.144531 C 847.398438 427.90625 847.003906 427.503906 846.671875 426.941406 C 846.347656 426.378906 846.101562 425.609375 845.9375 424.628906 C 845.769531 423.640625 845.6875 422.425781 845.6875 420.988281 C 845.6875 419.550781 845.769531 418.347656 845.9375 417.378906 C 846.101562 416.402344 846.347656 415.628906 846.671875 415.066406 C 847.003906 414.503906 847.398438 414.105469 847.859375 413.863281 Z M 847.328125 423.332031 L 851.265625 416.535156 C 850.910156 415.441406 850.320312 414.894531 849.5 414.894531 C 849.019531 414.894531 848.617188 415.074219 848.296875 415.425781 C 847.984375 415.769531 847.726562 416.402344 847.53125 417.316406 C 847.34375 418.234375 847.25 419.464844 847.25 421.003906 C 847.25 421.671875 847.273438 422.449219 847.328125 423.332031 Z M 847.671875 425.207031 C 848.003906 426.46875 848.613281 427.097656 849.5 427.097656 C 849.976562 427.097656 850.378906 426.925781 850.703125 426.582031 C 851.023438 426.238281 851.28125 425.609375 851.46875 424.691406 C 851.65625 423.765625 851.75 422.535156 851.75 421.003906 C 851.75 419.964844 851.707031 419.078125 851.625 418.347656 Z M 860.203125 413.503906 C 861.015625 413.503906 861.785156 413.636719 862.515625 413.894531 L 862.515625 415.441406 C 861.835938 415.109375 861.132812 414.941406 860.40625 414.941406 C 859.46875 414.941406 858.789062 415.265625 858.375 415.910156 C 857.96875 416.558594 857.710938 417.785156 857.609375 419.597656 L 857.640625 419.597656 C 858.304688 418.933594 859.054688 418.597656 859.890625 418.597656 C 861.066406 418.597656 861.929688 418.972656 862.484375 419.722656 C 863.035156 420.472656 863.3125 421.703125 863.3125 423.410156 C 863.3125 425.191406 863 426.488281 862.375 427.300781 C 861.75 428.105469 860.820312 428.503906 859.59375 428.503906 C 858.738281 428.503906 858.050781 428.3125 857.53125 427.925781 C 857.007812 427.542969 856.609375 426.863281 856.328125 425.894531 C 856.046875 424.925781 855.90625 423.59375 855.90625 421.894531 C 855.90625 419.792969 856.070312 418.113281 856.40625 416.863281 C 856.75 415.613281 857.222656 414.746094 857.828125 414.253906 C 858.429688 413.753906 859.222656 413.503906 860.203125 413.503906 Z M 859.59375 427.050781 C 860.3125 427.050781 860.835938 426.792969 861.171875 426.269531 C 861.503906 425.75 861.671875 424.796875 861.671875 423.410156 C 861.671875 422.140625 861.507812 421.253906 861.1875 420.753906 C 860.875 420.253906 860.378906 420.003906 859.703125 420.003906 C 858.296875 420.003906 857.59375 421.066406 857.59375 423.191406 C 857.59375 424.621094 857.753906 425.621094 858.078125 426.191406 C 858.410156 426.765625 858.914062 427.050781 859.59375 427.050781 Z M 866.5 422.910156 L 866.5 421.472656 L 872.515625 421.472656 L 872.515625 422.910156 Z M 877.859375 413.863281 C 878.316406 413.625 878.863281 413.503906 879.5 413.503906 C 880.132812 413.503906 880.679688 413.625 881.140625 413.863281 C 881.597656 414.105469 881.992188 414.503906 882.328125 415.066406 C 882.660156 415.628906 882.90625 416.402344 883.0625 417.378906 C 883.226562 418.347656 883.3125 419.550781 883.3125 420.988281 C 883.3125 422.425781 883.226562 423.640625 883.0625 424.628906 C 882.90625 425.609375 882.660156 426.378906 882.328125 426.941406 C 881.992188 427.503906 881.597656 427.90625 881.140625 428.144531 C 880.679688 428.386719 880.132812 428.503906 879.5 428.503906 C 878.863281 428.503906 878.316406 428.386719 877.859375 428.144531 C 877.398438 427.90625 877.003906 427.503906 876.671875 426.941406 C 876.347656 426.378906 876.101562 425.609375 875.9375 424.628906 C 875.769531 423.640625 875.6875 422.425781 875.6875 420.988281 C 875.6875 419.550781 875.769531 418.347656 875.9375 417.378906 C 876.101562 416.402344 876.347656 415.628906 876.671875 415.066406 C 877.003906 414.503906 877.398438 414.105469 877.859375 413.863281 Z M 877.328125 423.332031 L 881.265625 416.535156 C 880.910156 415.441406 880.320312 414.894531 879.5 414.894531 C 879.019531 414.894531 878.617188 415.074219 878.296875 415.425781 C 877.984375 415.769531 877.726562 416.402344 877.53125 417.316406 C 877.34375 418.234375 877.25 419.464844 877.25 421.003906 C 877.25 421.671875 877.273438 422.449219 877.328125 423.332031 Z M 877.671875 425.207031 C 878.003906 426.46875 878.613281 427.097656 879.5 427.097656 C 879.976562 427.097656 880.378906 426.925781 880.703125 426.582031 C 881.023438 426.238281 881.28125 425.609375 881.46875 424.691406 C 881.65625 423.765625 881.75 422.535156 881.75 421.003906 C 881.75 419.964844 881.707031 419.078125 881.625 418.347656 Z M 888.796875 428.503906 C 887.992188 428.503906 887.226562 428.371094 886.5 428.097656 L 886.5 426.488281 C 887.195312 426.84375 887.898438 427.019531 888.609375 427.019531 C 889.546875 427.019531 890.21875 426.707031 890.625 426.082031 C 891.03125 425.449219 891.285156 424.21875 891.390625 422.394531 L 891.359375 422.394531 C 890.691406 423.074219 889.941406 423.410156 889.109375 423.410156 C 887.992188 423.410156 887.144531 423.015625 886.5625 422.222656 C 885.976562 421.433594 885.6875 420.160156 885.6875 418.410156 C 885.6875 416.722656 885.992188 415.484375 886.609375 414.691406 C 887.234375 413.902344 888.164062 413.503906 889.40625 413.503906 C 890.3125 413.503906 891.019531 413.691406 891.53125 414.066406 C 892.050781 414.433594 892.441406 415.097656 892.703125 416.066406 C 892.960938 417.035156 893.09375 418.378906 893.09375 420.097656 C 893.09375 422.214844 892.921875 423.894531 892.578125 425.144531 C 892.242188 426.394531 891.773438 427.269531 891.171875 427.769531 C 890.566406 428.261719 889.773438 428.503906 888.796875 428.503906 Z M 889.40625 414.941406 C 888.675781 414.941406 888.144531 415.199219 887.8125 415.707031 C 887.488281 416.207031 887.328125 417.105469 887.328125 418.394531 C 887.328125 419.6875 887.492188 420.613281 887.828125 421.175781 C 888.171875 421.730469 888.664062 422.003906 889.3125 422.003906 C 889.957031 422.003906 890.46875 421.730469 890.84375 421.175781 C 891.226562 420.613281 891.421875 419.753906 891.421875 418.597656 C 891.421875 417.277344 891.253906 416.339844 890.921875 415.785156 C 890.585938 415.222656 890.082031 414.941406 889.40625 414.941406 Z M 844.5 409.402344 "/>
<path style=" stroke:none;fill-rule:nonzero;fill:rgb(33.333333%,33.333333%,33.333333%);fill-opacity:1;" d="M 1121.359375 413.863281 C 1121.816406 413.625 1122.363281 413.503906 1123 413.503906 C 1123.632812 413.503906 1124.179688 413.625 1124.640625 413.863281 C 1125.097656 414.105469 1125.492188 414.503906 1125.828125 415.066406 C 1126.160156 415.628906 1126.40625 416.402344 1126.5625 417.378906 C 1126.726562 418.347656 1126.8125 419.550781 1126.8125 420.988281 C 1126.8125 422.425781 1126.726562 423.640625 1126.5625 424.628906 C 1126.40625 425.609375 1126.160156 426.378906 1125.828125 426.941406 C 1125.492188 427.503906 1125.097656 427.90625 1124.640625 428.144531 C 1124.179688 428.386719 1123.632812 428.503906 1123 428.503906 C 1122.363281 428.503906 1121.816406 428.386719 1121.359375 428.144531 C 1120.898438 427.90625 1120.503906 427.503906 1120.171875 426.941406 C 1119.847656 426.378906 1119.601562 425.609375 1119.4375 424.628906 C 1119.269531 423.640625 1119.1875 422.425781 1119.1875 420.988281 C 1119.1875 419.550781 1119.269531 418.347656 1119.4375 417.378906 C 1119.601562 416.402344 1119.847656 415.628906 1120.171875 415.066406 C 1120.503906 414.503906 1120.898438 414.105469 1121.359375 413.863281 Z M 1120.828125 423.332031 L 1124.765625 416.535156 C 1124.410156 415.441406 1123.820312 414.894531 1123 414.894531 C 1122.519531 414.894531 1122.117188 415.074219 1121.796875 415.425781 C 1121.484375 415.769531 1121.226562 416.402344 1121.03125 417.316406 C 1120.84375 418.234375 1120.75 419.464844 1120.75 421.003906 C 1120.75 421.671875 1120.773438 422.449219 1120.828125 423.332031 Z M 1121.171875 425.207031 C 1121.503906 426.46875 1122.113281 427.097656 1123 427.097656 C 1123.476562 427.097656 1123.878906 426.925781 1124.203125 426.582031 C 1124.523438 426.238281 1124.78125 425.609375 1124.96875 424.691406 C 1125.15625 423.765625 1125.25 422.535156 1125.25 421.003906 C 1125.25 419.964844 1125.207031 419.078125 1125.125 418.347656 Z M 1133.703125 413.503906 C 1134.515625 413.503906 1135.285156 413.636719 1136.015625 413.894531 L 1136.015625 415.441406 C 1135.335938 415.109375 1134.632812 414.941406 1133.90625 414.941406 C 1132.96875 414.941406 1132.289062 415.265625 1131.875 415.910156 C 1131.46875 416.558594 1131.210938 417.785156 1131.109375 419.597656 L 1131.140625 419.597656 C 1131.804688 418.933594 1132.554688 418.597656 1133.390625 418.597656 C 1134.566406 418.597656 1135.429688 418.972656 1135.984375 419.722656 C 1136.535156 420.472656 1136.8125 421.703125 1136.8125 423.410156 C 1136.8125 425.191406 1136.5 426.488281 1135.875 427.300781 C 1135.25 428.105469 1134.320312 428.503906 1133.09375 428.503906 C 1132.238281 428.503906 1131.550781 428.3125 1131.03125 427.925781 C 1130.507812 427.542969 1130.109375 426.863281 1129.828125 425.894531 C 1129.546875 424.925781 1129.40625 423.59375 1129.40625 421.894531 C 1129.40625 419.792969 1129.570312 418.113281 1129.90625 416.863281 C 1130.25 415.613281 1130.722656 414.746094 1131.328125 414.253906 C 1131.929688 413.753906 1132.722656 413.503906 1133.703125 413.503906 Z M 1133.09375 427.050781 C 1133.8125 427.050781 1134.335938 426.792969 1134.671875 426.269531 C 1135.003906 425.75 1135.171875 424.796875 1135.171875 423.410156 C 1135.171875 422.140625 1135.007812 421.253906 1134.6875 420.753906 C 1134.375 420.253906 1133.878906 420.003906 1133.203125 420.003906 C 1131.796875 420.003906 1131.09375 421.066406 1131.09375 423.191406 C 1131.09375 424.621094 1131.253906 425.621094 1131.578125 426.191406 C 1131.910156 426.765625 1132.414062 427.050781 1133.09375 427.050781 Z M 1140 422.910156 L 1140 421.472656 L 1146.015625 421.472656 L 1146.015625 422.910156 Z M 1153.15625 428.300781 L 1153.15625 415.394531 L 1153.125 415.378906 L 1149.65625 417.394531 L 1149.65625 415.800781 L 1153.15625 413.691406 L 1154.796875 413.691406 L 1154.796875 428.300781 Z M 1161.359375 413.863281 C 1161.816406 413.625 1162.363281 413.503906 1163 413.503906 C 1163.632812 413.503906 1164.179688 413.625 1164.640625 413.863281 C 1165.097656 414.105469 1165.492188 414.503906 1165.828125 415.066406 C 1166.160156 415.628906 1166.40625 416.402344 1166.5625 417.378906 C 1166.726562 418.347656 1166.8125 419.550781 1166.8125 420.988281 C 1166.8125 422.425781 1166.726562 423.640625 1166.5625 424.628906 C 1166.40625 425.609375 1166.160156 426.378906 1165.828125 426.941406 C 1165.492188 427.503906 1165.097656 427.90625 1164.640625 428.144531 C 1164.179688 428.386719 1163.632812 428.503906 1163 428.503906 C 1162.363281 428.503906 1161.816406 428.386719 1161.359375 428.144531 C 1160.898438 427.90625 1160.503906 427.503906 1160.171875 426.941406 C 1159.847656 426.378906 1159.601562 425.609375 1159.4375 424.628906 C 1159.269531 423.640625 1159.1875 422.425781 1159.1875 420.988281 C 1159.1875 419.550781 1159.269531 418.347656 1159.4375 417.378906 C 1159.601562 416.402344 1159.847656 415.628906 1160.171875 415.066406 C 1160.503906 414.503906 1160.898438 414.105469 1161.359375 413.863281 Z M 1160.828125 423.332031 L 1164.765625 416.535156 C 1164.410156 415.441406 1163.820312 414.894531 1163 414.894531 C 1162.519531 414.894531 1162.117188 415.074219 1161.796875 415.425781 C 1161.484375 415.769531 1161.226562 416.402344 1161.03125 417.316406 C 1160.84375 418.234375 1160.75 419.464844 1160.75 421.003906 C 1160.75 421.671875 1160.773438 422.449219 1160.828125 423.332031 Z M 1161.171875 425.207031 C 1161.503906 426.46875 1162.113281 427.097656 1163 427.097656 C 1163.476562 427.097656 1163.878906 426.925781 1164.203125 426.582031 C 1164.523438 426.238281 1164.78125 425.609375 1164.96875 424.691406 C 1165.15625 423.765625 1165.25 422.535156 1165.25 421.003906 C 1165.25 419.964844 1165.207031 419.078125 1165.125 418.347656 Z M 1118 409.402344 "/>
<path style=" stroke:none;fill-rule:nonzero;fill:rgb(33.333333%,33.333333%,33.333333%);fill-opacity:1;" d="M 1394.859375 413.863281 C 1395.316406 413.625 1395.863281 413.503906 1396.5 413.503906 C 1397.132812 413.503906 1397.679688 413.625 1398.140625 413.863281 C 1398.597656 414.105469 1398.992188 414.503906 1399.328125 415.066406 C 1399.660156 415.628906 1399.90625 416.402344 1400.0625 417.378906 C 1400.226562 418.347656 1400.3125 419.550781 1400.3125 420.988281 C 1400.3125 422.425781 1400.226562 423.640625 1400.0625 424.628906 C 1399.90625 425.609375 1399.660156 426.378906 1399.328125 426.941406 C 1398.992188 427.503906 1398.597656 427.90625 1398.140625 428.144531 C 1397.679688 428.386719 1397.132812 428.503906 1396.5 428.503906 C 1395.863281 428.503906 1395.316406 428.386719 1394.859375 428.144531 C 1394.398438 427.90625 1394.003906 427.503906 1393.671875 426.941406 C 1393.347656 426.378906 1393.101562 425.609375 1392.9375 424.628906 C 1392.769531 423.640625 1392.6875 422.425781 1392.6875 420.988281 C 1392.6875 419.550781 1392.769531 418.347656 1392.9375 417.378906 C 1393.101562 416.402344 1393.347656 415.628906 1393.671875 415.066406 C 1394.003906 414.503906 1394.398438 414.105469 1394.859375 413.863281 Z M 1394.328125 423.332031 L 1398.265625 416.535156 C 1397.910156 415.441406 1397.320312 414.894531 1396.5 414.894531 C 1396.019531 414.894531 1395.617188 415.074219 1395.296875 415.425781 C 1394.984375 415.769531 1394.726562 416.402344 1394.53125 417.316406 C 1394.34375 418.234375 1394.25 419.464844 1394.25 421.003906 C 1394.25 421.671875 1394.273438 422.449219 1394.328125 423.332031 Z M 1394.671875 425.207031 C 1395.003906 426.46875 1395.613281 427.097656 1396.5 427.097656 C 1396.976562 427.097656 1397.378906 426.925781 1397.703125 426.582031 C 1398.023438 426.238281 1398.28125 425.609375 1398.46875 424.691406 C 1398.65625 423.765625 1398.75 422.535156 1398.75 421.003906 C 1398.75 419.964844 1398.707031 419.078125 1398.625 418.347656 Z M 1407.203125 413.503906 C 1408.015625 413.503906 1408.785156 413.636719 1409.515625 413.894531 L 1409.515625 415.441406 C 1408.835938 415.109375 1408.132812 414.941406 1407.40625 414.941406 C 1406.46875 414.941406 1405.789062 415.265625 1405.375 415.910156 C 1404.96875 416.558594 1404.710938 417.785156 1404.609375 419.597656 L 1404.640625 419.597656 C 1405.304688 418.933594 1406.054688 418.597656 1406.890625 418.597656 C 1408.066406 418.597656 1408.929688 418.972656 1409.484375 419.722656 C 1410.035156 420.472656 1410.3125 421.703125 1410.3125 423.410156 C 1410.3125 425.191406 1410 426.488281 1409.375 427.300781 C 1408.75 428.105469 1407.820312 428.503906 1406.59375 428.503906 C 1405.738281 428.503906 1405.050781 428.3125 1404.53125 427.925781 C 1404.007812 427.542969 1403.609375 426.863281 1403.328125 425.894531 C 1403.046875 424.925781 1402.90625 423.59375 1402.90625 421.894531 C 1402.90625 419.792969 1403.070312 418.113281 1403.40625 416.863281 C 1403.75 415.613281 1404.222656 414.746094 1404.828125 414.253906 C 1405.429688 413.753906 1406.222656 413.503906 1407.203125 413.503906 Z M 1406.59375 427.050781 C 1407.3125 427.050781 1407.835938 426.792969 1408.171875 426.269531 C 1408.503906 425.75 1408.671875 424.796875 1408.671875 423.410156 C 1408.671875 422.140625 1408.507812 421.253906 1408.1875 420.753906 C 1407.875 420.253906 1407.378906 420.003906 1406.703125 420.003906 C 1405.296875 420.003906 1404.59375 421.066406 1404.59375 423.191406 C 1404.59375 424.621094 1404.753906 425.621094 1405.078125 426.191406 C 1405.410156 426.765625 1405.914062 427.050781 1406.59375 427.050781 Z M 1413.5 422.910156 L 1413.5 421.472656 L 1419.515625 421.472656 L 1419.515625 422.910156 Z M 1426.65625 428.300781 L 1426.65625 415.394531 L 1426.625 415.378906 L 1423.15625 417.394531 L 1423.15625 415.800781 L 1426.65625 413.691406 L 1428.296875 413.691406 L 1428.296875 428.300781 Z M 1436.65625 428.300781 L 1436.65625 415.394531 L 1436.625 415.378906 L 1433.15625 417.394531 L 1433.15625 415.800781 L 1436.65625 413.691406 L 1438.296875 413.691406 L 1438.296875 428.300781 Z M 1391.5 409.402344 "/>
<path style=" stroke:none;fill-rule:nonzero;fill:rgb(33.333333%,33.333333%,33.333333%);fill-opacity:1;" d="M 1668.359375 413.863281 C 1668.816406 413.625 1669.363281 413.503906 1670 413.503906 C 1670.632812 413.503906 1671.179688 413.625 1671.640625 413.863281 C 1672.097656 414.105469 1672.492188 414.503906 1672.828125 415.066406 C 1673.160156 415.628906 1673.40625 416.402344 1673.5625 417.378906 C 1673.726562 418.347656 1673.8125 419.550781 1673.8125 420.988281 C 1673.8125 422.425781 1673.726562 423.640625 1673.5625 424.628906 C 1673.40625 425.609375 1673.160156 426.378906 1672.828125 426.941406 C 1672.492188 427.503906 1672.097656 427.90625 1671.640625 428.144531 C 1671.179688 428.386719 1670.632812 428.503906 1670 428.503906 C 1669.363281 428.503906 1668.816406 428.386719 1668.359375 428.144531 C 1667.898438 427.90625 1667.503906 427.503906 1667.171875 426.941406 C 1666.847656 426.378906 1666.601562 425.609375 1666.4375 424.628906 C 1666.269531 423.640625 1666.1875 422.425781 1666.1875 420.988281 C 1666.1875 419.550781 1666.269531 418.347656 1666.4375 417.378906 C 1666.601562 416.402344 1666.847656 415.628906 1667.171875 415.066406 C 1667.503906 414.503906 1667.898438 414.105469 1668.359375 413.863281 Z M 1667.828125 423.332031 L 1671.765625 416.535156 C 1671.410156 415.441406 1670.820312 414.894531 1670 414.894531 C 1669.519531 414.894531 1669.117188 415.074219 1668.796875 415.425781 C 1668.484375 415.769531 1668.226562 416.402344 1668.03125 417.316406 C 1667.84375 418.234375 1667.75 419.464844 1667.75 421.003906 C 1667.75 421.671875 1667.773438 422.449219 1667.828125 423.332031 Z M 1668.171875 425.207031 C 1668.503906 426.46875 1669.113281 427.097656 1670 427.097656 C 1670.476562 427.097656 1670.878906 426.925781 1671.203125 426.582031 C 1671.523438 426.238281 1671.78125 425.609375 1671.96875 424.691406 C 1672.15625 423.765625 1672.25 422.535156 1672.25 421.003906 C 1672.25 419.964844 1672.207031 419.078125 1672.125 418.347656 Z M 1680.703125 413.503906 C 1681.515625 413.503906 1682.285156 413.636719 1683.015625 413.894531 L 1683.015625 415.441406 C 1682.335938 415.109375 1681.632812 414.941406 1680.90625 414.941406 C 1679.96875 414.941406 1679.289062 415.265625 1678.875 415.910156 C 1678.46875 416.558594 1678.210938 417.785156 1678.109375 419.597656 L 1678.140625 419.597656 C 1678.804688 418.933594 1679.554688 418.597656 1680.390625 418.597656 C 1681.566406 418.597656 1682.429688 418.972656 1682.984375 419.722656 C 1683.535156 420.472656 1683.8125 421.703125 1683.8125 423.410156 C 1683.8125 425.191406 1683.5 426.488281 1682.875 427.300781 C 1682.25 428.105469 1681.320312 428.503906 1680.09375 428.503906 C 1679.238281 428.503906 1678.550781 428.3125 1678.03125 427.925781 C 1677.507812 427.542969 1677.109375 426.863281 1676.828125 425.894531 C 1676.546875 424.925781 1676.40625 423.59375 1676.40625 421.894531 C 1676.40625 419.792969 1676.570312 418.113281 1676.90625 416.863281 C 1677.25 415.613281 1677.722656 414.746094 1678.328125 414.253906 C 1678.929688 413.753906 1679.722656 413.503906 1680.703125 413.503906 Z M 1680.09375 427.050781 C 1680.8125 427.050781 1681.335938 426.792969 1681.671875 426.269531 C 1682.003906 425.75 1682.171875 424.796875 1682.171875 423.410156 C 1682.171875 422.140625 1682.007812 421.253906 1681.6875 420.753906 C 1681.375 420.253906 1680.878906 420.003906 1680.203125 420.003906 C 1678.796875 420.003906 1678.09375 421.066406 1678.09375 423.191406 C 1678.09375 424.621094 1678.253906 425.621094 1678.578125 426.191406 C 1678.910156 426.765625 1679.414062 427.050781 1680.09375 427.050781 Z M 1687 422.910156 L 1687 421.472656 L 1693.015625 421.472656 L 1693.015625 422.910156 Z M 1700.15625 428.300781 L 1700.15625 415.394531 L 1700.125 415.378906 L 1696.65625 417.394531 L 1696.65625 415.800781 L 1700.15625 413.691406 L 1701.796875 413.691406 L 1701.796875 428.300781 Z M 1708.5 426.816406 L 1708.5 426.863281 L 1713.40625 426.863281 L 1713.40625 428.300781 L 1706.609375 428.300781 L 1706.609375 426.863281 C 1709.953125 423.019531 1711.625 419.828125 1711.625 417.285156 C 1711.625 415.753906 1711.003906 414.988281 1709.765625 414.988281 C 1709.359375 414.988281 1708.847656 415.140625 1708.234375 415.441406 C 1707.628906 415.734375 1707.085938 416.097656 1706.609375 416.535156 L 1706.609375 414.785156 C 1707.609375 413.933594 1708.738281 413.503906 1710 413.503906 C 1711.132812 413.503906 1711.96875 413.816406 1712.5 414.441406 C 1713.03125 415.066406 1713.296875 416.015625 1713.296875 417.285156 C 1713.296875 418.621094 1712.9375 420.015625 1712.21875 421.472656 C 1711.5 422.921875 1710.257812 424.703125 1708.5 426.816406 Z M 1665 409.402344 "/>
<path style="fill:none;stroke-width:1;stroke-linecap:butt;stroke-linejoin:miter;stroke:rgb(0%,0%,0%);stroke-opacity:0.0980392;stroke-miterlimit:10;" d="M 24 32.5 L 24 194.5 " transform="matrix(2,0,0,2,0,0)"/>
<path style=" stroke:none;fill-rule:nonzero;fill:rgb(33.333333%,33.333333%,33.333333%);fill-opacity:1;" d="M 19.359375 379.863281 C 19.816406 379.625 20.363281 379.503906 21 379.503906 C 21.632812 379.503906 22.179688 379.625 22.640625 379.863281 C 23.097656 380.105469 23.492188 380.503906 23.828125 381.066406 C 24.160156 381.628906 24.40625 382.402344 24.5625 383.378906 C 24.726562 384.347656 24.8125 385.550781 24.8125 386.988281 C 24.8125 388.425781 24.726562 389.640625 24.5625 390.628906 C 24.40625 391.609375 24.160156 392.378906 23.828125 392.941406 C 23.492188 393.503906 23.097656 393.90625 22.640625 394.144531 C 22.179688 394.386719 21.632812 394.503906 21 394.503906 C 20.363281 394.503906 19.816406 394.386719 19.359375 394.144531 C 18.898438 393.90625 18.503906 393.503906 18.171875 392.941406 C 17.847656 392.378906 17.601562 391.609375 17.4375 390.628906 C 17.269531 389.640625 17.1875 388.425781 17.1875 386.988281 C 17.1875 385.550781 17.269531 384.347656 17.4375 383.378906 C 17.601562 382.402344 17.847656 381.628906 18.171875 381.066406 C 18.503906 380.503906 18.898438 380.105469 19.359375 379.863281 Z M 18.828125 389.332031 L 22.765625 382.535156 C 22.410156 381.441406 21.820312 380.894531 21 380.894531 C 20.519531 380.894531 20.117188 381.074219 19.796875 381.425781 C 19.484375 381.769531 19.226562 382.402344 19.03125 383.316406 C 18.84375 384.234375 18.75 385.464844 18.75 387.003906 C 18.75 387.671875 18.773438 388.449219 18.828125 389.332031 Z M 19.171875 391.207031 C 19.503906 392.46875 20.113281 393.097656 21 393.097656 C 21.476562 393.097656 21.878906 392.925781 22.203125 392.582031 C 22.523438 392.238281 22.78125 391.609375 22.96875 390.691406 C 23.15625 389.765625 23.25 388.535156 23.25 387.003906 C 23.25 385.964844 23.207031 385.078125 23.125 384.347656 Z M 16 375.402344 "/>
<path style=" stroke:none;fill-rule:nonzero;fill:rgb(33.333333%,33.333333%,33.333333%);fill-opacity:1;" d="M 22.609375 337.320312 L 22.609375 337.289062 L 17.609375 337.289062 L 17.609375 335.835938 L 24.5 335.835938 L 24.5 337.289062 L 20.90625 341.851562 L 20.90625 341.898438 L 21.09375 341.898438 C 22.3125 341.898438 23.195312 342.242188 23.75 342.929688 C 24.3125 343.609375 24.59375 344.71875 24.59375 346.257812 C 24.59375 349.1875 23.296875 350.648438 20.703125 350.648438 C 19.734375 350.648438 18.765625 350.445312 17.796875 350.039062 L 17.796875 348.304688 C 18.828125 348.878906 19.691406 349.164062 20.390625 349.164062 C 21.253906 349.164062 21.890625 348.9375 22.296875 348.476562 C 22.710938 348.007812 22.921875 347.269531 22.921875 346.257812 C 22.921875 345.0625 22.753906 344.273438 22.421875 343.898438 C 22.085938 343.523438 21.410156 343.335938 20.390625 343.335938 L 19.015625 343.335938 L 19.015625 341.898438 Z M 16 331.546875 "/>
<path style=" stroke:none;fill-rule:nonzero;fill:rgb(33.333333%,33.333333%,33.333333%);fill-opacity:1;" d="M 21.703125 291.792969 C 22.515625 291.792969 23.285156 291.925781 24.015625 292.183594 L 24.015625 293.730469 C 23.335938 293.398438 22.632812 293.230469 21.90625 293.230469 C 20.96875 293.230469 20.289062 293.554688 19.875 294.199219 C 19.46875 294.847656 19.210938 296.074219 19.109375 297.886719 L 19.140625 297.886719 C 19.804688 297.222656 20.554688 296.886719 21.390625 296.886719 C 22.566406 296.886719 23.429688 297.261719 23.984375 298.011719 C 24.535156 298.761719 24.8125 299.992188 24.8125 301.699219 C 24.8125 303.480469 24.5 304.777344 23.875 305.589844 C 23.25 306.394531 22.320312 306.792969 21.09375 306.792969 C 20.238281 306.792969 19.550781 306.601562 19.03125 306.214844 C 18.507812 305.832031 18.109375 305.152344 17.828125 304.183594 C 17.546875 303.214844 17.40625 301.882812 17.40625 300.183594 C 17.40625 298.082031 17.570312 296.402344 17.90625 295.152344 C 18.25 293.902344 18.722656 293.035156 19.328125 292.542969 C 19.929688 292.042969 20.722656 291.792969 21.703125 291.792969 Z M 21.09375 305.339844 C 21.8125 305.339844 22.335938 305.082031 22.671875 304.558594 C 23.003906 304.039062 23.171875 303.085938 23.171875 301.699219 C 23.171875 300.429688 23.007812 299.542969 22.6875 299.042969 C 22.375 298.542969 21.878906 298.292969 21.203125 298.292969 C 19.796875 298.292969 19.09375 299.355469 19.09375 301.480469 C 19.09375 302.910156 19.253906 303.910156 19.578125 304.480469 C 19.910156 305.054688 20.414062 305.339844 21.09375 305.339844 Z M 16 287.691406 "/>
<path style=" stroke:none;fill-rule:nonzero;fill:rgb(33.333333%,33.333333%,33.333333%);fill-opacity:1;" d="M 20.296875 262.941406 C 19.492188 262.941406 18.726562 262.808594 18 262.535156 L 18 260.925781 C 18.695312 261.28125 19.398438 261.457031 20.109375 261.457031 C 21.046875 261.457031 21.71875 261.144531 22.125 260.519531 C 22.53125 259.886719 22.785156 258.65625 22.890625 256.832031 L 22.859375 256.832031 C 22.191406 257.511719 21.441406 257.847656 20.609375 257.847656 C 19.492188 257.847656 18.644531 257.453125 18.0625 256.660156 C 17.476562 255.871094 17.1875 254.597656 17.1875 252.847656 C 17.1875 251.160156 17.492188 249.921875 18.109375 249.128906 C 18.734375 248.339844 19.664062 247.941406 20.90625 247.941406 C 21.8125 247.941406 22.519531 248.128906 23.03125 248.503906 C 23.550781 248.871094 23.941406 249.535156 24.203125 250.503906 C 24.460938 251.472656 24.59375 252.816406 24.59375 254.535156 C 24.59375 256.652344 24.421875 258.332031 24.078125 259.582031 C 23.742188 260.832031 23.273438 261.707031 22.671875 262.207031 C 22.066406 262.699219 21.273438 262.941406 20.296875 262.941406 Z M 20.90625 249.378906 C 20.175781 249.378906 19.644531 249.636719 19.3125 250.144531 C 18.988281 250.644531 18.828125 251.542969 18.828125 252.832031 C 18.828125 254.125 18.992188 255.050781 19.328125 255.613281 C 19.671875 256.167969 20.164062 256.441406 20.8125 256.441406 C 21.457031 256.441406 21.96875 256.167969 22.34375 255.613281 C 22.726562 255.050781 22.921875 254.191406 22.921875 253.035156 C 22.921875 251.714844 22.753906 250.777344 22.421875 250.222656 C 22.085938 249.660156 21.582031 249.378906 20.90625 249.378906 Z M 16 243.839844 "/>
<path style=" stroke:none;fill-rule:nonzero;fill:rgb(33.333333%,33.333333%,33.333333%);fill-opacity:1;" d="M 11.15625 218.882812 L 11.15625 205.976562 L 11.125 205.960938 L 7.65625 207.976562 L 7.65625 206.382812 L 11.15625 204.273438 L 12.796875 204.273438 L 12.796875 218.882812 Z M 19.5 217.398438 L 19.5 217.445312 L 24.40625 217.445312 L 24.40625 218.882812 L 17.609375 218.882812 L 17.609375 217.445312 C 20.953125 213.601562 22.625 210.410156 22.625 207.867188 C 22.625 206.335938 22.003906 205.570312 20.765625 205.570312 C 20.359375 205.570312 19.847656 205.722656 19.234375 206.023438 C 18.628906 206.316406 18.085938 206.679688 17.609375 207.117188 L 17.609375 205.367188 C 18.609375 204.515625 19.738281 204.085938 21 204.085938 C 22.132812 204.085938 22.96875 204.398438 23.5 205.023438 C 24.03125 205.648438 24.296875 206.597656 24.296875 207.867188 C 24.296875 209.203125 23.9375 210.597656 23.21875 212.054688 C 22.5 213.503906 21.257812 215.285156 19.5 217.398438 Z M 6 199.984375 "/>
<path style=" stroke:none;fill-rule:nonzero;fill:rgb(33.333333%,33.333333%,33.333333%);fill-opacity:1;" d="M 11.15625 175.027344 L 11.15625 162.121094 L 11.125 162.105469 L 7.65625 164.121094 L 7.65625 162.527344 L 11.15625 160.417969 L 12.796875 160.417969 L 12.796875 175.027344 Z M 19.59375 166.417969 L 19.640625 166.417969 C 20.078125 166.035156 20.660156 165.839844 21.390625 165.839844 C 23.523438 165.839844 24.59375 167.367188 24.59375 170.417969 C 24.59375 172.085938 24.265625 173.304688 23.609375 174.074219 C 22.953125 174.847656 21.984375 175.230469 20.703125 175.230469 C 19.710938 175.230469 18.742188 175.027344 17.796875 174.621094 L 17.796875 172.886719 C 18.796875 173.460938 19.734375 173.746094 20.609375 173.746094 C 22.148438 173.746094 22.921875 172.636719 22.921875 170.417969 C 22.921875 168.335938 22.28125 167.292969 21 167.292969 C 20.382812 167.292969 19.851562 167.570312 19.40625 168.121094 L 17.890625 168.121094 L 18.109375 160.417969 L 24.203125 160.417969 L 24.203125 161.871094 L 19.734375 161.871094 Z M 6 156.128906 "/>
<path style=" stroke:none;fill-rule:nonzero;fill:rgb(33.333333%,33.333333%,33.333333%);fill-opacity:1;" d="M 11.15625 131.171875 L 11.15625 118.265625 L 11.125 118.25 L 7.65625 120.265625 L 7.65625 118.671875 L 11.15625 116.5625 L 12.796875 116.5625 L 12.796875 131.171875 Z M 21.09375 117.765625 C 20.394531 117.765625 19.851562 117.953125 19.46875 118.328125 C 19.082031 118.695312 18.890625 119.210938 18.890625 119.875 C 18.890625 120.585938 19.082031 121.210938 19.46875 121.75 C 19.863281 122.28125 20.375 122.621094 21 122.765625 C 21.6875 122.578125 22.222656 122.234375 22.609375 121.734375 C 22.992188 121.234375 23.1875 120.617188 23.1875 119.875 C 23.1875 119.25 22.992188 118.746094 22.609375 118.359375 C 22.222656 117.964844 21.71875 117.765625 21.09375 117.765625 Z M 23.953125 130.359375 C 23.265625 131.039062 22.28125 131.375 21 131.375 C 19.726562 131.375 18.742188 131.039062 18.046875 130.359375 C 17.347656 129.671875 17 128.679688 17 127.375 C 17 126.460938 17.21875 125.664062 17.65625 124.984375 C 18.101562 124.308594 18.71875 123.808594 19.5 123.484375 L 19.5 123.4375 C 18.863281 123.148438 18.335938 122.664062 17.921875 121.984375 C 17.515625 121.308594 17.3125 120.605469 17.3125 119.875 C 17.3125 118.78125 17.632812 117.929688 18.28125 117.3125 C 18.9375 116.6875 19.84375 116.375 21 116.375 C 22.15625 116.375 23.054688 116.6875 23.703125 117.3125 C 24.359375 117.9375 24.6875 118.792969 24.6875 119.875 C 24.6875 120.617188 24.484375 121.304688 24.078125 121.9375 C 23.679688 122.574219 23.15625 123.042969 22.5 123.34375 L 22.5 123.390625 C 23.28125 123.703125 23.890625 124.203125 24.328125 124.890625 C 24.773438 125.578125 25 126.40625 25 127.375 C 25 128.679688 24.648438 129.671875 23.953125 130.359375 Z M 21.09375 129.96875 C 21.800781 129.96875 22.363281 129.75 22.78125 129.3125 C 23.195312 128.867188 23.40625 128.21875 23.40625 127.375 C 23.40625 125.636719 22.570312 124.570312 20.90625 124.171875 C 20.082031 124.390625 19.476562 124.757812 19.09375 125.265625 C 18.707031 125.765625 18.515625 126.46875 18.515625 127.375 C 18.515625 128.1875 18.75 128.824219 19.21875 129.28125 C 19.6875 129.742188 20.3125 129.96875 21.09375 129.96875 Z M 6 112.273438 "/>
<path style=" stroke:none;fill-rule:nonzero;fill:rgb(33.333333%,33.333333%,33.333333%);fill-opacity:1;" d="M 9.5 85.835938 L 9.5 85.882812 L 14.40625 85.882812 L 14.40625 87.320312 L 7.609375 87.320312 L 7.609375 85.882812 C 10.953125 82.039062 12.625 78.847656 12.625 76.304688 C 12.625 74.773438 12.003906 74.007812 10.765625 74.007812 C 10.359375 74.007812 9.847656 74.160156 9.234375 74.460938 C 8.628906 74.753906 8.085938 75.117188 7.609375 75.554688 L 7.609375 73.804688 C 8.609375 72.953125 9.738281 72.523438 11 72.523438 C 12.132812 72.523438 12.96875 72.835938 13.5 73.460938 C 14.03125 74.085938 14.296875 75.035156 14.296875 76.304688 C 14.296875 77.640625 13.9375 79.035156 13.21875 80.492188 C 12.5 81.941406 11.257812 83.722656 9.5 85.835938 Z M 21.15625 87.320312 L 21.15625 74.414062 L 21.125 74.398438 L 17.65625 76.414062 L 17.65625 74.820312 L 21.15625 72.710938 L 22.796875 72.710938 L 22.796875 87.320312 Z M 6 68.421875 "/>
<g clip-path="url(#8V0KWj7he7__clip1)" clip-rule="nonzero">
<path style=" stroke:none;fill-rule:nonzero;fill:rgb(14.509804%,38.823529%,92.156863%);fill-opacity:0.2;" d="M 48 388 C 130.050781 388 239.449219 388 321.5 388 C 403.550781 388 512.949219 388 595 388 C 677.050781 388 786.449219 388 868.5 388 C 950.550781 388 1077.484375 388 1142 388 C 1241.585938 329.449219 1333.449219 66.398438 1415.5 66.398438 C 1497.550781 66.398438 1606.949219 291.519531 1689 388 Z M 48 388 "/>
</g>
<g clip-path="url(#8V0KWj7he7__clip2)" clip-rule="nonzero">
<path style="fill:none;stroke-width:3;stroke-linecap:butt;stroke-linejoin:miter;stroke:rgb(23.137255%,50.980392%,96.470588%);stroke-opacity:1;stroke-miterlimit:10;" d="M 24 194 C 65.025391 194 119.724609 194 160.75 194 C 201.775391 194 256.474609 194 297.5 194 C 338.525391 194 393.224609 194 434.25 194 C 475.275391 194 538.742188 194 571 194 C 620.792969 164.724609 666.724609 33.199219 707.75 33.199219 C 748.775391 33.199219 803.474609 145.759766 844.5 194 " transform="matrix(2,0,0,2,0,0)"/>
</g>
<path style=" stroke:none;fill-rule:nonzero;fill:rgb(23.137255%,50.980392%,96.470588%);fill-opacity:1;" d="M 58 388 C 58 393.523438 53.523438 398 48 398 C 42.476562 398 38 393.523438 38 388 C 38 382.476562 42.476562 378 48 378 C 53.523438 378 58 382.476562 58 388 Z M 58 388 "/>
<g clip-path="url(#8V0KWj7he7__clip3)" clip-rule="nonzero">
<path style="fill:none;stroke-width:2;stroke-linecap:butt;stroke-linejoin:miter;stroke:rgb(5.098039%,5.098039%,5.098039%);stroke-opacity:1;stroke-miterlimit:10;" d="M 29 194 C 29 196.761719 26.761719 199 24 199 C 21.238281 199 19 196.761719 19 194 C 19 191.238281 21.238281 189 24 189 C 26.761719 189 29 191.238281 29 194 Z M 29 194 " transform="matrix(2,0,0,2,0,0)"/>
</g>
<path style=" stroke:none;fill-rule:nonzero;fill:rgb(23.137255%,50.980392%,96.470588%);fill-opacity:1;" d="M 331.5 388 C 331.5 393.523438 327.023438 398 321.5 398 C 315.976562 398 311.5 393.523438 311.5 388 C 311.5 382.476562 315.976562 378 321.5 378 C 327.023438 378 331.5 382.476562 331.5 388 Z M 331.5 388 "/>
<g clip-path="url(#8V0KWj7he7__clip4)" clip-rule="nonzero">
<path style="fill:none;stroke-width:2;stroke-linecap:butt;stroke-linejoin:miter;stroke:rgb(5.098039%,5.098039%,5.098039%);stroke-opacity:1;stroke-miterlimit:10;" d="M 165.75 194 C 165.75 196.761719 163.511719 199 160.75 199 C 157.988281 199 155.75 196.761719 155.75 194 C 155.75 191.238281 157.988281 189 160.75 189 C 163.511719 189 165.75 191.238281 165.75 194 Z M 165.75 194 " transform="matrix(2,0,0,2,0,0)"/>
</g>
<path style=" stroke:none;fill-rule:nonzero;fill:rgb(23.137255%,50.980392%,96.470588%);fill-opacity:1;" d="M 605 388 C 605 393.523438 600.523438 398 595 398 C 589.476562 398 585 393.523438 585 388 C 585 382.476562 589.476562 378 595 378 C 600.523438 378 605 382.476562 605 388 Z M 605 388 "/>
<g clip-path="url(#8V0KWj7he7__clip5)" clip-rule="nonzero">
<path style="fill:none;stroke-width:2;stroke-linecap:butt;stroke-linejoin:miter;stroke:rgb(5.098039%,5.098039%,5.098039%);stroke-opacity:1;stroke-miterlimit:10;" d="M 302.5 194 C 302.5 196.761719 300.261719 199 297.5 199 C 294.738281 199 292.5 196.761719 292.5 194 C 292.5 191.238281 294.738281 189 297.5 189 C 300.261719 189 302.5 191.238281 302.5 194 Z M 302.5 194 " transform="matrix(2,0,0,2,0,0)"/>
</g>
<path style=" stroke:none;fill-rule:nonzero;fill:rgb(23.137255%,50.980392%,96.470588%);fill-opacity:1;" d="M 878.5 388 C 878.5 393.523438 874.023438 398 868.5 398 C 862.976562 398 858.5 393.523438 858.5 388 C 858.5 382.476562 862.976562 378 868.5 378 C 874.023438 378 878.5 382.476562 878.5 388 Z M 878.5 388 "/>
<g clip-path="url(#8V0KWj7he7__clip6)" clip-rule="nonzero">
<path style="fill:none;stroke-width:2;stroke-linecap:butt;stroke-linejoin:miter;stroke:rgb(5.098039%,5.098039%,5.098039%);stroke-opacity:1;stroke-miterlimit:10;" d="M 439.25 194 C 439.25 196.761719 437.011719 199 434.25 199 C 431.488281 199 429.25 196.761719 429.25 194 C 429.25 191.238281 431.488281 189 434.25 189 C 437.011719 189 439.25 191.238281 439.25 194 Z M 439.25 194 " transform="matrix(2,0,0,2,0,0)"/>
</g>
<path style=" stroke:none;fill-rule:nonzero;fill:rgb(23.137255%,50.980392%,96.470588%);fill-opacity:1;" d="M 1152 388 C 1152 393.523438 1147.523438 398 1142 398 C 1136.476562 398 1132 393.523438 1132 388 C 1132 382.476562 1136.476562 378 1142 378 C 1147.523438 378 1152 382.476562 1152 388 Z M 1152 388 "/>
<g clip-path="url(#8V0KWj7he7__clip7)" clip-rule="nonzero">
<path style="fill:none;stroke-width:2;stroke-linecap:butt;stroke-linejoin:miter;stroke:rgb(5.098039%,5.098039%,5.098039%);stroke-opacity:1;stroke-miterlimit:10;" d="M 576 194 C 576 196.761719 573.761719 199 571 199 C 568.238281 199 566 196.761719 566 194 C 566 191.238281 568.238281 189 571 189 C 573.761719 189 576 191.238281 576 194 Z M 576 194 " transform="matrix(2,0,0,2,0,0)"/>
</g>
<path style=" stroke:none;fill-rule:nonzero;fill:rgb(23.137255%,50.980392%,96.470588%);fill-opacity:1;" d="M 1425.5 66.398438 C 1425.5 71.921875 1421.023438 76.398438 1415.5 76.398438 C 1409.976562 76.398438 1405.5 71.921875 1405.5 66.398438 C 1405.5 60.878906 1409.976562 56.398438 1415.5 56.398438 C 1421.023438 56.398438 1425.5 60.878906 1425.5 66.398438 Z M 1425.5 66.398438 "/>
<g clip-path="url(#8V0KWj7he7__clip8)" clip-rule="nonzero">
<path style="fill:none;stroke-width:2;stroke-linecap:butt;stroke-linejoin:miter;stroke:rgb(5.098039%,5.098039%,5.098039%);stroke-opacity:1;stroke-miterlimit:10;" d="M 712.75 33.199219 C 712.75 35.960938 710.511719 38.199219 707.75 38.199219 C 704.988281 38.199219 702.75 35.960938 702.75 33.199219 C 702.75 30.439453 704.988281 28.199219 707.75 28.199219 C 710.511719 28.199219 712.75 30.439453 712.75 33.199219 Z M 712.75 33.199219 " transform="matrix(2,0,0,2,0,0)"/>
</g>
<path style=" stroke:none;fill-rule:nonzero;fill:rgb(23.137255%,50.980392%,96.470588%);fill-opacity:1;" d="M 1699 388 C 1699 393.523438 1694.523438 398 1689 398 C 1683.476562 398 1679 393.523438 1679 388 C 1679 382.476562 1683.476562 378 1689 378 C 1694.523438 378 1699 382.476562 1699 388 Z M 1699 388 "/>
<g clip-path="url(#8V0KWj7he7__clip9)" clip-rule="nonzero">
<path style="fill:none;stroke-width:2;stroke-linecap:butt;stroke-linejoin:miter;stroke:rgb(5.098039%,5.098039%,5.098039%);stroke-opacity:1;stroke-miterlimit:10;" d="M 849.5 194 C 849.5 196.761719 847.261719 199 844.5 199 C 841.738281 199 839.5 196.761719 839.5 194 C 839.5 191.238281 841.738281 189 844.5 189 C 847.261719 189 849.5 191.238281 849.5 194 Z M 849.5 194 " transform="matrix(2,0,0,2,0,0)"/>
</g>
<path style=" stroke:none;fill-rule:nonzero;fill:rgb(62.745098%,62.745098%,62.745098%);fill-opacity:1;" d="M 1689.359375 341.863281 C 1689.816406 341.625 1690.363281 341.503906 1691 341.503906 C 1691.632812 341.503906 1692.179688 341.625 1692.640625 341.863281 C 1693.097656 342.105469 1693.492188 342.503906 1693.828125 343.066406 C 1694.160156 343.628906 1694.40625 344.402344 1694.5625 345.378906 C 1694.726562 346.347656 1694.8125 347.550781 1694.8125 348.988281 C 1694.8125 350.425781 1694.726562 351.640625 1694.5625 352.628906 C 1694.40625 353.609375 1694.160156 354.378906 1693.828125 354.941406 C 1693.492188 355.503906 1693.097656 355.90625 1692.640625 356.144531 C 1692.179688 356.386719 1691.632812 356.503906 1691 356.503906 C 1690.363281 356.503906 1689.816406 356.386719 1689.359375 356.144531 C 1688.898438 355.90625 1688.503906 355.503906 1688.171875 354.941406 C 1687.847656 354.378906 1687.601562 353.609375 1687.4375 352.628906 C 1687.269531 351.640625 1687.1875 350.425781 1687.1875 348.988281 C 1687.1875 347.550781 1687.269531 346.347656 1687.4375 345.378906 C 1687.601562 344.402344 1687.847656 343.628906 1688.171875 343.066406 C 1688.503906 342.503906 1688.898438 342.105469 1689.359375 341.863281 Z M 1688.828125 351.332031 L 1692.765625 344.535156 C 1692.410156 343.441406 1691.820312 342.894531 1691 342.894531 C 1690.519531 342.894531 1690.117188 343.074219 1689.796875 343.425781 C 1689.484375 343.769531 1689.226562 344.402344 1689.03125 345.316406 C 1688.84375 346.234375 1688.75 347.464844 1688.75 349.003906 C 1688.75 349.671875 1688.773438 350.449219 1688.828125 351.332031 Z M 1689.171875 353.207031 C 1689.503906 354.46875 1690.113281 355.097656 1691 355.097656 C 1691.476562 355.097656 1691.878906 354.925781 1692.203125 354.582031 C 1692.523438 354.238281 1692.78125 353.609375 1692.96875 352.691406 C 1693.15625 351.765625 1693.25 350.535156 1693.25 349.003906 C 1693.25 347.964844 1693.207031 347.078125 1693.125 346.347656 Z M 1686 337.402344 "/>
<path style=" stroke:none;fill-rule:nonzero;fill:rgb(62.745098%,62.745098%,62.745098%);fill-opacity:1;" d="M 1409.5 32.816406 L 1409.5 32.863281 L 1414.40625 32.863281 L 1414.40625 34.300781 L 1407.609375 34.300781 L 1407.609375 32.863281 C 1410.953125 29.019531 1412.625 25.828125 1412.625 23.285156 C 1412.625 21.753906 1412.003906 20.988281 1410.765625 20.988281 C 1410.359375 20.988281 1409.847656 21.140625 1409.234375 21.441406 C 1408.628906 21.734375 1408.085938 22.097656 1407.609375 22.535156 L 1407.609375 20.785156 C 1408.609375 19.933594 1409.738281 19.503906 1411 19.503906 C 1412.132812 19.503906 1412.96875 19.816406 1413.5 20.441406 C 1414.03125 21.066406 1414.296875 22.015625 1414.296875 23.285156 C 1414.296875 24.621094 1413.9375 26.015625 1413.21875 27.472656 C 1412.5 28.921875 1411.257812 30.703125 1409.5 32.816406 Z M 1419.5 32.816406 L 1419.5 32.863281 L 1424.40625 32.863281 L 1424.40625 34.300781 L 1417.609375 34.300781 L 1417.609375 32.863281 C 1420.953125 29.019531 1422.625 25.828125 1422.625 23.285156 C 1422.625 21.753906 1422.003906 20.988281 1420.765625 20.988281 C 1420.359375 20.988281 1419.847656 21.140625 1419.234375 21.441406 C 1418.628906 21.734375 1418.085938 22.097656 1417.609375 22.535156 L 1417.609375 20.785156 C 1418.609375 19.933594 1419.738281 19.503906 1421 19.503906 C 1422.132812 19.503906 1422.96875 19.816406 1423.5 20.441406 C 1424.03125 21.066406 1424.296875 22.015625 1424.296875 23.285156 C 1424.296875 24.621094 1423.9375 26.015625 1423.21875 27.472656 C 1422.5 28.921875 1421.257812 30.703125 1419.5 32.816406 Z M 1406 15.402344 "/>
<path style=" stroke:none;fill-rule:nonzero;fill:rgb(62.745098%,62.745098%,62.745098%);fill-opacity:1;" d="M 1141.359375 341.863281 C 1141.816406 341.625 1142.363281 341.503906 1143 341.503906 C 1143.632812 341.503906 1144.179688 341.625 1144.640625 341.863281 C 1145.097656 342.105469 1145.492188 342.503906 1145.828125 343.066406 C 1146.160156 343.628906 1146.40625 344.402344 1146.5625 345.378906 C 1146.726562 346.347656 1146.8125 347.550781 1146.8125 348.988281 C 1146.8125 350.425781 1146.726562 351.640625 1146.5625 352.628906 C 1146.40625 353.609375 1146.160156 354.378906 1145.828125 354.941406 C 1145.492188 355.503906 1145.097656 355.90625 1144.640625 356.144531 C 1144.179688 356.386719 1143.632812 356.503906 1143 356.503906 C 1142.363281 356.503906 1141.816406 356.386719 1141.359375 356.144531 C 1140.898438 355.90625 1140.503906 355.503906 1140.171875 354.941406 C 1139.847656 354.378906 1139.601562 353.609375 1139.4375 352.628906 C 1139.269531 351.640625 1139.1875 350.425781 1139.1875 348.988281 C 1139.1875 347.550781 1139.269531 346.347656 1139.4375 345.378906 C 1139.601562 344.402344 1139.847656 343.628906 1140.171875 343.066406 C 1140.503906 342.503906 1140.898438 342.105469 1141.359375 341.863281 Z M 1140.828125 351.332031 L 1144.765625 344.535156 C 1144.410156 343.441406 1143.820312 342.894531 1143 342.894531 C 1142.519531 342.894531 1142.117188 343.074219 1141.796875 343.425781 C 1141.484375 343.769531 1141.226562 344.402344 1141.03125 345.316406 C 1140.84375 346.234375 1140.75 347.464844 1140.75 349.003906 C 1140.75 349.671875 1140.773438 350.449219 1140.828125 351.332031 Z M 1141.171875 353.207031 C 1141.503906 354.46875 1142.113281 355.097656 1143 355.097656 C 1143.476562 355.097656 1143.878906 354.925781 1144.203125 354.582031 C 1144.523438 354.238281 1144.78125 353.609375 1144.96875 352.691406 C 1145.15625 351.765625 1145.25 350.535156 1145.25 349.003906 C 1145.25 347.964844 1145.207031 347.078125 1145.125 346.347656 Z M 1138 337.402344 "/>
<path style=" stroke:none;fill-rule:nonzero;fill:rgb(62.745098%,62.745098%,62.745098%);fill-opacity:1;" d="M 867.359375 341.863281 C 867.816406 341.625 868.363281 341.503906 869 341.503906 C 869.632812 341.503906 870.179688 341.625 870.640625 341.863281 C 871.097656 342.105469 871.492188 342.503906 871.828125 343.066406 C 872.160156 343.628906 872.40625 344.402344 872.5625 345.378906 C 872.726562 346.347656 872.8125 347.550781 872.8125 348.988281 C 872.8125 350.425781 872.726562 351.640625 872.5625 352.628906 C 872.40625 353.609375 872.160156 354.378906 871.828125 354.941406 C 871.492188 355.503906 871.097656 355.90625 870.640625 356.144531 C 870.179688 356.386719 869.632812 356.503906 869 356.503906 C 868.363281 356.503906 867.816406 356.386719 867.359375 356.144531 C 866.898438 355.90625 866.503906 355.503906 866.171875 354.941406 C 865.847656 354.378906 865.601562 353.609375 865.4375 352.628906 C 865.269531 351.640625 865.1875 350.425781 865.1875 348.988281 C 865.1875 347.550781 865.269531 346.347656 865.4375 345.378906 C 865.601562 344.402344 865.847656 343.628906 866.171875 343.066406 C 866.503906 342.503906 866.898438 342.105469 867.359375 341.863281 Z M 866.828125 351.332031 L 870.765625 344.535156 C 870.410156 343.441406 869.820312 342.894531 869 342.894531 C 868.519531 342.894531 868.117188 343.074219 867.796875 343.425781 C 867.484375 343.769531 867.226562 344.402344 867.03125 345.316406 C 866.84375 346.234375 866.75 347.464844 866.75 349.003906 C 866.75 349.671875 866.773438 350.449219 866.828125 351.332031 Z M 867.171875 353.207031 C 867.503906 354.46875 868.113281 355.097656 869 355.097656 C 869.476562 355.097656 869.878906 354.925781 870.203125 354.582031 C 870.523438 354.238281 870.78125 353.609375 870.96875 352.691406 C 871.15625 351.765625 871.25 350.535156 871.25 349.003906 C 871.25 347.964844 871.207031 347.078125 871.125 346.347656 Z M 864 337.402344 "/>
<path style=" stroke:none;fill-rule:nonzero;fill:rgb(62.745098%,62.745098%,62.745098%);fill-opacity:1;" d="M 595.359375 341.863281 C 595.816406 341.625 596.363281 341.503906 597 341.503906 C 597.632812 341.503906 598.179688 341.625 598.640625 341.863281 C 599.097656 342.105469 599.492188 342.503906 599.828125 343.066406 C 600.160156 343.628906 600.40625 344.402344 600.5625 345.378906 C 600.726562 346.347656 600.8125 347.550781 600.8125 348.988281 C 600.8125 350.425781 600.726562 351.640625 600.5625 352.628906 C 600.40625 353.609375 600.160156 354.378906 599.828125 354.941406 C 599.492188 355.503906 599.097656 355.90625 598.640625 356.144531 C 598.179688 356.386719 597.632812 356.503906 597 356.503906 C 596.363281 356.503906 595.816406 356.386719 595.359375 356.144531 C 594.898438 355.90625 594.503906 355.503906 594.171875 354.941406 C 593.847656 354.378906 593.601562 353.609375 593.4375 352.628906 C 593.269531 351.640625 593.1875 350.425781 593.1875 348.988281 C 593.1875 347.550781 593.269531 346.347656 593.4375 345.378906 C 593.601562 344.402344 593.847656 343.628906 594.171875 343.066406 C 594.503906 342.503906 594.898438 342.105469 595.359375 341.863281 Z M 594.828125 351.332031 L 598.765625 344.535156 C 598.410156 343.441406 597.820312 342.894531 597 342.894531 C 596.519531 342.894531 596.117188 343.074219 595.796875 343.425781 C 595.484375 343.769531 595.226562 344.402344 595.03125 345.316406 C 594.84375 346.234375 594.75 347.464844 594.75 349.003906 C 594.75 349.671875 594.773438 350.449219 594.828125 351.332031 Z M 595.171875 353.207031 C 595.503906 354.46875 596.113281 355.097656 597 355.097656 C 597.476562 355.097656 597.878906 354.925781 598.203125 354.582031 C 598.523438 354.238281 598.78125 353.609375 598.96875 352.691406 C 599.15625 351.765625 599.25 350.535156 599.25 349.003906 C 599.25 347.964844 599.207031 347.078125 599.125 346.347656 Z M 592 337.402344 "/>
<path style=" stroke:none;fill-rule:nonzero;fill:rgb(62.745098%,62.745098%,62.745098%);fill-opacity:1;" d="M 321.359375 341.863281 C 321.816406 341.625 322.363281 341.503906 323 341.503906 C 323.632812 341.503906 324.179688 341.625 324.640625 341.863281 C 325.097656 342.105469 325.492188 342.503906 325.828125 343.066406 C 326.160156 343.628906 326.40625 344.402344 326.5625 345.378906 C 326.726562 346.347656 326.8125 347.550781 326.8125 348.988281 C 326.8125 350.425781 326.726562 351.640625 326.5625 352.628906 C 326.40625 353.609375 326.160156 354.378906 325.828125 354.941406 C 325.492188 355.503906 325.097656 355.90625 324.640625 356.144531 C 324.179688 356.386719 323.632812 356.503906 323 356.503906 C 322.363281 356.503906 321.816406 356.386719 321.359375 356.144531 C 320.898438 355.90625 320.503906 355.503906 320.171875 354.941406 C 319.847656 354.378906 319.601562 353.609375 319.4375 352.628906 C 319.269531 351.640625 319.1875 350.425781 319.1875 348.988281 C 319.1875 347.550781 319.269531 346.347656 319.4375 345.378906 C 319.601562 344.402344 319.847656 343.628906 320.171875 343.066406 C 320.503906 342.503906 320.898438 342.105469 321.359375 341.863281 Z M 320.828125 351.332031 L 324.765625 344.535156 C 324.410156 343.441406 323.820312 342.894531 323 342.894531 C 322.519531 342.894531 322.117188 343.074219 321.796875 343.425781 C 321.484375 343.769531 321.226562 344.402344 321.03125 345.316406 C 320.84375 346.234375 320.75 347.464844 320.75 349.003906 C 320.75 349.671875 320.773438 350.449219 320.828125 351.332031 Z M 321.171875 353.207031 C 321.503906 354.46875 322.113281 355.097656 323 355.097656 C 323.476562 355.097656 323.878906 354.925781 324.203125 354.582031 C 324.523438 354.238281 324.78125 353.609375 324.96875 352.691406 C 325.15625 351.765625 325.25 350.535156 325.25 349.003906 C 325.25 347.964844 325.207031 347.078125 325.125 346.347656 Z M 318 337.402344 "/>
<path style=" stroke:none;fill-rule:nonzero;fill:rgb(62.745098%,62.745098%,62.745098%);fill-opacity:1;" d="M 47.359375 341.863281 C 47.816406 341.625 48.363281 341.503906 49 341.503906 C 49.632812 341.503906 50.179688 341.625 50.640625 341.863281 C 51.097656 342.105469 51.492188 342.503906 51.828125 343.066406 C 52.160156 343.628906 52.40625 344.402344 52.5625 345.378906 C 52.726562 346.347656 52.8125 347.550781 52.8125 348.988281 C 52.8125 350.425781 52.726562 351.640625 52.5625 352.628906 C 52.40625 353.609375 52.160156 354.378906 51.828125 354.941406 C 51.492188 355.503906 51.097656 355.90625 50.640625 356.144531 C 50.179688 356.386719 49.632812 356.503906 49 356.503906 C 48.363281 356.503906 47.816406 356.386719 47.359375 356.144531 C 46.898438 355.90625 46.503906 355.503906 46.171875 354.941406 C 45.847656 354.378906 45.601562 353.609375 45.4375 352.628906 C 45.269531 351.640625 45.1875 350.425781 45.1875 348.988281 C 45.1875 347.550781 45.269531 346.347656 45.4375 345.378906 C 45.601562 344.402344 45.847656 343.628906 46.171875 343.066406 C 46.503906 342.503906 46.898438 342.105469 47.359375 341.863281 Z M 46.828125 351.332031 L 50.765625 344.535156 C 50.410156 343.441406 49.820312 342.894531 49 342.894531 C 48.519531 342.894531 48.117188 343.074219 47.796875 343.425781 C 47.484375 343.769531 47.226562 344.402344 47.03125 345.316406 C 46.84375 346.234375 46.75 347.464844 46.75 349.003906 C 46.75 349.671875 46.773438 350.449219 46.828125 351.332031 Z M 47.171875 353.207031 C 47.503906 354.46875 48.113281 355.097656 49 355.097656 C 49.476562 355.097656 49.878906 354.925781 50.203125 354.582031 C 50.523438 354.238281 50.78125 353.609375 50.96875 352.691406 C 51.15625 351.765625 51.25 350.535156 51.25 349.003906 C 51.25 347.964844 51.207031 347.078125 51.125 346.347656 Z M 44 337.402344 "/>
</g>
</svg>
