<?xml version="1.0" encoding="UTF-8"?>
<svg xmlns="http://www.w3.org/2000/svg" xmlns:xlink="http://www.w3.org/1999/xlink" width="1720pt" height="440pt" viewBox="0 0 1720 440" version="1.1">
<defs>
<clipPath id="5zt1iTJV6Z__clip1">
  <path d="M 48 66.398438 L 1689 66.398438 L 1689 388 L 48 388 Z M 48 66.398438 "/>
</clipPath>
<clipPath id="5zt1iTJV6Z__clip2">
  <path d="M 34 52.398438 L 1703 52.398438 L 1703 402 L 34 402 Z M 34 52.398438 "/>
</clipPath>
<clipPath id="5zt1iTJV6Z__clip3">
  <path d="M 34 292 L 115 292 L 115 402 L 34 402 Z M 34 292 "/>
</clipPath>
<clipPath id="5zt1iTJV6Z__clip4">
  <path d="M 254 321 L 389 321 L 389 402 L 254 402 Z M 254 321 "/>
</clipPath>
<clipPath id="5zt1iTJV6Z__clip5">
  <path d="M 528 321 L 662 321 L 662 402 L 528 402 Z M 528 321 "/>
</clipPath>
<clipPath id="5zt1iTJV6Z__clip6">
  <path d="M 801 321 L 936 321 L 936 402 L 801 402 Z M 801 321 "/>
</clipPath>
<clipPath id="5zt1iTJV6Z__clip7">
  <path d="M 1075 52.398438 L 1209 52.398438 L 1209 133 L 1075 133 Z M 1075 52.398438 "/>
</clipPath>
<clipPath id="5zt1iTJV6Z__clip8">
  <path d="M 1348 321 L 1483 321 L 1483 402 L 1348 402 Z M 1348 321 "/>
</clipPath>
<clipPath id="5zt1iTJV6Z__clip9">
  <path d="M 1622 321 L 1703 321 L 1703 402 L 1622 402 Z M 1622 321 "/>
</clipPath>
</defs>
<g id="surface3549">
<rect x="0" y="0" width="1720" height="440" style="fill:rgb(96.078431%,96.078431%,95.686275%);fill-opacity:1;stroke:none;"/>
<path style="fill:none;stroke-width:1;stroke-linecap:butt;stroke-linejoin:miter;stroke:rgb(92.156863%,92.156863%,91.764706%);stroke-opacity:1;stroke-miterlimit:10;" d="M 24 33.199219 L 24 193.5 " transform="matrix(2,0,0,2,0,0)"/>
<path style="fill:none;stroke-width:1;stroke-linecap:butt;stroke-linejoin:miter;stroke:rgb(92.156863%,92.156863%,91.764706%);stroke-opacity:1;stroke-miterlimit:10;" d="M 24 194.5 L 24 202 " transform="matrix(2,0,0,2,0,0)"/>
<path style="fill:none;stroke-width:1;stroke-linecap:butt;stroke-linejoin:miter;stroke:rgb(92.156863%,92.156863%,91.764706%);stroke-opacity:1;stroke-miterlimit:10;" d="M 161 33.199219 L 161 193.5 " transform="matrix(2,0,0,2,0,0)"/>
<path style="fill:none;stroke-width:1;stroke-linecap:butt;stroke-linejoin:miter;stroke:rgb(92.156863%,92.156863%,91.764706%);stroke-opacity:1;stroke-miterlimit:10;" d="M 161 194.5 L 161 202 " transform="matrix(2,0,0,2,0,0)"/>
<path style="fill:none;stroke-width:1;stroke-linecap:butt;stroke-linejoin:miter;stroke:rgb(92.156863%,92.156863%,91.764706%);stroke-opacity:1;stroke-miterlimit:10;" d="M 297.5 33.199219 L 297.5 193.5 " transform="matrix(2,0,0,2,0,0)"/>
<path style="fill:none;stroke-width:1;stroke-linecap:butt;stroke-linejoin:miter;stroke:rgb(92.156863%,92.156863%,91.764706%);stroke-opacity:1;stroke-miterlimit:10;" d="M 297.5 194.5 L 297.5 202 " transform="matrix(2,0,0,2,0,0)"/>
<path style="fill:none;stroke-width:1;stroke-linecap:butt;stroke-linejoin:miter;stroke:rgb(92.156863%,92.156863%,91.764706%);stroke-opacity:1;stroke-miterlimit:10;" d="M 434.5 33.199219 L 434.5 193.5 " transform="matrix(2,0,0,2,0,0)"/>
<path style="fill:none;stroke-width:1;stroke-linecap:butt;stroke-linejoin:miter;stroke:rgb(92.156863%,92.156863%,91.764706%);stroke-opacity:1;stroke-miterlimit:10;" d="M 434.5 194.5 L 434.5 202 " transform="matrix(2,0,0,2,0,0)"/>
<path style="fill:none;stroke-width:1;stroke-linecap:butt;stroke-linejoin:miter;stroke:rgb(92.156863%,92.156863%,91.764706%);stroke-opacity:1;stroke-miterlimit:10;" d="M 571 33.199219 L 571 193.5 " transform="matrix(2,0,0,2,0,0)"/>
<path style="fill:none;stroke-width:1;stroke-linecap:butt;stroke-linejoin:miter;stroke:rgb(92.156863%,92.156863%,91.764706%);stroke-opacity:1;stroke-miterlimit:10;" d="M 571 194.5 L 571 202 " transform="matrix(2,0,0,2,0,0)"/>
<path style="fill:none;stroke-width:1;stroke-linecap:butt;stroke-linejoin:miter;stroke:rgb(92.156863%,92.156863%,91.764706%);stroke-opacity:1;stroke-miterlimit:10;" d="M 708 33.199219 L 708 193.5 " transform="matrix(2,0,0,2,0,0)"/>
<path style="fill:none;stroke-width:1;stroke-linecap:butt;stroke-linejoin:miter;stroke:rgb(92.156863%,92.156863%,91.764706%);stroke-opacity:1;stroke-miterlimit:10;" d="M 708 194.5 L 708 202 " transform="matrix(2,0,0,2,0,0)"/>
<path style="fill:none;stroke-width:1;stroke-linecap:butt;stroke-linejoin:miter;stroke:rgb(92.156863%,92.156863%,91.764706%);stroke-opacity:1;stroke-miterlimit:10;" d="M 844.5 33.199219 L 844.5 193.5 " transform="matrix(2,0,0,2,0,0)"/>
<path style="fill:none;stroke-width:1;stroke-linecap:butt;stroke-linejoin:miter;stroke:rgb(92.156863%,92.156863%,91.764706%);stroke-opacity:1;stroke-miterlimit:10;" d="M 844.5 194.5 L 844.5 202 " transform="matrix(2,0,0,2,0,0)"/>
<path style="fill:none;stroke-width:1;stroke-linecap:butt;stroke-linejoin:miter;stroke:rgb(92.156863%,92.156863%,91.764706%);stroke-opacity:1;stroke-miterlimit:10;" d="M 24.5 194 L 844.5 194 " transform="matrix(2,0,0,2,0,0)"/>
<path style="fill:none;stroke-width:1;stroke-linecap:butt;stroke-linejoin:miter;stroke:rgb(92.156863%,92.156863%,91.764706%);stroke-opacity:1;stroke-miterlimit:10;" d="M 16 194 L 23.5 194 " transform="matrix(2,0,0,2,0,0)"/>
<path style="fill:none;stroke-width:1;stroke-linecap:butt;stroke-linejoin:miter;stroke:rgb(92.156863%,92.156863%,91.764706%);stroke-opacity:1;stroke-miterlimit:10;" d="M 24.5 165 L 844.5 165 " transform="matrix(2,0,0,2,0,0)"/>
<path style="fill:none;stroke-width:1;stroke-linecap:butt;stroke-linejoin:miter;stroke:rgb(92.156863%,92.156863%,91.764706%);stroke-opacity:1;stroke-miterlimit:10;" d="M 16 165 L 23.5 165 " transform="matrix(2,0,0,2,0,0)"/>
<path style="fill:none;stroke-width:1;stroke-linecap:butt;stroke-linejoin:miter;stroke:rgb(92.156863%,92.156863%,91.764706%);stroke-opacity:1;stroke-miterlimit:10;" d="M 24.5 135.5 L 844.5 135.5 " transform="matrix(2,0,0,2,0,0)"/>
<path style="fill:none;stroke-width:1;stroke-linecap:butt;stroke-linejoin:miter;stroke:rgb(92.156863%,92.156863%,91.764706%);stroke-opacity:1;stroke-miterlimit:10;" d="M 16 135.5 L 23.5 135.5 " transform="matrix(2,0,0,2,0,0)"/>
<path style="fill:none;stroke-width:1;stroke-linecap:butt;stroke-linejoin:miter;stroke:rgb(92.156863%,92.156863%,91.764706%);stroke-opacity:1;stroke-miterlimit:10;" d="M 24.5 106.5 L 844.5 106.5 " transform="matrix(2,0,0,2,0,0)"/>
<path style="fill:none;stroke-width:1;stroke-linecap:butt;stroke-linejoin:miter;stroke:rgb(92.156863%,92.156863%,91.764706%);stroke-opacity:1;stroke-miterlimit:10;" d="M 16 106.5 L 23.5 106.5 " transform="matrix(2,0,0,2,0,0)"/>
<path style="fill:none;stroke-width:1;stroke-linecap:butt;stroke-linejoin:miter;stroke:rgb(92.156863%,92.156863%,91.764706%);stroke-opacity:1;stroke-miterlimit:10;" d="M 24.5 77 L 844.5 77 " transform="matrix(2,0,0,2,0,0)"/>
<path style="fill:none;stroke-width:1;stroke-linecap:butt;stroke-linejoin:miter;stroke:rgb(92.156863%,92.156863%,91.764706%);stroke-opacity:1;stroke-miterlimit:10;" d="M 16 77 L 23.5 77 " transform="matrix(2,0,0,2,0,0)"/>
<path style="fill:none;stroke-width:1;stroke-linecap:butt;stroke-linejoin:miter;stroke:rgb(92.156863%,92.156863%,91.764706%);stroke-opacity:1;stroke-miterlimit:10;" d="M 24.5 48 L 844.5 48 " transform="matrix(2,0,0,2,0,0)"/>
<path style="fill:none;stroke-width:1;stroke-linecap:butt;stroke-linejoin:miter;stroke:rgb(92.156863%,92.156863%,91.764706%);stroke-opacity:1;stroke-miterlimit:10;" d="M 16 48 L 23.5 48 " transform="matrix(2,0,0,2,0,0)"/>
<path style=" stroke:none;fill-rule:nonzero;fill:rgb(11.372549%,30.588235%,84.705882%);fill-opacity:1;" d="M 11.09375 23.167969 L 3.390625 41.027344 L 0.8125 41.027344 L 8.515625 23.167969 Z M 22.09375 23.167969 L 14.390625 41.027344 L 11.8125 41.027344 L 19.515625 23.167969 Z M 34.546875 33.949219 C 34.546875 31.886719 34.984375 30.308594 35.859375 29.214844 C 36.742188 28.121094 38 27.574219 39.625 27.574219 C 40.5625 27.574219 41.628906 27.800781 42.828125 28.246094 L 42.828125 31.074219 C 41.554688 30.398438 40.523438 30.058594 39.734375 30.058594 C 38.953125 30.058594 38.34375 30.378906 37.90625 31.011719 C 37.476562 31.636719 37.265625 32.617188 37.265625 33.949219 C 37.265625 35.335938 37.492188 36.347656 37.953125 36.980469 C 38.421875 37.605469 39.046875 37.917969 39.828125 37.917969 C 40.609375 37.917969 41.644531 37.539062 42.9375 36.777344 L 42.9375 39.652344 C 41.75 40.121094 40.679688 40.355469 39.734375 40.355469 C 38.078125 40.355469 36.796875 39.816406 35.890625 38.730469 C 34.992188 37.636719 34.546875 36.042969 34.546875 33.949219 Z M 45.09375 33.964844 C 45.09375 29.707031 46.710938 27.574219 49.953125 27.574219 C 53.191406 27.574219 54.8125 29.707031 54.8125 33.964844 C 54.8125 38.226562 53.191406 40.355469 49.953125 40.355469 C 46.710938 40.355469 45.09375 38.226562 45.09375 33.964844 Z M 48.34375 37.089844 C 48.695312 37.644531 49.234375 37.917969 49.953125 37.917969 C 50.671875 37.917969 51.207031 37.644531 51.5625 37.089844 C 51.914062 36.527344 52.09375 35.488281 52.09375 33.964844 C 52.09375 32.433594 51.914062 31.394531 51.5625 30.839844 C 51.207031 30.277344 50.671875 29.996094 49.953125 29.996094 C 49.234375 29.996094 48.695312 30.277344 48.34375 30.839844 C 47.988281 31.394531 47.8125 32.433594 47.8125 33.964844 C 47.8125 35.488281 47.988281 36.527344 48.34375 37.089844 Z M 62.28125 40.136719 L 59.65625 40.136719 L 59.65625 31.761719 C 59.644531 30.992188 59.597656 30.523438 59.515625 30.355469 C 59.441406 30.179688 59.328125 30.089844 59.171875 30.089844 C 58.929688 30.089844 58.6875 30.488281 58.4375 31.277344 C 58.195312 32.058594 58.078125 33.394531 58.078125 35.277344 L 58.078125 40.136719 L 55.4375 40.136719 L 55.4375 27.777344 L 57.875 27.777344 L 57.515625 29.730469 L 57.46875 29.699219 C 57.519531 29.011719 57.765625 28.488281 58.203125 28.121094 C 58.640625 27.757812 59.117188 27.574219 59.640625 27.574219 C 60.210938 27.574219 60.675781 27.746094 61.03125 28.089844 C 61.382812 28.425781 61.550781 28.964844 61.53125 29.714844 L 61.484375 29.699219 C 61.898438 28.285156 62.675781 27.574219 63.8125 27.574219 C 64.726562 27.574219 65.398438 27.863281 65.828125 28.433594 C 66.265625 28.996094 66.484375 29.957031 66.484375 31.308594 L 66.484375 40.136719 L 63.875 40.136719 L 63.875 31.761719 C 63.863281 30.980469 63.804688 30.507812 63.703125 30.339844 C 63.609375 30.175781 63.453125 30.089844 63.234375 30.089844 C 62.597656 30.089844 62.28125 31.378906 62.28125 33.949219 Z M 73.28125 40.136719 L 70.65625 40.136719 L 70.65625 31.761719 C 70.644531 30.992188 70.597656 30.523438 70.515625 30.355469 C 70.441406 30.179688 70.328125 30.089844 70.171875 30.089844 C 69.929688 30.089844 69.6875 30.488281 69.4375 31.277344 C 69.195312 32.058594 69.078125 33.394531 69.078125 35.277344 L 69.078125 40.136719 L 66.4375 40.136719 L 66.4375 27.777344 L 68.875 27.777344 L 68.515625 29.730469 L 68.46875 29.699219 C 68.519531 29.011719 68.765625 28.488281 69.203125 28.121094 C 69.640625 27.757812 70.117188 27.574219 70.640625 27.574219 C 71.210938 27.574219 71.675781 27.746094 72.03125 28.089844 C 72.382812 28.425781 72.550781 28.964844 72.53125 29.714844 L 72.484375 29.699219 C 72.898438 28.285156 73.675781 27.574219 74.8125 27.574219 C 75.726562 27.574219 76.398438 27.863281 76.828125 28.433594 C 77.265625 28.996094 77.484375 29.957031 77.484375 31.308594 L 77.484375 40.136719 L 74.875 40.136719 L 74.875 31.761719 C 74.863281 30.980469 74.804688 30.507812 74.703125 30.339844 C 74.609375 30.175781 74.453125 30.089844 74.234375 30.089844 C 73.597656 30.089844 73.28125 31.378906 73.28125 33.949219 Z M 84.875 27.777344 L 84.875 37.730469 L 87.25 37.730469 L 87.25 40.136719 L 79.078125 40.136719 L 79.078125 37.730469 L 82.15625 37.730469 L 82.15625 30.199219 L 79.75 30.199219 L 79.75 27.777344 Z M 81.703125 26.042969 L 81.703125 22.496094 L 84.875 22.496094 L 84.875 26.042969 Z M 94.28125 28.230469 L 98.25 28.230469 L 98.25 30.636719 L 94.28125 30.636719 L 94.28125 36.371094 C 94.28125 37.082031 94.359375 37.523438 94.515625 37.699219 C 94.679688 37.878906 95.046875 37.964844 95.609375 37.964844 C 96.273438 37.964844 97.082031 37.753906 98.03125 37.324219 L 98.03125 39.886719 C 97.082031 40.199219 96.203125 40.355469 95.390625 40.355469 C 94.035156 40.355469 93.066406 40.074219 92.484375 39.511719 C 91.910156 38.941406 91.625 37.964844 91.625 36.589844 L 91.625 30.636719 L 89.4375 30.636719 L 89.4375 28.230469 L 91.625 28.230469 L 91.625 24.042969 L 94.28125 24.042969 Z M 105.0625 29.933594 C 103.957031 29.933594 103.40625 30.320312 103.40625 31.089844 C 103.40625 31.464844 103.519531 31.769531 103.75 31.996094 C 103.988281 32.226562 104.46875 32.441406 105.1875 32.636719 C 106.820312 33.097656 107.925781 33.605469 108.5 34.167969 C 109.070312 34.730469 109.359375 35.585938 109.359375 36.730469 C 109.359375 37.878906 108.960938 38.769531 108.171875 39.402344 C 107.390625 40.039062 106.320312 40.355469 104.96875 40.355469 C 103.625 40.355469 102.257812 40.007812 100.875 39.308594 L 100.875 36.417969 C 102.414062 37.449219 103.703125 37.964844 104.734375 37.964844 C 106.054688 37.964844 106.71875 37.542969 106.71875 36.699219 C 106.71875 36.292969 106.59375 35.976562 106.34375 35.746094 C 106.101562 35.519531 105.5625 35.289062 104.71875 35.058594 C 103.300781 34.652344 102.285156 34.152344 101.671875 33.558594 C 101.066406 32.957031 100.765625 32.132812 100.765625 31.089844 C 100.765625 29.996094 101.128906 29.136719 101.859375 28.511719 C 102.585938 27.886719 103.617188 27.574219 104.953125 27.574219 C 106.242188 27.574219 107.570312 27.882812 108.9375 28.496094 L 108.9375 31.199219 C 107.394531 30.355469 106.101562 29.933594 105.0625 29.933594 Z M 128.09375 36.371094 C 128.09375 37.246094 128.128906 37.730469 128.203125 37.824219 C 128.273438 37.910156 128.632812 37.949219 129.28125 37.949219 C 129.726562 37.949219 130.421875 37.878906 131.359375 37.730469 L 131.359375 40.199219 C 130.390625 40.304688 129.613281 40.355469 129.03125 40.355469 C 127.59375 40.355469 126.625 40.101562 126.125 39.589844 C 125.632812 39.082031 125.390625 38.082031 125.390625 36.589844 L 125.390625 25.574219 L 122.546875 25.574219 L 122.546875 23.167969 L 128.09375 23.167969 Z M 138.0625 27.574219 C 139.675781 27.574219 140.796875 27.914062 141.421875 28.589844 C 142.046875 29.269531 142.359375 30.464844 142.359375 32.183594 L 142.359375 40.136719 L 139.90625 40.136719 L 140.234375 38.089844 L 140.296875 38.136719 C 139.742188 39.617188 138.632812 40.355469 136.96875 40.355469 C 135.882812 40.355469 135.003906 40.007812 134.328125 39.308594 C 133.648438 38.613281 133.3125 37.667969 133.3125 36.480469 C 133.3125 35.003906 133.8125 33.867188 134.8125 33.074219 C 135.8125 32.273438 137.257812 31.871094 139.15625 31.871094 L 139.75 31.871094 L 139.75 31.761719 C 139.75 31.042969 139.628906 30.558594 139.390625 30.308594 C 139.160156 30.058594 138.71875 29.933594 138.0625 29.933594 C 137.601562 29.933594 137.015625 30.023438 136.296875 30.199219 C 135.585938 30.367188 134.78125 30.652344 133.875 31.058594 L 133.875 28.496094 C 134.59375 28.175781 135.332031 27.941406 136.09375 27.792969 C 136.851562 27.648438 137.507812 27.574219 138.0625 27.574219 Z M 139.75 34.074219 L 139.15625 34.074219 C 136.96875 34.074219 135.875 34.839844 135.875 36.371094 C 135.875 36.914062 135.992188 37.316406 136.234375 37.574219 C 136.484375 37.835938 136.832031 37.964844 137.28125 37.964844 C 138.007812 37.964844 138.601562 37.664062 139.0625 37.058594 C 139.519531 36.457031 139.75 35.570312 139.75 34.402344 Z M 149.0625 29.933594 C 147.957031 29.933594 147.40625 30.320312 147.40625 31.089844 C 147.40625 31.464844 147.519531 31.769531 147.75 31.996094 C 147.988281 32.226562 148.46875 32.441406 149.1875 32.636719 C 150.820312 33.097656 151.925781 33.605469 152.5 34.167969 C 153.070312 34.730469 153.359375 35.585938 153.359375 36.730469 C 153.359375 37.878906 152.960938 38.769531 152.171875 39.402344 C 151.390625 40.039062 150.320312 40.355469 148.96875 40.355469 C 147.625 40.355469 146.257812 40.007812 144.875 39.308594 L 144.875 36.417969 C 146.414062 37.449219 147.703125 37.964844 148.734375 37.964844 C 150.054688 37.964844 150.71875 37.542969 150.71875 36.699219 C 150.71875 36.292969 150.59375 35.976562 150.34375 35.746094 C 150.101562 35.519531 149.5625 35.289062 148.71875 35.058594 C 147.300781 34.652344 146.285156 34.152344 145.671875 33.558594 C 145.066406 32.957031 144.765625 32.132812 144.765625 31.089844 C 144.765625 29.996094 145.128906 29.136719 145.859375 28.511719 C 146.585938 27.886719 147.617188 27.574219 148.953125 27.574219 C 150.242188 27.574219 151.570312 27.882812 152.9375 28.496094 L 152.9375 31.199219 C 151.394531 30.355469 150.101562 29.933594 149.0625 29.933594 Z M 160.28125 28.230469 L 164.25 28.230469 L 164.25 30.636719 L 160.28125 30.636719 L 160.28125 36.371094 C 160.28125 37.082031 160.359375 37.523438 160.515625 37.699219 C 160.679688 37.878906 161.046875 37.964844 161.609375 37.964844 C 162.273438 37.964844 163.082031 37.753906 164.03125 37.324219 L 164.03125 39.886719 C 163.082031 40.199219 162.203125 40.355469 161.390625 40.355469 C 160.035156 40.355469 159.066406 40.074219 158.484375 39.511719 C 157.910156 38.941406 157.625 37.964844 157.625 36.589844 L 157.625 30.636719 L 155.4375 30.636719 L 155.4375 28.230469 L 157.625 28.230469 L 157.625 24.042969 L 160.28125 24.042969 Z M 183.8125 25.199219 L 183.984375 25.246094 L 177.65625 25.652344 L 177.65625 23.167969 L 186.25 23.167969 L 186.25 25.292969 C 184.363281 29.667969 182.796875 34.617188 181.546875 40.136719 L 178.671875 40.136719 C 179.992188 34.554688 181.707031 29.574219 183.8125 25.199219 Z M 205.84375 23.167969 L 208.46875 23.167969 L 208.46875 40.136719 L 205.96875 40.136719 L 206.3125 38.074219 L 206.359375 38.105469 C 205.710938 39.605469 204.6875 40.355469 203.28125 40.355469 C 201.96875 40.355469 200.921875 39.808594 200.140625 38.714844 C 199.367188 37.621094 198.984375 36.035156 198.984375 33.949219 C 198.984375 29.699219 200.414062 27.574219 203.28125 27.574219 C 204.800781 27.574219 205.804688 28.308594 206.296875 29.777344 L 206.234375 29.824219 Z M 201.640625 33.949219 C 201.640625 35.304688 201.832031 36.285156 202.21875 36.886719 C 202.613281 37.492188 203.117188 37.792969 203.734375 37.792969 C 204.316406 37.792969 204.8125 37.488281 205.21875 36.871094 C 205.632812 36.246094 205.84375 35.308594 205.84375 34.058594 L 205.84375 33.839844 C 205.84375 32.601562 205.632812 31.675781 205.21875 31.058594 C 204.8125 30.433594 204.316406 30.121094 203.734375 30.121094 C 202.335938 30.121094 201.640625 31.398438 201.640625 33.949219 Z M 215.0625 27.574219 C 216.675781 27.574219 217.796875 27.914062 218.421875 28.589844 C 219.046875 29.269531 219.359375 30.464844 219.359375 32.183594 L 219.359375 40.136719 L 216.90625 40.136719 L 217.234375 38.089844 L 217.296875 38.136719 C 216.742188 39.617188 215.632812 40.355469 213.96875 40.355469 C 212.882812 40.355469 212.003906 40.007812 211.328125 39.308594 C 210.648438 38.613281 210.3125 37.667969 210.3125 36.480469 C 210.3125 35.003906 210.8125 33.867188 211.8125 33.074219 C 212.8125 32.273438 214.257812 31.871094 216.15625 31.871094 L 216.75 31.871094 L 216.75 31.761719 C 216.75 31.042969 216.628906 30.558594 216.390625 30.308594 C 216.160156 30.058594 215.71875 29.933594 215.0625 29.933594 C 214.601562 29.933594 214.015625 30.023438 213.296875 30.199219 C 212.585938 30.367188 211.78125 30.652344 210.875 31.058594 L 210.875 28.496094 C 211.59375 28.175781 212.332031 27.941406 213.09375 27.792969 C 213.851562 27.648438 214.507812 27.574219 215.0625 27.574219 Z M 216.75 34.074219 L 216.15625 34.074219 C 213.96875 34.074219 212.875 34.839844 212.875 36.371094 C 212.875 36.914062 212.992188 37.316406 213.234375 37.574219 C 213.484375 37.835938 213.832031 37.964844 214.28125 37.964844 C 215.007812 37.964844 215.601562 37.664062 216.0625 37.058594 C 216.519531 36.457031 216.75 35.570312 216.75 34.402344 Z M 226.1875 36.980469 L 226.140625 36.980469 L 228.421875 27.777344 L 231.3125 27.777344 L 225.71875 44.980469 L 222.9375 44.980469 L 224.796875 39.449219 L 220.796875 27.777344 L 223.703125 27.777344 Z M 237.0625 29.933594 C 235.957031 29.933594 235.40625 30.320312 235.40625 31.089844 C 235.40625 31.464844 235.519531 31.769531 235.75 31.996094 C 235.988281 32.226562 236.46875 32.441406 237.1875 32.636719 C 238.820312 33.097656 239.925781 33.605469 240.5 34.167969 C 241.070312 34.730469 241.359375 35.585938 241.359375 36.730469 C 241.359375 37.878906 240.960938 38.769531 240.171875 39.402344 C 239.390625 40.039062 238.320312 40.355469 236.96875 40.355469 C 235.625 40.355469 234.257812 40.007812 232.875 39.308594 L 232.875 36.417969 C 234.414062 37.449219 235.703125 37.964844 236.734375 37.964844 C 238.054688 37.964844 238.71875 37.542969 238.71875 36.699219 C 238.71875 36.292969 238.59375 35.976562 238.34375 35.746094 C 238.101562 35.519531 237.5625 35.289062 236.71875 35.058594 C 235.300781 34.652344 234.285156 34.152344 233.671875 33.558594 C 233.066406 32.957031 232.765625 32.132812 232.765625 31.089844 C 232.765625 29.996094 233.128906 29.136719 233.859375 28.511719 C 234.585938 27.886719 235.617188 27.574219 236.953125 27.574219 C 238.242188 27.574219 239.570312 27.882812 240.9375 28.496094 L 240.9375 31.199219 C 239.394531 30.355469 238.101562 29.933594 237.0625 29.933594 Z M 0 19.34375 "/>
<path style="fill:none;stroke-width:1;stroke-linecap:butt;stroke-linejoin:miter;stroke:rgb(0%,0%,0%);stroke-opacity:0.0980392;stroke-miterlimit:10;" d="M 23.5 194 L 845 194 " transform="matrix(2,0,0,2,0,0)"/>
<path style=" stroke:none;fill-rule:nonzero;fill:rgb(65.882353%,63.529412%,61.960784%);fill-opacity:1;" d="M 27.359375 413.863281 C 27.816406 413.625 28.363281 413.503906 29 413.503906 C 29.632812 413.503906 30.179688 413.625 30.640625 413.863281 C 31.097656 414.105469 31.492188 414.503906 31.828125 415.066406 C 32.160156 415.628906 32.40625 416.402344 32.5625 417.378906 C 32.726562 418.347656 32.8125 419.550781 32.8125 420.988281 C 32.8125 422.425781 32.726562 423.640625 32.5625 424.628906 C 32.40625 425.609375 32.160156 426.378906 31.828125 426.941406 C 31.492188 427.503906 31.097656 427.90625 30.640625 428.144531 C 30.179688 428.386719 29.632812 428.503906 29 428.503906 C 28.363281 428.503906 27.816406 428.386719 27.359375 428.144531 C 26.898438 427.90625 26.503906 427.503906 26.171875 426.941406 C 25.847656 426.378906 25.601562 425.609375 25.4375 424.628906 C 25.269531 423.640625 25.1875 422.425781 25.1875 420.988281 C 25.1875 419.550781 25.269531 418.347656 25.4375 417.378906 C 25.601562 416.402344 25.847656 415.628906 26.171875 415.066406 C 26.503906 414.503906 26.898438 414.105469 27.359375 413.863281 Z M 26.828125 423.332031 L 30.765625 416.535156 C 30.410156 415.441406 29.820312 414.894531 29 414.894531 C 28.519531 414.894531 28.117188 415.074219 27.796875 415.425781 C 27.484375 415.769531 27.226562 416.402344 27.03125 417.316406 C 26.84375 418.234375 26.75 419.464844 26.75 421.003906 C 26.75 421.671875 26.773438 422.449219 26.828125 423.332031 Z M 27.171875 425.207031 C 27.503906 426.46875 28.113281 427.097656 29 427.097656 C 29.476562 427.097656 29.878906 426.925781 30.203125 426.582031 C 30.523438 426.238281 30.78125 425.609375 30.96875 424.691406 C 31.15625 423.765625 31.25 422.535156 31.25 421.003906 C 31.25 419.964844 31.207031 419.078125 31.125 418.347656 Z M 40.890625 415.175781 L 40.890625 415.144531 L 35.5 415.144531 L 35.5 413.691406 L 42.5 413.691406 L 42.5 415.144531 C 40.789062 419.09375 39.390625 423.480469 38.296875 428.300781 L 36.546875 428.300781 C 37.660156 423.59375 39.109375 419.21875 40.890625 415.175781 Z M 46 422.910156 L 46 421.472656 L 52.015625 421.472656 L 52.015625 422.910156 Z M 59.15625 428.300781 L 59.15625 415.394531 L 59.125 415.378906 L 55.65625 417.394531 L 55.65625 415.800781 L 59.15625 413.691406 L 60.796875 413.691406 L 60.796875 428.300781 Z M 67.359375 413.863281 C 67.816406 413.625 68.363281 413.503906 69 413.503906 C 69.632812 413.503906 70.179688 413.625 70.640625 413.863281 C 71.097656 414.105469 71.492188 414.503906 71.828125 415.066406 C 72.160156 415.628906 72.40625 416.402344 72.5625 417.378906 C 72.726562 418.347656 72.8125 419.550781 72.8125 420.988281 C 72.8125 422.425781 72.726562 423.640625 72.5625 424.628906 C 72.40625 425.609375 72.160156 426.378906 71.828125 426.941406 C 71.492188 427.503906 71.097656 427.90625 70.640625 428.144531 C 70.179688 428.386719 69.632812 428.503906 69 428.503906 C 68.363281 428.503906 67.816406 428.386719 67.359375 428.144531 C 66.898438 427.90625 66.503906 427.503906 66.171875 426.941406 C 65.847656 426.378906 65.601562 425.609375 65.4375 424.628906 C 65.269531 423.640625 65.1875 422.425781 65.1875 420.988281 C 65.1875 419.550781 65.269531 418.347656 65.4375 417.378906 C 65.601562 416.402344 65.847656 415.628906 66.171875 415.066406 C 66.503906 414.503906 66.898438 414.105469 67.359375 413.863281 Z M 66.828125 423.332031 L 70.765625 416.535156 C 70.410156 415.441406 69.820312 414.894531 69 414.894531 C 68.519531 414.894531 68.117188 415.074219 67.796875 415.425781 C 67.484375 415.769531 67.226562 416.402344 67.03125 417.316406 C 66.84375 418.234375 66.75 419.464844 66.75 421.003906 C 66.75 421.671875 66.773438 422.449219 66.828125 423.332031 Z M 67.171875 425.207031 C 67.503906 426.46875 68.113281 427.097656 69 427.097656 C 69.476562 427.097656 69.878906 426.925781 70.203125 426.582031 C 70.523438 426.238281 70.78125 425.609375 70.96875 424.691406 C 71.15625 423.765625 71.25 422.535156 71.25 421.003906 C 71.25 419.964844 71.207031 419.078125 71.125 418.347656 Z M 24 409.402344 "/>
<path style=" stroke:none;fill-rule:nonzero;fill:rgb(65.882353%,63.529412%,61.960784%);fill-opacity:1;" d="M 300.859375 413.863281 C 301.316406 413.625 301.863281 413.503906 302.5 413.503906 C 303.132812 413.503906 303.679688 413.625 304.140625 413.863281 C 304.597656 414.105469 304.992188 414.503906 305.328125 415.066406 C 305.660156 415.628906 305.90625 416.402344 306.0625 417.378906 C 306.226562 418.347656 306.3125 419.550781 306.3125 420.988281 C 306.3125 422.425781 306.226562 423.640625 306.0625 424.628906 C 305.90625 425.609375 305.660156 426.378906 305.328125 426.941406 C 304.992188 427.503906 304.597656 427.90625 304.140625 428.144531 C 303.679688 428.386719 303.132812 428.503906 302.5 428.503906 C 301.863281 428.503906 301.316406 428.386719 300.859375 428.144531 C 300.398438 427.90625 300.003906 427.503906 299.671875 426.941406 C 299.347656 426.378906 299.101562 425.609375 298.9375 424.628906 C 298.769531 423.640625 298.6875 422.425781 298.6875 420.988281 C 298.6875 419.550781 298.769531 418.347656 298.9375 417.378906 C 299.101562 416.402344 299.347656 415.628906 299.671875 415.066406 C 300.003906 414.503906 300.398438 414.105469 300.859375 413.863281 Z M 300.328125 423.332031 L 304.265625 416.535156 C 303.910156 415.441406 303.320312 414.894531 302.5 414.894531 C 302.019531 414.894531 301.617188 415.074219 301.296875 415.425781 C 300.984375 415.769531 300.726562 416.402344 300.53125 417.316406 C 300.34375 418.234375 300.25 419.464844 300.25 421.003906 C 300.25 421.671875 300.273438 422.449219 300.328125 423.332031 Z M 300.671875 425.207031 C 301.003906 426.46875 301.613281 427.097656 302.5 427.097656 C 302.976562 427.097656 303.378906 426.925781 303.703125 426.582031 C 304.023438 426.238281 304.28125 425.609375 304.46875 424.691406 C 304.65625 423.765625 304.75 422.535156 304.75 421.003906 C 304.75 419.964844 304.707031 419.078125 304.625 418.347656 Z M 314.390625 415.175781 L 314.390625 415.144531 L 309 415.144531 L 309 413.691406 L 316 413.691406 L 316 415.144531 C 314.289062 419.09375 312.890625 423.480469 311.796875 428.300781 L 310.046875 428.300781 C 311.160156 423.59375 312.609375 419.21875 314.390625 415.175781 Z M 319.5 422.910156 L 319.5 421.472656 L 325.515625 421.472656 L 325.515625 422.910156 Z M 332.65625 428.300781 L 332.65625 415.394531 L 332.625 415.378906 L 329.15625 417.394531 L 329.15625 415.800781 L 332.65625 413.691406 L 334.296875 413.691406 L 334.296875 428.300781 Z M 342.65625 428.300781 L 342.65625 415.394531 L 342.625 415.378906 L 339.15625 417.394531 L 339.15625 415.800781 L 342.65625 413.691406 L 344.296875 413.691406 L 344.296875 428.300781 Z M 297.5 409.402344 "/>
<path style=" stroke:none;fill-rule:nonzero;fill:rgb(65.882353%,63.529412%,61.960784%);fill-opacity:1;" d="M 574.359375 413.863281 C 574.816406 413.625 575.363281 413.503906 576 413.503906 C 576.632812 413.503906 577.179688 413.625 577.640625 413.863281 C 578.097656 414.105469 578.492188 414.503906 578.828125 415.066406 C 579.160156 415.628906 579.40625 416.402344 579.5625 417.378906 C 579.726562 418.347656 579.8125 419.550781 579.8125 420.988281 C 579.8125 422.425781 579.726562 423.640625 579.5625 424.628906 C 579.40625 425.609375 579.160156 426.378906 578.828125 426.941406 C 578.492188 427.503906 578.097656 427.90625 577.640625 428.144531 C 577.179688 428.386719 576.632812 428.503906 576 428.503906 C 575.363281 428.503906 574.816406 428.386719 574.359375 428.144531 C 573.898438 427.90625 573.503906 427.503906 573.171875 426.941406 C 572.847656 426.378906 572.601562 425.609375 572.4375 424.628906 C 572.269531 423.640625 572.1875 422.425781 572.1875 420.988281 C 572.1875 419.550781 572.269531 418.347656 572.4375 417.378906 C 572.601562 416.402344 572.847656 415.628906 573.171875 415.066406 C 573.503906 414.503906 573.898438 414.105469 574.359375 413.863281 Z M 573.828125 423.332031 L 577.765625 416.535156 C 577.410156 415.441406 576.820312 414.894531 576 414.894531 C 575.519531 414.894531 575.117188 415.074219 574.796875 415.425781 C 574.484375 415.769531 574.226562 416.402344 574.03125 417.316406 C 573.84375 418.234375 573.75 419.464844 573.75 421.003906 C 573.75 421.671875 573.773438 422.449219 573.828125 423.332031 Z M 574.171875 425.207031 C 574.503906 426.46875 575.113281 427.097656 576 427.097656 C 576.476562 427.097656 576.878906 426.925781 577.203125 426.582031 C 577.523438 426.238281 577.78125 425.609375 577.96875 424.691406 C 578.15625 423.765625 578.25 422.535156 578.25 421.003906 C 578.25 419.964844 578.207031 419.078125 578.125 418.347656 Z M 587.890625 415.175781 L 587.890625 415.144531 L 582.5 415.144531 L 582.5 413.691406 L 589.5 413.691406 L 589.5 415.144531 C 587.789062 419.09375 586.390625 423.480469 585.296875 428.300781 L 583.546875 428.300781 C 584.660156 423.59375 586.109375 419.21875 587.890625 415.175781 Z M 593 422.910156 L 593 421.472656 L 599.015625 421.472656 L 599.015625 422.910156 Z M 606.15625 428.300781 L 606.15625 415.394531 L 606.125 415.378906 L 602.65625 417.394531 L 602.65625 415.800781 L 606.15625 413.691406 L 607.796875 413.691406 L 607.796875 428.300781 Z M 614.5 426.816406 L 614.5 426.863281 L 619.40625 426.863281 L 619.40625 428.300781 L 612.609375 428.300781 L 612.609375 426.863281 C 615.953125 423.019531 617.625 419.828125 617.625 417.285156 C 617.625 415.753906 617.003906 414.988281 615.765625 414.988281 C 615.359375 414.988281 614.847656 415.140625 614.234375 415.441406 C 613.628906 415.734375 613.085938 416.097656 612.609375 416.535156 L 612.609375 414.785156 C 613.609375 413.933594 614.738281 413.503906 616 413.503906 C 617.132812 413.503906 617.96875 413.816406 618.5 414.441406 C 619.03125 415.066406 619.296875 416.015625 619.296875 417.285156 C 619.296875 418.621094 618.9375 420.015625 618.21875 421.472656 C 617.5 422.921875 616.257812 424.703125 614.5 426.816406 Z M 571 409.402344 "/>
<path style=" stroke:none;fill-rule:nonzero;fill:rgb(65.882353%,63.529412%,61.960784%);fill-opacity:1;" d="M 847.859375 413.863281 C 848.316406 413.625 848.863281 413.503906 849.5 413.503906 C 850.132812 413.503906 850.679688 413.625 851.140625 413.863281 C 851.597656 414.105469 851.992188 414.503906 852.328125 415.066406 C 852.660156 415.628906 852.90625 416.402344 853.0625 417.378906 C 853.226562 418.347656 853.3125 419.550781 853.3125 420.988281 C 853.3125 422.425781 853.226562 423.640625 853.0625 424.628906 C 852.90625 425.609375 852.660156 426.378906 852.328125 426.941406 C 851.992188 427.503906 851.597656 427.90625 851.140625 428.144531 C 850.679688 428.386719 850.132812 428.503906 849.5 428.503906 C 848.863281 428.503906 848.316406 428.386719 847.859375 428.144531 C 847.398438 427.90625 847.003906 427.503906 846.671875 426.941406 C 846.347656 426.378906 846.101562 425.609375 845.9375 424.628906 C 845.769531 423.640625 845.6875 422.425781 845.6875 420.988281 C 845.6875 419.550781 845.769531 418.347656 845.9375 417.378906 C 846.101562 416.402344 846.347656 415.628906 846.671875 415.066406 C 847.003906 414.503906 847.398438 414.105469 847.859375 413.863281 Z M 847.328125 423.332031 L 851.265625 416.535156 C 850.910156 415.441406 850.320312 414.894531 849.5 414.894531 C 849.019531 414.894531 848.617188 415.074219 848.296875 415.425781 C 847.984375 415.769531 847.726562 416.402344 847.53125 417.316406 C 847.34375 418.234375 847.25 419.464844 847.25 421.003906 C 847.25 421.671875 847.273438 422.449219 847.328125 423.332031 Z M 847.671875 425.207031 C 848.003906 426.46875 848.613281 427.097656 849.5 427.097656 C 849.976562 427.097656 850.378906 426.925781 850.703125 426.582031 C 851.023438 426.238281 851.28125 425.609375 851.46875 424.691406 C 851.65625 423.765625 851.75 422.535156 851.75 421.003906 C 851.75 419.964844 851.707031 419.078125 851.625 418.347656 Z M 861.390625 415.175781 L 861.390625 415.144531 L 856 415.144531 L 856 413.691406 L 863 413.691406 L 863 415.144531 C 861.289062 419.09375 859.890625 423.480469 858.796875 428.300781 L 857.046875 428.300781 C 858.160156 423.59375 859.609375 419.21875 861.390625 415.175781 Z M 866.5 422.910156 L 866.5 421.472656 L 872.515625 421.472656 L 872.515625 422.910156 Z M 879.65625 428.300781 L 879.65625 415.394531 L 879.625 415.378906 L 876.15625 417.394531 L 876.15625 415.800781 L 879.65625 413.691406 L 881.296875 413.691406 L 881.296875 428.300781 Z M 891.109375 415.175781 L 891.109375 415.144531 L 886.109375 415.144531 L 886.109375 413.691406 L 893 413.691406 L 893 415.144531 L 889.40625 419.707031 L 889.40625 419.753906 L 889.59375 419.753906 C 890.8125 419.753906 891.695312 420.097656 892.25 420.785156 C 892.8125 421.464844 893.09375 422.574219 893.09375 424.113281 C 893.09375 427.042969 891.796875 428.503906 889.203125 428.503906 C 888.234375 428.503906 887.265625 428.300781 886.296875 427.894531 L 886.296875 426.160156 C 887.328125 426.734375 888.191406 427.019531 888.890625 427.019531 C 889.753906 427.019531 890.390625 426.792969 890.796875 426.332031 C 891.210938 425.863281 891.421875 425.125 891.421875 424.113281 C 891.421875 422.917969 891.253906 422.128906 890.921875 421.753906 C 890.585938 421.378906 889.910156 421.191406 888.890625 421.191406 L 887.515625 421.191406 L 887.515625 419.753906 Z M 844.5 409.402344 "/>
<path style=" stroke:none;fill-rule:nonzero;fill:rgb(65.882353%,63.529412%,61.960784%);fill-opacity:1;" d="M 1121.359375 413.863281 C 1121.816406 413.625 1122.363281 413.503906 1123 413.503906 C 1123.632812 413.503906 1124.179688 413.625 1124.640625 413.863281 C 1125.097656 414.105469 1125.492188 414.503906 1125.828125 415.066406 C 1126.160156 415.628906 1126.40625 416.402344 1126.5625 417.378906 C 1126.726562 418.347656 1126.8125 419.550781 1126.8125 420.988281 C 1126.8125 422.425781 1126.726562 423.640625 1126.5625 424.628906 C 1126.40625 425.609375 1126.160156 426.378906 1125.828125 426.941406 C 1125.492188 427.503906 1125.097656 427.90625 1124.640625 428.144531 C 1124.179688 428.386719 1123.632812 428.503906 1123 428.503906 C 1122.363281 428.503906 1121.816406 428.386719 1121.359375 428.144531 C 1120.898438 427.90625 1120.503906 427.503906 1120.171875 426.941406 C 1119.847656 426.378906 1119.601562 425.609375 1119.4375 424.628906 C 1119.269531 423.640625 1119.1875 422.425781 1119.1875 420.988281 C 1119.1875 419.550781 1119.269531 418.347656 1119.4375 417.378906 C 1119.601562 416.402344 1119.847656 415.628906 1120.171875 415.066406 C 1120.503906 414.503906 1120.898438 414.105469 1121.359375 413.863281 Z M 1120.828125 423.332031 L 1124.765625 416.535156 C 1124.410156 415.441406 1123.820312 414.894531 1123 414.894531 C 1122.519531 414.894531 1122.117188 415.074219 1121.796875 415.425781 C 1121.484375 415.769531 1121.226562 416.402344 1121.03125 417.316406 C 1120.84375 418.234375 1120.75 419.464844 1120.75 421.003906 C 1120.75 421.671875 1120.773438 422.449219 1120.828125 423.332031 Z M 1121.171875 425.207031 C 1121.503906 426.46875 1122.113281 427.097656 1123 427.097656 C 1123.476562 427.097656 1123.878906 426.925781 1124.203125 426.582031 C 1124.523438 426.238281 1124.78125 425.609375 1124.96875 424.691406 C 1125.15625 423.765625 1125.25 422.535156 1125.25 421.003906 C 1125.25 419.964844 1125.207031 419.078125 1125.125 418.347656 Z M 1134.890625 415.175781 L 1134.890625 415.144531 L 1129.5 415.144531 L 1129.5 413.691406 L 1136.5 413.691406 L 1136.5 415.144531 C 1134.789062 419.09375 1133.390625 423.480469 1132.296875 428.300781 L 1130.546875 428.300781 C 1131.660156 423.59375 1133.109375 419.21875 1134.890625 415.175781 Z M 1140 422.910156 L 1140 421.472656 L 1146.015625 421.472656 L 1146.015625 422.910156 Z M 1153.15625 428.300781 L 1153.15625 415.394531 L 1153.125 415.378906 L 1149.65625 417.394531 L 1149.65625 415.800781 L 1153.15625 413.691406 L 1154.796875 413.691406 L 1154.796875 428.300781 Z M 1163.859375 416.488281 L 1163.828125 416.488281 L 1160.328125 423.332031 L 1160.328125 423.363281 L 1163.859375 423.363281 Z M 1163.859375 424.785156 L 1158.796875 424.785156 L 1158.796875 423.144531 L 1163.671875 413.691406 L 1165.5 413.691406 L 1165.5 423.363281 L 1167.203125 423.363281 L 1167.203125 424.785156 L 1165.5 424.785156 L 1165.5 428.300781 L 1163.859375 428.300781 Z M 1118 409.402344 "/>
<path style=" stroke:none;fill-rule:nonzero;fill:rgb(65.882353%,63.529412%,61.960784%);fill-opacity:1;" d="M 1394.859375 413.863281 C 1395.316406 413.625 1395.863281 413.503906 1396.5 413.503906 C 1397.132812 413.503906 1397.679688 413.625 1398.140625 413.863281 C 1398.597656 414.105469 1398.992188 414.503906 1399.328125 415.066406 C 1399.660156 415.628906 1399.90625 416.402344 1400.0625 417.378906 C 1400.226562 418.347656 1400.3125 419.550781 1400.3125 420.988281 C 1400.3125 422.425781 1400.226562 423.640625 1400.0625 424.628906 C 1399.90625 425.609375 1399.660156 426.378906 1399.328125 426.941406 C 1398.992188 427.503906 1398.597656 427.90625 1398.140625 428.144531 C 1397.679688 428.386719 1397.132812 428.503906 1396.5 428.503906 C 1395.863281 428.503906 1395.316406 428.386719 1394.859375 428.144531 C 1394.398438 427.90625 1394.003906 427.503906 1393.671875 426.941406 C 1393.347656 426.378906 1393.101562 425.609375 1392.9375 424.628906 C 1392.769531 423.640625 1392.6875 422.425781 1392.6875 420.988281 C 1392.6875 419.550781 1392.769531 418.347656 1392.9375 417.378906 C 1393.101562 416.402344 1393.347656 415.628906 1393.671875 415.066406 C 1394.003906 414.503906 1394.398438 414.105469 1394.859375 413.863281 Z M 1394.328125 423.332031 L 1398.265625 416.535156 C 1397.910156 415.441406 1397.320312 414.894531 1396.5 414.894531 C 1396.019531 414.894531 1395.617188 415.074219 1395.296875 415.425781 C 1394.984375 415.769531 1394.726562 416.402344 1394.53125 417.316406 C 1394.34375 418.234375 1394.25 419.464844 1394.25 421.003906 C 1394.25 421.671875 1394.273438 422.449219 1394.328125 423.332031 Z M 1394.671875 425.207031 C 1395.003906 426.46875 1395.613281 427.097656 1396.5 427.097656 C 1396.976562 427.097656 1397.378906 426.925781 1397.703125 426.582031 C 1398.023438 426.238281 1398.28125 425.609375 1398.46875 424.691406 C 1398.65625 423.765625 1398.75 422.535156 1398.75 421.003906 C 1398.75 419.964844 1398.707031 419.078125 1398.625 418.347656 Z M 1408.390625 415.175781 L 1408.390625 415.144531 L 1403 415.144531 L 1403 413.691406 L 1410 413.691406 L 1410 415.144531 C 1408.289062 419.09375 1406.890625 423.480469 1405.796875 428.300781 L 1404.046875 428.300781 C 1405.160156 423.59375 1406.609375 419.21875 1408.390625 415.175781 Z M 1413.5 422.910156 L 1413.5 421.472656 L 1419.515625 421.472656 L 1419.515625 422.910156 Z M 1426.65625 428.300781 L 1426.65625 415.394531 L 1426.625 415.378906 L 1423.15625 417.394531 L 1423.15625 415.800781 L 1426.65625 413.691406 L 1428.296875 413.691406 L 1428.296875 428.300781 Z M 1435.09375 419.691406 L 1435.140625 419.691406 C 1435.578125 419.308594 1436.160156 419.113281 1436.890625 419.113281 C 1439.023438 419.113281 1440.09375 420.640625 1440.09375 423.691406 C 1440.09375 425.359375 1439.765625 426.578125 1439.109375 427.347656 C 1438.453125 428.121094 1437.484375 428.503906 1436.203125 428.503906 C 1435.210938 428.503906 1434.242188 428.300781 1433.296875 427.894531 L 1433.296875 426.160156 C 1434.296875 426.734375 1435.234375 427.019531 1436.109375 427.019531 C 1437.648438 427.019531 1438.421875 425.910156 1438.421875 423.691406 C 1438.421875 421.609375 1437.78125 420.566406 1436.5 420.566406 C 1435.882812 420.566406 1435.351562 420.84375 1434.90625 421.394531 L 1433.390625 421.394531 L 1433.609375 413.691406 L 1439.703125 413.691406 L 1439.703125 415.144531 L 1435.234375 415.144531 Z M 1391.5 409.402344 "/>
<path style=" stroke:none;fill-rule:nonzero;fill:rgb(65.882353%,63.529412%,61.960784%);fill-opacity:1;" d="M 1668.359375 413.863281 C 1668.816406 413.625 1669.363281 413.503906 1670 413.503906 C 1670.632812 413.503906 1671.179688 413.625 1671.640625 413.863281 C 1672.097656 414.105469 1672.492188 414.503906 1672.828125 415.066406 C 1673.160156 415.628906 1673.40625 416.402344 1673.5625 417.378906 C 1673.726562 418.347656 1673.8125 419.550781 1673.8125 420.988281 C 1673.8125 422.425781 1673.726562 423.640625 1673.5625 424.628906 C 1673.40625 425.609375 1673.160156 426.378906 1672.828125 426.941406 C 1672.492188 427.503906 1672.097656 427.90625 1671.640625 428.144531 C 1671.179688 428.386719 1670.632812 428.503906 1670 428.503906 C 1669.363281 428.503906 1668.816406 428.386719 1668.359375 428.144531 C 1667.898438 427.90625 1667.503906 427.503906 1667.171875 426.941406 C 1666.847656 426.378906 1666.601562 425.609375 1666.4375 424.628906 C 1666.269531 423.640625 1666.1875 422.425781 1666.1875 420.988281 C 1666.1875 419.550781 1666.269531 418.347656 1666.4375 417.378906 C 1666.601562 416.402344 1666.847656 415.628906 1667.171875 415.066406 C 1667.503906 414.503906 1667.898438 414.105469 1668.359375 413.863281 Z M 1667.828125 423.332031 L 1671.765625 416.535156 C 1671.410156 415.441406 1670.820312 414.894531 1670 414.894531 C 1669.519531 414.894531 1669.117188 415.074219 1668.796875 415.425781 C 1668.484375 415.769531 1668.226562 416.402344 1668.03125 417.316406 C 1667.84375 418.234375 1667.75 419.464844 1667.75 421.003906 C 1667.75 421.671875 1667.773438 422.449219 1667.828125 423.332031 Z M 1668.171875 425.207031 C 1668.503906 426.46875 1669.113281 427.097656 1670 427.097656 C 1670.476562 427.097656 1670.878906 426.925781 1671.203125 426.582031 C 1671.523438 426.238281 1671.78125 425.609375 1671.96875 424.691406 C 1672.15625 423.765625 1672.25 422.535156 1672.25 421.003906 C 1672.25 419.964844 1672.207031 419.078125 1672.125 418.347656 Z M 1681.890625 415.175781 L 1681.890625 415.144531 L 1676.5 415.144531 L 1676.5 413.691406 L 1683.5 413.691406 L 1683.5 415.144531 C 1681.789062 419.09375 1680.390625 423.480469 1679.296875 428.300781 L 1677.546875 428.300781 C 1678.660156 423.59375 1680.109375 419.21875 1681.890625 415.175781 Z M 1687 422.910156 L 1687 421.472656 L 1693.015625 421.472656 L 1693.015625 422.910156 Z M 1700.15625 428.300781 L 1700.15625 415.394531 L 1700.125 415.378906 L 1696.65625 417.394531 L 1696.65625 415.800781 L 1700.15625 413.691406 L 1701.796875 413.691406 L 1701.796875 428.300781 Z M 1710.703125 413.503906 C 1711.515625 413.503906 1712.285156 413.636719 1713.015625 413.894531 L 1713.015625 415.441406 C 1712.335938 415.109375 1711.632812 414.941406 1710.90625 414.941406 C 1709.96875 414.941406 1709.289062 415.265625 1708.875 415.910156 C 1708.46875 416.558594 1708.210938 417.785156 1708.109375 419.597656 L 1708.140625 419.597656 C 1708.804688 418.933594 1709.554688 418.597656 1710.390625 418.597656 C 1711.566406 418.597656 1712.429688 418.972656 1712.984375 419.722656 C 1713.535156 420.472656 1713.8125 421.703125 1713.8125 423.410156 C 1713.8125 425.191406 1713.5 426.488281 1712.875 427.300781 C 1712.25 428.105469 1711.320312 428.503906 1710.09375 428.503906 C 1709.238281 428.503906 1708.550781 428.3125 1708.03125 427.925781 C 1707.507812 427.542969 1707.109375 426.863281 1706.828125 425.894531 C 1706.546875 424.925781 1706.40625 423.59375 1706.40625 421.894531 C 1706.40625 419.792969 1706.570312 418.113281 1706.90625 416.863281 C 1707.25 415.613281 1707.722656 414.746094 1708.328125 414.253906 C 1708.929688 413.753906 1709.722656 413.503906 1710.703125 413.503906 Z M 1710.09375 427.050781 C 1710.8125 427.050781 1711.335938 426.792969 1711.671875 426.269531 C 1712.003906 425.75 1712.171875 424.796875 1712.171875 423.410156 C 1712.171875 422.140625 1712.007812 421.253906 1711.6875 420.753906 C 1711.375 420.253906 1710.878906 420.003906 1710.203125 420.003906 C 1708.796875 420.003906 1708.09375 421.066406 1708.09375 423.191406 C 1708.09375 424.621094 1708.253906 425.621094 1708.578125 426.191406 C 1708.910156 426.765625 1709.414062 427.050781 1710.09375 427.050781 Z M 1665 409.402344 "/>
<path style="fill:none;stroke-width:1;stroke-linecap:butt;stroke-linejoin:miter;stroke:rgb(0%,0%,0%);stroke-opacity:0.0980392;stroke-miterlimit:10;" d="M 24 32.5 L 24 194.5 " transform="matrix(2,0,0,2,0,0)"/>
<path style=" stroke:none;fill-rule:nonzero;fill:rgb(65.882353%,63.529412%,61.960784%);fill-opacity:1;" d="M 19.359375 379.863281 C 19.816406 379.625 20.363281 379.503906 21 379.503906 C 21.632812 379.503906 22.179688 379.625 22.640625 379.863281 C 23.097656 380.105469 23.492188 380.503906 23.828125 381.066406 C 24.160156 381.628906 24.40625 382.402344 24.5625 383.378906 C 24.726562 384.347656 24.8125 385.550781 24.8125 386.988281 C 24.8125 388.425781 24.726562 389.640625 24.5625 390.628906 C 24.40625 391.609375 24.160156 392.378906 23.828125 392.941406 C 23.492188 393.503906 23.097656 393.90625 22.640625 394.144531 C 22.179688 394.386719 21.632812 394.503906 21 394.503906 C 20.363281 394.503906 19.816406 394.386719 19.359375 394.144531 C 18.898438 393.90625 18.503906 393.503906 18.171875 392.941406 C 17.847656 392.378906 17.601562 391.609375 17.4375 390.628906 C 17.269531 389.640625 17.1875 388.425781 17.1875 386.988281 C 17.1875 385.550781 17.269531 384.347656 17.4375 383.378906 C 17.601562 382.402344 17.847656 381.628906 18.171875 381.066406 C 18.503906 380.503906 18.898438 380.105469 19.359375 379.863281 Z M 18.828125 389.332031 L 22.765625 382.535156 C 22.410156 381.441406 21.820312 380.894531 21 380.894531 C 20.519531 380.894531 20.117188 381.074219 19.796875 381.425781 C 19.484375 381.769531 19.226562 382.402344 19.03125 383.316406 C 18.84375 384.234375 18.75 385.464844 18.75 387.003906 C 18.75 387.671875 18.773438 388.449219 18.828125 389.332031 Z M 19.171875 391.207031 C 19.503906 392.46875 20.113281 393.097656 21 393.097656 C 21.476562 393.097656 21.878906 392.925781 22.203125 392.582031 C 22.523438 392.238281 22.78125 391.609375 22.96875 390.691406 C 23.15625 389.765625 23.25 388.535156 23.25 387.003906 C 23.25 385.964844 23.207031 385.078125 23.125 384.347656 Z M 16 375.402344 "/>
<path style=" stroke:none;fill-rule:nonzero;fill:rgb(65.882353%,63.529412%,61.960784%);fill-opacity:1;" d="M 19.5 334.34375 L 19.5 334.390625 L 24.40625 334.390625 L 24.40625 335.828125 L 17.609375 335.828125 L 17.609375 334.390625 C 20.953125 330.546875 22.625 327.355469 22.625 324.8125 C 22.625 323.28125 22.003906 322.515625 20.765625 322.515625 C 20.359375 322.515625 19.847656 322.667969 19.234375 322.96875 C 18.628906 323.261719 18.085938 323.625 17.609375 324.0625 L 17.609375 322.3125 C 18.609375 321.460938 19.738281 321.03125 21 321.03125 C 22.132812 321.03125 22.96875 321.34375 23.5 321.96875 C 24.03125 322.59375 24.296875 323.542969 24.296875 324.8125 C 24.296875 326.148438 23.9375 327.542969 23.21875 329 C 22.5 330.449219 21.257812 332.230469 19.5 334.34375 Z M 16 316.929688 "/>
<path style=" stroke:none;fill-rule:nonzero;fill:rgb(65.882353%,63.529412%,61.960784%);fill-opacity:1;" d="M 21.859375 265.542969 L 21.828125 265.542969 L 18.328125 272.386719 L 18.328125 272.417969 L 21.859375 272.417969 Z M 21.859375 273.839844 L 16.796875 273.839844 L 16.796875 272.199219 L 21.671875 262.746094 L 23.5 262.746094 L 23.5 272.417969 L 25.203125 272.417969 L 25.203125 273.839844 L 23.5 273.839844 L 23.5 277.355469 L 21.859375 277.355469 Z M 16 258.457031 "/>
<path style=" stroke:none;fill-rule:nonzero;fill:rgb(65.882353%,63.529412%,61.960784%);fill-opacity:1;" d="M 21.703125 204.085938 C 22.515625 204.085938 23.285156 204.21875 24.015625 204.476562 L 24.015625 206.023438 C 23.335938 205.691406 22.632812 205.523438 21.90625 205.523438 C 20.96875 205.523438 20.289062 205.847656 19.875 206.492188 C 19.46875 207.140625 19.210938 208.367188 19.109375 210.179688 L 19.140625 210.179688 C 19.804688 209.515625 20.554688 209.179688 21.390625 209.179688 C 22.566406 209.179688 23.429688 209.554688 23.984375 210.304688 C 24.535156 211.054688 24.8125 212.285156 24.8125 213.992188 C 24.8125 215.773438 24.5 217.070312 23.875 217.882812 C 23.25 218.6875 22.320312 219.085938 21.09375 219.085938 C 20.238281 219.085938 19.550781 218.894531 19.03125 218.507812 C 18.507812 218.125 18.109375 217.445312 17.828125 216.476562 C 17.546875 215.507812 17.40625 214.175781 17.40625 212.476562 C 17.40625 210.375 17.570312 208.695312 17.90625 207.445312 C 18.25 206.195312 18.722656 205.328125 19.328125 204.835938 C 19.929688 204.335938 20.722656 204.085938 21.703125 204.085938 Z M 21.09375 217.632812 C 21.8125 217.632812 22.335938 217.375 22.671875 216.851562 C 23.003906 216.332031 23.171875 215.378906 23.171875 213.992188 C 23.171875 212.722656 23.007812 211.835938 22.6875 211.335938 C 22.375 210.835938 21.878906 210.585938 21.203125 210.585938 C 19.796875 210.585938 19.09375 211.648438 19.09375 213.773438 C 19.09375 215.203125 19.253906 216.203125 19.578125 216.773438 C 19.910156 217.347656 20.414062 217.632812 21.09375 217.632812 Z M 16 199.984375 "/>
<path style=" stroke:none;fill-rule:nonzero;fill:rgb(65.882353%,63.529412%,61.960784%);fill-opacity:1;" d="M 21.09375 147.003906 C 20.394531 147.003906 19.851562 147.191406 19.46875 147.566406 C 19.082031 147.933594 18.890625 148.449219 18.890625 149.113281 C 18.890625 149.824219 19.082031 150.449219 19.46875 150.988281 C 19.863281 151.519531 20.375 151.859375 21 152.003906 C 21.6875 151.816406 22.222656 151.472656 22.609375 150.972656 C 22.992188 150.472656 23.1875 149.855469 23.1875 149.113281 C 23.1875 148.488281 22.992188 147.984375 22.609375 147.597656 C 22.222656 147.203125 21.71875 147.003906 21.09375 147.003906 Z M 23.953125 159.597656 C 23.265625 160.277344 22.28125 160.613281 21 160.613281 C 19.726562 160.613281 18.742188 160.277344 18.046875 159.597656 C 17.347656 158.910156 17 157.917969 17 156.613281 C 17 155.699219 17.21875 154.902344 17.65625 154.222656 C 18.101562 153.546875 18.71875 153.046875 19.5 152.722656 L 19.5 152.675781 C 18.863281 152.386719 18.335938 151.902344 17.921875 151.222656 C 17.515625 150.546875 17.3125 149.84375 17.3125 149.113281 C 17.3125 148.019531 17.632812 147.167969 18.28125 146.550781 C 18.9375 145.925781 19.84375 145.613281 21 145.613281 C 22.15625 145.613281 23.054688 145.925781 23.703125 146.550781 C 24.359375 147.175781 24.6875 148.03125 24.6875 149.113281 C 24.6875 149.855469 24.484375 150.542969 24.078125 151.175781 C 23.679688 151.8125 23.15625 152.28125 22.5 152.582031 L 22.5 152.628906 C 23.28125 152.941406 23.890625 153.441406 24.328125 154.128906 C 24.773438 154.816406 25 155.644531 25 156.613281 C 25 157.917969 24.648438 158.910156 23.953125 159.597656 Z M 21.09375 159.207031 C 21.800781 159.207031 22.363281 158.988281 22.78125 158.550781 C 23.195312 158.105469 23.40625 157.457031 23.40625 156.613281 C 23.40625 154.875 22.570312 153.808594 20.90625 153.410156 C 20.082031 153.628906 19.476562 153.996094 19.09375 154.503906 C 18.707031 155.003906 18.515625 155.707031 18.515625 156.613281 C 18.515625 157.425781 18.75 158.0625 19.21875 158.519531 C 19.6875 158.980469 20.3125 159.207031 21.09375 159.207031 Z M 16 141.511719 "/>
<path style=" stroke:none;fill-rule:nonzero;fill:rgb(65.882353%,63.529412%,61.960784%);fill-opacity:1;" d="M 11.15625 101.9375 L 11.15625 89.03125 L 11.125 89.015625 L 7.65625 91.03125 L 7.65625 89.4375 L 11.15625 87.328125 L 12.796875 87.328125 L 12.796875 101.9375 Z M 19.359375 87.5 C 19.816406 87.261719 20.363281 87.140625 21 87.140625 C 21.632812 87.140625 22.179688 87.261719 22.640625 87.5 C 23.097656 87.742188 23.492188 88.140625 23.828125 88.703125 C 24.160156 89.265625 24.40625 90.039062 24.5625 91.015625 C 24.726562 91.984375 24.8125 93.1875 24.8125 94.625 C 24.8125 96.0625 24.726562 97.277344 24.5625 98.265625 C 24.40625 99.246094 24.160156 100.015625 23.828125 100.578125 C 23.492188 101.140625 23.097656 101.542969 22.640625 101.78125 C 22.179688 102.023438 21.632812 102.140625 21 102.140625 C 20.363281 102.140625 19.816406 102.023438 19.359375 101.78125 C 18.898438 101.542969 18.503906 101.140625 18.171875 100.578125 C 17.847656 100.015625 17.601562 99.246094 17.4375 98.265625 C 17.269531 97.277344 17.1875 96.0625 17.1875 94.625 C 17.1875 93.1875 17.269531 91.984375 17.4375 91.015625 C 17.601562 90.039062 17.847656 89.265625 18.171875 88.703125 C 18.503906 88.140625 18.898438 87.742188 19.359375 87.5 Z M 18.828125 96.96875 L 22.765625 90.171875 C 22.410156 89.078125 21.820312 88.53125 21 88.53125 C 20.519531 88.53125 20.117188 88.710938 19.796875 89.0625 C 19.484375 89.40625 19.226562 90.039062 19.03125 90.953125 C 18.84375 91.871094 18.75 93.101562 18.75 94.640625 C 18.75 95.308594 18.773438 96.085938 18.828125 96.96875 Z M 19.171875 98.84375 C 19.503906 100.105469 20.113281 100.734375 21 100.734375 C 21.476562 100.734375 21.878906 100.5625 22.203125 100.21875 C 22.523438 99.875 22.78125 99.246094 22.96875 98.328125 C 23.15625 97.402344 23.25 96.171875 23.25 94.640625 C 23.25 93.601562 23.207031 92.714844 23.125 91.984375 Z M 6 83.039062 "/>
<g clip-path="url(#5zt1iTJV6Z__clip1)" clip-rule="nonzero">
<path style=" stroke:none;fill-rule:nonzero;fill:rgb(14.509804%,38.823529%,92.156863%);fill-opacity:0.2;" d="M 48 358.761719 C 130.050781 367.535156 239.21875 383.601562 321.5 388 C 403.316406 388 512.949219 388 595 388 C 677.050781 388 803.984375 388 868.5 388 C 968.085938 329.449219 1059.949219 66.398438 1142 66.398438 C 1224.050781 66.398438 1315.914062 329.449219 1415.5 388 C 1480.015625 388 1606.949219 388 1689 388 L 48 388 Z M 48 358.761719 "/>
</g>
<g clip-path="url(#5zt1iTJV6Z__clip2)" clip-rule="nonzero">
<path style="fill:none;stroke-width:3;stroke-linecap:butt;stroke-linejoin:miter;stroke:rgb(11.372549%,30.588235%,84.705882%);stroke-opacity:1;stroke-miterlimit:10;" d="M 24 179.380859 C 65.025391 183.767578 119.609375 191.800781 160.75 194 C 201.658203 194 256.474609 194 297.5 194 C 338.525391 194 401.992188 194 434.25 194 C 484.042969 164.724609 529.974609 33.199219 571 33.199219 C 612.025391 33.199219 657.957031 164.724609 707.75 194 C 740.007812 194 803.474609 194 844.5 194 " transform="matrix(2,0,0,2,0,0)"/>
</g>
<path style=" stroke:none;fill-rule:nonzero;fill:rgb(11.372549%,30.588235%,84.705882%);fill-opacity:1;" d="M 58 358.761719 C 58 364.285156 53.523438 368.761719 48 368.761719 C 42.476562 368.761719 38 364.285156 38 358.761719 C 38 353.242188 42.476562 348.761719 48 348.761719 C 53.523438 348.761719 58 353.242188 58 358.761719 Z M 58 358.761719 "/>
<g clip-path="url(#5zt1iTJV6Z__clip3)" clip-rule="nonzero">
<path style="fill:none;stroke-width:2;stroke-linecap:butt;stroke-linejoin:miter;stroke:rgb(96.078431%,96.078431%,95.686275%);stroke-opacity:1;stroke-miterlimit:10;" d="M 29 179.380859 C 29 182.142578 26.761719 184.380859 24 184.380859 C 21.238281 184.380859 19 182.142578 19 179.380859 C 19 176.621094 21.238281 174.380859 24 174.380859 C 26.761719 174.380859 29 176.621094 29 179.380859 Z M 29 179.380859 " transform="matrix(2,0,0,2,0,0)"/>
</g>
<path style=" stroke:none;fill-rule:nonzero;fill:rgb(11.372549%,30.588235%,84.705882%);fill-opacity:1;" d="M 331.5 388 C 331.5 393.523438 327.023438 398 321.5 398 C 315.976562 398 311.5 393.523438 311.5 388 C 311.5 382.476562 315.976562 378 321.5 378 C 327.023438 378 331.5 382.476562 331.5 388 Z M 331.5 388 "/>
<g clip-path="url(#5zt1iTJV6Z__clip4)" clip-rule="nonzero">
<path style="fill:none;stroke-width:2;stroke-linecap:butt;stroke-linejoin:miter;stroke:rgb(96.078431%,96.078431%,95.686275%);stroke-opacity:1;stroke-miterlimit:10;" d="M 165.75 194 C 165.75 196.761719 163.511719 199 160.75 199 C 157.988281 199 155.75 196.761719 155.75 194 C 155.75 191.238281 157.988281 189 160.75 189 C 163.511719 189 165.75 191.238281 165.75 194 Z M 165.75 194 " transform="matrix(2,0,0,2,0,0)"/>
</g>
<path style=" stroke:none;fill-rule:nonzero;fill:rgb(11.372549%,30.588235%,84.705882%);fill-opacity:1;" d="M 605 388 C 605 393.523438 600.523438 398 595 398 C 589.476562 398 585 393.523438 585 388 C 585 382.476562 589.476562 378 595 378 C 600.523438 378 605 382.476562 605 388 Z M 605 388 "/>
<g clip-path="url(#5zt1iTJV6Z__clip5)" clip-rule="nonzero">
<path style="fill:none;stroke-width:2;stroke-linecap:butt;stroke-linejoin:miter;stroke:rgb(96.078431%,96.078431%,95.686275%);stroke-opacity:1;stroke-miterlimit:10;" d="M 302.5 194 C 302.5 196.761719 300.261719 199 297.5 199 C 294.738281 199 292.5 196.761719 292.5 194 C 292.5 191.238281 294.738281 189 297.5 189 C 300.261719 189 302.5 191.238281 302.5 194 Z M 302.5 194 " transform="matrix(2,0,0,2,0,0)"/>
</g>
<path style=" stroke:none;fill-rule:nonzero;fill:rgb(11.372549%,30.588235%,84.705882%);fill-opacity:1;" d="M 878.5 388 C 878.5 393.523438 874.023438 398 868.5 398 C 862.976562 398 858.5 393.523438 858.5 388 C 858.5 382.476562 862.976562 378 868.5 378 C 874.023438 378 878.5 382.476562 878.5 388 Z M 878.5 388 "/>
<g clip-path="url(#5zt1iTJV6Z__clip6)" clip-rule="nonzero">
<path style="fill:none;stroke-width:2;stroke-linecap:butt;stroke-linejoin:miter;stroke:rgb(96.078431%,96.078431%,95.686275%);stroke-opacity:1;stroke-miterlimit:10;" d="M 439.25 194 C 439.25 196.761719 437.011719 199 434.25 199 C 431.488281 199 429.25 196.761719 429.25 194 C 429.25 191.238281 431.488281 189 434.25 189 C 437.011719 189 439.25 191.238281 439.25 194 Z M 439.25 194 " transform="matrix(2,0,0,2,0,0)"/>
</g>
<path style=" stroke:none;fill-rule:nonzero;fill:rgb(11.372549%,30.588235%,84.705882%);fill-opacity:1;" d="M 1152 66.398438 C 1152 71.921875 1147.523438 76.398438 1142 76.398438 C 1136.476562 76.398438 1132 71.921875 1132 66.398438 C 1132 60.878906 1136.476562 56.398438 1142 56.398438 C 1147.523438 56.398438 1152 60.878906 1152 66.398438 Z M 1152 66.398438 "/>
<g clip-path="url(#5zt1iTJV6Z__clip7)" clip-rule="nonzero">
<path style="fill:none;stroke-width:2;stroke-linecap:butt;stroke-linejoin:miter;stroke:rgb(96.078431%,96.078431%,95.686275%);stroke-opacity:1;stroke-miterlimit:10;" d="M 576 33.199219 C 576 35.960938 573.761719 38.199219 571 38.199219 C 568.238281 38.199219 566 35.960938 566 33.199219 C 566 30.439453 568.238281 28.199219 571 28.199219 C 573.761719 28.199219 576 30.439453 576 33.199219 Z M 576 33.199219 " transform="matrix(2,0,0,2,0,0)"/>
</g>
<path style=" stroke:none;fill-rule:nonzero;fill:rgb(11.372549%,30.588235%,84.705882%);fill-opacity:1;" d="M 1425.5 388 C 1425.5 393.523438 1421.023438 398 1415.5 398 C 1409.976562 398 1405.5 393.523438 1405.5 388 C 1405.5 382.476562 1409.976562 378 1415.5 378 C 1421.023438 378 1425.5 382.476562 1425.5 388 Z M 1425.5 388 "/>
<g clip-path="url(#5zt1iTJV6Z__clip8)" clip-rule="nonzero">
<path style="fill:none;stroke-width:2;stroke-linecap:butt;stroke-linejoin:miter;stroke:rgb(96.078431%,96.078431%,95.686275%);stroke-opacity:1;stroke-miterlimit:10;" d="M 712.75 194 C 712.75 196.761719 710.511719 199 707.75 199 C 704.988281 199 702.75 196.761719 702.75 194 C 702.75 191.238281 704.988281 189 707.75 189 C 710.511719 189 712.75 191.238281 712.75 194 Z M 712.75 194 " transform="matrix(2,0,0,2,0,0)"/>
</g>
<path style=" stroke:none;fill-rule:nonzero;fill:rgb(11.372549%,30.588235%,84.705882%);fill-opacity:1;" d="M 1699 388 C 1699 393.523438 1694.523438 398 1689 398 C 1683.476562 398 1679 393.523438 1679 388 C 1679 382.476562 1683.476562 378 1689 378 C 1694.523438 378 1699 382.476562 1699 388 Z M 1699 388 "/>
<g clip-path="url(#5zt1iTJV6Z__clip9)" clip-rule="nonzero">
<path style="fill:none;stroke-width:2;stroke-linecap:butt;stroke-linejoin:miter;stroke:rgb(96.078431%,96.078431%,95.686275%);stroke-opacity:1;stroke-miterlimit:10;" d="M 849.5 194 C 849.5 196.761719 847.261719 199 844.5 199 C 841.738281 199 839.5 196.761719 839.5 194 C 839.5 191.238281 841.738281 189 844.5 189 C 847.261719 189 849.5 191.238281 849.5 194 Z M 849.5 194 " transform="matrix(2,0,0,2,0,0)"/>
</g>
<path style=" stroke:none;fill-rule:nonzero;fill:rgb(34.117647%,32.54902%,30.588235%);fill-opacity:1;" d="M 1689.359375 341.863281 C 1689.816406 341.625 1690.363281 341.503906 1691 341.503906 C 1691.632812 341.503906 1692.179688 341.625 1692.640625 341.863281 C 1693.097656 342.105469 1693.492188 342.503906 1693.828125 343.066406 C 1694.160156 343.628906 1694.40625 344.402344 1694.5625 345.378906 C 1694.726562 346.347656 1694.8125 347.550781 1694.8125 348.988281 C 1694.8125 350.425781 1694.726562 351.640625 1694.5625 352.628906 C 1694.40625 353.609375 1694.160156 354.378906 1693.828125 354.941406 C 1693.492188 355.503906 1693.097656 355.90625 1692.640625 356.144531 C 1692.179688 356.386719 1691.632812 356.503906 1691 356.503906 C 1690.363281 356.503906 1689.816406 356.386719 1689.359375 356.144531 C 1688.898438 355.90625 1688.503906 355.503906 1688.171875 354.941406 C 1687.847656 354.378906 1687.601562 353.609375 1687.4375 352.628906 C 1687.269531 351.640625 1687.1875 350.425781 1687.1875 348.988281 C 1687.1875 347.550781 1687.269531 346.347656 1687.4375 345.378906 C 1687.601562 344.402344 1687.847656 343.628906 1688.171875 343.066406 C 1688.503906 342.503906 1688.898438 342.105469 1689.359375 341.863281 Z M 1688.828125 351.332031 L 1692.765625 344.535156 C 1692.410156 343.441406 1691.820312 342.894531 1691 342.894531 C 1690.519531 342.894531 1690.117188 343.074219 1689.796875 343.425781 C 1689.484375 343.769531 1689.226562 344.402344 1689.03125 345.316406 C 1688.84375 346.234375 1688.75 347.464844 1688.75 349.003906 C 1688.75 349.671875 1688.773438 350.449219 1688.828125 351.332031 Z M 1689.171875 353.207031 C 1689.503906 354.46875 1690.113281 355.097656 1691 355.097656 C 1691.476562 355.097656 1691.878906 354.925781 1692.203125 354.582031 C 1692.523438 354.238281 1692.78125 353.609375 1692.96875 352.691406 C 1693.15625 351.765625 1693.25 350.535156 1693.25 349.003906 C 1693.25 347.964844 1693.207031 347.078125 1693.125 346.347656 Z M 1686 337.402344 "/>
<path style=" stroke:none;fill-rule:nonzero;fill:rgb(34.117647%,32.54902%,30.588235%);fill-opacity:1;" d="M 1415.359375 341.863281 C 1415.816406 341.625 1416.363281 341.503906 1417 341.503906 C 1417.632812 341.503906 1418.179688 341.625 1418.640625 341.863281 C 1419.097656 342.105469 1419.492188 342.503906 1419.828125 343.066406 C 1420.160156 343.628906 1420.40625 344.402344 1420.5625 345.378906 C 1420.726562 346.347656 1420.8125 347.550781 1420.8125 348.988281 C 1420.8125 350.425781 1420.726562 351.640625 1420.5625 352.628906 C 1420.40625 353.609375 1420.160156 354.378906 1419.828125 354.941406 C 1419.492188 355.503906 1419.097656 355.90625 1418.640625 356.144531 C 1418.179688 356.386719 1417.632812 356.503906 1417 356.503906 C 1416.363281 356.503906 1415.816406 356.386719 1415.359375 356.144531 C 1414.898438 355.90625 1414.503906 355.503906 1414.171875 354.941406 C 1413.847656 354.378906 1413.601562 353.609375 1413.4375 352.628906 C 1413.269531 351.640625 1413.1875 350.425781 1413.1875 348.988281 C 1413.1875 347.550781 1413.269531 346.347656 1413.4375 345.378906 C 1413.601562 344.402344 1413.847656 343.628906 1414.171875 343.066406 C 1414.503906 342.503906 1414.898438 342.105469 1415.359375 341.863281 Z M 1414.828125 351.332031 L 1418.765625 344.535156 C 1418.410156 343.441406 1417.820312 342.894531 1417 342.894531 C 1416.519531 342.894531 1416.117188 343.074219 1415.796875 343.425781 C 1415.484375 343.769531 1415.226562 344.402344 1415.03125 345.316406 C 1414.84375 346.234375 1414.75 347.464844 1414.75 349.003906 C 1414.75 349.671875 1414.773438 350.449219 1414.828125 351.332031 Z M 1415.171875 353.207031 C 1415.503906 354.46875 1416.113281 355.097656 1417 355.097656 C 1417.476562 355.097656 1417.878906 354.925781 1418.203125 354.582031 C 1418.523438 354.238281 1418.78125 353.609375 1418.96875 352.691406 C 1419.15625 351.765625 1419.25 350.535156 1419.25 349.003906 C 1419.25 347.964844 1419.207031 347.078125 1419.125 346.347656 Z M 1412 337.402344 "/>
<path style=" stroke:none;fill-rule:nonzero;fill:rgb(34.117647%,32.54902%,30.588235%);fill-opacity:1;" d="M 1137.15625 34.300781 L 1137.15625 21.394531 L 1137.125 21.378906 L 1133.65625 23.394531 L 1133.65625 21.800781 L 1137.15625 19.691406 L 1138.796875 19.691406 L 1138.796875 34.300781 Z M 1147.15625 34.300781 L 1147.15625 21.394531 L 1147.125 21.378906 L 1143.65625 23.394531 L 1143.65625 21.800781 L 1147.15625 19.691406 L 1148.796875 19.691406 L 1148.796875 34.300781 Z M 1132 15.402344 "/>
<path style=" stroke:none;fill-rule:nonzero;fill:rgb(34.117647%,32.54902%,30.588235%);fill-opacity:1;" d="M 867.359375 341.863281 C 867.816406 341.625 868.363281 341.503906 869 341.503906 C 869.632812 341.503906 870.179688 341.625 870.640625 341.863281 C 871.097656 342.105469 871.492188 342.503906 871.828125 343.066406 C 872.160156 343.628906 872.40625 344.402344 872.5625 345.378906 C 872.726562 346.347656 872.8125 347.550781 872.8125 348.988281 C 872.8125 350.425781 872.726562 351.640625 872.5625 352.628906 C 872.40625 353.609375 872.160156 354.378906 871.828125 354.941406 C 871.492188 355.503906 871.097656 355.90625 870.640625 356.144531 C 870.179688 356.386719 869.632812 356.503906 869 356.503906 C 868.363281 356.503906 867.816406 356.386719 867.359375 356.144531 C 866.898438 355.90625 866.503906 355.503906 866.171875 354.941406 C 865.847656 354.378906 865.601562 353.609375 865.4375 352.628906 C 865.269531 351.640625 865.1875 350.425781 865.1875 348.988281 C 865.1875 347.550781 865.269531 346.347656 865.4375 345.378906 C 865.601562 344.402344 865.847656 343.628906 866.171875 343.066406 C 866.503906 342.503906 866.898438 342.105469 867.359375 341.863281 Z M 866.828125 351.332031 L 870.765625 344.535156 C 870.410156 343.441406 869.820312 342.894531 869 342.894531 C 868.519531 342.894531 868.117188 343.074219 867.796875 343.425781 C 867.484375 343.769531 867.226562 344.402344 867.03125 345.316406 C 866.84375 346.234375 866.75 347.464844 866.75 349.003906 C 866.75 349.671875 866.773438 350.449219 866.828125 351.332031 Z M 867.171875 353.207031 C 867.503906 354.46875 868.113281 355.097656 869 355.097656 C 869.476562 355.097656 869.878906 354.925781 870.203125 354.582031 C 870.523438 354.238281 870.78125 353.609375 870.96875 352.691406 C 871.15625 351.765625 871.25 350.535156 871.25 349.003906 C 871.25 347.964844 871.207031 347.078125 871.125 346.347656 Z M 864 337.402344 "/>
<path style=" stroke:none;fill-rule:nonzero;fill:rgb(34.117647%,32.54902%,30.588235%);fill-opacity:1;" d="M 595.359375 341.863281 C 595.816406 341.625 596.363281 341.503906 597 341.503906 C 597.632812 341.503906 598.179688 341.625 598.640625 341.863281 C 599.097656 342.105469 599.492188 342.503906 599.828125 343.066406 C 600.160156 343.628906 600.40625 344.402344 600.5625 345.378906 C 600.726562 346.347656 600.8125 347.550781 600.8125 348.988281 C 600.8125 350.425781 600.726562 351.640625 600.5625 352.628906 C 600.40625 353.609375 600.160156 354.378906 599.828125 354.941406 C 599.492188 355.503906 599.097656 355.90625 598.640625 356.144531 C 598.179688 356.386719 597.632812 356.503906 597 356.503906 C 596.363281 356.503906 595.816406 356.386719 595.359375 356.144531 C 594.898438 355.90625 594.503906 355.503906 594.171875 354.941406 C 593.847656 354.378906 593.601562 353.609375 593.4375 352.628906 C 593.269531 351.640625 593.1875 350.425781 593.1875 348.988281 C 593.1875 347.550781 593.269531 346.347656 593.4375 345.378906 C 593.601562 344.402344 593.847656 343.628906 594.171875 343.066406 C 594.503906 342.503906 594.898438 342.105469 595.359375 341.863281 Z M 594.828125 351.332031 L 598.765625 344.535156 C 598.410156 343.441406 597.820312 342.894531 597 342.894531 C 596.519531 342.894531 596.117188 343.074219 595.796875 343.425781 C 595.484375 343.769531 595.226562 344.402344 595.03125 345.316406 C 594.84375 346.234375 594.75 347.464844 594.75 349.003906 C 594.75 349.671875 594.773438 350.449219 594.828125 351.332031 Z M 595.171875 353.207031 C 595.503906 354.46875 596.113281 355.097656 597 355.097656 C 597.476562 355.097656 597.878906 354.925781 598.203125 354.582031 C 598.523438 354.238281 598.78125 353.609375 598.96875 352.691406 C 599.15625 351.765625 599.25 350.535156 599.25 349.003906 C 599.25 347.964844 599.207031 347.078125 599.125 346.347656 Z M 592 337.402344 "/>
<path style=" stroke:none;fill-rule:nonzero;fill:rgb(34.117647%,32.54902%,30.588235%);fill-opacity:1;" d="M 321.359375 341.863281 C 321.816406 341.625 322.363281 341.503906 323 341.503906 C 323.632812 341.503906 324.179688 341.625 324.640625 341.863281 C 325.097656 342.105469 325.492188 342.503906 325.828125 343.066406 C 326.160156 343.628906 326.40625 344.402344 326.5625 345.378906 C 326.726562 346.347656 326.8125 347.550781 326.8125 348.988281 C 326.8125 350.425781 326.726562 351.640625 326.5625 352.628906 C 326.40625 353.609375 326.160156 354.378906 325.828125 354.941406 C 325.492188 355.503906 325.097656 355.90625 324.640625 356.144531 C 324.179688 356.386719 323.632812 356.503906 323 356.503906 C 322.363281 356.503906 321.816406 356.386719 321.359375 356.144531 C 320.898438 355.90625 320.503906 355.503906 320.171875 354.941406 C 319.847656 354.378906 319.601562 353.609375 319.4375 352.628906 C 319.269531 351.640625 319.1875 350.425781 319.1875 348.988281 C 319.1875 347.550781 319.269531 346.347656 319.4375 345.378906 C 319.601562 344.402344 319.847656 343.628906 320.171875 343.066406 C 320.503906 342.503906 320.898438 342.105469 321.359375 341.863281 Z M 320.828125 351.332031 L 324.765625 344.535156 C 324.410156 343.441406 323.820312 342.894531 323 342.894531 C 322.519531 342.894531 322.117188 343.074219 321.796875 343.425781 C 321.484375 343.769531 321.226562 344.402344 321.03125 345.316406 C 320.84375 346.234375 320.75 347.464844 320.75 349.003906 C 320.75 349.671875 320.773438 350.449219 320.828125 351.332031 Z M 321.171875 353.207031 C 321.503906 354.46875 322.113281 355.097656 323 355.097656 C 323.476562 355.097656 323.878906 354.925781 324.203125 354.582031 C 324.523438 354.238281 324.78125 353.609375 324.96875 352.691406 C 325.15625 351.765625 325.25 350.535156 325.25 349.003906 C 325.25 347.964844 325.207031 347.078125 325.125 346.347656 Z M 318 337.402344 "/>
<path style=" stroke:none;fill-rule:nonzero;fill:rgb(34.117647%,32.54902%,30.588235%);fill-opacity:1;" d="M 49.15625 326.300781 L 49.15625 313.394531 L 49.125 313.378906 L 45.65625 315.394531 L 45.65625 313.800781 L 49.15625 311.691406 L 50.796875 311.691406 L 50.796875 326.300781 Z M 44 307.402344 "/>
</g>
</svg>
