<?xml version="1.0" encoding="UTF-8"?>
<svg xmlns="http://www.w3.org/2000/svg" xmlns:xlink="http://www.w3.org/1999/xlink" width="1720pt" height="560pt" viewBox="0 0 1720 560" version="1.1">
<defs>
<clipPath id="cCyHI7Cd69__clip1">
  <path d="M 1455 110 L 1567 110 L 1567 256 L 1455 256 Z M 1455 110 "/>
</clipPath>
<clipPath id="cCyHI7Cd69__clip2">
  <path d="M 1455 160 L 1567 160 L 1567 306 L 1455 306 Z M 1455 160 "/>
</clipPath>
<clipPath id="cCyHI7Cd69__clip3">
  <path d="M 1455 210 L 1567 210 L 1567 356 L 1455 356 Z M 1455 210 "/>
</clipPath>
<clipPath id="cCyHI7Cd69__clip4">
  <path d="M 1455 260 L 1567 260 L 1567 406 L 1455 406 Z M 1455 260 "/>
</clipPath>
<clipPath id="cCyHI7Cd69__clip5">
  <path d="M 1455 310 L 1567 310 L 1567 456 L 1455 456 Z M 1455 310 "/>
</clipPath>
<clipPath id="cCyHI7Cd69__clip6">
  <path d="M 1455 360 L 1567 360 L 1567 506 L 1455 506 Z M 1455 360 "/>
</clipPath>
</defs>
<g id="surface445222">
<rect x="0" y="0" width="1720" height="560" style="fill:rgb(96.078431%,96.078431%,95.686275%);fill-opacity:1;stroke:none;"/>
<path style=" stroke:none;fill-rule:nonzero;fill:rgb(0%,70.588235%,67.058824%);fill-opacity:1;" d="M 1509.554688 183 C 1509.554688 191.589844 1502.589844 198.554688 1494 198.554688 C 1485.410156 198.554688 1478.445312 191.589844 1478.445312 183 C 1478.445312 174.410156 1485.410156 167.445312 1494 167.445312 C 1502.589844 167.445312 1509.554688 174.410156 1509.554688 183 Z M 1509.554688 183 "/>
<g clip-path="url(#cCyHI7Cd69__clip1)" clip-rule="nonzero">
<path style="fill:none;stroke-width:2;stroke-linecap:butt;stroke-linejoin:miter;stroke:rgb(96.078431%,96.078431%,95.686275%);stroke-opacity:1;stroke-miterlimit:10;" d="M 754.777344 91.5 C 754.777344 95.794922 751.294922 99.277344 747 99.277344 C 742.705078 99.277344 739.222656 95.794922 739.222656 91.5 C 739.222656 87.205078 742.705078 83.722656 747 83.722656 C 751.294922 83.722656 754.777344 87.205078 754.777344 91.5 Z M 754.777344 91.5 " transform="matrix(2,0,0,2,0,0)"/>
</g>
<path style=" stroke:none;fill-rule:nonzero;fill:rgb(34.117647%,32.54902%,30.588235%);fill-opacity:1;" d="M 1524.421875 181.902344 C 1524.421875 179.433594 1524.101562 177.710938 1523.46875 176.730469 C 1522.832031 175.742188 1521.828125 175.246094 1520.453125 175.246094 C 1519.960938 175.246094 1519.5625 175.304688 1519.25 175.417969 L 1519.25 188.386719 C 1519.5625 188.503906 1519.960938 188.558594 1520.453125 188.558594 C 1521.390625 188.558594 1522.132812 188.382812 1522.6875 188.027344 C 1523.238281 187.664062 1523.664062 186.992188 1523.96875 186.011719 C 1524.269531 185.035156 1524.421875 183.664062 1524.421875 181.902344 Z M 1526.234375 181.902344 C 1526.234375 184.933594 1525.765625 187.070312 1524.828125 188.308594 C 1523.898438 189.539062 1522.441406 190.152344 1520.453125 190.152344 C 1519.421875 190.152344 1518.414062 190.039062 1517.4375 189.808594 L 1517.4375 173.980469 C 1518.414062 173.761719 1519.421875 173.652344 1520.453125 173.652344 C 1522.453125 173.652344 1523.914062 174.285156 1524.84375 175.542969 C 1525.769531 176.792969 1526.234375 178.914062 1526.234375 181.902344 Z M 1533.609375 178.277344 C 1535.085938 178.277344 1536.097656 178.570312 1536.640625 179.152344 C 1537.179688 179.738281 1537.453125 180.832031 1537.453125 182.433594 L 1537.453125 189.933594 L 1535.890625 189.933594 L 1535.84375 188.277344 L 1535.78125 188.277344 C 1535.09375 189.527344 1534.003906 190.152344 1532.515625 190.152344 C 1531.554688 190.152344 1530.78125 189.851562 1530.1875 189.246094 C 1529.601562 188.632812 1529.3125 187.792969 1529.3125 186.730469 C 1529.3125 185.398438 1529.757812 184.371094 1530.65625 183.652344 C 1531.5625 182.933594 1532.910156 182.574219 1534.703125 182.574219 L 1535.75 182.574219 L 1535.75 182.011719 C 1535.75 181.179688 1535.585938 180.589844 1535.265625 180.246094 C 1534.953125 179.902344 1534.398438 179.730469 1533.609375 179.730469 C 1533.117188 179.730469 1532.5 179.820312 1531.75 179.996094 C 1531.007812 180.175781 1530.382812 180.378906 1529.875 180.605469 L 1529.875 179.042969 C 1530.382812 178.816406 1531.003906 178.632812 1531.734375 178.496094 C 1532.460938 178.351562 1533.085938 178.277344 1533.609375 178.277344 Z M 1535.75 183.871094 L 1534.703125 183.871094 C 1532.210938 183.871094 1530.96875 184.789062 1530.96875 186.621094 C 1530.96875 187.289062 1531.132812 187.800781 1531.46875 188.152344 C 1531.800781 188.496094 1532.253906 188.667969 1532.828125 188.667969 C 1533.703125 188.667969 1534.40625 188.320312 1534.9375 187.621094 C 1535.476562 186.914062 1535.75 185.925781 1535.75 184.652344 Z M 1544.078125 178.480469 L 1544.078125 180.683594 L 1544.140625 180.683594 C 1545.046875 179.082031 1546.304688 178.277344 1547.921875 178.277344 C 1548.472656 178.277344 1548.984375 178.347656 1549.453125 178.480469 L 1549.453125 180.027344 C 1548.941406 179.871094 1548.429688 179.792969 1547.921875 179.792969 C 1546.847656 179.792969 1545.953125 180.242188 1545.234375 181.136719 C 1544.523438 182.023438 1544.171875 183.195312 1544.171875 184.652344 L 1544.171875 189.933594 L 1542.421875 189.933594 L 1542.421875 178.480469 Z M 1557.375 178.933594 L 1561.34375 178.933594 L 1561.34375 180.433594 L 1557.375 180.433594 L 1557.375 186.621094 C 1557.375 187.445312 1557.492188 187.992188 1557.734375 188.261719 C 1557.984375 188.535156 1558.457031 188.667969 1559.15625 188.667969 C 1559.882812 188.667969 1560.539062 188.539062 1561.125 188.277344 L 1561.125 189.808594 C 1560.425781 190.039062 1559.695312 190.152344 1558.9375 190.152344 C 1557.707031 190.152344 1556.847656 189.914062 1556.359375 189.433594 C 1555.867188 188.957031 1555.625 188.089844 1555.625 186.839844 L 1555.625 180.433594 L 1553.4375 180.433594 L 1553.4375 178.933594 L 1555.625 178.933594 L 1555.625 174.746094 L 1557.375 174.746094 Z M 1583.265625 175.496094 L 1583.265625 175.449219 L 1577.765625 175.449219 L 1577.765625 173.871094 L 1585.34375 173.871094 L 1585.34375 175.449219 L 1581.390625 180.480469 L 1581.390625 180.527344 L 1581.609375 180.527344 C 1582.941406 180.527344 1583.914062 180.902344 1584.53125 181.652344 C 1585.144531 182.402344 1585.453125 183.628906 1585.453125 185.324219 C 1585.453125 188.542969 1584.023438 190.152344 1581.171875 190.152344 C 1580.097656 190.152344 1579.035156 189.929688 1577.984375 189.480469 L 1577.984375 187.574219 C 1579.109375 188.199219 1580.054688 188.511719 1580.828125 188.511719 C 1581.773438 188.511719 1582.472656 188.261719 1582.921875 187.761719 C 1583.378906 187.253906 1583.609375 186.441406 1583.609375 185.324219 C 1583.609375 184.003906 1583.425781 183.136719 1583.0625 182.730469 C 1582.695312 182.324219 1581.953125 182.121094 1580.828125 182.121094 L 1579.3125 182.121094 L 1579.3125 180.527344 Z M 1591.953125 180.464844 L 1592 180.464844 C 1592.488281 180.039062 1593.132812 179.824219 1593.9375 179.824219 C 1596.28125 179.824219 1597.453125 181.507812 1597.453125 184.871094 C 1597.453125 186.707031 1597.085938 188.042969 1596.359375 188.886719 C 1595.640625 189.730469 1594.578125 190.152344 1593.171875 190.152344 C 1592.085938 190.152344 1591.023438 189.929688 1589.984375 189.480469 L 1589.984375 187.574219 C 1591.078125 188.199219 1592.109375 188.511719 1593.078125 188.511719 C 1594.765625 188.511719 1595.609375 187.300781 1595.609375 184.871094 C 1595.609375 182.582031 1594.90625 181.433594 1593.5 181.433594 C 1592.820312 181.433594 1592.234375 181.730469 1591.734375 182.324219 L 1590.078125 182.324219 L 1590.328125 173.871094 L 1597.03125 173.871094 L 1597.03125 175.449219 L 1592.109375 175.449219 Z M 1601.3125 184.199219 L 1609.6875 177.824219 L 1609.6875 179.574219 L 1601.3125 185.964844 Z M 1601.421875 174.558594 C 1601.921875 173.957031 1602.617188 173.652344 1603.515625 173.652344 C 1604.410156 173.652344 1605.109375 173.957031 1605.609375 174.558594 C 1606.117188 175.152344 1606.375 176.023438 1606.375 177.167969 C 1606.375 178.316406 1606.117188 179.191406 1605.609375 179.792969 C 1605.109375 180.386719 1604.410156 180.683594 1603.515625 180.683594 C 1602.617188 180.683594 1601.921875 180.386719 1601.421875 179.792969 C 1600.921875 179.191406 1600.671875 178.316406 1600.671875 177.167969 C 1600.671875 176.023438 1600.921875 175.152344 1601.421875 174.558594 Z M 1605.375 184.011719 C 1605.882812 183.410156 1606.585938 183.105469 1607.484375 183.105469 C 1608.378906 183.105469 1609.078125 183.410156 1609.578125 184.011719 C 1610.078125 184.605469 1610.328125 185.476562 1610.328125 186.621094 C 1610.328125 187.769531 1610.078125 188.644531 1609.578125 189.246094 C 1609.078125 189.851562 1608.378906 190.152344 1607.484375 190.152344 C 1606.585938 190.152344 1605.882812 189.851562 1605.375 189.246094 C 1604.875 188.644531 1604.625 187.769531 1604.625 186.621094 C 1604.625 185.476562 1604.875 184.605469 1605.375 184.011719 Z M 1602.390625 177.167969 C 1602.390625 178.523438 1602.765625 179.199219 1603.515625 179.199219 C 1604.273438 179.199219 1604.65625 178.523438 1604.65625 177.167969 C 1604.65625 175.816406 1604.273438 175.136719 1603.515625 175.136719 C 1602.765625 175.136719 1602.390625 175.816406 1602.390625 177.167969 Z M 1606.34375 186.636719 C 1606.34375 187.980469 1606.71875 188.652344 1607.46875 188.652344 C 1608.226562 188.652344 1608.609375 187.980469 1608.609375 186.636719 C 1608.609375 185.285156 1608.226562 184.605469 1607.46875 184.605469 C 1606.71875 184.605469 1606.34375 185.285156 1606.34375 186.636719 Z M 1516 169.140625 "/>
<path style=" stroke:none;fill-rule:nonzero;fill:rgb(19.215686%,47.058824%,77.647059%);fill-opacity:1;" d="M 1509.554688 233 C 1509.554688 241.589844 1502.589844 248.554688 1494 248.554688 C 1485.410156 248.554688 1478.445312 241.589844 1478.445312 233 C 1478.445312 224.410156 1485.410156 217.445312 1494 217.445312 C 1502.589844 217.445312 1509.554688 224.410156 1509.554688 233 Z M 1509.554688 233 "/>
<g clip-path="url(#cCyHI7Cd69__clip2)" clip-rule="nonzero">
<path style="fill:none;stroke-width:2;stroke-linecap:butt;stroke-linejoin:miter;stroke:rgb(96.078431%,96.078431%,95.686275%);stroke-opacity:1;stroke-miterlimit:10;" d="M 754.777344 116.5 C 754.777344 120.794922 751.294922 124.277344 747 124.277344 C 742.705078 124.277344 739.222656 120.794922 739.222656 116.5 C 739.222656 112.205078 742.705078 108.722656 747 108.722656 C 751.294922 108.722656 754.777344 112.205078 754.777344 116.5 Z M 754.777344 116.5 " transform="matrix(2,0,0,2,0,0)"/>
</g>
<path style=" stroke:none;fill-rule:nonzero;fill:rgb(34.117647%,32.54902%,30.588235%);fill-opacity:1;" d="M 1520.59375 239.933594 L 1520.59375 225.417969 L 1517.203125 225.417969 L 1517.203125 223.871094 L 1525.796875 223.871094 L 1525.796875 225.417969 L 1522.40625 225.417969 L 1522.40625 239.933594 Z M 1533.6875 237.292969 L 1533.734375 237.292969 L 1536.3125 228.480469 L 1538.234375 228.480469 L 1532.9375 244.777344 L 1531.109375 244.777344 L 1532.828125 239.699219 L 1528.984375 228.480469 L 1530.921875 228.480469 Z M 1543.09375 238.277344 L 1543.046875 238.277344 L 1543.046875 244.777344 L 1541.3125 244.777344 L 1541.3125 228.480469 L 1542.9375 228.480469 L 1542.984375 230.136719 L 1543.03125 230.136719 C 1543.832031 228.898438 1544.84375 228.277344 1546.0625 228.277344 C 1548.625 228.277344 1549.90625 230.253906 1549.90625 234.199219 C 1549.90625 236.191406 1549.550781 237.679688 1548.84375 238.667969 C 1548.132812 239.660156 1547.207031 240.152344 1546.0625 240.152344 C 1544.71875 240.152344 1543.726562 239.527344 1543.09375 238.277344 Z M 1548.171875 234.199219 C 1548.171875 231.347656 1547.316406 229.917969 1545.609375 229.917969 C 1544.859375 229.917969 1544.242188 230.285156 1543.765625 231.011719 C 1543.285156 231.730469 1543.046875 232.757812 1543.046875 234.089844 L 1543.046875 234.308594 C 1543.046875 235.652344 1543.285156 236.691406 1543.765625 237.417969 C 1544.242188 238.136719 1544.859375 238.496094 1545.609375 238.496094 C 1546.378906 238.496094 1547 238.144531 1547.46875 237.433594 C 1547.9375 236.726562 1548.171875 235.648438 1548.171875 234.199219 Z M 1555.03125 234.777344 C 1555.082031 236.144531 1555.359375 237.128906 1555.859375 237.730469 C 1556.367188 238.324219 1557.101562 238.621094 1558.0625 238.621094 C 1558.945312 238.621094 1559.9375 238.355469 1561.03125 237.824219 L 1561.03125 239.589844 C 1559.9375 239.964844 1558.90625 240.152344 1557.9375 240.152344 C 1554.78125 240.152344 1553.203125 238.167969 1553.203125 234.199219 C 1553.203125 232.136719 1553.570312 230.636719 1554.3125 229.699219 C 1555.050781 228.753906 1556.148438 228.277344 1557.609375 228.277344 C 1558.941406 228.277344 1559.929688 228.730469 1560.578125 229.636719 C 1561.234375 230.542969 1561.5625 232.027344 1561.5625 234.089844 C 1561.5625 234.246094 1561.546875 234.476562 1561.515625 234.777344 Z M 1555.03125 233.324219 L 1559.84375 233.324219 C 1559.832031 230.972656 1559.085938 229.792969 1557.609375 229.792969 C 1556.773438 229.792969 1556.148438 230.058594 1555.734375 230.589844 C 1555.316406 231.113281 1555.082031 232.023438 1555.03125 233.324219 Z M 1569.71875 225.246094 C 1569.03125 225.246094 1568.460938 225.472656 1568.015625 225.917969 C 1567.578125 226.355469 1567.359375 226.917969 1567.359375 227.605469 C 1567.359375 228.335938 1567.515625 228.941406 1567.828125 229.417969 C 1568.140625 229.898438 1568.660156 230.304688 1569.390625 230.636719 C 1571.023438 231.367188 1572.148438 232.121094 1572.765625 232.902344 C 1573.378906 233.683594 1573.6875 234.707031 1573.6875 235.964844 C 1573.6875 237.351562 1573.304688 238.398438 1572.546875 239.105469 C 1571.785156 239.804688 1570.695312 240.152344 1569.28125 240.152344 C 1567.945312 240.152344 1566.738281 239.746094 1565.65625 238.933594 L 1565.65625 236.839844 C 1566.832031 237.988281 1568.078125 238.558594 1569.390625 238.558594 C 1571.054688 238.558594 1571.890625 237.695312 1571.890625 235.964844 C 1571.890625 235.164062 1571.691406 234.496094 1571.296875 233.964844 C 1570.910156 233.433594 1570.273438 232.972656 1569.390625 232.574219 C 1568.015625 231.949219 1567.03125 231.246094 1566.4375 230.464844 C 1565.84375 229.675781 1565.546875 228.722656 1565.546875 227.605469 C 1565.546875 226.429688 1565.914062 225.476562 1566.65625 224.746094 C 1567.40625 224.019531 1568.390625 223.652344 1569.609375 223.652344 C 1570.378906 223.652344 1571.015625 223.710938 1571.515625 223.824219 C 1572.015625 223.941406 1572.585938 224.175781 1573.234375 224.527344 L 1573.234375 226.511719 C 1572.109375 225.667969 1570.9375 225.246094 1569.71875 225.246094 Z M 1577.546875 234.199219 C 1577.546875 232.242188 1577.945312 230.769531 1578.75 229.777344 C 1579.550781 228.777344 1580.691406 228.277344 1582.171875 228.277344 C 1583.054688 228.277344 1583.972656 228.457031 1584.921875 228.808594 L 1584.921875 230.574219 C 1584.023438 230.097656 1583.144531 229.855469 1582.28125 229.855469 C 1581.34375 229.855469 1580.617188 230.226562 1580.109375 230.964844 C 1579.609375 231.695312 1579.359375 232.773438 1579.359375 234.199219 C 1579.359375 235.691406 1579.625 236.800781 1580.15625 237.527344 C 1580.695312 238.257812 1581.4375 238.621094 1582.375 238.621094 C 1583.238281 238.621094 1584.125 238.355469 1585.03125 237.824219 L 1585.03125 239.589844 C 1584.082031 239.964844 1583.164062 240.152344 1582.28125 240.152344 C 1580.769531 240.152344 1579.601562 239.660156 1578.78125 238.667969 C 1577.957031 237.679688 1577.546875 236.191406 1577.546875 234.199219 Z M 1592.078125 228.480469 L 1592.078125 230.683594 L 1592.140625 230.683594 C 1593.046875 229.082031 1594.304688 228.277344 1595.921875 228.277344 C 1596.472656 228.277344 1596.984375 228.347656 1597.453125 228.480469 L 1597.453125 230.027344 C 1596.941406 229.871094 1596.429688 229.792969 1595.921875 229.792969 C 1594.847656 229.792969 1593.953125 230.242188 1593.234375 231.136719 C 1592.523438 232.023438 1592.171875 233.195312 1592.171875 234.652344 L 1592.171875 239.933594 L 1590.421875 239.933594 L 1590.421875 228.480469 Z M 1606.96875 228.480469 L 1606.96875 238.433594 L 1609.34375 238.433594 L 1609.34375 239.933594 L 1602.078125 239.933594 L 1602.078125 238.433594 L 1605.15625 238.433594 L 1605.15625 229.996094 L 1602.75 229.996094 L 1602.75 228.480469 Z M 1604.703125 225.839844 L 1604.703125 223.199219 L 1606.96875 223.199219 L 1606.96875 225.839844 Z M 1615.09375 238.277344 L 1615.046875 238.277344 L 1615.046875 244.777344 L 1613.3125 244.777344 L 1613.3125 228.480469 L 1614.9375 228.480469 L 1614.984375 230.136719 L 1615.03125 230.136719 C 1615.832031 228.898438 1616.84375 228.277344 1618.0625 228.277344 C 1620.625 228.277344 1621.90625 230.253906 1621.90625 234.199219 C 1621.90625 236.191406 1621.550781 237.679688 1620.84375 238.667969 C 1620.132812 239.660156 1619.207031 240.152344 1618.0625 240.152344 C 1616.71875 240.152344 1615.726562 239.527344 1615.09375 238.277344 Z M 1620.171875 234.199219 C 1620.171875 231.347656 1619.316406 229.917969 1617.609375 229.917969 C 1616.859375 229.917969 1616.242188 230.285156 1615.765625 231.011719 C 1615.285156 231.730469 1615.046875 232.757812 1615.046875 234.089844 L 1615.046875 234.308594 C 1615.046875 235.652344 1615.285156 236.691406 1615.765625 237.417969 C 1616.242188 238.136719 1616.859375 238.496094 1617.609375 238.496094 C 1618.378906 238.496094 1619 238.144531 1619.46875 237.433594 C 1619.9375 236.726562 1620.171875 235.648438 1620.171875 234.199219 Z M 1629.375 228.933594 L 1633.34375 228.933594 L 1633.34375 230.433594 L 1629.375 230.433594 L 1629.375 236.621094 C 1629.375 237.445312 1629.492188 237.992188 1629.734375 238.261719 C 1629.984375 238.535156 1630.457031 238.667969 1631.15625 238.667969 C 1631.882812 238.667969 1632.539062 238.539062 1633.125 238.277344 L 1633.125 239.808594 C 1632.425781 240.039062 1631.695312 240.152344 1630.9375 240.152344 C 1629.707031 240.152344 1628.847656 239.914062 1628.359375 239.433594 C 1627.867188 238.957031 1627.625 238.089844 1627.625 236.839844 L 1627.625 230.433594 L 1625.4375 230.433594 L 1625.4375 228.933594 L 1627.625 228.933594 L 1627.625 224.746094 L 1629.375 224.746094 Z M 1651.84375 238.308594 L 1651.84375 238.339844 L 1657.234375 238.339844 L 1657.234375 239.933594 L 1649.765625 239.933594 L 1649.765625 238.339844 C 1653.441406 234.121094 1655.28125 230.617188 1655.28125 227.824219 C 1655.28125 226.128906 1654.601562 225.277344 1653.25 225.277344 C 1652.800781 225.277344 1652.238281 225.445312 1651.5625 225.777344 C 1650.894531 226.113281 1650.296875 226.511719 1649.765625 226.980469 L 1649.765625 225.074219 C 1650.867188 224.128906 1652.113281 223.652344 1653.5 223.652344 C 1654.75 223.652344 1655.664062 223.996094 1656.25 224.683594 C 1656.832031 225.371094 1657.125 226.417969 1657.125 227.824219 C 1657.125 229.285156 1656.726562 230.816406 1655.9375 232.417969 C 1655.144531 234.011719 1653.78125 235.976562 1651.84375 238.308594 Z M 1667.578125 225.496094 L 1667.578125 225.449219 L 1661.65625 225.449219 L 1661.65625 223.871094 L 1669.34375 223.871094 L 1669.34375 225.449219 C 1667.46875 229.792969 1665.929688 234.621094 1664.734375 239.933594 L 1662.796875 239.933594 C 1664.023438 234.746094 1665.617188 229.933594 1667.578125 225.496094 Z M 1673.3125 234.199219 L 1681.6875 227.824219 L 1681.6875 229.574219 L 1673.3125 235.964844 Z M 1673.421875 224.558594 C 1673.921875 223.957031 1674.617188 223.652344 1675.515625 223.652344 C 1676.410156 223.652344 1677.109375 223.957031 1677.609375 224.558594 C 1678.117188 225.152344 1678.375 226.023438 1678.375 227.167969 C 1678.375 228.316406 1678.117188 229.191406 1677.609375 229.792969 C 1677.109375 230.386719 1676.410156 230.683594 1675.515625 230.683594 C 1674.617188 230.683594 1673.921875 230.386719 1673.421875 229.792969 C 1672.921875 229.191406 1672.671875 228.316406 1672.671875 227.167969 C 1672.671875 226.023438 1672.921875 225.152344 1673.421875 224.558594 Z M 1677.375 234.011719 C 1677.882812 233.410156 1678.585938 233.105469 1679.484375 233.105469 C 1680.378906 233.105469 1681.078125 233.410156 1681.578125 234.011719 C 1682.078125 234.605469 1682.328125 235.476562 1682.328125 236.621094 C 1682.328125 237.769531 1682.078125 238.644531 1681.578125 239.246094 C 1681.078125 239.851562 1680.378906 240.152344 1679.484375 240.152344 C 1678.585938 240.152344 1677.882812 239.851562 1677.375 239.246094 C 1676.875 238.644531 1676.625 237.769531 1676.625 236.621094 C 1676.625 235.476562 1676.875 234.605469 1677.375 234.011719 Z M 1674.390625 227.167969 C 1674.390625 228.523438 1674.765625 229.199219 1675.515625 229.199219 C 1676.273438 229.199219 1676.65625 228.523438 1676.65625 227.167969 C 1676.65625 225.816406 1676.273438 225.136719 1675.515625 225.136719 C 1674.765625 225.136719 1674.390625 225.816406 1674.390625 227.167969 Z M 1678.34375 236.636719 C 1678.34375 237.980469 1678.71875 238.652344 1679.46875 238.652344 C 1680.226562 238.652344 1680.609375 237.980469 1680.609375 236.636719 C 1680.609375 235.285156 1680.226562 234.605469 1679.46875 234.605469 C 1678.71875 234.605469 1678.34375 235.285156 1678.34375 236.636719 Z M 1516 219.140625 "/>
<path style=" stroke:none;fill-rule:nonzero;fill:rgb(20.784314%,44.705882%,64.705882%);fill-opacity:1;" d="M 1509.554688 283 C 1509.554688 291.589844 1502.589844 298.554688 1494 298.554688 C 1485.410156 298.554688 1478.445312 291.589844 1478.445312 283 C 1478.445312 274.410156 1485.410156 267.445312 1494 267.445312 C 1502.589844 267.445312 1509.554688 274.410156 1509.554688 283 Z M 1509.554688 283 "/>
<g clip-path="url(#cCyHI7Cd69__clip3)" clip-rule="nonzero">
<path style="fill:none;stroke-width:2;stroke-linecap:butt;stroke-linejoin:miter;stroke:rgb(96.078431%,96.078431%,95.686275%);stroke-opacity:1;stroke-miterlimit:10;" d="M 754.777344 141.5 C 754.777344 145.794922 751.294922 149.277344 747 149.277344 C 742.705078 149.277344 739.222656 145.794922 739.222656 141.5 C 739.222656 137.205078 742.705078 133.722656 747 133.722656 C 751.294922 133.722656 754.777344 137.205078 754.777344 141.5 Z M 754.777344 141.5 " transform="matrix(2,0,0,2,0,0)"/>
</g>
<path style=" stroke:none;fill-rule:nonzero;fill:rgb(34.117647%,32.54902%,30.588235%);fill-opacity:1;" d="M 1524.25 278.480469 C 1524.25 277.324219 1523.984375 276.488281 1523.453125 275.964844 C 1522.921875 275.445312 1522.097656 275.183594 1520.984375 275.183594 C 1520.378906 275.183594 1519.867188 275.246094 1519.453125 275.371094 L 1519.453125 281.792969 C 1519.890625 281.867188 1520.398438 281.902344 1520.984375 281.902344 C 1522.117188 281.902344 1522.945312 281.644531 1523.46875 281.121094 C 1523.988281 280.601562 1524.25 279.722656 1524.25 278.480469 Z M 1526.015625 278.480469 C 1526.015625 280.242188 1525.625 281.507812 1524.84375 282.277344 C 1524.070312 283.050781 1522.863281 283.433594 1521.21875 283.433594 C 1520.707031 283.433594 1520.117188 283.398438 1519.453125 283.324219 L 1519.453125 289.933594 L 1517.65625 289.933594 L 1517.65625 273.980469 C 1518.800781 273.761719 1519.972656 273.652344 1521.171875 273.652344 C 1522.835938 273.652344 1524.0625 274.039062 1524.84375 274.808594 C 1525.625 275.570312 1526.015625 276.792969 1526.015625 278.480469 Z M 1533.6875 287.292969 L 1533.734375 287.292969 L 1536.3125 278.480469 L 1538.234375 278.480469 L 1532.9375 294.777344 L 1531.109375 294.777344 L 1532.828125 289.699219 L 1528.984375 278.480469 L 1530.921875 278.480469 Z M 1545.375 278.933594 L 1549.34375 278.933594 L 1549.34375 280.433594 L 1545.375 280.433594 L 1545.375 286.621094 C 1545.375 287.445312 1545.492188 287.992188 1545.734375 288.261719 C 1545.984375 288.535156 1546.457031 288.667969 1547.15625 288.667969 C 1547.882812 288.667969 1548.539062 288.539062 1549.125 288.277344 L 1549.125 289.808594 C 1548.425781 290.039062 1547.695312 290.152344 1546.9375 290.152344 C 1545.707031 290.152344 1544.847656 289.914062 1544.359375 289.433594 C 1543.867188 288.957031 1543.625 288.089844 1543.625 286.839844 L 1543.625 280.433594 L 1541.4375 280.433594 L 1541.4375 278.933594 L 1543.625 278.933594 L 1543.625 274.746094 L 1545.375 274.746094 Z M 1561.6875 282.667969 L 1561.6875 289.933594 L 1560 289.933594 L 1560 283.058594 C 1560 281.769531 1559.847656 280.910156 1559.546875 280.480469 C 1559.253906 280.054688 1558.71875 279.839844 1557.9375 279.839844 C 1557.195312 279.839844 1556.566406 280.253906 1556.046875 281.074219 C 1555.535156 281.886719 1555.28125 282.992188 1555.28125 284.386719 L 1555.28125 289.933594 L 1553.546875 289.933594 L 1553.546875 273.871094 L 1555.28125 273.871094 L 1555.28125 280.136719 L 1555.328125 280.136719 C 1555.597656 279.566406 1556.007812 279.113281 1556.5625 278.777344 C 1557.113281 278.445312 1557.71875 278.277344 1558.375 278.277344 C 1559.539062 278.277344 1560.382812 278.613281 1560.90625 279.277344 C 1561.425781 279.933594 1561.6875 281.066406 1561.6875 282.667969 Z M 1565.09375 284.214844 C 1565.09375 280.257812 1566.5625 278.277344 1569.5 278.277344 C 1572.4375 278.277344 1573.90625 280.257812 1573.90625 284.214844 C 1573.90625 288.175781 1572.4375 290.152344 1569.5 290.152344 C 1566.5625 290.152344 1565.09375 288.175781 1565.09375 284.214844 Z M 1567.53125 287.621094 C 1567.957031 288.289062 1568.613281 288.621094 1569.5 288.621094 C 1570.382812 288.621094 1571.035156 288.289062 1571.453125 287.621094 C 1571.878906 286.957031 1572.09375 285.820312 1572.09375 284.214844 C 1572.09375 282.601562 1571.878906 281.460938 1571.453125 280.792969 C 1571.035156 280.128906 1570.382812 279.792969 1569.5 279.792969 C 1568.613281 279.792969 1567.957031 280.128906 1567.53125 280.792969 C 1567.113281 281.460938 1566.90625 282.601562 1566.90625 284.214844 C 1566.90625 285.820312 1567.113281 286.957031 1567.53125 287.621094 Z M 1585.6875 282.667969 L 1585.6875 289.933594 L 1584 289.933594 L 1584 283.058594 C 1584 281.769531 1583.847656 280.910156 1583.546875 280.480469 C 1583.253906 280.054688 1582.71875 279.839844 1581.9375 279.839844 C 1581.195312 279.839844 1580.566406 280.253906 1580.046875 281.074219 C 1579.535156 281.886719 1579.28125 282.992188 1579.28125 284.386719 L 1579.28125 289.933594 L 1577.546875 289.933594 L 1577.546875 278.480469 L 1579.15625 278.480469 L 1579.21875 280.136719 L 1579.265625 280.136719 C 1579.535156 279.585938 1579.957031 279.136719 1580.53125 278.792969 C 1581.101562 278.449219 1581.71875 278.277344 1582.375 278.277344 C 1583.539062 278.277344 1584.382812 278.613281 1584.90625 279.277344 C 1585.425781 279.933594 1585.6875 281.066406 1585.6875 282.667969 Z M 1605.671875 289.933594 L 1605.671875 275.730469 L 1605.625 275.714844 L 1601.828125 277.933594 L 1601.828125 276.183594 L 1605.671875 273.871094 L 1607.484375 273.871094 L 1607.484375 289.933594 Z M 1615.953125 280.464844 L 1616 280.464844 C 1616.488281 280.039062 1617.132812 279.824219 1617.9375 279.824219 C 1620.28125 279.824219 1621.453125 281.507812 1621.453125 284.871094 C 1621.453125 286.707031 1621.085938 288.042969 1620.359375 288.886719 C 1619.640625 289.730469 1618.578125 290.152344 1617.171875 290.152344 C 1616.085938 290.152344 1615.023438 289.929688 1613.984375 289.480469 L 1613.984375 287.574219 C 1615.078125 288.199219 1616.109375 288.511719 1617.078125 288.511719 C 1618.765625 288.511719 1619.609375 287.300781 1619.609375 284.871094 C 1619.609375 282.582031 1618.90625 281.433594 1617.5 281.433594 C 1616.820312 281.433594 1616.234375 281.730469 1615.734375 282.324219 L 1614.078125 282.324219 L 1614.328125 273.871094 L 1621.03125 273.871094 L 1621.03125 275.449219 L 1616.109375 275.449219 Z M 1625.3125 284.199219 L 1633.6875 277.824219 L 1633.6875 279.574219 L 1625.3125 285.964844 Z M 1625.421875 274.558594 C 1625.921875 273.957031 1626.617188 273.652344 1627.515625 273.652344 C 1628.410156 273.652344 1629.109375 273.957031 1629.609375 274.558594 C 1630.117188 275.152344 1630.375 276.023438 1630.375 277.167969 C 1630.375 278.316406 1630.117188 279.191406 1629.609375 279.792969 C 1629.109375 280.386719 1628.410156 280.683594 1627.515625 280.683594 C 1626.617188 280.683594 1625.921875 280.386719 1625.421875 279.792969 C 1624.921875 279.191406 1624.671875 278.316406 1624.671875 277.167969 C 1624.671875 276.023438 1624.921875 275.152344 1625.421875 274.558594 Z M 1629.375 284.011719 C 1629.882812 283.410156 1630.585938 283.105469 1631.484375 283.105469 C 1632.378906 283.105469 1633.078125 283.410156 1633.578125 284.011719 C 1634.078125 284.605469 1634.328125 285.476562 1634.328125 286.621094 C 1634.328125 287.769531 1634.078125 288.644531 1633.578125 289.246094 C 1633.078125 289.851562 1632.378906 290.152344 1631.484375 290.152344 C 1630.585938 290.152344 1629.882812 289.851562 1629.375 289.246094 C 1628.875 288.644531 1628.625 287.769531 1628.625 286.621094 C 1628.625 285.476562 1628.875 284.605469 1629.375 284.011719 Z M 1626.390625 277.167969 C 1626.390625 278.523438 1626.765625 279.199219 1627.515625 279.199219 C 1628.273438 279.199219 1628.65625 278.523438 1628.65625 277.167969 C 1628.65625 275.816406 1628.273438 275.136719 1627.515625 275.136719 C 1626.765625 275.136719 1626.390625 275.816406 1626.390625 277.167969 Z M 1630.34375 286.636719 C 1630.34375 287.980469 1630.71875 288.652344 1631.46875 288.652344 C 1632.226562 288.652344 1632.609375 287.980469 1632.609375 286.636719 C 1632.609375 285.285156 1632.226562 284.605469 1631.46875 284.605469 C 1630.71875 284.605469 1630.34375 285.285156 1630.34375 286.636719 Z M 1516 269.140625 "/>
<path style=" stroke:none;fill-rule:nonzero;fill:rgb(66.27451%,48.235294%,100%);fill-opacity:1;" d="M 1509.554688 333 C 1509.554688 341.589844 1502.589844 348.554688 1494 348.554688 C 1485.410156 348.554688 1478.445312 341.589844 1478.445312 333 C 1478.445312 324.410156 1485.410156 317.445312 1494 317.445312 C 1502.589844 317.445312 1509.554688 324.410156 1509.554688 333 Z M 1509.554688 333 "/>
<g clip-path="url(#cCyHI7Cd69__clip4)" clip-rule="nonzero">
<path style="fill:none;stroke-width:2;stroke-linecap:butt;stroke-linejoin:miter;stroke:rgb(96.078431%,96.078431%,95.686275%);stroke-opacity:1;stroke-miterlimit:10;" d="M 754.777344 166.5 C 754.777344 170.794922 751.294922 174.277344 747 174.277344 C 742.705078 174.277344 739.222656 170.794922 739.222656 166.5 C 739.222656 162.205078 742.705078 158.722656 747 158.722656 C 751.294922 158.722656 754.777344 162.205078 754.777344 166.5 Z M 754.777344 166.5 " transform="matrix(2,0,0,2,0,0)"/>
</g>
<path style=" stroke:none;fill-rule:nonzero;fill:rgb(34.117647%,32.54902%,30.588235%);fill-opacity:1;" d="M 1519.453125 331.121094 L 1519.5 331.121094 L 1524.03125 323.871094 L 1526.125 323.871094 L 1521.171875 331.558594 L 1526.234375 339.933594 L 1524.140625 339.933594 L 1519.5 332.011719 L 1519.453125 332.011719 L 1519.453125 339.933594 L 1517.65625 339.933594 L 1517.65625 323.871094 L 1519.453125 323.871094 Z M 1529.09375 334.214844 C 1529.09375 330.257812 1530.5625 328.277344 1533.5 328.277344 C 1536.4375 328.277344 1537.90625 330.257812 1537.90625 334.214844 C 1537.90625 338.175781 1536.4375 340.152344 1533.5 340.152344 C 1530.5625 340.152344 1529.09375 338.175781 1529.09375 334.214844 Z M 1531.53125 337.621094 C 1531.957031 338.289062 1532.613281 338.621094 1533.5 338.621094 C 1534.382812 338.621094 1535.035156 338.289062 1535.453125 337.621094 C 1535.878906 336.957031 1536.09375 335.820312 1536.09375 334.214844 C 1536.09375 332.601562 1535.878906 331.460938 1535.453125 330.792969 C 1535.035156 330.128906 1534.382812 329.792969 1533.5 329.792969 C 1532.613281 329.792969 1531.957031 330.128906 1531.53125 330.792969 C 1531.113281 331.460938 1530.90625 332.601562 1530.90625 334.214844 C 1530.90625 335.820312 1531.113281 336.957031 1531.53125 337.621094 Z M 1545.375 328.933594 L 1549.34375 328.933594 L 1549.34375 330.433594 L 1545.375 330.433594 L 1545.375 336.621094 C 1545.375 337.445312 1545.492188 337.992188 1545.734375 338.261719 C 1545.984375 338.535156 1546.457031 338.667969 1547.15625 338.667969 C 1547.882812 338.667969 1548.539062 338.539062 1549.125 338.277344 L 1549.125 339.808594 C 1548.425781 340.039062 1547.695312 340.152344 1546.9375 340.152344 C 1545.707031 340.152344 1544.847656 339.914062 1544.359375 339.433594 C 1543.867188 338.957031 1543.625 338.089844 1543.625 336.839844 L 1543.625 330.433594 L 1541.4375 330.433594 L 1541.4375 328.933594 L 1543.625 328.933594 L 1543.625 324.746094 L 1545.375 324.746094 Z M 1558.1875 336.621094 C 1558.1875 337.601562 1558.257812 338.183594 1558.40625 338.371094 C 1558.5625 338.558594 1559.035156 338.652344 1559.828125 338.652344 C 1560.296875 338.652344 1560.835938 338.605469 1561.453125 338.511719 L 1561.453125 340.042969 C 1560.765625 340.117188 1560.140625 340.152344 1559.578125 340.152344 C 1558.265625 340.152344 1557.40625 339.945312 1557 339.527344 C 1556.59375 339.101562 1556.390625 338.207031 1556.390625 336.839844 L 1556.390625 325.371094 L 1553.546875 325.371094 L 1553.546875 323.871094 L 1558.1875 323.871094 Z M 1570.96875 328.480469 L 1570.96875 338.433594 L 1573.34375 338.433594 L 1573.34375 339.933594 L 1566.078125 339.933594 L 1566.078125 338.433594 L 1569.15625 338.433594 L 1569.15625 329.996094 L 1566.75 329.996094 L 1566.75 328.480469 Z M 1568.703125 325.839844 L 1568.703125 323.199219 L 1570.96875 323.199219 L 1570.96875 325.839844 Z M 1585.6875 332.667969 L 1585.6875 339.933594 L 1584 339.933594 L 1584 333.058594 C 1584 331.769531 1583.847656 330.910156 1583.546875 330.480469 C 1583.253906 330.054688 1582.71875 329.839844 1581.9375 329.839844 C 1581.195312 329.839844 1580.566406 330.253906 1580.046875 331.074219 C 1579.535156 331.886719 1579.28125 332.992188 1579.28125 334.386719 L 1579.28125 339.933594 L 1577.546875 339.933594 L 1577.546875 328.480469 L 1579.15625 328.480469 L 1579.21875 330.136719 L 1579.265625 330.136719 C 1579.535156 329.585938 1579.957031 329.136719 1580.53125 328.792969 C 1581.101562 328.449219 1581.71875 328.277344 1582.375 328.277344 C 1583.539062 328.277344 1584.382812 328.613281 1584.90625 329.277344 C 1585.425781 329.933594 1585.6875 331.066406 1585.6875 332.667969 Z M 1605.671875 339.933594 L 1605.671875 325.730469 L 1605.625 325.714844 L 1601.828125 327.933594 L 1601.828125 326.183594 L 1605.671875 323.871094 L 1607.484375 323.871094 L 1607.484375 339.933594 Z M 1615.84375 338.308594 L 1615.84375 338.339844 L 1621.234375 338.339844 L 1621.234375 339.933594 L 1613.765625 339.933594 L 1613.765625 338.339844 C 1617.441406 334.121094 1619.28125 330.617188 1619.28125 327.824219 C 1619.28125 326.128906 1618.601562 325.277344 1617.25 325.277344 C 1616.800781 325.277344 1616.238281 325.445312 1615.5625 325.777344 C 1614.894531 326.113281 1614.296875 326.511719 1613.765625 326.980469 L 1613.765625 325.074219 C 1614.867188 324.128906 1616.113281 323.652344 1617.5 323.652344 C 1618.75 323.652344 1619.664062 323.996094 1620.25 324.683594 C 1620.832031 325.371094 1621.125 326.417969 1621.125 327.824219 C 1621.125 329.285156 1620.726562 330.816406 1619.9375 332.417969 C 1619.144531 334.011719 1617.78125 335.976562 1615.84375 338.308594 Z M 1625.3125 334.199219 L 1633.6875 327.824219 L 1633.6875 329.574219 L 1625.3125 335.964844 Z M 1625.421875 324.558594 C 1625.921875 323.957031 1626.617188 323.652344 1627.515625 323.652344 C 1628.410156 323.652344 1629.109375 323.957031 1629.609375 324.558594 C 1630.117188 325.152344 1630.375 326.023438 1630.375 327.167969 C 1630.375 328.316406 1630.117188 329.191406 1629.609375 329.792969 C 1629.109375 330.386719 1628.410156 330.683594 1627.515625 330.683594 C 1626.617188 330.683594 1625.921875 330.386719 1625.421875 329.792969 C 1624.921875 329.191406 1624.671875 328.316406 1624.671875 327.167969 C 1624.671875 326.023438 1624.921875 325.152344 1625.421875 324.558594 Z M 1629.375 334.011719 C 1629.882812 333.410156 1630.585938 333.105469 1631.484375 333.105469 C 1632.378906 333.105469 1633.078125 333.410156 1633.578125 334.011719 C 1634.078125 334.605469 1634.328125 335.476562 1634.328125 336.621094 C 1634.328125 337.769531 1634.078125 338.644531 1633.578125 339.246094 C 1633.078125 339.851562 1632.378906 340.152344 1631.484375 340.152344 C 1630.585938 340.152344 1629.882812 339.851562 1629.375 339.246094 C 1628.875 338.644531 1628.625 337.769531 1628.625 336.621094 C 1628.625 335.476562 1628.875 334.605469 1629.375 334.011719 Z M 1626.390625 327.167969 C 1626.390625 328.523438 1626.765625 329.199219 1627.515625 329.199219 C 1628.273438 329.199219 1628.65625 328.523438 1628.65625 327.167969 C 1628.65625 325.816406 1628.273438 325.136719 1627.515625 325.136719 C 1626.765625 325.136719 1626.390625 325.816406 1626.390625 327.167969 Z M 1630.34375 336.636719 C 1630.34375 337.980469 1630.71875 338.652344 1631.46875 338.652344 C 1632.226562 338.652344 1632.609375 337.980469 1632.609375 336.636719 C 1632.609375 335.285156 1632.226562 334.605469 1631.46875 334.605469 C 1630.71875 334.605469 1630.34375 335.285156 1630.34375 336.636719 Z M 1516 319.140625 "/>
<path style=" stroke:none;fill-rule:nonzero;fill:rgb(69.019608%,44.705882%,9.803922%);fill-opacity:1;" d="M 1509.554688 383 C 1509.554688 391.589844 1502.589844 398.554688 1494 398.554688 C 1485.410156 398.554688 1478.445312 391.589844 1478.445312 383 C 1478.445312 374.410156 1485.410156 367.445312 1494 367.445312 C 1502.589844 367.445312 1509.554688 374.410156 1509.554688 383 Z M 1509.554688 383 "/>
<g clip-path="url(#cCyHI7Cd69__clip5)" clip-rule="nonzero">
<path style="fill:none;stroke-width:2;stroke-linecap:butt;stroke-linejoin:miter;stroke:rgb(96.078431%,96.078431%,95.686275%);stroke-opacity:1;stroke-miterlimit:10;" d="M 754.777344 191.5 C 754.777344 195.794922 751.294922 199.277344 747 199.277344 C 742.705078 199.277344 739.222656 195.794922 739.222656 191.5 C 739.222656 187.205078 742.705078 183.722656 747 183.722656 C 751.294922 183.722656 754.777344 187.205078 754.777344 191.5 Z M 754.777344 191.5 " transform="matrix(2,0,0,2,0,0)"/>
</g>
<path style=" stroke:none;fill-rule:nonzero;fill:rgb(34.117647%,32.54902%,30.588235%);fill-opacity:1;" d="M 1524.8125 373.871094 L 1524.8125 385.746094 C 1524.8125 387.363281 1524.488281 388.503906 1523.84375 389.167969 C 1523.207031 389.824219 1522.132812 390.152344 1520.625 390.152344 C 1519.414062 390.152344 1518.3125 389.929688 1517.3125 389.480469 L 1517.3125 387.574219 C 1517.738281 387.816406 1518.289062 388.039062 1518.96875 388.246094 C 1519.65625 388.457031 1520.207031 388.558594 1520.625 388.558594 C 1521.394531 388.558594 1521.972656 388.339844 1522.359375 387.902344 C 1522.742188 387.457031 1522.9375 386.722656 1522.9375 385.699219 L 1522.9375 375.417969 L 1519.3125 375.417969 L 1519.3125 373.871094 Z M 1533.609375 378.277344 C 1535.085938 378.277344 1536.097656 378.570312 1536.640625 379.152344 C 1537.179688 379.738281 1537.453125 380.832031 1537.453125 382.433594 L 1537.453125 389.933594 L 1535.890625 389.933594 L 1535.84375 388.277344 L 1535.78125 388.277344 C 1535.09375 389.527344 1534.003906 390.152344 1532.515625 390.152344 C 1531.554688 390.152344 1530.78125 389.851562 1530.1875 389.246094 C 1529.601562 388.632812 1529.3125 387.792969 1529.3125 386.730469 C 1529.3125 385.398438 1529.757812 384.371094 1530.65625 383.652344 C 1531.5625 382.933594 1532.910156 382.574219 1534.703125 382.574219 L 1535.75 382.574219 L 1535.75 382.011719 C 1535.75 381.179688 1535.585938 380.589844 1535.265625 380.246094 C 1534.953125 379.902344 1534.398438 379.730469 1533.609375 379.730469 C 1533.117188 379.730469 1532.5 379.820312 1531.75 379.996094 C 1531.007812 380.175781 1530.382812 380.378906 1529.875 380.605469 L 1529.875 379.042969 C 1530.382812 378.816406 1531.003906 378.632812 1531.734375 378.496094 C 1532.460938 378.351562 1533.085938 378.277344 1533.609375 378.277344 Z M 1535.75 383.871094 L 1534.703125 383.871094 C 1532.210938 383.871094 1530.96875 384.789062 1530.96875 386.621094 C 1530.96875 387.289062 1531.132812 387.800781 1531.46875 388.152344 C 1531.800781 388.496094 1532.253906 388.667969 1532.828125 388.667969 C 1533.703125 388.667969 1534.40625 388.320312 1534.9375 387.621094 C 1535.476562 386.914062 1535.75 385.925781 1535.75 384.652344 Z M 1545.515625 388.605469 L 1545.5625 388.605469 L 1548.09375 378.480469 L 1549.90625 378.480469 L 1546.703125 389.933594 L 1544.296875 389.933594 L 1541.09375 378.480469 L 1542.984375 378.480469 Z M 1557.609375 378.277344 C 1559.085938 378.277344 1560.097656 378.570312 1560.640625 379.152344 C 1561.179688 379.738281 1561.453125 380.832031 1561.453125 382.433594 L 1561.453125 389.933594 L 1559.890625 389.933594 L 1559.84375 388.277344 L 1559.78125 388.277344 C 1559.09375 389.527344 1558.003906 390.152344 1556.515625 390.152344 C 1555.554688 390.152344 1554.78125 389.851562 1554.1875 389.246094 C 1553.601562 388.632812 1553.3125 387.792969 1553.3125 386.730469 C 1553.3125 385.398438 1553.757812 384.371094 1554.65625 383.652344 C 1555.5625 382.933594 1556.910156 382.574219 1558.703125 382.574219 L 1559.75 382.574219 L 1559.75 382.011719 C 1559.75 381.179688 1559.585938 380.589844 1559.265625 380.246094 C 1558.953125 379.902344 1558.398438 379.730469 1557.609375 379.730469 C 1557.117188 379.730469 1556.5 379.820312 1555.75 379.996094 C 1555.007812 380.175781 1554.382812 380.378906 1553.875 380.605469 L 1553.875 379.042969 C 1554.382812 378.816406 1555.003906 378.632812 1555.734375 378.496094 C 1556.460938 378.351562 1557.085938 378.277344 1557.609375 378.277344 Z M 1559.75 383.871094 L 1558.703125 383.871094 C 1556.210938 383.871094 1554.96875 384.789062 1554.96875 386.621094 C 1554.96875 387.289062 1555.132812 387.800781 1555.46875 388.152344 C 1555.800781 388.496094 1556.253906 388.667969 1556.828125 388.667969 C 1557.703125 388.667969 1558.40625 388.320312 1558.9375 387.621094 C 1559.476562 386.914062 1559.75 385.925781 1559.75 384.652344 Z M 1581.609375 375.183594 C 1580.835938 375.183594 1580.238281 375.386719 1579.8125 375.792969 C 1579.394531 376.199219 1579.1875 376.769531 1579.1875 377.496094 C 1579.1875 378.289062 1579.398438 378.976562 1579.828125 379.558594 C 1580.253906 380.144531 1580.8125 380.519531 1581.5 380.683594 C 1582.257812 380.476562 1582.847656 380.097656 1583.265625 379.542969 C 1583.691406 378.992188 1583.90625 378.308594 1583.90625 377.496094 C 1583.90625 376.808594 1583.691406 376.253906 1583.265625 375.824219 C 1582.847656 375.398438 1582.296875 375.183594 1581.609375 375.183594 Z M 1584.75 389.027344 C 1583.988281 389.777344 1582.90625 390.152344 1581.5 390.152344 C 1580.09375 390.152344 1579.003906 389.777344 1578.234375 389.027344 C 1577.472656 388.277344 1577.09375 387.183594 1577.09375 385.746094 C 1577.09375 384.746094 1577.335938 383.878906 1577.828125 383.136719 C 1578.316406 382.386719 1578.988281 381.832031 1579.84375 381.464844 L 1579.84375 381.433594 C 1579.144531 381.101562 1578.566406 380.566406 1578.109375 379.824219 C 1577.660156 379.074219 1577.4375 378.300781 1577.4375 377.496094 C 1577.4375 376.300781 1577.796875 375.363281 1578.515625 374.683594 C 1579.234375 373.996094 1580.226562 373.652344 1581.5 373.652344 C 1582.769531 373.652344 1583.765625 373.996094 1584.484375 374.683594 C 1585.203125 375.371094 1585.5625 376.308594 1585.5625 377.496094 C 1585.5625 378.308594 1585.335938 379.070312 1584.890625 379.777344 C 1584.453125 380.476562 1583.875 380.992188 1583.15625 381.324219 L 1583.15625 381.371094 C 1584.007812 381.714844 1584.679688 382.269531 1585.171875 383.027344 C 1585.660156 383.777344 1585.90625 384.683594 1585.90625 385.746094 C 1585.90625 387.183594 1585.519531 388.277344 1584.75 389.027344 Z M 1581.609375 388.605469 C 1582.378906 388.605469 1582.992188 388.363281 1583.453125 387.871094 C 1583.910156 387.382812 1584.140625 386.675781 1584.140625 385.746094 C 1584.140625 383.839844 1583.222656 382.667969 1581.390625 382.230469 C 1580.492188 382.472656 1579.832031 382.871094 1579.40625 383.433594 C 1578.976562 383.988281 1578.765625 384.757812 1578.765625 385.746094 C 1578.765625 386.652344 1579.019531 387.355469 1579.53125 387.855469 C 1580.050781 388.355469 1580.742188 388.605469 1581.609375 388.605469 Z M 1589.3125 384.199219 L 1597.6875 377.824219 L 1597.6875 379.574219 L 1589.3125 385.964844 Z M 1589.421875 374.558594 C 1589.921875 373.957031 1590.617188 373.652344 1591.515625 373.652344 C 1592.410156 373.652344 1593.109375 373.957031 1593.609375 374.558594 C 1594.117188 375.152344 1594.375 376.023438 1594.375 377.167969 C 1594.375 378.316406 1594.117188 379.191406 1593.609375 379.792969 C 1593.109375 380.386719 1592.410156 380.683594 1591.515625 380.683594 C 1590.617188 380.683594 1589.921875 380.386719 1589.421875 379.792969 C 1588.921875 379.191406 1588.671875 378.316406 1588.671875 377.167969 C 1588.671875 376.023438 1588.921875 375.152344 1589.421875 374.558594 Z M 1593.375 384.011719 C 1593.882812 383.410156 1594.585938 383.105469 1595.484375 383.105469 C 1596.378906 383.105469 1597.078125 383.410156 1597.578125 384.011719 C 1598.078125 384.605469 1598.328125 385.476562 1598.328125 386.621094 C 1598.328125 387.769531 1598.078125 388.644531 1597.578125 389.246094 C 1597.078125 389.851562 1596.378906 390.152344 1595.484375 390.152344 C 1594.585938 390.152344 1593.882812 389.851562 1593.375 389.246094 C 1592.875 388.644531 1592.625 387.769531 1592.625 386.621094 C 1592.625 385.476562 1592.875 384.605469 1593.375 384.011719 Z M 1590.390625 377.167969 C 1590.390625 378.523438 1590.765625 379.199219 1591.515625 379.199219 C 1592.273438 379.199219 1592.65625 378.523438 1592.65625 377.167969 C 1592.65625 375.816406 1592.273438 375.136719 1591.515625 375.136719 C 1590.765625 375.136719 1590.390625 375.816406 1590.390625 377.167969 Z M 1594.34375 386.636719 C 1594.34375 387.980469 1594.71875 388.652344 1595.46875 388.652344 C 1596.226562 388.652344 1596.609375 387.980469 1596.609375 386.636719 C 1596.609375 385.285156 1596.226562 384.605469 1595.46875 384.605469 C 1594.71875 384.605469 1594.34375 385.285156 1594.34375 386.636719 Z M 1516 369.140625 "/>
<path style=" stroke:none;fill-rule:nonzero;fill:rgb(100%,35.294118%,1.176471%);fill-opacity:1;" d="M 1509.554688 433 C 1509.554688 441.589844 1502.589844 448.554688 1494 448.554688 C 1485.410156 448.554688 1478.445312 441.589844 1478.445312 433 C 1478.445312 424.410156 1485.410156 417.445312 1494 417.445312 C 1502.589844 417.445312 1509.554688 424.410156 1509.554688 433 Z M 1509.554688 433 "/>
<g clip-path="url(#cCyHI7Cd69__clip6)" clip-rule="nonzero">
<path style="fill:none;stroke-width:2;stroke-linecap:butt;stroke-linejoin:miter;stroke:rgb(96.078431%,96.078431%,95.686275%);stroke-opacity:1;stroke-miterlimit:10;" d="M 754.777344 216.5 C 754.777344 220.794922 751.294922 224.277344 747 224.277344 C 742.705078 224.277344 739.222656 220.794922 739.222656 216.5 C 739.222656 212.205078 742.705078 208.722656 747 208.722656 C 751.294922 208.722656 754.777344 212.205078 754.777344 216.5 Z M 754.777344 216.5 " transform="matrix(2,0,0,2,0,0)"/>
</g>
<path style=" stroke:none;fill-rule:nonzero;fill:rgb(34.117647%,32.54902%,30.588235%);fill-opacity:1;" d="M 1521.484375 425.417969 L 1521.4375 425.417969 L 1519.609375 433.777344 L 1523.3125 433.777344 Z M 1523.65625 435.324219 L 1519.265625 435.324219 L 1518.234375 439.933594 L 1516.4375 439.933594 L 1520.40625 423.871094 L 1522.59375 423.871094 L 1526.578125 439.933594 L 1524.65625 439.933594 Z M 1533.609375 429.730469 C 1532.203125 429.730469 1531.5 430.269531 1531.5 431.339844 C 1531.5 431.839844 1531.648438 432.242188 1531.953125 432.542969 C 1532.265625 432.847656 1532.816406 433.105469 1533.609375 433.324219 C 1535.171875 433.761719 1536.203125 434.226562 1536.703125 434.714844 C 1537.203125 435.207031 1537.453125 435.957031 1537.453125 436.964844 C 1537.453125 437.976562 1537.109375 438.761719 1536.421875 439.324219 C 1535.734375 439.878906 1534.757812 440.152344 1533.5 440.152344 C 1532.238281 440.152344 1531.03125 439.863281 1529.875 439.277344 L 1529.875 437.511719 C 1531.019531 438.285156 1532.15625 438.667969 1533.28125 438.667969 C 1534.90625 438.667969 1535.71875 438.097656 1535.71875 436.949219 C 1535.71875 436.410156 1535.554688 435.992188 1535.234375 435.699219 C 1534.921875 435.398438 1534.304688 435.121094 1533.390625 434.871094 C 1532.046875 434.488281 1531.101562 434.035156 1530.5625 433.511719 C 1530.03125 432.980469 1529.765625 432.257812 1529.765625 431.339844 C 1529.765625 430.382812 1530.082031 429.632812 1530.71875 429.089844 C 1531.351562 428.550781 1532.28125 428.277344 1533.5 428.277344 C 1534.726562 428.277344 1535.90625 428.535156 1537.03125 429.042969 L 1537.03125 430.683594 C 1535.863281 430.050781 1534.722656 429.730469 1533.609375 429.730469 Z M 1545.375 428.933594 L 1549.34375 428.933594 L 1549.34375 430.433594 L 1545.375 430.433594 L 1545.375 436.621094 C 1545.375 437.445312 1545.492188 437.992188 1545.734375 438.261719 C 1545.984375 438.535156 1546.457031 438.667969 1547.15625 438.667969 C 1547.882812 438.667969 1548.539062 438.539062 1549.125 438.277344 L 1549.125 439.808594 C 1548.425781 440.039062 1547.695312 440.152344 1546.9375 440.152344 C 1545.707031 440.152344 1544.847656 439.914062 1544.359375 439.433594 C 1543.867188 438.957031 1543.625 438.089844 1543.625 436.839844 L 1543.625 430.433594 L 1541.4375 430.433594 L 1541.4375 428.933594 L 1543.625 428.933594 L 1543.625 424.746094 L 1545.375 424.746094 Z M 1556.078125 428.480469 L 1556.078125 430.683594 L 1556.140625 430.683594 C 1557.046875 429.082031 1558.304688 428.277344 1559.921875 428.277344 C 1560.472656 428.277344 1560.984375 428.347656 1561.453125 428.480469 L 1561.453125 430.027344 C 1560.941406 429.871094 1560.429688 429.792969 1559.921875 429.792969 C 1558.847656 429.792969 1557.953125 430.242188 1557.234375 431.136719 C 1556.523438 432.023438 1556.171875 433.195312 1556.171875 434.652344 L 1556.171875 439.933594 L 1554.421875 439.933594 L 1554.421875 428.480469 Z M 1565.09375 434.214844 C 1565.09375 430.257812 1566.5625 428.277344 1569.5 428.277344 C 1572.4375 428.277344 1573.90625 430.257812 1573.90625 434.214844 C 1573.90625 438.175781 1572.4375 440.152344 1569.5 440.152344 C 1566.5625 440.152344 1565.09375 438.175781 1565.09375 434.214844 Z M 1567.53125 437.621094 C 1567.957031 438.289062 1568.613281 438.621094 1569.5 438.621094 C 1570.382812 438.621094 1571.035156 438.289062 1571.453125 437.621094 C 1571.878906 436.957031 1572.09375 435.820312 1572.09375 434.214844 C 1572.09375 432.601562 1571.878906 431.460938 1571.453125 430.792969 C 1571.035156 430.128906 1570.382812 429.792969 1569.5 429.792969 C 1568.613281 429.792969 1567.957031 430.128906 1567.53125 430.792969 C 1567.113281 431.460938 1566.90625 432.601562 1566.90625 434.214844 C 1566.90625 435.820312 1567.113281 436.957031 1567.53125 437.621094 Z M 1594.453125 426.933594 L 1594.40625 426.933594 L 1590.5625 434.464844 L 1590.5625 434.496094 L 1594.453125 434.496094 Z M 1594.453125 436.074219 L 1588.875 436.074219 L 1588.875 434.261719 L 1594.234375 423.871094 L 1596.25 423.871094 L 1596.25 434.496094 L 1598.125 434.496094 L 1598.125 436.074219 L 1596.25 436.074219 L 1596.25 439.933594 L 1594.453125 439.933594 Z M 1601.3125 434.199219 L 1609.6875 427.824219 L 1609.6875 429.574219 L 1601.3125 435.964844 Z M 1601.421875 424.558594 C 1601.921875 423.957031 1602.617188 423.652344 1603.515625 423.652344 C 1604.410156 423.652344 1605.109375 423.957031 1605.609375 424.558594 C 1606.117188 425.152344 1606.375 426.023438 1606.375 427.167969 C 1606.375 428.316406 1606.117188 429.191406 1605.609375 429.792969 C 1605.109375 430.386719 1604.410156 430.683594 1603.515625 430.683594 C 1602.617188 430.683594 1601.921875 430.386719 1601.421875 429.792969 C 1600.921875 429.191406 1600.671875 428.316406 1600.671875 427.167969 C 1600.671875 426.023438 1600.921875 425.152344 1601.421875 424.558594 Z M 1605.375 434.011719 C 1605.882812 433.410156 1606.585938 433.105469 1607.484375 433.105469 C 1608.378906 433.105469 1609.078125 433.410156 1609.578125 434.011719 C 1610.078125 434.605469 1610.328125 435.476562 1610.328125 436.621094 C 1610.328125 437.769531 1610.078125 438.644531 1609.578125 439.246094 C 1609.078125 439.851562 1608.378906 440.152344 1607.484375 440.152344 C 1606.585938 440.152344 1605.882812 439.851562 1605.375 439.246094 C 1604.875 438.644531 1604.625 437.769531 1604.625 436.621094 C 1604.625 435.476562 1604.875 434.605469 1605.375 434.011719 Z M 1602.390625 427.167969 C 1602.390625 428.523438 1602.765625 429.199219 1603.515625 429.199219 C 1604.273438 429.199219 1604.65625 428.523438 1604.65625 427.167969 C 1604.65625 425.816406 1604.273438 425.136719 1603.515625 425.136719 C 1602.765625 425.136719 1602.390625 425.816406 1602.390625 427.167969 Z M 1606.34375 436.636719 C 1606.34375 437.980469 1606.71875 438.652344 1607.46875 438.652344 C 1608.226562 438.652344 1608.609375 437.980469 1608.609375 436.636719 C 1608.609375 435.285156 1608.226562 434.605469 1607.46875 434.605469 C 1606.71875 434.605469 1606.34375 435.285156 1606.34375 436.636719 Z M 1516 419.140625 "/>
<path style=" stroke:none;fill-rule:nonzero;fill:rgb(11.372549%,30.588235%,84.705882%);fill-opacity:1;" d="M 27.09375 59.167969 L 19.390625 77.027344 L 16.8125 77.027344 L 24.515625 59.167969 Z M 39.09375 59.167969 L 31.390625 77.027344 L 28.8125 77.027344 L 36.515625 59.167969 Z M 59.09375 72.371094 C 59.09375 73.246094 59.128906 73.730469 59.203125 73.824219 C 59.273438 73.910156 59.632812 73.949219 60.28125 73.949219 C 60.726562 73.949219 61.421875 73.878906 62.359375 73.730469 L 62.359375 76.199219 C 61.390625 76.304688 60.613281 76.355469 60.03125 76.355469 C 58.59375 76.355469 57.625 76.101562 57.125 75.589844 C 56.632812 75.082031 56.390625 74.082031 56.390625 72.589844 L 56.390625 61.574219 L 53.546875 61.574219 L 53.546875 59.167969 L 59.09375 59.167969 Z M 70.0625 63.574219 C 71.675781 63.574219 72.796875 63.914062 73.421875 64.589844 C 74.046875 65.269531 74.359375 66.464844 74.359375 68.183594 L 74.359375 76.136719 L 71.90625 76.136719 L 72.234375 74.089844 L 72.296875 74.136719 C 71.742188 75.617188 70.632812 76.355469 68.96875 76.355469 C 67.882812 76.355469 67.003906 76.007812 66.328125 75.308594 C 65.648438 74.613281 65.3125 73.667969 65.3125 72.480469 C 65.3125 71.003906 65.8125 69.867188 66.8125 69.074219 C 67.8125 68.273438 69.257812 67.871094 71.15625 67.871094 L 71.75 67.871094 L 71.75 67.761719 C 71.75 67.042969 71.628906 66.558594 71.390625 66.308594 C 71.160156 66.058594 70.71875 65.933594 70.0625 65.933594 C 69.601562 65.933594 69.015625 66.023438 68.296875 66.199219 C 67.585938 66.367188 66.78125 66.652344 65.875 67.058594 L 65.875 64.496094 C 66.59375 64.175781 67.332031 63.941406 68.09375 63.792969 C 68.851562 63.648438 69.507812 63.574219 70.0625 63.574219 Z M 71.75 70.074219 L 71.15625 70.074219 C 68.96875 70.074219 67.875 70.839844 67.875 72.371094 C 67.875 72.914062 67.992188 73.316406 68.234375 73.574219 C 68.484375 73.835938 68.832031 73.964844 69.28125 73.964844 C 70.007812 73.964844 70.601562 73.664062 71.0625 73.058594 C 71.519531 72.457031 71.75 71.570312 71.75 70.402344 Z M 86.59375 68.417969 L 86.59375 76.136719 L 84 76.136719 L 84 68.808594 C 84 67.613281 83.882812 66.851562 83.65625 66.527344 C 83.4375 66.207031 83.015625 66.042969 82.390625 66.042969 C 81.816406 66.042969 81.304688 66.398438 80.859375 67.105469 C 80.410156 67.816406 80.1875 68.824219 80.1875 70.136719 L 80.1875 76.136719 L 77.546875 76.136719 L 77.546875 63.777344 L 80.046875 63.777344 L 79.71875 65.839844 L 79.671875 65.808594 C 79.742188 65.101562 80.101562 64.554688 80.75 64.167969 C 81.394531 63.773438 82.085938 63.574219 82.828125 63.574219 C 84.140625 63.574219 85.09375 63.957031 85.6875 64.714844 C 86.289062 65.476562 86.59375 66.710938 86.59375 68.417969 Z M 89.09375 69.949219 C 89.09375 65.699219 90.523438 63.574219 93.390625 63.574219 C 94.773438 63.574219 95.800781 64.316406 96.46875 65.792969 L 96.421875 65.839844 L 96.078125 63.777344 L 98.59375 63.777344 L 98.59375 75.558594 C 98.59375 77.503906 98.175781 78.925781 97.34375 79.824219 C 96.519531 80.730469 95.28125 81.183594 93.625 81.183594 C 92.53125 81.183594 91.347656 80.953125 90.078125 80.496094 L 90.078125 77.699219 C 91.503906 78.40625 92.6875 78.761719 93.625 78.761719 C 95.175781 78.761719 95.953125 77.691406 95.953125 75.558594 L 96.359375 73.871094 L 96.40625 73.902344 C 95.9375 75.394531 94.929688 76.136719 93.390625 76.136719 C 92.066406 76.136719 91.019531 75.601562 90.25 74.527344 C 89.476562 73.445312 89.09375 71.917969 89.09375 69.949219 Z M 91.75 69.949219 C 91.75 71.222656 91.941406 72.144531 92.328125 72.714844 C 92.722656 73.289062 93.226562 73.574219 93.84375 73.574219 C 94.445312 73.574219 94.945312 73.292969 95.34375 72.730469 C 95.75 72.167969 95.953125 71.277344 95.953125 70.058594 L 95.953125 69.839844 C 95.953125 68.601562 95.742188 67.675781 95.328125 67.058594 C 94.921875 66.433594 94.425781 66.121094 93.84375 66.121094 C 93.15625 66.121094 92.632812 66.410156 92.28125 66.980469 C 91.925781 67.554688 91.75 68.542969 91.75 69.949219 Z M 101.4375 71.714844 L 101.4375 63.777344 L 104.015625 63.777344 L 104.015625 71.324219 C 104.015625 72.449219 104.113281 73.160156 104.3125 73.449219 C 104.519531 73.742188 104.925781 73.886719 105.53125 73.886719 C 106.070312 73.886719 106.550781 73.539062 106.96875 72.839844 C 107.394531 72.132812 107.609375 71.113281 107.609375 69.777344 L 107.609375 63.777344 L 110.25 63.777344 L 110.25 76.136719 L 107.734375 76.136719 L 108.078125 74.074219 L 108.125 74.105469 C 108.0625 74.855469 107.71875 75.417969 107.09375 75.792969 C 106.476562 76.167969 105.804688 76.355469 105.078125 76.355469 C 103.796875 76.355469 102.867188 75.992188 102.296875 75.261719 C 101.722656 74.535156 101.4375 73.351562 101.4375 71.714844 Z M 118.0625 63.574219 C 119.675781 63.574219 120.796875 63.914062 121.421875 64.589844 C 122.046875 65.269531 122.359375 66.464844 122.359375 68.183594 L 122.359375 76.136719 L 119.90625 76.136719 L 120.234375 74.089844 L 120.296875 74.136719 C 119.742188 75.617188 118.632812 76.355469 116.96875 76.355469 C 115.882812 76.355469 115.003906 76.007812 114.328125 75.308594 C 113.648438 74.613281 113.3125 73.667969 113.3125 72.480469 C 113.3125 71.003906 113.8125 69.867188 114.8125 69.074219 C 115.8125 68.273438 117.257812 67.871094 119.15625 67.871094 L 119.75 67.871094 L 119.75 67.761719 C 119.75 67.042969 119.628906 66.558594 119.390625 66.308594 C 119.160156 66.058594 118.71875 65.933594 118.0625 65.933594 C 117.601562 65.933594 117.015625 66.023438 116.296875 66.199219 C 115.585938 66.367188 114.78125 66.652344 113.875 67.058594 L 113.875 64.496094 C 114.59375 64.175781 115.332031 63.941406 116.09375 63.792969 C 116.851562 63.648438 117.507812 63.574219 118.0625 63.574219 Z M 119.75 70.074219 L 119.15625 70.074219 C 116.96875 70.074219 115.875 70.839844 115.875 72.371094 C 115.875 72.914062 115.992188 73.316406 116.234375 73.574219 C 116.484375 73.835938 116.832031 73.964844 117.28125 73.964844 C 118.007812 73.964844 118.601562 73.664062 119.0625 73.058594 C 119.519531 72.457031 119.75 71.570312 119.75 70.402344 Z M 125.09375 69.949219 C 125.09375 65.699219 126.523438 63.574219 129.390625 63.574219 C 130.773438 63.574219 131.800781 64.316406 132.46875 65.792969 L 132.421875 65.839844 L 132.078125 63.777344 L 134.59375 63.777344 L 134.59375 75.558594 C 134.59375 77.503906 134.175781 78.925781 133.34375 79.824219 C 132.519531 80.730469 131.28125 81.183594 129.625 81.183594 C 128.53125 81.183594 127.347656 80.953125 126.078125 80.496094 L 126.078125 77.699219 C 127.503906 78.40625 128.6875 78.761719 129.625 78.761719 C 131.175781 78.761719 131.953125 77.691406 131.953125 75.558594 L 132.359375 73.871094 L 132.40625 73.902344 C 131.9375 75.394531 130.929688 76.136719 129.390625 76.136719 C 128.066406 76.136719 127.019531 75.601562 126.25 74.527344 C 125.476562 73.445312 125.09375 71.917969 125.09375 69.949219 Z M 127.75 69.949219 C 127.75 71.222656 127.941406 72.144531 128.328125 72.714844 C 128.722656 73.289062 129.226562 73.574219 129.84375 73.574219 C 130.445312 73.574219 130.945312 73.292969 131.34375 72.730469 C 131.75 72.167969 131.953125 71.277344 131.953125 70.058594 L 131.953125 69.839844 C 131.953125 68.601562 131.742188 67.675781 131.328125 67.058594 C 130.921875 66.433594 130.425781 66.121094 129.84375 66.121094 C 129.15625 66.121094 128.632812 66.410156 128.28125 66.980469 C 127.925781 67.554688 127.75 68.542969 127.75 69.949219 Z M 139.953125 70.980469 C 139.992188 71.929688 140.222656 72.660156 140.640625 73.167969 C 141.066406 73.667969 141.691406 73.917969 142.515625 73.917969 C 143.328125 73.917969 144.46875 73.566406 145.9375 72.855469 L 145.9375 75.667969 C 144.59375 76.128906 143.410156 76.355469 142.390625 76.355469 C 138.929688 76.355469 137.203125 74.222656 137.203125 69.949219 C 137.203125 67.785156 137.609375 66.179688 138.421875 65.136719 C 139.242188 64.097656 140.457031 63.574219 142.0625 63.574219 C 143.550781 63.574219 144.65625 64.082031 145.375 65.089844 C 146.101562 66.101562 146.46875 67.683594 146.46875 69.839844 C 146.46875 70.007812 146.4375 70.386719 146.375 70.980469 Z M 139.953125 68.621094 L 143.84375 68.621094 C 143.832031 66.871094 143.238281 65.996094 142.0625 65.996094 C 141.375 65.996094 140.859375 66.214844 140.515625 66.652344 C 140.179688 67.082031 139.992188 67.738281 139.953125 68.621094 Z M 154.0625 65.933594 C 152.957031 65.933594 152.40625 66.320312 152.40625 67.089844 C 152.40625 67.464844 152.519531 67.769531 152.75 67.996094 C 152.988281 68.226562 153.46875 68.441406 154.1875 68.636719 C 155.820312 69.097656 156.925781 69.605469 157.5 70.167969 C 158.070312 70.730469 158.359375 71.585938 158.359375 72.730469 C 158.359375 73.878906 157.960938 74.769531 157.171875 75.402344 C 156.390625 76.039062 155.320312 76.355469 153.96875 76.355469 C 152.625 76.355469 151.257812 76.007812 149.875 75.308594 L 149.875 72.417969 C 151.414062 73.449219 152.703125 73.964844 153.734375 73.964844 C 155.054688 73.964844 155.71875 73.542969 155.71875 72.699219 C 155.71875 72.292969 155.59375 71.976562 155.34375 71.746094 C 155.101562 71.519531 154.5625 71.289062 153.71875 71.058594 C 152.300781 70.652344 151.285156 70.152344 150.671875 69.558594 C 150.066406 68.957031 149.765625 68.132812 149.765625 67.089844 C 149.765625 65.996094 150.128906 65.136719 150.859375 64.511719 C 151.585938 63.886719 152.617188 63.574219 153.953125 63.574219 C 155.242188 63.574219 156.570312 63.882812 157.9375 64.496094 L 157.9375 67.199219 C 156.394531 66.355469 155.101562 65.933594 154.0625 65.933594 Z M 16 55.34375 "/>
<path style="fill-rule:nonzero;fill:rgb(0%,70.588235%,67.058824%);fill-opacity:1;stroke-width:2;stroke-linecap:butt;stroke-linejoin:bevel;stroke:rgb(96.078431%,96.078431%,95.686275%);stroke-opacity:1;stroke-miterlimit:10;" d="M 367.75 50.199219 C 410.271484 50.199219 449.285156 73.785156 469.046875 111.435547 C 488.806641 149.085938 486.054688 194.591797 461.898438 229.585938 L 419.53125 200.341797 C 432.818359 181.095703 434.332031 156.068359 423.462891 135.359375 C 412.59375 114.652344 391.136719 101.679688 367.75 101.679688 Z M 367.75 50.199219 " transform="matrix(2,0,0,2,0,0)"/>
<path style="fill-rule:nonzero;fill:rgb(19.215686%,47.058824%,77.647059%);fill-opacity:1;stroke-width:2;stroke-linecap:butt;stroke-linejoin:bevel;stroke:rgb(96.078431%,96.078431%,95.686275%);stroke-opacity:1;stroke-miterlimit:10;" d="M 461.898438 229.585938 C 443.298828 256.533203 414.042969 274.21875 381.539062 278.166016 C 349.035156 282.113281 316.396484 271.941406 291.888672 250.230469 L 326.025391 211.697266 C 339.505859 223.638672 357.457031 229.232422 375.333984 227.060547 C 393.210938 224.890625 409.302734 215.164062 419.53125 200.341797 Z M 461.898438 229.585938 " transform="matrix(2,0,0,2,0,0)"/>
<path style="fill-rule:nonzero;fill:rgb(20.784314%,44.705882%,64.705882%);fill-opacity:1;stroke-width:2;stroke-linecap:butt;stroke-linejoin:bevel;stroke:rgb(96.078431%,96.078431%,95.686275%);stroke-opacity:1;stroke-miterlimit:10;" d="M 291.888672 250.230469 C 278.025391 237.947266 267.351562 222.484375 260.783203 205.166016 C 254.216797 187.849609 251.951172 169.197266 254.183594 150.810547 L 305.289062 157.015625 C 304.060547 167.128906 305.306641 177.386719 308.917969 186.912109 C 312.53125 196.435547 318.402344 204.941406 326.025391 211.697266 Z M 291.888672 250.230469 " transform="matrix(2,0,0,2,0,0)"/>
<path style="fill-rule:nonzero;fill:rgb(66.27451%,48.235294%,100%);fill-opacity:1;stroke-width:2;stroke-linecap:butt;stroke-linejoin:bevel;stroke:rgb(96.078431%,96.078431%,95.686275%);stroke-opacity:1;stroke-miterlimit:10;" d="M 254.183594 150.810547 C 255.855469 137.050781 260.011719 123.708984 266.453125 111.435547 C 272.894531 99.162109 281.513672 88.162109 291.888672 78.970703 L 326.025391 117.503906 C 320.320312 122.558594 315.580078 128.609375 312.037109 135.359375 C 308.494141 142.109375 306.207031 149.447266 305.289062 157.015625 Z M 254.183594 150.810547 " transform="matrix(2,0,0,2,0,0)"/>
<path style="fill-rule:nonzero;fill:rgb(69.019608%,44.705882%,9.803922%);fill-opacity:1;stroke-width:2;stroke-linecap:butt;stroke-linejoin:bevel;stroke:rgb(96.078431%,96.078431%,95.686275%);stroke-opacity:1;stroke-miterlimit:10;" d="M 291.888672 78.970703 C 298.794922 72.851562 306.416016 67.591797 314.585938 63.304688 C 322.755859 59.015625 331.414062 55.732422 340.373047 53.523438 L 352.691406 103.507812 C 347.765625 104.722656 343.003906 106.529297 338.509766 108.886719 C 334.015625 111.246094 329.824219 114.138672 326.025391 117.503906 Z M 291.888672 78.970703 " transform="matrix(2,0,0,2,0,0)"/>
<path style="fill-rule:nonzero;fill:rgb(100%,35.294118%,1.176471%);fill-opacity:1;stroke-width:2;stroke-linecap:butt;stroke-linejoin:bevel;stroke:rgb(96.078431%,96.078431%,95.686275%);stroke-opacity:1;stroke-miterlimit:10;" d="M 340.373047 53.523438 C 344.847656 52.421875 349.384766 51.589844 353.960938 51.033203 C 358.535156 50.478516 363.140625 50.199219 367.75 50.199219 L 367.75 101.679688 C 365.214844 101.679688 362.681641 101.833984 360.166016 102.138672 C 357.648438 102.443359 355.154297 102.902344 352.691406 103.507812 Z M 340.373047 53.523438 " transform="matrix(2,0,0,2,0,0)"/>
</g>
</svg>
