<?xml version="1.0" encoding="UTF-8"?>
<svg xmlns="http://www.w3.org/2000/svg" xmlns:xlink="http://www.w3.org/1999/xlink" width="1720pt" height="560pt" viewBox="0 0 1720 560" version="1.1">
<defs>
<clipPath id="17jixpTrgI__clip1">
  <path d="M 1469 110 L 1581 110 L 1581 256 L 1469 256 Z M 1469 110 "/>
</clipPath>
<clipPath id="17jixpTrgI__clip2">
  <path d="M 1469 160 L 1581 160 L 1581 306 L 1469 306 Z M 1469 160 "/>
</clipPath>
<clipPath id="17jixpTrgI__clip3">
  <path d="M 1469 210 L 1581 210 L 1581 356 L 1469 356 Z M 1469 210 "/>
</clipPath>
<clipPath id="17jixpTrgI__clip4">
  <path d="M 1469 260 L 1581 260 L 1581 406 L 1469 406 Z M 1469 260 "/>
</clipPath>
<clipPath id="17jixpTrgI__clip5">
  <path d="M 1469 310 L 1581 310 L 1581 456 L 1469 456 Z M 1469 310 "/>
</clipPath>
<clipPath id="17jixpTrgI__clip6">
  <path d="M 1469 360 L 1581 360 L 1581 506 L 1469 506 Z M 1469 360 "/>
</clipPath>
</defs>
<g id="surface23481">
<rect x="0" y="0" width="1720" height="560" style="fill:rgb(5.098039%,5.098039%,5.098039%);fill-opacity:1;stroke:none;"/>
<path style=" stroke:none;fill-rule:nonzero;fill:rgb(0%,70.588235%,67.058824%);fill-opacity:1;" d="M 1523.554688 183 C 1523.554688 191.589844 1516.589844 198.554688 1508 198.554688 C 1499.410156 198.554688 1492.445312 191.589844 1492.445312 183 C 1492.445312 174.410156 1499.410156 167.445312 1508 167.445312 C 1516.589844 167.445312 1523.554688 174.410156 1523.554688 183 Z M 1523.554688 183 "/>
<g clip-path="url(#17jixpTrgI__clip1)" clip-rule="nonzero">
<path style="fill:none;stroke-width:2;stroke-linecap:butt;stroke-linejoin:miter;stroke:rgb(5.098039%,5.098039%,5.098039%);stroke-opacity:1;stroke-miterlimit:10;" d="M 761.777344 91.5 C 761.777344 95.794922 758.294922 99.277344 754 99.277344 C 749.705078 99.277344 746.222656 95.794922 746.222656 91.5 C 746.222656 87.205078 749.705078 83.722656 754 83.722656 C 758.294922 83.722656 761.777344 87.205078 761.777344 91.5 Z M 761.777344 91.5 " transform="matrix(2,0,0,2,0,0)"/>
</g>
<path style=" stroke:none;fill-rule:nonzero;fill:rgb(62.745098%,62.745098%,62.745098%);fill-opacity:1;" d="M 1538.421875 181.902344 C 1538.421875 179.433594 1538.101562 177.710938 1537.46875 176.730469 C 1536.832031 175.742188 1535.828125 175.246094 1534.453125 175.246094 C 1533.960938 175.246094 1533.5625 175.304688 1533.25 175.417969 L 1533.25 188.386719 C 1533.5625 188.503906 1533.960938 188.558594 1534.453125 188.558594 C 1535.390625 188.558594 1536.132812 188.382812 1536.6875 188.027344 C 1537.238281 187.664062 1537.664062 186.992188 1537.96875 186.011719 C 1538.269531 185.035156 1538.421875 183.664062 1538.421875 181.902344 Z M 1540.234375 181.902344 C 1540.234375 184.933594 1539.765625 187.070312 1538.828125 188.308594 C 1537.898438 189.539062 1536.441406 190.152344 1534.453125 190.152344 C 1533.421875 190.152344 1532.414062 190.039062 1531.4375 189.808594 L 1531.4375 173.980469 C 1532.414062 173.761719 1533.421875 173.652344 1534.453125 173.652344 C 1536.453125 173.652344 1537.914062 174.285156 1538.84375 175.542969 C 1539.769531 176.792969 1540.234375 178.914062 1540.234375 181.902344 Z M 1546.609375 178.277344 C 1548.085938 178.277344 1549.097656 178.570312 1549.640625 179.152344 C 1550.179688 179.738281 1550.453125 180.832031 1550.453125 182.433594 L 1550.453125 189.933594 L 1548.890625 189.933594 L 1548.84375 188.277344 L 1548.78125 188.277344 C 1548.09375 189.527344 1547.003906 190.152344 1545.515625 190.152344 C 1544.554688 190.152344 1543.78125 189.851562 1543.1875 189.246094 C 1542.601562 188.632812 1542.3125 187.792969 1542.3125 186.730469 C 1542.3125 185.398438 1542.757812 184.371094 1543.65625 183.652344 C 1544.5625 182.933594 1545.910156 182.574219 1547.703125 182.574219 L 1548.75 182.574219 L 1548.75 182.011719 C 1548.75 181.179688 1548.585938 180.589844 1548.265625 180.246094 C 1547.953125 179.902344 1547.398438 179.730469 1546.609375 179.730469 C 1546.117188 179.730469 1545.5 179.820312 1544.75 179.996094 C 1544.007812 180.175781 1543.382812 180.378906 1542.875 180.605469 L 1542.875 179.042969 C 1543.382812 178.816406 1544.003906 178.632812 1544.734375 178.496094 C 1545.460938 178.351562 1546.085938 178.277344 1546.609375 178.277344 Z M 1548.75 183.871094 L 1547.703125 183.871094 C 1545.210938 183.871094 1543.96875 184.789062 1543.96875 186.621094 C 1543.96875 187.289062 1544.132812 187.800781 1544.46875 188.152344 C 1544.800781 188.496094 1545.253906 188.667969 1545.828125 188.667969 C 1546.703125 188.667969 1547.40625 188.320312 1547.9375 187.621094 C 1548.476562 186.914062 1548.75 185.925781 1548.75 184.652344 Z M 1556.078125 178.480469 L 1556.078125 180.683594 L 1556.140625 180.683594 C 1557.046875 179.082031 1558.304688 178.277344 1559.921875 178.277344 C 1560.472656 178.277344 1560.984375 178.347656 1561.453125 178.480469 L 1561.453125 180.027344 C 1560.941406 179.871094 1560.429688 179.792969 1559.921875 179.792969 C 1558.847656 179.792969 1557.953125 180.242188 1557.234375 181.136719 C 1556.523438 182.023438 1556.171875 183.195312 1556.171875 184.652344 L 1556.171875 189.933594 L 1554.421875 189.933594 L 1554.421875 178.480469 Z M 1568.375 178.933594 L 1572.34375 178.933594 L 1572.34375 180.433594 L 1568.375 180.433594 L 1568.375 186.621094 C 1568.375 187.445312 1568.492188 187.992188 1568.734375 188.261719 C 1568.984375 188.535156 1569.457031 188.667969 1570.15625 188.667969 C 1570.882812 188.667969 1571.539062 188.539062 1572.125 188.277344 L 1572.125 189.808594 C 1571.425781 190.039062 1570.695312 190.152344 1569.9375 190.152344 C 1568.707031 190.152344 1567.847656 189.914062 1567.359375 189.433594 C 1566.867188 188.957031 1566.625 188.089844 1566.625 186.839844 L 1566.625 180.433594 L 1564.4375 180.433594 L 1564.4375 178.933594 L 1566.625 178.933594 L 1566.625 174.746094 L 1568.375 174.746094 Z M 1592.265625 175.496094 L 1592.265625 175.449219 L 1586.765625 175.449219 L 1586.765625 173.871094 L 1594.34375 173.871094 L 1594.34375 175.449219 L 1590.390625 180.480469 L 1590.390625 180.527344 L 1590.609375 180.527344 C 1591.941406 180.527344 1592.914062 180.902344 1593.53125 181.652344 C 1594.144531 182.402344 1594.453125 183.628906 1594.453125 185.324219 C 1594.453125 188.542969 1593.023438 190.152344 1590.171875 190.152344 C 1589.097656 190.152344 1588.035156 189.929688 1586.984375 189.480469 L 1586.984375 187.574219 C 1588.109375 188.199219 1589.054688 188.511719 1589.828125 188.511719 C 1590.773438 188.511719 1591.472656 188.261719 1591.921875 187.761719 C 1592.378906 187.253906 1592.609375 186.441406 1592.609375 185.324219 C 1592.609375 184.003906 1592.425781 183.136719 1592.0625 182.730469 C 1591.695312 182.324219 1590.953125 182.121094 1589.828125 182.121094 L 1588.3125 182.121094 L 1588.3125 180.527344 Z M 1599.953125 180.464844 L 1600 180.464844 C 1600.488281 180.039062 1601.132812 179.824219 1601.9375 179.824219 C 1604.28125 179.824219 1605.453125 181.507812 1605.453125 184.871094 C 1605.453125 186.707031 1605.085938 188.042969 1604.359375 188.886719 C 1603.640625 189.730469 1602.578125 190.152344 1601.171875 190.152344 C 1600.085938 190.152344 1599.023438 189.929688 1597.984375 189.480469 L 1597.984375 187.574219 C 1599.078125 188.199219 1600.109375 188.511719 1601.078125 188.511719 C 1602.765625 188.511719 1603.609375 187.300781 1603.609375 184.871094 C 1603.609375 182.582031 1602.90625 181.433594 1601.5 181.433594 C 1600.820312 181.433594 1600.234375 181.730469 1599.734375 182.324219 L 1598.078125 182.324219 L 1598.328125 173.871094 L 1605.03125 173.871094 L 1605.03125 175.449219 L 1600.109375 175.449219 Z M 1608.3125 184.199219 L 1616.6875 177.824219 L 1616.6875 179.574219 L 1608.3125 185.964844 Z M 1608.421875 174.558594 C 1608.921875 173.957031 1609.617188 173.652344 1610.515625 173.652344 C 1611.410156 173.652344 1612.109375 173.957031 1612.609375 174.558594 C 1613.117188 175.152344 1613.375 176.023438 1613.375 177.167969 C 1613.375 178.316406 1613.117188 179.191406 1612.609375 179.792969 C 1612.109375 180.386719 1611.410156 180.683594 1610.515625 180.683594 C 1609.617188 180.683594 1608.921875 180.386719 1608.421875 179.792969 C 1607.921875 179.191406 1607.671875 178.316406 1607.671875 177.167969 C 1607.671875 176.023438 1607.921875 175.152344 1608.421875 174.558594 Z M 1612.375 184.011719 C 1612.882812 183.410156 1613.585938 183.105469 1614.484375 183.105469 C 1615.378906 183.105469 1616.078125 183.410156 1616.578125 184.011719 C 1617.078125 184.605469 1617.328125 185.476562 1617.328125 186.621094 C 1617.328125 187.769531 1617.078125 188.644531 1616.578125 189.246094 C 1616.078125 189.851562 1615.378906 190.152344 1614.484375 190.152344 C 1613.585938 190.152344 1612.882812 189.851562 1612.375 189.246094 C 1611.875 188.644531 1611.625 187.769531 1611.625 186.621094 C 1611.625 185.476562 1611.875 184.605469 1612.375 184.011719 Z M 1609.390625 177.167969 C 1609.390625 178.523438 1609.765625 179.199219 1610.515625 179.199219 C 1611.273438 179.199219 1611.65625 178.523438 1611.65625 177.167969 C 1611.65625 175.816406 1611.273438 175.136719 1610.515625 175.136719 C 1609.765625 175.136719 1609.390625 175.816406 1609.390625 177.167969 Z M 1613.34375 186.636719 C 1613.34375 187.980469 1613.71875 188.652344 1614.46875 188.652344 C 1615.226562 188.652344 1615.609375 187.980469 1615.609375 186.636719 C 1615.609375 185.285156 1615.226562 184.605469 1614.46875 184.605469 C 1613.71875 184.605469 1613.34375 185.285156 1613.34375 186.636719 Z M 1530 169.140625 "/>
<path style=" stroke:none;fill-rule:nonzero;fill:rgb(19.215686%,47.058824%,77.647059%);fill-opacity:1;" d="M 1523.554688 233 C 1523.554688 241.589844 1516.589844 248.554688 1508 248.554688 C 1499.410156 248.554688 1492.445312 241.589844 1492.445312 233 C 1492.445312 224.410156 1499.410156 217.445312 1508 217.445312 C 1516.589844 217.445312 1523.554688 224.410156 1523.554688 233 Z M 1523.554688 233 "/>
<g clip-path="url(#17jixpTrgI__clip2)" clip-rule="nonzero">
<path style="fill:none;stroke-width:2;stroke-linecap:butt;stroke-linejoin:miter;stroke:rgb(5.098039%,5.098039%,5.098039%);stroke-opacity:1;stroke-miterlimit:10;" d="M 761.777344 116.5 C 761.777344 120.794922 758.294922 124.277344 754 124.277344 C 749.705078 124.277344 746.222656 120.794922 746.222656 116.5 C 746.222656 112.205078 749.705078 108.722656 754 108.722656 C 758.294922 108.722656 761.777344 112.205078 761.777344 116.5 Z M 761.777344 116.5 " transform="matrix(2,0,0,2,0,0)"/>
</g>
<path style=" stroke:none;fill-rule:nonzero;fill:rgb(62.745098%,62.745098%,62.745098%);fill-opacity:1;" d="M 1534.59375 239.933594 L 1534.59375 225.417969 L 1531.203125 225.417969 L 1531.203125 223.871094 L 1539.796875 223.871094 L 1539.796875 225.417969 L 1536.40625 225.417969 L 1536.40625 239.933594 Z M 1546.6875 237.292969 L 1546.734375 237.292969 L 1549.3125 228.480469 L 1551.234375 228.480469 L 1545.9375 244.777344 L 1544.109375 244.777344 L 1545.828125 239.699219 L 1541.984375 228.480469 L 1543.921875 228.480469 Z M 1555.09375 238.277344 L 1555.046875 238.277344 L 1555.046875 244.777344 L 1553.3125 244.777344 L 1553.3125 228.480469 L 1554.9375 228.480469 L 1554.984375 230.136719 L 1555.03125 230.136719 C 1555.832031 228.898438 1556.84375 228.277344 1558.0625 228.277344 C 1560.625 228.277344 1561.90625 230.253906 1561.90625 234.199219 C 1561.90625 236.191406 1561.550781 237.679688 1560.84375 238.667969 C 1560.132812 239.660156 1559.207031 240.152344 1558.0625 240.152344 C 1556.71875 240.152344 1555.726562 239.527344 1555.09375 238.277344 Z M 1560.171875 234.199219 C 1560.171875 231.347656 1559.316406 229.917969 1557.609375 229.917969 C 1556.859375 229.917969 1556.242188 230.285156 1555.765625 231.011719 C 1555.285156 231.730469 1555.046875 232.757812 1555.046875 234.089844 L 1555.046875 234.308594 C 1555.046875 235.652344 1555.285156 236.691406 1555.765625 237.417969 C 1556.242188 238.136719 1556.859375 238.496094 1557.609375 238.496094 C 1558.378906 238.496094 1559 238.144531 1559.46875 237.433594 C 1559.9375 236.726562 1560.171875 235.648438 1560.171875 234.199219 Z M 1566.03125 234.777344 C 1566.082031 236.144531 1566.359375 237.128906 1566.859375 237.730469 C 1567.367188 238.324219 1568.101562 238.621094 1569.0625 238.621094 C 1569.945312 238.621094 1570.9375 238.355469 1572.03125 237.824219 L 1572.03125 239.589844 C 1570.9375 239.964844 1569.90625 240.152344 1568.9375 240.152344 C 1565.78125 240.152344 1564.203125 238.167969 1564.203125 234.199219 C 1564.203125 232.136719 1564.570312 230.636719 1565.3125 229.699219 C 1566.050781 228.753906 1567.148438 228.277344 1568.609375 228.277344 C 1569.941406 228.277344 1570.929688 228.730469 1571.578125 229.636719 C 1572.234375 230.542969 1572.5625 232.027344 1572.5625 234.089844 C 1572.5625 234.246094 1572.546875 234.476562 1572.515625 234.777344 Z M 1566.03125 233.324219 L 1570.84375 233.324219 C 1570.832031 230.972656 1570.085938 229.792969 1568.609375 229.792969 C 1567.773438 229.792969 1567.148438 230.058594 1566.734375 230.589844 C 1566.316406 231.113281 1566.082031 232.023438 1566.03125 233.324219 Z M 1579.71875 225.246094 C 1579.03125 225.246094 1578.460938 225.472656 1578.015625 225.917969 C 1577.578125 226.355469 1577.359375 226.917969 1577.359375 227.605469 C 1577.359375 228.335938 1577.515625 228.941406 1577.828125 229.417969 C 1578.140625 229.898438 1578.660156 230.304688 1579.390625 230.636719 C 1581.023438 231.367188 1582.148438 232.121094 1582.765625 232.902344 C 1583.378906 233.683594 1583.6875 234.707031 1583.6875 235.964844 C 1583.6875 237.351562 1583.304688 238.398438 1582.546875 239.105469 C 1581.785156 239.804688 1580.695312 240.152344 1579.28125 240.152344 C 1577.945312 240.152344 1576.738281 239.746094 1575.65625 238.933594 L 1575.65625 236.839844 C 1576.832031 237.988281 1578.078125 238.558594 1579.390625 238.558594 C 1581.054688 238.558594 1581.890625 237.695312 1581.890625 235.964844 C 1581.890625 235.164062 1581.691406 234.496094 1581.296875 233.964844 C 1580.910156 233.433594 1580.273438 232.972656 1579.390625 232.574219 C 1578.015625 231.949219 1577.03125 231.246094 1576.4375 230.464844 C 1575.84375 229.675781 1575.546875 228.722656 1575.546875 227.605469 C 1575.546875 226.429688 1575.914062 225.476562 1576.65625 224.746094 C 1577.40625 224.019531 1578.390625 223.652344 1579.609375 223.652344 C 1580.378906 223.652344 1581.015625 223.710938 1581.515625 223.824219 C 1582.015625 223.941406 1582.585938 224.175781 1583.234375 224.527344 L 1583.234375 226.511719 C 1582.109375 225.667969 1580.9375 225.246094 1579.71875 225.246094 Z M 1586.546875 234.199219 C 1586.546875 232.242188 1586.945312 230.769531 1587.75 229.777344 C 1588.550781 228.777344 1589.691406 228.277344 1591.171875 228.277344 C 1592.054688 228.277344 1592.972656 228.457031 1593.921875 228.808594 L 1593.921875 230.574219 C 1593.023438 230.097656 1592.144531 229.855469 1591.28125 229.855469 C 1590.34375 229.855469 1589.617188 230.226562 1589.109375 230.964844 C 1588.609375 231.695312 1588.359375 232.773438 1588.359375 234.199219 C 1588.359375 235.691406 1588.625 236.800781 1589.15625 237.527344 C 1589.695312 238.257812 1590.4375 238.621094 1591.375 238.621094 C 1592.238281 238.621094 1593.125 238.355469 1594.03125 237.824219 L 1594.03125 239.589844 C 1593.082031 239.964844 1592.164062 240.152344 1591.28125 240.152344 C 1589.769531 240.152344 1588.601562 239.660156 1587.78125 238.667969 C 1586.957031 237.679688 1586.546875 236.191406 1586.546875 234.199219 Z M 1600.078125 228.480469 L 1600.078125 230.683594 L 1600.140625 230.683594 C 1601.046875 229.082031 1602.304688 228.277344 1603.921875 228.277344 C 1604.472656 228.277344 1604.984375 228.347656 1605.453125 228.480469 L 1605.453125 230.027344 C 1604.941406 229.871094 1604.429688 229.792969 1603.921875 229.792969 C 1602.847656 229.792969 1601.953125 230.242188 1601.234375 231.136719 C 1600.523438 232.023438 1600.171875 233.195312 1600.171875 234.652344 L 1600.171875 239.933594 L 1598.421875 239.933594 L 1598.421875 228.480469 Z M 1613.96875 228.480469 L 1613.96875 238.433594 L 1616.34375 238.433594 L 1616.34375 239.933594 L 1609.078125 239.933594 L 1609.078125 238.433594 L 1612.15625 238.433594 L 1612.15625 229.996094 L 1609.75 229.996094 L 1609.75 228.480469 Z M 1611.703125 225.839844 L 1611.703125 223.199219 L 1613.96875 223.199219 L 1613.96875 225.839844 Z M 1621.09375 238.277344 L 1621.046875 238.277344 L 1621.046875 244.777344 L 1619.3125 244.777344 L 1619.3125 228.480469 L 1620.9375 228.480469 L 1620.984375 230.136719 L 1621.03125 230.136719 C 1621.832031 228.898438 1622.84375 228.277344 1624.0625 228.277344 C 1626.625 228.277344 1627.90625 230.253906 1627.90625 234.199219 C 1627.90625 236.191406 1627.550781 237.679688 1626.84375 238.667969 C 1626.132812 239.660156 1625.207031 240.152344 1624.0625 240.152344 C 1622.71875 240.152344 1621.726562 239.527344 1621.09375 238.277344 Z M 1626.171875 234.199219 C 1626.171875 231.347656 1625.316406 229.917969 1623.609375 229.917969 C 1622.859375 229.917969 1622.242188 230.285156 1621.765625 231.011719 C 1621.285156 231.730469 1621.046875 232.757812 1621.046875 234.089844 L 1621.046875 234.308594 C 1621.046875 235.652344 1621.285156 236.691406 1621.765625 237.417969 C 1622.242188 238.136719 1622.859375 238.496094 1623.609375 238.496094 C 1624.378906 238.496094 1625 238.144531 1625.46875 237.433594 C 1625.9375 236.726562 1626.171875 235.648438 1626.171875 234.199219 Z M 1634.375 228.933594 L 1638.34375 228.933594 L 1638.34375 230.433594 L 1634.375 230.433594 L 1634.375 236.621094 C 1634.375 237.445312 1634.492188 237.992188 1634.734375 238.261719 C 1634.984375 238.535156 1635.457031 238.667969 1636.15625 238.667969 C 1636.882812 238.667969 1637.539062 238.539062 1638.125 238.277344 L 1638.125 239.808594 C 1637.425781 240.039062 1636.695312 240.152344 1635.9375 240.152344 C 1634.707031 240.152344 1633.847656 239.914062 1633.359375 239.433594 C 1632.867188 238.957031 1632.625 238.089844 1632.625 236.839844 L 1632.625 230.433594 L 1630.4375 230.433594 L 1630.4375 228.933594 L 1632.625 228.933594 L 1632.625 224.746094 L 1634.375 224.746094 Z M 1654.84375 238.308594 L 1654.84375 238.339844 L 1660.234375 238.339844 L 1660.234375 239.933594 L 1652.765625 239.933594 L 1652.765625 238.339844 C 1656.441406 234.121094 1658.28125 230.617188 1658.28125 227.824219 C 1658.28125 226.128906 1657.601562 225.277344 1656.25 225.277344 C 1655.800781 225.277344 1655.238281 225.445312 1654.5625 225.777344 C 1653.894531 226.113281 1653.296875 226.511719 1652.765625 226.980469 L 1652.765625 225.074219 C 1653.867188 224.128906 1655.113281 223.652344 1656.5 223.652344 C 1657.75 223.652344 1658.664062 223.996094 1659.25 224.683594 C 1659.832031 225.371094 1660.125 226.417969 1660.125 227.824219 C 1660.125 229.285156 1659.726562 230.816406 1658.9375 232.417969 C 1658.144531 234.011719 1656.78125 235.976562 1654.84375 238.308594 Z M 1669.578125 225.496094 L 1669.578125 225.449219 L 1663.65625 225.449219 L 1663.65625 223.871094 L 1671.34375 223.871094 L 1671.34375 225.449219 C 1669.46875 229.792969 1667.929688 234.621094 1666.734375 239.933594 L 1664.796875 239.933594 C 1666.023438 234.746094 1667.617188 229.933594 1669.578125 225.496094 Z M 1674.3125 234.199219 L 1682.6875 227.824219 L 1682.6875 229.574219 L 1674.3125 235.964844 Z M 1674.421875 224.558594 C 1674.921875 223.957031 1675.617188 223.652344 1676.515625 223.652344 C 1677.410156 223.652344 1678.109375 223.957031 1678.609375 224.558594 C 1679.117188 225.152344 1679.375 226.023438 1679.375 227.167969 C 1679.375 228.316406 1679.117188 229.191406 1678.609375 229.792969 C 1678.109375 230.386719 1677.410156 230.683594 1676.515625 230.683594 C 1675.617188 230.683594 1674.921875 230.386719 1674.421875 229.792969 C 1673.921875 229.191406 1673.671875 228.316406 1673.671875 227.167969 C 1673.671875 226.023438 1673.921875 225.152344 1674.421875 224.558594 Z M 1678.375 234.011719 C 1678.882812 233.410156 1679.585938 233.105469 1680.484375 233.105469 C 1681.378906 233.105469 1682.078125 233.410156 1682.578125 234.011719 C 1683.078125 234.605469 1683.328125 235.476562 1683.328125 236.621094 C 1683.328125 237.769531 1683.078125 238.644531 1682.578125 239.246094 C 1682.078125 239.851562 1681.378906 240.152344 1680.484375 240.152344 C 1679.585938 240.152344 1678.882812 239.851562 1678.375 239.246094 C 1677.875 238.644531 1677.625 237.769531 1677.625 236.621094 C 1677.625 235.476562 1677.875 234.605469 1678.375 234.011719 Z M 1675.390625 227.167969 C 1675.390625 228.523438 1675.765625 229.199219 1676.515625 229.199219 C 1677.273438 229.199219 1677.65625 228.523438 1677.65625 227.167969 C 1677.65625 225.816406 1677.273438 225.136719 1676.515625 225.136719 C 1675.765625 225.136719 1675.390625 225.816406 1675.390625 227.167969 Z M 1679.34375 236.636719 C 1679.34375 237.980469 1679.71875 238.652344 1680.46875 238.652344 C 1681.226562 238.652344 1681.609375 237.980469 1681.609375 236.636719 C 1681.609375 235.285156 1681.226562 234.605469 1680.46875 234.605469 C 1679.71875 234.605469 1679.34375 235.285156 1679.34375 236.636719 Z M 1530 219.140625 "/>
<path style=" stroke:none;fill-rule:nonzero;fill:rgb(20.784314%,44.705882%,64.705882%);fill-opacity:1;" d="M 1523.554688 283 C 1523.554688 291.589844 1516.589844 298.554688 1508 298.554688 C 1499.410156 298.554688 1492.445312 291.589844 1492.445312 283 C 1492.445312 274.410156 1499.410156 267.445312 1508 267.445312 C 1516.589844 267.445312 1523.554688 274.410156 1523.554688 283 Z M 1523.554688 283 "/>
<g clip-path="url(#17jixpTrgI__clip3)" clip-rule="nonzero">
<path style="fill:none;stroke-width:2;stroke-linecap:butt;stroke-linejoin:miter;stroke:rgb(5.098039%,5.098039%,5.098039%);stroke-opacity:1;stroke-miterlimit:10;" d="M 761.777344 141.5 C 761.777344 145.794922 758.294922 149.277344 754 149.277344 C 749.705078 149.277344 746.222656 145.794922 746.222656 141.5 C 746.222656 137.205078 749.705078 133.722656 754 133.722656 C 758.294922 133.722656 761.777344 137.205078 761.777344 141.5 Z M 761.777344 141.5 " transform="matrix(2,0,0,2,0,0)"/>
</g>
<path style=" stroke:none;fill-rule:nonzero;fill:rgb(62.745098%,62.745098%,62.745098%);fill-opacity:1;" d="M 1538.25 278.480469 C 1538.25 277.324219 1537.984375 276.488281 1537.453125 275.964844 C 1536.921875 275.445312 1536.097656 275.183594 1534.984375 275.183594 C 1534.378906 275.183594 1533.867188 275.246094 1533.453125 275.371094 L 1533.453125 281.792969 C 1533.890625 281.867188 1534.398438 281.902344 1534.984375 281.902344 C 1536.117188 281.902344 1536.945312 281.644531 1537.46875 281.121094 C 1537.988281 280.601562 1538.25 279.722656 1538.25 278.480469 Z M 1540.015625 278.480469 C 1540.015625 280.242188 1539.625 281.507812 1538.84375 282.277344 C 1538.070312 283.050781 1536.863281 283.433594 1535.21875 283.433594 C 1534.707031 283.433594 1534.117188 283.398438 1533.453125 283.324219 L 1533.453125 289.933594 L 1531.65625 289.933594 L 1531.65625 273.980469 C 1532.800781 273.761719 1533.972656 273.652344 1535.171875 273.652344 C 1536.835938 273.652344 1538.0625 274.039062 1538.84375 274.808594 C 1539.625 275.570312 1540.015625 276.792969 1540.015625 278.480469 Z M 1546.6875 287.292969 L 1546.734375 287.292969 L 1549.3125 278.480469 L 1551.234375 278.480469 L 1545.9375 294.777344 L 1544.109375 294.777344 L 1545.828125 289.699219 L 1541.984375 278.480469 L 1543.921875 278.480469 Z M 1557.375 278.933594 L 1561.34375 278.933594 L 1561.34375 280.433594 L 1557.375 280.433594 L 1557.375 286.621094 C 1557.375 287.445312 1557.492188 287.992188 1557.734375 288.261719 C 1557.984375 288.535156 1558.457031 288.667969 1559.15625 288.667969 C 1559.882812 288.667969 1560.539062 288.539062 1561.125 288.277344 L 1561.125 289.808594 C 1560.425781 290.039062 1559.695312 290.152344 1558.9375 290.152344 C 1557.707031 290.152344 1556.847656 289.914062 1556.359375 289.433594 C 1555.867188 288.957031 1555.625 288.089844 1555.625 286.839844 L 1555.625 280.433594 L 1553.4375 280.433594 L 1553.4375 278.933594 L 1555.625 278.933594 L 1555.625 274.746094 L 1557.375 274.746094 Z M 1572.6875 282.667969 L 1572.6875 289.933594 L 1571 289.933594 L 1571 283.058594 C 1571 281.769531 1570.847656 280.910156 1570.546875 280.480469 C 1570.253906 280.054688 1569.71875 279.839844 1568.9375 279.839844 C 1568.195312 279.839844 1567.566406 280.253906 1567.046875 281.074219 C 1566.535156 281.886719 1566.28125 282.992188 1566.28125 284.386719 L 1566.28125 289.933594 L 1564.546875 289.933594 L 1564.546875 273.871094 L 1566.28125 273.871094 L 1566.28125 280.136719 L 1566.328125 280.136719 C 1566.597656 279.566406 1567.007812 279.113281 1567.5625 278.777344 C 1568.113281 278.445312 1568.71875 278.277344 1569.375 278.277344 C 1570.539062 278.277344 1571.382812 278.613281 1571.90625 279.277344 C 1572.425781 279.933594 1572.6875 281.066406 1572.6875 282.667969 Z M 1575.09375 284.214844 C 1575.09375 280.257812 1576.5625 278.277344 1579.5 278.277344 C 1582.4375 278.277344 1583.90625 280.257812 1583.90625 284.214844 C 1583.90625 288.175781 1582.4375 290.152344 1579.5 290.152344 C 1576.5625 290.152344 1575.09375 288.175781 1575.09375 284.214844 Z M 1577.53125 287.621094 C 1577.957031 288.289062 1578.613281 288.621094 1579.5 288.621094 C 1580.382812 288.621094 1581.035156 288.289062 1581.453125 287.621094 C 1581.878906 286.957031 1582.09375 285.820312 1582.09375 284.214844 C 1582.09375 282.601562 1581.878906 281.460938 1581.453125 280.792969 C 1581.035156 280.128906 1580.382812 279.792969 1579.5 279.792969 C 1578.613281 279.792969 1577.957031 280.128906 1577.53125 280.792969 C 1577.113281 281.460938 1576.90625 282.601562 1576.90625 284.214844 C 1576.90625 285.820312 1577.113281 286.957031 1577.53125 287.621094 Z M 1594.6875 282.667969 L 1594.6875 289.933594 L 1593 289.933594 L 1593 283.058594 C 1593 281.769531 1592.847656 280.910156 1592.546875 280.480469 C 1592.253906 280.054688 1591.71875 279.839844 1590.9375 279.839844 C 1590.195312 279.839844 1589.566406 280.253906 1589.046875 281.074219 C 1588.535156 281.886719 1588.28125 282.992188 1588.28125 284.386719 L 1588.28125 289.933594 L 1586.546875 289.933594 L 1586.546875 278.480469 L 1588.15625 278.480469 L 1588.21875 280.136719 L 1588.265625 280.136719 C 1588.535156 279.585938 1588.957031 279.136719 1589.53125 278.792969 C 1590.101562 278.449219 1590.71875 278.277344 1591.375 278.277344 C 1592.539062 278.277344 1593.382812 278.613281 1593.90625 279.277344 C 1594.425781 279.933594 1594.6875 281.066406 1594.6875 282.667969 Z M 1612.671875 289.933594 L 1612.671875 275.730469 L 1612.625 275.714844 L 1608.828125 277.933594 L 1608.828125 276.183594 L 1612.671875 273.871094 L 1614.484375 273.871094 L 1614.484375 289.933594 Z M 1621.953125 280.464844 L 1622 280.464844 C 1622.488281 280.039062 1623.132812 279.824219 1623.9375 279.824219 C 1626.28125 279.824219 1627.453125 281.507812 1627.453125 284.871094 C 1627.453125 286.707031 1627.085938 288.042969 1626.359375 288.886719 C 1625.640625 289.730469 1624.578125 290.152344 1623.171875 290.152344 C 1622.085938 290.152344 1621.023438 289.929688 1619.984375 289.480469 L 1619.984375 287.574219 C 1621.078125 288.199219 1622.109375 288.511719 1623.078125 288.511719 C 1624.765625 288.511719 1625.609375 287.300781 1625.609375 284.871094 C 1625.609375 282.582031 1624.90625 281.433594 1623.5 281.433594 C 1622.820312 281.433594 1622.234375 281.730469 1621.734375 282.324219 L 1620.078125 282.324219 L 1620.328125 273.871094 L 1627.03125 273.871094 L 1627.03125 275.449219 L 1622.109375 275.449219 Z M 1630.3125 284.199219 L 1638.6875 277.824219 L 1638.6875 279.574219 L 1630.3125 285.964844 Z M 1630.421875 274.558594 C 1630.921875 273.957031 1631.617188 273.652344 1632.515625 273.652344 C 1633.410156 273.652344 1634.109375 273.957031 1634.609375 274.558594 C 1635.117188 275.152344 1635.375 276.023438 1635.375 277.167969 C 1635.375 278.316406 1635.117188 279.191406 1634.609375 279.792969 C 1634.109375 280.386719 1633.410156 280.683594 1632.515625 280.683594 C 1631.617188 280.683594 1630.921875 280.386719 1630.421875 279.792969 C 1629.921875 279.191406 1629.671875 278.316406 1629.671875 277.167969 C 1629.671875 276.023438 1629.921875 275.152344 1630.421875 274.558594 Z M 1634.375 284.011719 C 1634.882812 283.410156 1635.585938 283.105469 1636.484375 283.105469 C 1637.378906 283.105469 1638.078125 283.410156 1638.578125 284.011719 C 1639.078125 284.605469 1639.328125 285.476562 1639.328125 286.621094 C 1639.328125 287.769531 1639.078125 288.644531 1638.578125 289.246094 C 1638.078125 289.851562 1637.378906 290.152344 1636.484375 290.152344 C 1635.585938 290.152344 1634.882812 289.851562 1634.375 289.246094 C 1633.875 288.644531 1633.625 287.769531 1633.625 286.621094 C 1633.625 285.476562 1633.875 284.605469 1634.375 284.011719 Z M 1631.390625 277.167969 C 1631.390625 278.523438 1631.765625 279.199219 1632.515625 279.199219 C 1633.273438 279.199219 1633.65625 278.523438 1633.65625 277.167969 C 1633.65625 275.816406 1633.273438 275.136719 1632.515625 275.136719 C 1631.765625 275.136719 1631.390625 275.816406 1631.390625 277.167969 Z M 1635.34375 286.636719 C 1635.34375 287.980469 1635.71875 288.652344 1636.46875 288.652344 C 1637.226562 288.652344 1637.609375 287.980469 1637.609375 286.636719 C 1637.609375 285.285156 1637.226562 284.605469 1636.46875 284.605469 C 1635.71875 284.605469 1635.34375 285.285156 1635.34375 286.636719 Z M 1530 269.140625 "/>
<path style=" stroke:none;fill-rule:nonzero;fill:rgb(66.27451%,48.235294%,100%);fill-opacity:1;" d="M 1523.554688 333 C 1523.554688 341.589844 1516.589844 348.554688 1508 348.554688 C 1499.410156 348.554688 1492.445312 341.589844 1492.445312 333 C 1492.445312 324.410156 1499.410156 317.445312 1508 317.445312 C 1516.589844 317.445312 1523.554688 324.410156 1523.554688 333 Z M 1523.554688 333 "/>
<g clip-path="url(#17jixpTrgI__clip4)" clip-rule="nonzero">
<path style="fill:none;stroke-width:2;stroke-linecap:butt;stroke-linejoin:miter;stroke:rgb(5.098039%,5.098039%,5.098039%);stroke-opacity:1;stroke-miterlimit:10;" d="M 761.777344 166.5 C 761.777344 170.794922 758.294922 174.277344 754 174.277344 C 749.705078 174.277344 746.222656 170.794922 746.222656 166.5 C 746.222656 162.205078 749.705078 158.722656 754 158.722656 C 758.294922 158.722656 761.777344 162.205078 761.777344 166.5 Z M 761.777344 166.5 " transform="matrix(2,0,0,2,0,0)"/>
</g>
<path style=" stroke:none;fill-rule:nonzero;fill:rgb(62.745098%,62.745098%,62.745098%);fill-opacity:1;" d="M 1533.453125 331.121094 L 1533.5 331.121094 L 1538.03125 323.871094 L 1540.125 323.871094 L 1535.171875 331.558594 L 1540.234375 339.933594 L 1538.140625 339.933594 L 1533.5 332.011719 L 1533.453125 332.011719 L 1533.453125 339.933594 L 1531.65625 339.933594 L 1531.65625 323.871094 L 1533.453125 323.871094 Z M 1542.09375 334.214844 C 1542.09375 330.257812 1543.5625 328.277344 1546.5 328.277344 C 1549.4375 328.277344 1550.90625 330.257812 1550.90625 334.214844 C 1550.90625 338.175781 1549.4375 340.152344 1546.5 340.152344 C 1543.5625 340.152344 1542.09375 338.175781 1542.09375 334.214844 Z M 1544.53125 337.621094 C 1544.957031 338.289062 1545.613281 338.621094 1546.5 338.621094 C 1547.382812 338.621094 1548.035156 338.289062 1548.453125 337.621094 C 1548.878906 336.957031 1549.09375 335.820312 1549.09375 334.214844 C 1549.09375 332.601562 1548.878906 331.460938 1548.453125 330.792969 C 1548.035156 330.128906 1547.382812 329.792969 1546.5 329.792969 C 1545.613281 329.792969 1544.957031 330.128906 1544.53125 330.792969 C 1544.113281 331.460938 1543.90625 332.601562 1543.90625 334.214844 C 1543.90625 335.820312 1544.113281 336.957031 1544.53125 337.621094 Z M 1557.375 328.933594 L 1561.34375 328.933594 L 1561.34375 330.433594 L 1557.375 330.433594 L 1557.375 336.621094 C 1557.375 337.445312 1557.492188 337.992188 1557.734375 338.261719 C 1557.984375 338.535156 1558.457031 338.667969 1559.15625 338.667969 C 1559.882812 338.667969 1560.539062 338.539062 1561.125 338.277344 L 1561.125 339.808594 C 1560.425781 340.039062 1559.695312 340.152344 1558.9375 340.152344 C 1557.707031 340.152344 1556.847656 339.914062 1556.359375 339.433594 C 1555.867188 338.957031 1555.625 338.089844 1555.625 336.839844 L 1555.625 330.433594 L 1553.4375 330.433594 L 1553.4375 328.933594 L 1555.625 328.933594 L 1555.625 324.746094 L 1557.375 324.746094 Z M 1569.1875 336.621094 C 1569.1875 337.601562 1569.257812 338.183594 1569.40625 338.371094 C 1569.5625 338.558594 1570.035156 338.652344 1570.828125 338.652344 C 1571.296875 338.652344 1571.835938 338.605469 1572.453125 338.511719 L 1572.453125 340.042969 C 1571.765625 340.117188 1571.140625 340.152344 1570.578125 340.152344 C 1569.265625 340.152344 1568.40625 339.945312 1568 339.527344 C 1567.59375 339.101562 1567.390625 338.207031 1567.390625 336.839844 L 1567.390625 325.371094 L 1564.546875 325.371094 L 1564.546875 323.871094 L 1569.1875 323.871094 Z M 1580.96875 328.480469 L 1580.96875 338.433594 L 1583.34375 338.433594 L 1583.34375 339.933594 L 1576.078125 339.933594 L 1576.078125 338.433594 L 1579.15625 338.433594 L 1579.15625 329.996094 L 1576.75 329.996094 L 1576.75 328.480469 Z M 1578.703125 325.839844 L 1578.703125 323.199219 L 1580.96875 323.199219 L 1580.96875 325.839844 Z M 1594.6875 332.667969 L 1594.6875 339.933594 L 1593 339.933594 L 1593 333.058594 C 1593 331.769531 1592.847656 330.910156 1592.546875 330.480469 C 1592.253906 330.054688 1591.71875 329.839844 1590.9375 329.839844 C 1590.195312 329.839844 1589.566406 330.253906 1589.046875 331.074219 C 1588.535156 331.886719 1588.28125 332.992188 1588.28125 334.386719 L 1588.28125 339.933594 L 1586.546875 339.933594 L 1586.546875 328.480469 L 1588.15625 328.480469 L 1588.21875 330.136719 L 1588.265625 330.136719 C 1588.535156 329.585938 1588.957031 329.136719 1589.53125 328.792969 C 1590.101562 328.449219 1590.71875 328.277344 1591.375 328.277344 C 1592.539062 328.277344 1593.382812 328.613281 1593.90625 329.277344 C 1594.425781 329.933594 1594.6875 331.066406 1594.6875 332.667969 Z M 1612.671875 339.933594 L 1612.671875 325.730469 L 1612.625 325.714844 L 1608.828125 327.933594 L 1608.828125 326.183594 L 1612.671875 323.871094 L 1614.484375 323.871094 L 1614.484375 339.933594 Z M 1621.84375 338.308594 L 1621.84375 338.339844 L 1627.234375 338.339844 L 1627.234375 339.933594 L 1619.765625 339.933594 L 1619.765625 338.339844 C 1623.441406 334.121094 1625.28125 330.617188 1625.28125 327.824219 C 1625.28125 326.128906 1624.601562 325.277344 1623.25 325.277344 C 1622.800781 325.277344 1622.238281 325.445312 1621.5625 325.777344 C 1620.894531 326.113281 1620.296875 326.511719 1619.765625 326.980469 L 1619.765625 325.074219 C 1620.867188 324.128906 1622.113281 323.652344 1623.5 323.652344 C 1624.75 323.652344 1625.664062 323.996094 1626.25 324.683594 C 1626.832031 325.371094 1627.125 326.417969 1627.125 327.824219 C 1627.125 329.285156 1626.726562 330.816406 1625.9375 332.417969 C 1625.144531 334.011719 1623.78125 335.976562 1621.84375 338.308594 Z M 1630.3125 334.199219 L 1638.6875 327.824219 L 1638.6875 329.574219 L 1630.3125 335.964844 Z M 1630.421875 324.558594 C 1630.921875 323.957031 1631.617188 323.652344 1632.515625 323.652344 C 1633.410156 323.652344 1634.109375 323.957031 1634.609375 324.558594 C 1635.117188 325.152344 1635.375 326.023438 1635.375 327.167969 C 1635.375 328.316406 1635.117188 329.191406 1634.609375 329.792969 C 1634.109375 330.386719 1633.410156 330.683594 1632.515625 330.683594 C 1631.617188 330.683594 1630.921875 330.386719 1630.421875 329.792969 C 1629.921875 329.191406 1629.671875 328.316406 1629.671875 327.167969 C 1629.671875 326.023438 1629.921875 325.152344 1630.421875 324.558594 Z M 1634.375 334.011719 C 1634.882812 333.410156 1635.585938 333.105469 1636.484375 333.105469 C 1637.378906 333.105469 1638.078125 333.410156 1638.578125 334.011719 C 1639.078125 334.605469 1639.328125 335.476562 1639.328125 336.621094 C 1639.328125 337.769531 1639.078125 338.644531 1638.578125 339.246094 C 1638.078125 339.851562 1637.378906 340.152344 1636.484375 340.152344 C 1635.585938 340.152344 1634.882812 339.851562 1634.375 339.246094 C 1633.875 338.644531 1633.625 337.769531 1633.625 336.621094 C 1633.625 335.476562 1633.875 334.605469 1634.375 334.011719 Z M 1631.390625 327.167969 C 1631.390625 328.523438 1631.765625 329.199219 1632.515625 329.199219 C 1633.273438 329.199219 1633.65625 328.523438 1633.65625 327.167969 C 1633.65625 325.816406 1633.273438 325.136719 1632.515625 325.136719 C 1631.765625 325.136719 1631.390625 325.816406 1631.390625 327.167969 Z M 1635.34375 336.636719 C 1635.34375 337.980469 1635.71875 338.652344 1636.46875 338.652344 C 1637.226562 338.652344 1637.609375 337.980469 1637.609375 336.636719 C 1637.609375 335.285156 1637.226562 334.605469 1636.46875 334.605469 C 1635.71875 334.605469 1635.34375 335.285156 1635.34375 336.636719 Z M 1530 319.140625 "/>
<path style=" stroke:none;fill-rule:nonzero;fill:rgb(69.019608%,44.705882%,9.803922%);fill-opacity:1;" d="M 1523.554688 383 C 1523.554688 391.589844 1516.589844 398.554688 1508 398.554688 C 1499.410156 398.554688 1492.445312 391.589844 1492.445312 383 C 1492.445312 374.410156 1499.410156 367.445312 1508 367.445312 C 1516.589844 367.445312 1523.554688 374.410156 1523.554688 383 Z M 1523.554688 383 "/>
<g clip-path="url(#17jixpTrgI__clip5)" clip-rule="nonzero">
<path style="fill:none;stroke-width:2;stroke-linecap:butt;stroke-linejoin:miter;stroke:rgb(5.098039%,5.098039%,5.098039%);stroke-opacity:1;stroke-miterlimit:10;" d="M 761.777344 191.5 C 761.777344 195.794922 758.294922 199.277344 754 199.277344 C 749.705078 199.277344 746.222656 195.794922 746.222656 191.5 C 746.222656 187.205078 749.705078 183.722656 754 183.722656 C 758.294922 183.722656 761.777344 187.205078 761.777344 191.5 Z M 761.777344 191.5 " transform="matrix(2,0,0,2,0,0)"/>
</g>
<path style=" stroke:none;fill-rule:nonzero;fill:rgb(62.745098%,62.745098%,62.745098%);fill-opacity:1;" d="M 1538.8125 373.871094 L 1538.8125 385.746094 C 1538.8125 387.363281 1538.488281 388.503906 1537.84375 389.167969 C 1537.207031 389.824219 1536.132812 390.152344 1534.625 390.152344 C 1533.414062 390.152344 1532.3125 389.929688 1531.3125 389.480469 L 1531.3125 387.574219 C 1531.738281 387.816406 1532.289062 388.039062 1532.96875 388.246094 C 1533.65625 388.457031 1534.207031 388.558594 1534.625 388.558594 C 1535.394531 388.558594 1535.972656 388.339844 1536.359375 387.902344 C 1536.742188 387.457031 1536.9375 386.722656 1536.9375 385.699219 L 1536.9375 375.417969 L 1533.3125 375.417969 L 1533.3125 373.871094 Z M 1546.609375 378.277344 C 1548.085938 378.277344 1549.097656 378.570312 1549.640625 379.152344 C 1550.179688 379.738281 1550.453125 380.832031 1550.453125 382.433594 L 1550.453125 389.933594 L 1548.890625 389.933594 L 1548.84375 388.277344 L 1548.78125 388.277344 C 1548.09375 389.527344 1547.003906 390.152344 1545.515625 390.152344 C 1544.554688 390.152344 1543.78125 389.851562 1543.1875 389.246094 C 1542.601562 388.632812 1542.3125 387.792969 1542.3125 386.730469 C 1542.3125 385.398438 1542.757812 384.371094 1543.65625 383.652344 C 1544.5625 382.933594 1545.910156 382.574219 1547.703125 382.574219 L 1548.75 382.574219 L 1548.75 382.011719 C 1548.75 381.179688 1548.585938 380.589844 1548.265625 380.246094 C 1547.953125 379.902344 1547.398438 379.730469 1546.609375 379.730469 C 1546.117188 379.730469 1545.5 379.820312 1544.75 379.996094 C 1544.007812 380.175781 1543.382812 380.378906 1542.875 380.605469 L 1542.875 379.042969 C 1543.382812 378.816406 1544.003906 378.632812 1544.734375 378.496094 C 1545.460938 378.351562 1546.085938 378.277344 1546.609375 378.277344 Z M 1548.75 383.871094 L 1547.703125 383.871094 C 1545.210938 383.871094 1543.96875 384.789062 1543.96875 386.621094 C 1543.96875 387.289062 1544.132812 387.800781 1544.46875 388.152344 C 1544.800781 388.496094 1545.253906 388.667969 1545.828125 388.667969 C 1546.703125 388.667969 1547.40625 388.320312 1547.9375 387.621094 C 1548.476562 386.914062 1548.75 385.925781 1548.75 384.652344 Z M 1557.515625 388.605469 L 1557.5625 388.605469 L 1560.09375 378.480469 L 1561.90625 378.480469 L 1558.703125 389.933594 L 1556.296875 389.933594 L 1553.09375 378.480469 L 1554.984375 378.480469 Z M 1568.609375 378.277344 C 1570.085938 378.277344 1571.097656 378.570312 1571.640625 379.152344 C 1572.179688 379.738281 1572.453125 380.832031 1572.453125 382.433594 L 1572.453125 389.933594 L 1570.890625 389.933594 L 1570.84375 388.277344 L 1570.78125 388.277344 C 1570.09375 389.527344 1569.003906 390.152344 1567.515625 390.152344 C 1566.554688 390.152344 1565.78125 389.851562 1565.1875 389.246094 C 1564.601562 388.632812 1564.3125 387.792969 1564.3125 386.730469 C 1564.3125 385.398438 1564.757812 384.371094 1565.65625 383.652344 C 1566.5625 382.933594 1567.910156 382.574219 1569.703125 382.574219 L 1570.75 382.574219 L 1570.75 382.011719 C 1570.75 381.179688 1570.585938 380.589844 1570.265625 380.246094 C 1569.953125 379.902344 1569.398438 379.730469 1568.609375 379.730469 C 1568.117188 379.730469 1567.5 379.820312 1566.75 379.996094 C 1566.007812 380.175781 1565.382812 380.378906 1564.875 380.605469 L 1564.875 379.042969 C 1565.382812 378.816406 1566.003906 378.632812 1566.734375 378.496094 C 1567.460938 378.351562 1568.085938 378.277344 1568.609375 378.277344 Z M 1570.75 383.871094 L 1569.703125 383.871094 C 1567.210938 383.871094 1565.96875 384.789062 1565.96875 386.621094 C 1565.96875 387.289062 1566.132812 387.800781 1566.46875 388.152344 C 1566.800781 388.496094 1567.253906 388.667969 1567.828125 388.667969 C 1568.703125 388.667969 1569.40625 388.320312 1569.9375 387.621094 C 1570.476562 386.914062 1570.75 385.925781 1570.75 384.652344 Z M 1590.609375 375.183594 C 1589.835938 375.183594 1589.238281 375.386719 1588.8125 375.792969 C 1588.394531 376.199219 1588.1875 376.769531 1588.1875 377.496094 C 1588.1875 378.289062 1588.398438 378.976562 1588.828125 379.558594 C 1589.253906 380.144531 1589.8125 380.519531 1590.5 380.683594 C 1591.257812 380.476562 1591.847656 380.097656 1592.265625 379.542969 C 1592.691406 378.992188 1592.90625 378.308594 1592.90625 377.496094 C 1592.90625 376.808594 1592.691406 376.253906 1592.265625 375.824219 C 1591.847656 375.398438 1591.296875 375.183594 1590.609375 375.183594 Z M 1593.75 389.027344 C 1592.988281 389.777344 1591.90625 390.152344 1590.5 390.152344 C 1589.09375 390.152344 1588.003906 389.777344 1587.234375 389.027344 C 1586.472656 388.277344 1586.09375 387.183594 1586.09375 385.746094 C 1586.09375 384.746094 1586.335938 383.878906 1586.828125 383.136719 C 1587.316406 382.386719 1587.988281 381.832031 1588.84375 381.464844 L 1588.84375 381.433594 C 1588.144531 381.101562 1587.566406 380.566406 1587.109375 379.824219 C 1586.660156 379.074219 1586.4375 378.300781 1586.4375 377.496094 C 1586.4375 376.300781 1586.796875 375.363281 1587.515625 374.683594 C 1588.234375 373.996094 1589.226562 373.652344 1590.5 373.652344 C 1591.769531 373.652344 1592.765625 373.996094 1593.484375 374.683594 C 1594.203125 375.371094 1594.5625 376.308594 1594.5625 377.496094 C 1594.5625 378.308594 1594.335938 379.070312 1593.890625 379.777344 C 1593.453125 380.476562 1592.875 380.992188 1592.15625 381.324219 L 1592.15625 381.371094 C 1593.007812 381.714844 1593.679688 382.269531 1594.171875 383.027344 C 1594.660156 383.777344 1594.90625 384.683594 1594.90625 385.746094 C 1594.90625 387.183594 1594.519531 388.277344 1593.75 389.027344 Z M 1590.609375 388.605469 C 1591.378906 388.605469 1591.992188 388.363281 1592.453125 387.871094 C 1592.910156 387.382812 1593.140625 386.675781 1593.140625 385.746094 C 1593.140625 383.839844 1592.222656 382.667969 1590.390625 382.230469 C 1589.492188 382.472656 1588.832031 382.871094 1588.40625 383.433594 C 1587.976562 383.988281 1587.765625 384.757812 1587.765625 385.746094 C 1587.765625 386.652344 1588.019531 387.355469 1588.53125 387.855469 C 1589.050781 388.355469 1589.742188 388.605469 1590.609375 388.605469 Z M 1597.3125 384.199219 L 1605.6875 377.824219 L 1605.6875 379.574219 L 1597.3125 385.964844 Z M 1597.421875 374.558594 C 1597.921875 373.957031 1598.617188 373.652344 1599.515625 373.652344 C 1600.410156 373.652344 1601.109375 373.957031 1601.609375 374.558594 C 1602.117188 375.152344 1602.375 376.023438 1602.375 377.167969 C 1602.375 378.316406 1602.117188 379.191406 1601.609375 379.792969 C 1601.109375 380.386719 1600.410156 380.683594 1599.515625 380.683594 C 1598.617188 380.683594 1597.921875 380.386719 1597.421875 379.792969 C 1596.921875 379.191406 1596.671875 378.316406 1596.671875 377.167969 C 1596.671875 376.023438 1596.921875 375.152344 1597.421875 374.558594 Z M 1601.375 384.011719 C 1601.882812 383.410156 1602.585938 383.105469 1603.484375 383.105469 C 1604.378906 383.105469 1605.078125 383.410156 1605.578125 384.011719 C 1606.078125 384.605469 1606.328125 385.476562 1606.328125 386.621094 C 1606.328125 387.769531 1606.078125 388.644531 1605.578125 389.246094 C 1605.078125 389.851562 1604.378906 390.152344 1603.484375 390.152344 C 1602.585938 390.152344 1601.882812 389.851562 1601.375 389.246094 C 1600.875 388.644531 1600.625 387.769531 1600.625 386.621094 C 1600.625 385.476562 1600.875 384.605469 1601.375 384.011719 Z M 1598.390625 377.167969 C 1598.390625 378.523438 1598.765625 379.199219 1599.515625 379.199219 C 1600.273438 379.199219 1600.65625 378.523438 1600.65625 377.167969 C 1600.65625 375.816406 1600.273438 375.136719 1599.515625 375.136719 C 1598.765625 375.136719 1598.390625 375.816406 1598.390625 377.167969 Z M 1602.34375 386.636719 C 1602.34375 387.980469 1602.71875 388.652344 1603.46875 388.652344 C 1604.226562 388.652344 1604.609375 387.980469 1604.609375 386.636719 C 1604.609375 385.285156 1604.226562 384.605469 1603.46875 384.605469 C 1602.71875 384.605469 1602.34375 385.285156 1602.34375 386.636719 Z M 1530 369.140625 "/>
<path style=" stroke:none;fill-rule:nonzero;fill:rgb(100%,35.294118%,1.176471%);fill-opacity:1;" d="M 1523.554688 433 C 1523.554688 441.589844 1516.589844 448.554688 1508 448.554688 C 1499.410156 448.554688 1492.445312 441.589844 1492.445312 433 C 1492.445312 424.410156 1499.410156 417.445312 1508 417.445312 C 1516.589844 417.445312 1523.554688 424.410156 1523.554688 433 Z M 1523.554688 433 "/>
<g clip-path="url(#17jixpTrgI__clip6)" clip-rule="nonzero">
<path style="fill:none;stroke-width:2;stroke-linecap:butt;stroke-linejoin:miter;stroke:rgb(5.098039%,5.098039%,5.098039%);stroke-opacity:1;stroke-miterlimit:10;" d="M 761.777344 216.5 C 761.777344 220.794922 758.294922 224.277344 754 224.277344 C 749.705078 224.277344 746.222656 220.794922 746.222656 216.5 C 746.222656 212.205078 749.705078 208.722656 754 208.722656 C 758.294922 208.722656 761.777344 212.205078 761.777344 216.5 Z M 761.777344 216.5 " transform="matrix(2,0,0,2,0,0)"/>
</g>
<path style=" stroke:none;fill-rule:nonzero;fill:rgb(62.745098%,62.745098%,62.745098%);fill-opacity:1;" d="M 1535.484375 425.417969 L 1535.4375 425.417969 L 1533.609375 433.777344 L 1537.3125 433.777344 Z M 1537.65625 435.324219 L 1533.265625 435.324219 L 1532.234375 439.933594 L 1530.4375 439.933594 L 1534.40625 423.871094 L 1536.59375 423.871094 L 1540.578125 439.933594 L 1538.65625 439.933594 Z M 1546.609375 429.730469 C 1545.203125 429.730469 1544.5 430.269531 1544.5 431.339844 C 1544.5 431.839844 1544.648438 432.242188 1544.953125 432.542969 C 1545.265625 432.847656 1545.816406 433.105469 1546.609375 433.324219 C 1548.171875 433.761719 1549.203125 434.226562 1549.703125 434.714844 C 1550.203125 435.207031 1550.453125 435.957031 1550.453125 436.964844 C 1550.453125 437.976562 1550.109375 438.761719 1549.421875 439.324219 C 1548.734375 439.878906 1547.757812 440.152344 1546.5 440.152344 C 1545.238281 440.152344 1544.03125 439.863281 1542.875 439.277344 L 1542.875 437.511719 C 1544.019531 438.285156 1545.15625 438.667969 1546.28125 438.667969 C 1547.90625 438.667969 1548.71875 438.097656 1548.71875 436.949219 C 1548.71875 436.410156 1548.554688 435.992188 1548.234375 435.699219 C 1547.921875 435.398438 1547.304688 435.121094 1546.390625 434.871094 C 1545.046875 434.488281 1544.101562 434.035156 1543.5625 433.511719 C 1543.03125 432.980469 1542.765625 432.257812 1542.765625 431.339844 C 1542.765625 430.382812 1543.082031 429.632812 1543.71875 429.089844 C 1544.351562 428.550781 1545.28125 428.277344 1546.5 428.277344 C 1547.726562 428.277344 1548.90625 428.535156 1550.03125 429.042969 L 1550.03125 430.683594 C 1548.863281 430.050781 1547.722656 429.730469 1546.609375 429.730469 Z M 1557.375 428.933594 L 1561.34375 428.933594 L 1561.34375 430.433594 L 1557.375 430.433594 L 1557.375 436.621094 C 1557.375 437.445312 1557.492188 437.992188 1557.734375 438.261719 C 1557.984375 438.535156 1558.457031 438.667969 1559.15625 438.667969 C 1559.882812 438.667969 1560.539062 438.539062 1561.125 438.277344 L 1561.125 439.808594 C 1560.425781 440.039062 1559.695312 440.152344 1558.9375 440.152344 C 1557.707031 440.152344 1556.847656 439.914062 1556.359375 439.433594 C 1555.867188 438.957031 1555.625 438.089844 1555.625 436.839844 L 1555.625 430.433594 L 1553.4375 430.433594 L 1553.4375 428.933594 L 1555.625 428.933594 L 1555.625 424.746094 L 1557.375 424.746094 Z M 1567.078125 428.480469 L 1567.078125 430.683594 L 1567.140625 430.683594 C 1568.046875 429.082031 1569.304688 428.277344 1570.921875 428.277344 C 1571.472656 428.277344 1571.984375 428.347656 1572.453125 428.480469 L 1572.453125 430.027344 C 1571.941406 429.871094 1571.429688 429.792969 1570.921875 429.792969 C 1569.847656 429.792969 1568.953125 430.242188 1568.234375 431.136719 C 1567.523438 432.023438 1567.171875 433.195312 1567.171875 434.652344 L 1567.171875 439.933594 L 1565.421875 439.933594 L 1565.421875 428.480469 Z M 1575.09375 434.214844 C 1575.09375 430.257812 1576.5625 428.277344 1579.5 428.277344 C 1582.4375 428.277344 1583.90625 430.257812 1583.90625 434.214844 C 1583.90625 438.175781 1582.4375 440.152344 1579.5 440.152344 C 1576.5625 440.152344 1575.09375 438.175781 1575.09375 434.214844 Z M 1577.53125 437.621094 C 1577.957031 438.289062 1578.613281 438.621094 1579.5 438.621094 C 1580.382812 438.621094 1581.035156 438.289062 1581.453125 437.621094 C 1581.878906 436.957031 1582.09375 435.820312 1582.09375 434.214844 C 1582.09375 432.601562 1581.878906 431.460938 1581.453125 430.792969 C 1581.035156 430.128906 1580.382812 429.792969 1579.5 429.792969 C 1578.613281 429.792969 1577.957031 430.128906 1577.53125 430.792969 C 1577.113281 431.460938 1576.90625 432.601562 1576.90625 434.214844 C 1576.90625 435.820312 1577.113281 436.957031 1577.53125 437.621094 Z M 1602.453125 426.933594 L 1602.40625 426.933594 L 1598.5625 434.464844 L 1598.5625 434.496094 L 1602.453125 434.496094 Z M 1602.453125 436.074219 L 1596.875 436.074219 L 1596.875 434.261719 L 1602.234375 423.871094 L 1604.25 423.871094 L 1604.25 434.496094 L 1606.125 434.496094 L 1606.125 436.074219 L 1604.25 436.074219 L 1604.25 439.933594 L 1602.453125 439.933594 Z M 1608.3125 434.199219 L 1616.6875 427.824219 L 1616.6875 429.574219 L 1608.3125 435.964844 Z M 1608.421875 424.558594 C 1608.921875 423.957031 1609.617188 423.652344 1610.515625 423.652344 C 1611.410156 423.652344 1612.109375 423.957031 1612.609375 424.558594 C 1613.117188 425.152344 1613.375 426.023438 1613.375 427.167969 C 1613.375 428.316406 1613.117188 429.191406 1612.609375 429.792969 C 1612.109375 430.386719 1611.410156 430.683594 1610.515625 430.683594 C 1609.617188 430.683594 1608.921875 430.386719 1608.421875 429.792969 C 1607.921875 429.191406 1607.671875 428.316406 1607.671875 427.167969 C 1607.671875 426.023438 1607.921875 425.152344 1608.421875 424.558594 Z M 1612.375 434.011719 C 1612.882812 433.410156 1613.585938 433.105469 1614.484375 433.105469 C 1615.378906 433.105469 1616.078125 433.410156 1616.578125 434.011719 C 1617.078125 434.605469 1617.328125 435.476562 1617.328125 436.621094 C 1617.328125 437.769531 1617.078125 438.644531 1616.578125 439.246094 C 1616.078125 439.851562 1615.378906 440.152344 1614.484375 440.152344 C 1613.585938 440.152344 1612.882812 439.851562 1612.375 439.246094 C 1611.875 438.644531 1611.625 437.769531 1611.625 436.621094 C 1611.625 435.476562 1611.875 434.605469 1612.375 434.011719 Z M 1609.390625 427.167969 C 1609.390625 428.523438 1609.765625 429.199219 1610.515625 429.199219 C 1611.273438 429.199219 1611.65625 428.523438 1611.65625 427.167969 C 1611.65625 425.816406 1611.273438 425.136719 1610.515625 425.136719 C 1609.765625 425.136719 1609.390625 425.816406 1609.390625 427.167969 Z M 1613.34375 436.636719 C 1613.34375 437.980469 1613.71875 438.652344 1614.46875 438.652344 C 1615.226562 438.652344 1615.609375 437.980469 1615.609375 436.636719 C 1615.609375 435.285156 1615.226562 434.605469 1614.46875 434.605469 C 1613.71875 434.605469 1613.34375 435.285156 1613.34375 436.636719 Z M 1530 419.140625 "/>
<path style=" stroke:none;fill-rule:nonzero;fill:rgb(23.137255%,50.980392%,96.470588%);fill-opacity:1;" d="M 27.09375 59.167969 L 19.390625 77.027344 L 16.8125 77.027344 L 24.515625 59.167969 Z M 38.09375 59.167969 L 30.390625 77.027344 L 27.8125 77.027344 L 35.515625 59.167969 Z M 56.09375 72.371094 C 56.09375 73.246094 56.128906 73.730469 56.203125 73.824219 C 56.273438 73.910156 56.632812 73.949219 57.28125 73.949219 C 57.726562 73.949219 58.421875 73.878906 59.359375 73.730469 L 59.359375 76.199219 C 58.390625 76.304688 57.613281 76.355469 57.03125 76.355469 C 55.59375 76.355469 54.625 76.101562 54.125 75.589844 C 53.632812 75.082031 53.390625 74.082031 53.390625 72.589844 L 53.390625 61.574219 L 50.546875 61.574219 L 50.546875 59.167969 L 56.09375 59.167969 Z M 66.0625 63.574219 C 67.675781 63.574219 68.796875 63.914062 69.421875 64.589844 C 70.046875 65.269531 70.359375 66.464844 70.359375 68.183594 L 70.359375 76.136719 L 67.90625 76.136719 L 68.234375 74.089844 L 68.296875 74.136719 C 67.742188 75.617188 66.632812 76.355469 64.96875 76.355469 C 63.882812 76.355469 63.003906 76.007812 62.328125 75.308594 C 61.648438 74.613281 61.3125 73.667969 61.3125 72.480469 C 61.3125 71.003906 61.8125 69.867188 62.8125 69.074219 C 63.8125 68.273438 65.257812 67.871094 67.15625 67.871094 L 67.75 67.871094 L 67.75 67.761719 C 67.75 67.042969 67.628906 66.558594 67.390625 66.308594 C 67.160156 66.058594 66.71875 65.933594 66.0625 65.933594 C 65.601562 65.933594 65.015625 66.023438 64.296875 66.199219 C 63.585938 66.367188 62.78125 66.652344 61.875 67.058594 L 61.875 64.496094 C 62.59375 64.175781 63.332031 63.941406 64.09375 63.792969 C 64.851562 63.648438 65.507812 63.574219 66.0625 63.574219 Z M 67.75 70.074219 L 67.15625 70.074219 C 64.96875 70.074219 63.875 70.839844 63.875 72.371094 C 63.875 72.914062 63.992188 73.316406 64.234375 73.574219 C 64.484375 73.835938 64.832031 73.964844 65.28125 73.964844 C 66.007812 73.964844 66.601562 73.664062 67.0625 73.058594 C 67.519531 72.457031 67.75 71.570312 67.75 70.402344 Z M 81.59375 68.417969 L 81.59375 76.136719 L 79 76.136719 L 79 68.808594 C 79 67.613281 78.882812 66.851562 78.65625 66.527344 C 78.4375 66.207031 78.015625 66.042969 77.390625 66.042969 C 76.816406 66.042969 76.304688 66.398438 75.859375 67.105469 C 75.410156 67.816406 75.1875 68.824219 75.1875 70.136719 L 75.1875 76.136719 L 72.546875 76.136719 L 72.546875 63.777344 L 75.046875 63.777344 L 74.71875 65.839844 L 74.671875 65.808594 C 74.742188 65.101562 75.101562 64.554688 75.75 64.167969 C 76.394531 63.773438 77.085938 63.574219 77.828125 63.574219 C 79.140625 63.574219 80.09375 63.957031 80.6875 64.714844 C 81.289062 65.476562 81.59375 66.710938 81.59375 68.417969 Z M 83.09375 69.949219 C 83.09375 65.699219 84.523438 63.574219 87.390625 63.574219 C 88.773438 63.574219 89.800781 64.316406 90.46875 65.792969 L 90.421875 65.839844 L 90.078125 63.777344 L 92.59375 63.777344 L 92.59375 75.558594 C 92.59375 77.503906 92.175781 78.925781 91.34375 79.824219 C 90.519531 80.730469 89.28125 81.183594 87.625 81.183594 C 86.53125 81.183594 85.347656 80.953125 84.078125 80.496094 L 84.078125 77.699219 C 85.503906 78.40625 86.6875 78.761719 87.625 78.761719 C 89.175781 78.761719 89.953125 77.691406 89.953125 75.558594 L 90.359375 73.871094 L 90.40625 73.902344 C 89.9375 75.394531 88.929688 76.136719 87.390625 76.136719 C 86.066406 76.136719 85.019531 75.601562 84.25 74.527344 C 83.476562 73.445312 83.09375 71.917969 83.09375 69.949219 Z M 85.75 69.949219 C 85.75 71.222656 85.941406 72.144531 86.328125 72.714844 C 86.722656 73.289062 87.226562 73.574219 87.84375 73.574219 C 88.445312 73.574219 88.945312 73.292969 89.34375 72.730469 C 89.75 72.167969 89.953125 71.277344 89.953125 70.058594 L 89.953125 69.839844 C 89.953125 68.601562 89.742188 67.675781 89.328125 67.058594 C 88.921875 66.433594 88.425781 66.121094 87.84375 66.121094 C 87.15625 66.121094 86.632812 66.410156 86.28125 66.980469 C 85.925781 67.554688 85.75 68.542969 85.75 69.949219 Z M 94.4375 71.714844 L 94.4375 63.777344 L 97.015625 63.777344 L 97.015625 71.324219 C 97.015625 72.449219 97.113281 73.160156 97.3125 73.449219 C 97.519531 73.742188 97.925781 73.886719 98.53125 73.886719 C 99.070312 73.886719 99.550781 73.539062 99.96875 72.839844 C 100.394531 72.132812 100.609375 71.113281 100.609375 69.777344 L 100.609375 63.777344 L 103.25 63.777344 L 103.25 76.136719 L 100.734375 76.136719 L 101.078125 74.074219 L 101.125 74.105469 C 101.0625 74.855469 100.71875 75.417969 100.09375 75.792969 C 99.476562 76.167969 98.804688 76.355469 98.078125 76.355469 C 96.796875 76.355469 95.867188 75.992188 95.296875 75.261719 C 94.722656 74.535156 94.4375 73.351562 94.4375 71.714844 Z M 110.0625 63.574219 C 111.675781 63.574219 112.796875 63.914062 113.421875 64.589844 C 114.046875 65.269531 114.359375 66.464844 114.359375 68.183594 L 114.359375 76.136719 L 111.90625 76.136719 L 112.234375 74.089844 L 112.296875 74.136719 C 111.742188 75.617188 110.632812 76.355469 108.96875 76.355469 C 107.882812 76.355469 107.003906 76.007812 106.328125 75.308594 C 105.648438 74.613281 105.3125 73.667969 105.3125 72.480469 C 105.3125 71.003906 105.8125 69.867188 106.8125 69.074219 C 107.8125 68.273438 109.257812 67.871094 111.15625 67.871094 L 111.75 67.871094 L 111.75 67.761719 C 111.75 67.042969 111.628906 66.558594 111.390625 66.308594 C 111.160156 66.058594 110.71875 65.933594 110.0625 65.933594 C 109.601562 65.933594 109.015625 66.023438 108.296875 66.199219 C 107.585938 66.367188 106.78125 66.652344 105.875 67.058594 L 105.875 64.496094 C 106.59375 64.175781 107.332031 63.941406 108.09375 63.792969 C 108.851562 63.648438 109.507812 63.574219 110.0625 63.574219 Z M 111.75 70.074219 L 111.15625 70.074219 C 108.96875 70.074219 107.875 70.839844 107.875 72.371094 C 107.875 72.914062 107.992188 73.316406 108.234375 73.574219 C 108.484375 73.835938 108.832031 73.964844 109.28125 73.964844 C 110.007812 73.964844 110.601562 73.664062 111.0625 73.058594 C 111.519531 72.457031 111.75 71.570312 111.75 70.402344 Z M 116.09375 69.949219 C 116.09375 65.699219 117.523438 63.574219 120.390625 63.574219 C 121.773438 63.574219 122.800781 64.316406 123.46875 65.792969 L 123.421875 65.839844 L 123.078125 63.777344 L 125.59375 63.777344 L 125.59375 75.558594 C 125.59375 77.503906 125.175781 78.925781 124.34375 79.824219 C 123.519531 80.730469 122.28125 81.183594 120.625 81.183594 C 119.53125 81.183594 118.347656 80.953125 117.078125 80.496094 L 117.078125 77.699219 C 118.503906 78.40625 119.6875 78.761719 120.625 78.761719 C 122.175781 78.761719 122.953125 77.691406 122.953125 75.558594 L 123.359375 73.871094 L 123.40625 73.902344 C 122.9375 75.394531 121.929688 76.136719 120.390625 76.136719 C 119.066406 76.136719 118.019531 75.601562 117.25 74.527344 C 116.476562 73.445312 116.09375 71.917969 116.09375 69.949219 Z M 118.75 69.949219 C 118.75 71.222656 118.941406 72.144531 119.328125 72.714844 C 119.722656 73.289062 120.226562 73.574219 120.84375 73.574219 C 121.445312 73.574219 121.945312 73.292969 122.34375 72.730469 C 122.75 72.167969 122.953125 71.277344 122.953125 70.058594 L 122.953125 69.839844 C 122.953125 68.601562 122.742188 67.675781 122.328125 67.058594 C 121.921875 66.433594 121.425781 66.121094 120.84375 66.121094 C 120.15625 66.121094 119.632812 66.410156 119.28125 66.980469 C 118.925781 67.554688 118.75 68.542969 118.75 69.949219 Z M 129.953125 70.980469 C 129.992188 71.929688 130.222656 72.660156 130.640625 73.167969 C 131.066406 73.667969 131.691406 73.917969 132.515625 73.917969 C 133.328125 73.917969 134.46875 73.566406 135.9375 72.855469 L 135.9375 75.667969 C 134.59375 76.128906 133.410156 76.355469 132.390625 76.355469 C 128.929688 76.355469 127.203125 74.222656 127.203125 69.949219 C 127.203125 67.785156 127.609375 66.179688 128.421875 65.136719 C 129.242188 64.097656 130.457031 63.574219 132.0625 63.574219 C 133.550781 63.574219 134.65625 64.082031 135.375 65.089844 C 136.101562 66.101562 136.46875 67.683594 136.46875 69.839844 C 136.46875 70.007812 136.4375 70.386719 136.375 70.980469 Z M 129.953125 68.621094 L 133.84375 68.621094 C 133.832031 66.871094 133.238281 65.996094 132.0625 65.996094 C 131.375 65.996094 130.859375 66.214844 130.515625 66.652344 C 130.179688 67.082031 129.992188 67.738281 129.953125 68.621094 Z M 143.0625 65.933594 C 141.957031 65.933594 141.40625 66.320312 141.40625 67.089844 C 141.40625 67.464844 141.519531 67.769531 141.75 67.996094 C 141.988281 68.226562 142.46875 68.441406 143.1875 68.636719 C 144.820312 69.097656 145.925781 69.605469 146.5 70.167969 C 147.070312 70.730469 147.359375 71.585938 147.359375 72.730469 C 147.359375 73.878906 146.960938 74.769531 146.171875 75.402344 C 145.390625 76.039062 144.320312 76.355469 142.96875 76.355469 C 141.625 76.355469 140.257812 76.007812 138.875 75.308594 L 138.875 72.417969 C 140.414062 73.449219 141.703125 73.964844 142.734375 73.964844 C 144.054688 73.964844 144.71875 73.542969 144.71875 72.699219 C 144.71875 72.292969 144.59375 71.976562 144.34375 71.746094 C 144.101562 71.519531 143.5625 71.289062 142.71875 71.058594 C 141.300781 70.652344 140.285156 70.152344 139.671875 69.558594 C 139.066406 68.957031 138.765625 68.132812 138.765625 67.089844 C 138.765625 65.996094 139.128906 65.136719 139.859375 64.511719 C 140.585938 63.886719 141.617188 63.574219 142.953125 63.574219 C 144.242188 63.574219 145.570312 63.882812 146.9375 64.496094 L 146.9375 67.199219 C 145.394531 66.355469 144.101562 65.933594 143.0625 65.933594 Z M 16 55.34375 "/>
<path style="fill-rule:nonzero;fill:rgb(0%,70.588235%,67.058824%);fill-opacity:1;stroke-width:2;stroke-linecap:butt;stroke-linejoin:bevel;stroke:rgb(5.098039%,5.098039%,5.098039%);stroke-opacity:1;stroke-miterlimit:10;" d="M 371.25 50.199219 C 413.771484 50.199219 452.785156 73.785156 472.546875 111.435547 C 492.306641 149.085938 489.554688 194.591797 465.398438 229.585938 L 423.03125 200.341797 C 436.318359 181.095703 437.832031 156.068359 426.962891 135.359375 C 416.09375 114.652344 394.636719 101.679688 371.25 101.679688 Z M 371.25 50.199219 " transform="matrix(2,0,0,2,0,0)"/>
<path style="fill-rule:nonzero;fill:rgb(19.215686%,47.058824%,77.647059%);fill-opacity:1;stroke-width:2;stroke-linecap:butt;stroke-linejoin:bevel;stroke:rgb(5.098039%,5.098039%,5.098039%);stroke-opacity:1;stroke-miterlimit:10;" d="M 465.398438 229.585938 C 446.798828 256.533203 417.542969 274.21875 385.039062 278.166016 C 352.535156 282.113281 319.896484 271.941406 295.388672 250.230469 L 329.525391 211.697266 C 343.005859 223.638672 360.957031 229.232422 378.833984 227.060547 C 396.710938 224.890625 412.802734 215.164062 423.03125 200.341797 Z M 465.398438 229.585938 " transform="matrix(2,0,0,2,0,0)"/>
<path style="fill-rule:nonzero;fill:rgb(20.784314%,44.705882%,64.705882%);fill-opacity:1;stroke-width:2;stroke-linecap:butt;stroke-linejoin:bevel;stroke:rgb(5.098039%,5.098039%,5.098039%);stroke-opacity:1;stroke-miterlimit:10;" d="M 295.388672 250.230469 C 281.525391 237.947266 270.851562 222.484375 264.283203 205.166016 C 257.716797 187.849609 255.451172 169.197266 257.683594 150.810547 L 308.789062 157.015625 C 307.560547 167.128906 308.806641 177.386719 312.417969 186.912109 C 316.03125 196.435547 321.902344 204.941406 329.525391 211.697266 Z M 295.388672 250.230469 " transform="matrix(2,0,0,2,0,0)"/>
<path style="fill-rule:nonzero;fill:rgb(66.27451%,48.235294%,100%);fill-opacity:1;stroke-width:2;stroke-linecap:butt;stroke-linejoin:bevel;stroke:rgb(5.098039%,5.098039%,5.098039%);stroke-opacity:1;stroke-miterlimit:10;" d="M 257.683594 150.810547 C 259.355469 137.050781 263.511719 123.708984 269.953125 111.435547 C 276.394531 99.162109 285.013672 88.162109 295.388672 78.970703 L 329.525391 117.503906 C 323.820312 122.558594 319.080078 128.609375 315.537109 135.359375 C 311.994141 142.109375 309.707031 149.447266 308.789062 157.015625 Z M 257.683594 150.810547 " transform="matrix(2,0,0,2,0,0)"/>
<path style="fill-rule:nonzero;fill:rgb(69.019608%,44.705882%,9.803922%);fill-opacity:1;stroke-width:2;stroke-linecap:butt;stroke-linejoin:bevel;stroke:rgb(5.098039%,5.098039%,5.098039%);stroke-opacity:1;stroke-miterlimit:10;" d="M 295.388672 78.970703 C 302.294922 72.851562 309.916016 67.591797 318.085938 63.304688 C 326.255859 59.015625 334.914062 55.732422 343.873047 53.523438 L 356.191406 103.507812 C 351.265625 104.722656 346.503906 106.529297 342.009766 108.886719 C 337.515625 111.246094 333.324219 114.138672 329.525391 117.503906 Z M 295.388672 78.970703 " transform="matrix(2,0,0,2,0,0)"/>
<path style="fill-rule:nonzero;fill:rgb(100%,35.294118%,1.176471%);fill-opacity:1;stroke-width:2;stroke-linecap:butt;stroke-linejoin:bevel;stroke:rgb(5.098039%,5.098039%,5.098039%);stroke-opacity:1;stroke-miterlimit:10;" d="M 343.873047 53.523438 C 348.347656 52.421875 352.884766 51.589844 357.460938 51.033203 C 362.035156 50.478516 366.640625 50.199219 371.25 50.199219 L 371.25 101.679688 C 368.714844 101.679688 366.181641 101.833984 363.666016 102.138672 C 361.148438 102.443359 358.654297 102.902344 356.191406 103.507812 Z M 343.873047 53.523438 " transform="matrix(2,0,0,2,0,0)"/>
</g>
</svg>
