<svg width="140" height="140" viewBox="0 0 140 140" fill="none" xmlns="http://www.w3.org/2000/svg">
<rect width="140" height="140" rx="20" fill="#242938"/>
<path d="M69.975 131.09C53.658 131.09 38.317 124.735 26.778 113.197C15.239 101.659 8.88501 86.318 8.88501 70C8.88501 53.682 15.24 38.341 26.778 26.803C38.316 15.265 53.657 8.91 69.975 8.91C86.293 8.91 101.634 15.265 113.173 26.803C124.712 38.341 131.065 53.682 131.065 70C131.065 86.318 124.71 101.659 113.172 113.198C101.634 124.737 86.293 131.09 69.975 131.09Z" fill="white"/>
<path opacity="0.9" d="M69.974 69.784H131.064M69.974 69.784L113.171 26.588M69.974 69.784V8.694M69.974 69.784L26.778 26.588M69.974 69.784H8.88403M69.974 69.784L26.778 112.981M69.974 69.784V130.874M69.974 69.784L113.171 112.981" stroke="#858585" stroke-width="0.856" stroke-miterlimit="7.976" stroke-linecap="round" stroke-linejoin="round" stroke-dasharray="0.41 0.81"/>
<path opacity="0.9" d="M76.764 69.784L76.562 68.141L75.969 66.598L75.02 65.243L73.77 64.158L72.296 63.407L70.686 63.034L69.032 63.064L67.433 63.493L65.986 64.294L64.777 65.422L63.877 66.81L63.338 68.375L63.193 70.024L63.452 71.658L64.098 73.181L65.092 74.502L66.378 75.543L67.878 76.241L69.501 76.557L71.154 76.471L72.736 75.987L74.154 75.135L75.324 73.965L76.175 72.548L76.659 70.966L76.764 69.784Z" stroke="#818181" stroke-width="0.856" stroke-miterlimit="199.409" stroke-linecap="square" stroke-linejoin="round" stroke-dasharray="0.41 0.81"/>
<path opacity="0.9" d="M90.339 69.784L90.141 66.951L89.551 64.172L88.578 61.503L87.245 58.994L85.575 56.695L83.602 54.651L81.364 52.901L78.903 51.481L76.27 50.417L73.512 49.729L70.687 49.432L67.847 49.531L65.05 50.025L62.348 50.902L59.794 52.148L57.438 53.736L55.327 55.637L53.501 57.814L51.995 60.222L50.84 62.818L50.058 65.548L49.662 68.362V71.204L50.058 74.018L50.84 76.748L51.995 79.344L53.501 81.752L55.327 83.929L57.438 85.831L59.794 87.419L62.348 88.664L65.05 89.541L67.848 90.035L70.688 90.135L73.512 89.837L76.27 89.15L78.903 88.085L81.364 86.665L83.602 84.915L85.575 82.871L87.245 80.572L88.578 78.062L89.55 75.394L90.141 72.615L90.339 69.784Z" stroke="#818181" stroke-width="0.856" stroke-miterlimit="199.409" stroke-linecap="square" stroke-linejoin="round" stroke-dasharray="0.41 0.81"/>
<path opacity="0.9" d="M103.914 69.784L103.729 66.236L103.174 62.727L102.254 59.297L100.982 55.98L99.3689 52.814L97.4339 49.836L95.1979 47.074L92.6859 44.563L89.9249 42.327L86.9459 40.392L83.7809 38.779L80.4639 37.506L77.0339 36.587L73.5239 36.032L69.9759 35.847L66.4279 36.032L62.9199 36.587L59.4899 37.507L56.1719 38.779L53.0069 40.392L50.0279 42.327L47.2669 44.563L44.7549 47.074L42.5189 49.836L40.5839 52.814L38.9709 55.98L37.6979 59.297L36.7789 62.727L36.2239 66.236L36.0389 69.784L36.2239 73.332L36.7789 76.841L37.6989 80.271L38.9709 83.588L40.5839 86.754L42.5189 89.732L44.7549 92.494L47.2669 95.005L50.0279 97.241L53.0069 99.176L56.1719 100.79L59.4889 102.062L62.9189 102.982L66.4289 103.537L69.9759 103.722L73.5249 103.537L77.0329 102.981L80.4629 102.062L83.7809 100.79L86.9459 99.176L89.9249 97.241L92.6859 95.005L95.1979 92.494L97.4339 89.732L99.3689 86.754L100.982 83.588L102.254 80.271L103.174 76.841L103.729 73.332L103.914 69.784Z" stroke="#818181" stroke-width="0.856" stroke-miterlimit="199.409" stroke-linecap="square" stroke-linejoin="round" stroke-dasharray="0.41 0.81"/>
<path opacity="0.9" d="M117.489 69.784L117.229 64.818L116.449 59.907L115.163 55.103L113.381 50.461L111.124 46.029L108.415 41.858L105.285 37.992L101.769 34.475L97.903 31.345L93.732 28.636L89.3 26.38L84.658 24.599L79.854 23.312L74.942 22.533L69.976 22.273L65.01 22.533L60.1 23.312L55.295 24.599L50.653 26.38L46.221 28.637L42.051 31.347L38.184 34.477L34.667 37.993L31.537 41.859L28.829 46.029L26.572 50.462L24.79 55.104L23.503 59.908L22.725 64.819L22.464 69.785L22.724 74.751L23.503 79.662L24.79 84.467L26.572 89.109L28.829 93.54L31.538 97.711L34.668 101.577L38.184 105.094L42.05 108.224L46.221 110.933L50.653 113.19L55.295 114.971L60.099 116.259L65.01 117.037L69.976 117.297L74.942 117.037L79.854 116.259L84.658 114.971L89.3 113.19L93.732 110.933L97.902 108.223L101.769 105.094L105.285 101.577L108.415 97.711L111.125 93.541L113.381 89.109L115.163 84.467L116.45 79.662L117.228 74.752L117.489 69.784Z" stroke="#818181" stroke-width="0.856" stroke-miterlimit="199.409" stroke-linecap="square" stroke-linejoin="round" stroke-dasharray="0.41 0.81"/>
<path d="M70 132C53.44 132 37.87 125.551 26.16 113.841C14.45 102.131 8 86.561 8 70C8 53.439 14.449 37.87 26.159 26.159C37.869 14.448 53.439 8 70 8C86.561 8 102.131 14.449 113.841 26.159C125.551 37.869 132 53.439 132 70C132 86.561 125.551 102.131 113.841 113.841C102.131 125.551 86.561 132 70 132ZM70 9.82C53.926 9.82 38.813 16.08 27.447 27.446C16.08 38.813 9.82 53.925 9.82 70C9.82 86.075 16.08 101.188 27.446 112.554C38.812 123.92 53.925 130.18 70 130.18C86.075 130.18 101.188 123.92 112.554 112.554C123.92 101.188 130.18 86.075 130.18 70C130.18 53.925 123.92 38.813 112.554 27.446C101.187 16.08 86.075 9.82 70 9.82Z" fill="#11557C"/>
<path opacity="0.6" d="M69.975 69.784L70.104 69.742L70.233 69.7L70.362 69.658L70.491 69.616L70.62 69.574L70.749 69.532L70.878 69.49L71.007 69.448L71.136 69.406L71.265 69.364L71.394 69.322L71.523 69.28L71.652 69.238L71.781 69.196L71.91 69.154L72.039 69.112L72.168 69.07L72.297 69.028L72.426 68.986L72.555 68.944L72.684 68.902L72.813 68.86L72.942 68.818L73.071 68.776L73.2 68.734L73.329 68.692L73.458 68.65L73.587 68.608L73.716 68.566L73.845 68.524L73.974 68.482L74.103 68.44L74.232 68.398L74.361 68.356L74.49 68.314L74.619 68.272L74.748 68.23L74.877 68.188L75.006 68.146L75.135 68.104L75.264 68.062L75.393 68.02L75.522 67.978L75.651 67.936L75.78 67.894L75.909 67.852L76.038 67.81L76.167 67.768L76.296 67.726L76.425 67.684L76.554 67.642L76.683 67.6L76.812 67.558L76.941 67.516L77.07 67.474L77.199 67.432L77.328 67.39L77.457 67.348L77.586 67.306L77.715 67.264L77.844 67.222L77.973 67.18L78.102 67.138L78.231 67.096L78.36 67.054L78.489 67.012L78.618 66.97L78.747 66.928L78.876 66.886L79.005 66.844L79.134 66.802L79.263 66.76L79.392 66.718L79.521 66.676L79.65 66.634L79.779 66.592L79.908 66.55L80.037 66.508L80.166 66.466L80.295 66.424L80.424 66.382L80.553 66.34L80.682 66.298L80.811 66.256L80.94 66.214L81.069 66.172L81.198 66.13L81.327 66.088L81.456 66.046L81.585 66.004L81.714 65.962L81.843 65.92L81.972 65.878L82.101 65.836L82.23 65.794L82.359 65.752L82.488 65.71L82.617 65.668L82.746 65.626L82.875 65.584L82.9 65.63L82.913 65.671L82.926 65.712L82.939 65.753L82.952 65.794L82.965 65.835L82.977 65.876L82.989 65.917L83 65.956L83.012 65.997L83.024 66.038L83.036 66.079L83.048 66.12L83.059 66.161L83.07 66.202L83.081 66.243L83.092 66.284L83.103 66.325L83.114 66.366L83.125 66.407L83.136 66.448L83.146 66.489L83.156 66.53L83.166 66.571L83.176 66.612L83.186 66.653L83.196 66.695L83.206 66.737L83.215 66.779L83.224 66.821L83.233 66.863L83.242 66.905L83.251 66.947L83.26 66.989L83.269 67.031L83.278 67.073L83.287 67.115L83.295 67.157L83.303 67.199L83.311 67.241L83.319 67.283L83.327 67.325L83.335 67.367L83.342 67.409L83.349 67.451L83.356 67.493L83.363 67.535L83.37 67.577L83.377 67.619L83.384 67.661L83.391 67.703L83.398 67.745L83.404 67.787L83.41 67.829L83.416 67.871L83.422 67.913L83.428 67.955L83.434 67.997L83.44 68.039L83.445 68.081L83.45 68.123L83.455 68.165L83.46 68.207L83.465 68.249L83.47 68.291L83.475 68.333L83.48 68.375L83.484 68.417L83.488 68.459L83.492 68.501L83.496 68.543L83.5 68.585L83.504 68.627L83.508 68.67L83.511 68.713L83.514 68.756L83.517 68.799L83.52 68.842L83.523 68.885L83.526 68.928L83.529 68.971L83.532 69.014L83.534 69.057L83.536 69.1L83.538 69.143L83.54 69.186L83.542 69.229L83.544 69.272L83.546 69.315L83.547 69.358L83.548 69.401L83.549 69.444L83.55 69.487L83.551 69.53L83.552 69.573L83.553 69.616V69.788H70.11L69.975 69.784Z" fill="#004CFF"/>
<path opacity="0.6" d="M69.975 69.784L70.118 69.403L70.261 69.022L70.404 68.641L70.547 68.26L70.69 67.879L70.833 67.498L70.976 67.117L71.119 66.736L71.262 66.355L71.405 65.974L71.548 65.593L71.691 65.212L71.834 64.831L71.977 64.45L72.12 64.069L72.263 63.688L72.406 63.307L72.549 62.926L72.692 62.545L72.835 62.164L72.978 61.783L73.121 61.402L73.264 61.021L73.407 60.64L73.55 60.259L73.693 59.878L73.836 59.497L73.979 59.116L74.122 58.735L74.265 58.354L74.408 57.973L74.551 57.592L74.694 57.211L74.837 56.83L74.98 56.449L75.123 56.068L75.266 55.687L75.409 55.306L75.552 54.925L75.695 54.544L75.838 54.163L75.981 53.782L76.124 53.401L76.267 53.02L76.41 52.639L76.553 52.258L76.696 51.877L76.839 51.496L76.982 51.115L77.125 50.734L77.268 50.353L77.411 49.972L77.554 49.591L77.697 49.21L77.84 48.829L77.983 48.448L78.126 48.067L78.269 47.686L78.412 47.305L78.555 46.924L78.698 46.543L78.841 46.162L78.984 45.781L79.127 45.4L79.27 45.019L79.413 44.638L79.556 44.257L79.699 43.876L79.842 43.495L79.985 43.114L80.128 42.733L80.271 42.352L80.414 41.971L80.557 41.59L80.7 41.209L80.843 40.828L80.986 40.447L81.129 40.066L81.272 39.685L81.415 39.304L81.558 38.923L81.701 38.542L81.844 38.161L81.987 37.78L82.13 37.399L82.273 37.018L82.416 36.637L82.559 36.256L82.702 35.875L82.845 35.494L82.988 35.113L83.131 34.732L83.274 34.351L83.417 33.97L83.56 33.589L83.703 33.208L83.846 32.827L84 32.416L84.143 32.035L84.286 31.654L84.406 31.699L84.526 31.745L84.645 31.791L84.764 31.837L84.883 31.884L85.002 31.931L85.121 31.978L85.24 32.026L85.359 32.074L85.477 32.123L85.595 32.172L85.713 32.221L85.831 32.271L85.949 32.321L86.067 32.371L86.184 32.422L86.301 32.473L86.418 32.524L86.535 32.576L86.652 32.628L86.769 32.681L86.885 32.734L87.001 32.787L87.117 32.841L87.233 32.895L87.349 32.949L87.465 33.004L87.58 33.059L87.695 33.114L87.81 33.17L87.925 33.226L88.04 33.283L88.155 33.34L88.269 33.397L88.383 33.455L88.497 33.513L88.611 33.571L88.725 33.63L88.838 33.689L88.951 33.748L89.064 33.808L89.177 33.868L89.29 33.929L89.403 33.99L89.515 34.051L89.627 34.113L89.739 34.175L89.851 34.237L89.963 34.3L90.074 34.363L90.185 34.426L90.296 34.49L90.407 34.554L90.518 34.618L90.628 34.683L90.738 34.748L90.848 34.813L90.958 34.879L91.068 34.945L91.177 35.011L91.286 35.078L91.395 35.145L91.504 35.212L91.612 35.28L91.72 35.348L91.828 35.416L91.936 35.485L92.044 35.554L92.151 35.623L92.258 35.693L92.365 35.763L92.472 35.834L92.579 35.905L92.685 35.976L92.791 36.048L92.897 36.12L93.003 36.192L93.108 36.265L93.213 36.338L93.318 36.411L93.423 36.485L93.527 36.559L93.631 36.633L93.735 36.707L93.839 36.782L93.943 36.857L94.046 36.932L94.149 37.008L94.252 37.084L94.355 37.16L94.457 37.237L94.559 37.314L94.661 37.391L94.763 37.469L94.864 37.547L94.965 37.625L95.066 37.704L95.167 37.783L95.267 37.862L95.367 37.942L95.113 38.26L94.859 38.578L94.605 38.896L94.351 39.214L94.097 39.532L93.843 39.85L93.589 40.168L93.335 40.486L93.081 40.804L92.827 41.122L92.573 41.44L92.319 41.758L92.065 42.076L91.813 42.4L91.559 42.718L91.305 43.036L91.051 43.354L90.797 43.672L90.543 43.99L90.29 44.31L90.036 44.628L89.782 44.946L89.528 45.264L89.274 45.582L89.02 45.9L88.766 46.218L88.512 46.536L88.258 46.854L88.004 47.172L87.75 47.49L87.496 47.808L87.242 48.126L86.988 48.444L86.734 48.762L86.48 49.08L86.226 49.398L85.972 49.716L85.718 50.034L85.464 50.352L85.21 50.67L84.956 50.988L84.702 51.306L84.448 51.624L84.194 51.942L83.94 52.26L83.686 52.578L83.432 52.896L83.178 53.214L82.924 53.532L82.67 53.85L82.416 54.168L82.164 54.5L81.91 54.818L81.656 55.136L81.402 55.454L81.148 55.772L80.894 56.09L80.64 56.41L80.386 56.728L80.132 57.046L79.878 57.364L79.624 57.682L79.37 58L79.116 58.318L78.862 58.636L78.608 58.954L78.354 59.272L78.1 59.59L77.846 59.908L77.592 60.226L77.338 60.544L77.084 60.862L76.83 61.18L76.576 61.498L76.322 61.816L76.068 62.134L75.814 62.452L75.56 62.77L75.306 63.088L75.052 63.406L74.8 63.734L74.546 64.052L74.292 64.37L74.038 64.688L73.784 65.006L73.53 65.324L73.276 65.642L73.022 65.96L72.768 66.278L72.514 66.596L72.26 66.914L72.006 67.232L71.752 67.55L71.498 67.868L71.244 68.186L70.99 68.504L70.736 68.822L70.482 69.14L70.228 69.458L69.975 69.784Z" fill="#CEFF29"/>
<path opacity="0.6" d="M69.9749 69.784L69.6269 69.367L69.2789 68.95L68.931 68.533L68.583 68.116L68.235 67.699L67.887 67.282L67.539 66.865L67.191 66.448L66.8429 66.031L66.4949 65.614L66.1469 65.197L65.799 64.78L65.451 64.363L65.103 63.946L64.755 63.529L64.407 63.112L64.0589 62.695L63.7109 62.278L63.3629 61.861L63.0149 61.444L62.667 61.027L62.319 60.61L61.971 60.193L61.623 59.776L61.275 59.359L60.9269 58.942L60.5789 58.525L60.2309 58.108L59.8829 57.691L59.535 57.274L59.187 56.857L58.839 56.44L58.491 56.023L58.143 55.606L57.7949 55.189L57.4469 54.772L57.0989 54.355L56.7509 53.938L56.403 53.521L56.055 53.104L55.707 52.687L55.359 52.27L55.011 51.853L54.6629 51.436L54.3149 51.019L53.9669 50.602L53.6189 50.185L53.271 49.768L52.923 49.351L52.575 48.934L52.227 48.517L51.879 48.1L51.5309 47.683L51.1829 47.266L50.8349 46.849L50.4869 46.432L50.139 46.015L49.791 45.598L49.443 45.181L49.095 44.764L48.747 44.347L48.3989 43.93L48.0509 43.513L47.7029 43.096L47.3549 42.679L47.007 42.262L46.659 41.845L46.311 41.428L45.963 41.011L45.615 40.594L45.2669 40.177L44.9189 39.76L44.5709 39.343L44.2229 38.926L43.875 38.509L43.527 38.092L43.179 37.675L42.831 37.258L42.483 36.841L42.1349 36.424L41.7869 36.007L41.4389 35.59L41.091 35.173L40.743 34.756L40.395 34.339L40.047 33.922L39.699 33.505L39.351 33.088L39.0029 32.671L38.6549 32.254L38.3069 31.837L37.959 31.42L37.611 31.003L37.2619 30.6L36.9139 30.183L36.566 29.766L36.218 29.349L35.87 28.932L35.5219 28.515L35.174 28.098L35.371 27.934L35.569 27.771L35.767 27.609L35.966 27.448L36.166 27.288L36.367 27.129L36.568 26.971L36.77 26.814L36.9729 26.658L37.177 26.503L37.381 26.349L37.586 26.196L37.792 26.044L37.9979 25.893L38.205 25.743L38.4129 25.594L38.622 25.446L38.831 25.299L39.041 25.153L39.2519 25.008L39.463 24.864L39.6749 24.721L39.888 24.579L40.101 24.438L40.3149 24.298L40.5299 24.159L40.7449 24.021L40.9609 23.884L41.178 23.748L41.395 23.613L41.6129 23.479L41.832 23.346L42.0509 23.214L42.271 23.083L42.491 22.953L42.712 22.824L42.9339 22.696L43.1559 22.569L43.379 22.443L43.602 22.318L43.826 22.194L44.0509 22.071L44.276 21.949L44.5019 21.828L44.728 21.708L44.955 21.59L45.1819 21.473L45.41 21.357L45.638 21.242L45.867 21.128L46.097 21.015L46.327 20.903L46.5579 20.792L46.789 20.682L47.021 20.573L47.2529 20.465L47.486 20.358L47.719 20.253L47.9529 20.149L48.187 20.046L48.422 19.944L48.657 19.843L48.893 19.743L49.129 19.644L49.366 19.546L49.603 19.449L49.84 19.354L50.0779 19.26L50.316 19.167L50.555 19.075L50.7939 18.984L51.034 18.894L51.2739 18.805L51.514 18.717L51.755 18.631L51.9959 18.546L52.2379 18.462L52.4799 18.379L52.722 18.297L52.965 18.216L53.208 18.136L53.452 18.058L53.6959 17.981L53.9399 17.905L54.185 17.83L54.43 17.756L54.6749 17.683L54.921 17.611L55.167 17.541L55.4129 17.472L55.66 17.404L55.907 17.337L56.1539 17.271L56.402 17.206L56.65 17.143L56.8979 17.081L57.1469 17.02L57.396 16.96L57.645 16.901L57.894 16.843L58.0149 17.372L58.136 17.901L58.257 18.43L58.3779 18.959L58.499 19.488L58.6199 20.017L58.741 20.546L58.8619 21.075L58.983 21.604L59.104 22.133L59.2249 22.662L59.346 23.191L59.4669 23.72L59.588 24.249L59.709 24.778L59.83 25.307L59.951 25.836L60.0719 26.365L60.193 26.894L60.3139 27.423L60.435 27.952L60.556 28.481L60.6769 29.01L60.798 29.539L60.9189 30.068L61.04 30.597L61.1609 31.126L61.282 31.655L61.403 32.184L61.5239 32.713L61.645 33.242L61.7659 33.771L61.887 34.3L62 34.843L62.1209 35.372L62.242 35.901L62.3629 36.43L62.484 36.959L62.6049 37.488L62.726 38.017L62.847 38.546L62.9679 39.075L63.089 39.604L63.2099 40.133L63.331 40.662L63.452 41.191L63.573 41.72L63.694 42.249L63.8149 42.778L63.936 43.307L64.0569 43.836L64.178 44.365L64.299 44.894L64.4199 45.423L64.541 45.952L64.6619 46.481L64.783 47.01L64.9039 47.539L65.025 48.068L65.146 48.597L65.2669 49.126L65.388 49.655L65.5089 50.184L65.63 50.713L65.7509 51.242L65.872 51.771L65.993 52.3L66.1139 52.829L66.235 53.358L66.3559 53.887L66.477 54.416L66.5979 54.945L66.719 55.474L66.84 56.003L66.9609 56.532L67.082 57.061L67.2029 57.59L67.324 58.119L67.445 58.648L67.566 59.177L67.687 59.706L67.8079 60.235L67.929 60.764L68.0499 61.293L68.171 61.822L68.292 62.351L68.4129 62.88L68.534 63.409L68.6549 63.938L68.776 64.467L68.8969 64.996L69.018 65.525L69.139 66.054L69.2599 66.583L69.381 67.112L69.5019 67.641L69.623 68.17L69.7439 68.699L69.865 69.228L69.9749 69.784Z" fill="#FF6800"/>
<path opacity="0.6" d="M69.975 69.784L69.507 69.869L69.039 69.954L68.571 70.039L68.103 70.124L67.635 70.209L67.167 70.294L66.699 70.379L66.231 70.464L65.763 70.549L65.3 70.632L64.832 70.717L64.364 70.802L63.896 70.887L63.428 70.972L62.96 71.057L62.492 71.142L62.024 71.227L61.556 71.312L61.088 71.397L60.62 71.482L60.152 71.567L59.69 71.65L59.222 71.735L58.754 71.82L58.286 71.905L57.82 71.99L57.352 72.075L56.884 72.16L56.416 72.245L55.948 72.33L55.48 72.415L55.012 72.5L54.544 72.585L54.076 72.67L53.608 72.755L53.14 72.84L52.672 72.925L52.204 73.01L51.736 73.095L51.268 73.18L50.8 73.265L50.332 73.35L49.864 73.435L49.396 73.52L48.928 73.605L48.46 73.69L47.992 73.775L47.524 73.86L47.056 73.945L46.6 74.026L46.132 74.111L45.664 74.196L45.196 74.281L44.728 74.366L44.26 74.451L43.792 74.536L43.324 74.621L42.856 74.706L42.388 74.791L41.92 74.876L41.452 74.961L40.984 75.046L40.516 75.131L40.048 75.216L39.58 75.301L39.112 75.386L38.644 75.471L38.176 75.556L37.708 75.641L37.24 75.726L36.772 75.811L36.304 75.896L35.836 75.981L35.368 76.066L34.9 76.151L34.432 76.236L33.964 76.321L33.496 76.406L33.028 76.491L32.56 76.576L32.092 76.661L31.624 76.746L31.156 76.831L30.688 76.916L30.22 77.001L29.77 77.08L29.302 77.165L28.834 77.25L28.366 77.335L27.9 77.42L27.432 77.505L26.964 77.59L26.496 77.675L26.028 77.76L25.56 77.845L25.092 77.93L24.624 78.015L24.156 78.1L23.688 78.185L23.22 78.27L23.168 77.976L23.117 77.682L23.068 77.387L23.021 77.092L22.976 76.797L22.938 76.5L22.897 76.204L22.858 75.908L22.82 75.612L22.784 75.316L22.75 75.019L22.718 74.722L22.688 74.425L22.66 74.128L22.634 73.831L22.61 73.533L22.587 73.235L22.566 72.937L22.547 72.639L22.53 72.341L22.515 72.043L22.502 71.745L22.491 71.447L22.482 71.149L22.474 70.851L22.468 70.553L22.464 70.254L22.462 69.955V69.656L22.464 69.357L22.468 69.058L22.473 68.76L22.48 68.462L22.489 68.164L22.5 67.866L22.513 67.568L22.528 67.27L22.545 66.972L22.564 66.674L22.584 66.376L22.606 66.078L22.63 65.78L22.656 65.483L22.684 65.186L22.714 64.889L22.746 64.592L22.78 64.295L22.815 63.999L22.852 63.703L22.891 63.407L22.932 63.111L22.975 62.816L23.02 62.521L23.067 62.226L23.115 61.931L23.165 61.637L23.217 61.343L23.271 61.049L23.327 60.756L23.385 60.463L23.444 60.17L23.505 59.878L23.568 59.586L23.633 59.295L23.7 59.004L23.769 58.713L23.839 58.423L23.911 58.133L23.985 57.844L24.061 57.555L24.139 57.267L24.219 56.979L24.3 56.692L24.383 56.405L24.468 56.119L24.555 55.833L24.644 55.548L24.734 55.263L24.826 54.979L24.92 54.696L25.016 54.413L25.113 54.131L25.212 53.849L25.313 53.568L25.416 53.288L25.521 53.008L25.627 52.729L25.735 52.451L25.845 52.173L25.957 51.896L26.07 51.62L26.185 51.344L26.302 51.069L26.42 50.795L26.54 50.522L26.662 50.249L26.786 49.977L26.911 49.706L27.038 49.436L27.167 49.167L27.595 49.373L28.023 49.579L28.451 49.785L28.879 49.991L29.307 50.197L29.735 50.403L30.163 50.609L30.591 50.815L31.019 51.021L31.447 51.227L31.875 51.433L32.303 51.639L32.731 51.845L33.159 52.051L33.587 52.257L34.015 52.463L34.443 52.669L34.871 52.875L35.299 53.081L35.727 53.287L36.155 53.493L36.583 53.699L37.011 53.905L37.439 54.111L37.867 54.317L38.295 54.523L38.723 54.729L39.151 54.935L39.579 55.141L40.007 55.347L40.435 55.553L40.863 55.759L41.291 55.965L41.719 56.171L42.147 56.377L42.575 56.583L43.003 56.789L43.431 56.995L43.859 57.201L44.287 57.407L44.715 57.613L45.143 57.819L45.571 58.025L45.999 58.231L46.427 58.437L46.855 58.643L47.283 58.849L47.711 59.055L48.139 59.261L48.567 59.467L48.995 59.673L49.423 59.879L49.851 60.085L50.279 60.291L50.707 60.497L51.135 60.703L51.563 60.909L51.991 61.115L52.419 61.321L52.847 61.527L53.275 61.733L53.703 61.939L54.131 62.145L54.559 62.351L54.987 62.557L55.415 62.763L55.843 62.969L56.271 63.175L56.699 63.381L57.127 63.587L57.555 63.793L57.983 63.999L58.411 64.205L58.839 64.411L59.267 64.617L59.695 64.823L60.123 65.029L60.551 65.235L60.979 65.441L61.407 65.647L61.835 65.853L62.263 66.059L62.691 66.265L63.119 66.471L63.547 66.677L63.975 66.883L64.403 67.089L64.831 67.295L65.259 67.501L65.687 67.707L66.115 67.913L66.543 68.119L66.971 68.325L67.399 68.531L67.827 68.737L68.255 68.943L68.683 69.149L69.111 69.355L69.539 69.561L69.975 69.784Z" fill="#FFC400"/>
<path opacity="0.6" d="M69.975 69.784L69.752 69.939L69.529 70.094L69.306 70.249L69.083 70.404L68.86 70.559L68.637 70.714L68.414 70.869L68.19 71.02L67.967 71.175L67.744 71.33L67.521 71.485L67.298 71.64L67.075 71.795L66.852 71.95L66.629 72.105L66.406 72.26L66.183 72.415L65.96 72.57L65.737 72.725L65.514 72.88L65.291 73.035L65.068 73.19L64.845 73.345L64.622 73.5L64.399 73.655L64.176 73.81L63.953 73.965L63.73 74.12L63.507 74.275L63.284 74.43L63.061 74.585L62.838 74.74L62.615 74.895L62.392 75.05L62.169 75.205L61.946 75.36L61.723 75.515L61.5 75.67L61.277 75.825L61.054 75.98L60.831 76.135L60.608 76.29L60.385 76.445L60.162 76.6L59.939 76.755L59.716 76.91L59.493 77.065L59.27 77.22L59.047 77.375L58.824 77.53L58.601 77.685L58.378 77.84L58.155 77.995L57.932 78.15L57.7 78.287L57.477 78.442L57.254 78.597L57.031 78.752L56.808 78.907L56.585 79.062L56.362 79.217L56.139 79.372L55.916 79.527L55.693 79.682L55.47 79.837L55.247 79.992L55.024 80.147L54.801 80.302L54.578 80.457L54.355 80.612L54.132 80.767L53.909 80.922L53.686 81.077L53.463 81.232L53.24 81.387L53.017 81.542L52.794 81.697L52.571 81.852L52.348 82.007L52.125 82.162L51.902 82.317L51.679 82.472L51.456 82.627L51.233 82.782L51.01 82.937L50.787 83.092L50.564 83.247L50.341 83.402L50.118 83.557L49.895 83.712L49.672 83.867L49.449 84.022L49.226 84.177L49.003 84.332L48.78 84.487L48.557 84.642L48.334 84.797L48.111 84.952L47.88 85.09L47.657 85.245L47.633 85.21L47.609 85.175L47.585 85.14L47.561 85.105L47.537 85.07L47.513 85.035L47.489 85L47.465 84.965L47.441 84.93L47.417 84.895L47.393 84.86L47.369 84.825L47.345 84.789L47.321 84.753L47.298 84.717L47.275 84.681L47.252 84.645L47.229 84.609L47.206 84.573L47.183 84.537L47.16 84.501L47.137 84.465L47.114 84.429L47.091 84.393L47.068 84.357L47.045 84.321L47.022 84.285L46.999 84.249L46.976 84.213L46.953 84.177L46.93 84.141L46.907 84.105L46.885 84.069L46.863 84.033L46.841 83.997L46.819 83.961L46.797 83.925L46.775 83.889L46.753 83.853L46.731 83.817L46.709 83.78L46.687 83.743L46.665 83.706L46.643 83.669L46.621 83.632L46.599 83.595L46.577 83.558L46.555 83.521L46.533 83.484L46.512 83.447L46.491 83.41L46.47 83.373L46.449 83.336L46.428 83.299L46.407 83.262L46.386 83.225L46.365 83.188L46.344 83.151L46.323 83.114L46.302 83.077L46.281 83.04L46.26 83.003L46.239 82.966L46.218 82.929L46.197 82.892L46.176 82.855L46.155 82.818L46.135 82.781L46.115 82.744L46.095 82.707L46.075 82.669L46.055 82.631L46.035 82.593L46.015 82.555L45.995 82.517L45.975 82.479L45.955 82.441L45.935 82.403L45.915 82.365L45.895 82.327L45.875 82.289L45.855 82.251L45.835 82.213L45.816 82.175L45.797 82.137L45.778 82.099L45.759 82.061L45.74 82.023L45.721 81.985L45.702 81.947L45.683 81.909L45.664 81.871L45.645 81.833L45.626 81.795L45.607 81.757L45.588 81.719L45.569 81.681L45.55 81.64L45.531 81.602L45.512 81.564L45.757 81.446L46.002 81.328L46.247 81.21L46.492 81.092L46.737 80.974L46.982 80.856L47.227 80.738L47.472 80.62L47.717 80.502L47.962 80.384L48.207 80.266L48.452 80.148L48.697 80.03L48.942 79.912L49.187 79.794L49.432 79.676L49.677 79.558L49.922 79.44L50.167 79.322L50.412 79.204L50.657 79.086L50.902 78.968L51.147 78.85L51.392 78.732L51.637 78.614L51.882 78.496L52.127 78.378L52.372 78.26L52.617 78.142L52.862 78.024L53.107 77.906L53.352 77.788L53.597 77.67L53.842 77.552L54.087 77.434L54.332 77.316L54.577 77.198L54.822 77.08L55.067 76.962L55.312 76.844L55.557 76.726L55.802 76.608L56.047 76.49L56.292 76.372L56.537 76.254L56.782 76.136L57.027 76.018L57.272 75.9L57.517 75.782L57.762 75.664L58.007 75.546L58.252 75.428L58.497 75.31L58.742 75.192L58.987 75.074L59.232 74.956L59.477 74.838L59.722 74.72L59.967 74.602L60.212 74.484L60.457 74.366L60.702 74.248L60.947 74.13L61.192 74.012L61.437 73.894L61.682 73.776L61.927 73.658L62.172 73.54L62.417 73.422L62.662 73.304L62.907 73.186L63.152 73.068L63.397 72.95L63.642 72.832L63.887 72.714L64.132 72.596L64.377 72.478L64.622 72.36L64.867 72.242L65.112 72.124L65.357 72.006L65.602 71.888L65.847 71.77L66.092 71.652L66.337 71.534L66.582 71.416L66.827 71.298L67.072 71.18L67.317 71.062L67.562 70.944L67.807 70.826L68.052 70.708L68.297 70.59L68.542 70.472L68.787 70.354L69.032 70.236L69.277 70.118L69.522 70L69.767 69.882L69.975 69.784Z" fill="#29FFCE"/>
<path opacity="0.6" d="M69.9749 69.784L70.0319 70.119L70.0889 70.454L70.146 70.789L70.203 71.124L70.26 71.459L70.317 71.794L70.374 72.129L70.431 72.464L70.4879 72.799L70.5449 73.134L70.6019 73.469L70.6589 73.804L70.716 74.139L70.773 74.474L70.83 74.809L70.887 75.144L70.944 75.479L71.0009 75.814L71.0579 76.149L71.1149 76.484L71.1719 76.819L71.2289 77.154L71.286 77.489L71.343 77.824L71.4 78.159L71.457 78.494L71.514 78.829L71.5709 79.164L71.6279 79.499L71.6849 79.834L71.7419 80.169L71.799 80.504L71.856 80.839L71.913 81.174L71.97 81.509L72.027 81.844L72.084 82.179L72.1409 82.514L72.1979 82.849L72.2549 83.184L72.3119 83.519L72.369 83.854L72.426 84.189L72.483 84.524L72.54 84.859L72.597 85.194L72.6539 85.529L72.7109 85.864L72.7679 86.199L72.8249 86.534L72.882 86.869L72.939 87.204L72.996 87.539L73.053 87.874L73.11 88.209L73.167 88.544L73.2239 88.879L73.2809 89.214L73.3379 89.549L73.3949 89.884L73.452 90.219L73.509 90.554L73.566 90.889L73.623 91.224L73.68 91.559L73.7369 91.894L73.7939 92.229L73.8509 92.564L73.9079 92.899L73.9649 93.234L74.022 93.569L74.079 93.904L74.136 94.239L74.193 94.574L74.25 94.909L74.3069 95.244L74.3639 95.579L74.4209 95.914L74.4779 96.249L74.535 96.584L74.592 96.919L74.649 97.254L74.706 97.589L74.763 97.924L74.82 98.259L74.8769 98.594L74.9339 98.929L74.9909 99.264L75.0479 99.599L75.105 99.934L75.162 100.269L75.219 100.604L75.276 100.939L75.333 101.274L75.3899 101.609L75.4469 101.944L75.5039 102.279L75.5609 102.614L75.6179 102.949L75.675 103.284L75.5439 103.306L75.412 103.328L75.2799 103.349L75.148 103.37L75.0159 103.39L74.884 103.409L74.7519 103.428L74.62 103.446L74.4879 103.464L74.356 103.481L74.2239 103.498L74.092 103.514L73.9599 103.53L73.828 103.545L73.6959 103.56L73.564 103.574L73.431 103.588L73.2979 103.601L73.165 103.614L73.0319 103.626L72.899 103.638L72.7659 103.649L72.633 103.66L72.5 103.67L72.3669 103.68L72.234 103.689L72.1009 103.698L71.968 103.706L71.8349 103.713L71.702 103.72L71.569 103.727L71.4359 103.733L71.303 103.738L71.1699 103.743L71.037 103.747L70.9039 103.751L70.771 103.754L70.638 103.757L70.5049 103.759L70.372 103.761L70.2389 103.762L70.106 103.763H69.84L69.707 103.762L69.574 103.761L69.441 103.759L69.3079 103.757L69.1749 103.754L69.042 103.751L68.909 103.747L68.756 103.7L68.623 103.695L68.49 103.69L68.3569 103.684L68.2239 103.677L68.09 103.67L67.957 103.662L67.824 103.654L67.691 103.645L67.5579 103.636L67.4249 103.626L67.292 103.616L67.159 103.605L67.026 103.594L66.893 103.582L66.7599 103.57L66.6269 103.557L66.4939 103.544L66.361 103.53L66.229 103.515L66.0989 103.5L65.9669 103.485L65.8349 103.469L65.7029 103.452L65.5709 103.435L65.4389 103.417L65.3069 103.399L65.1749 103.38L65.0429 103.361L64.9109 103.341L64.7789 103.321L64.6469 103.3L64.5149 103.279L64.3839 103.257L64.2529 103.235L64.122 103.212L63.991 103.189L63.86 103.165L63.729 103.141L63.5979 103.116L63.4669 103.091L63.3359 103.065L63.205 103.039L63.074 103.012L62.944 102.985L62.8139 102.957L62.6839 102.929L62.554 102.9L62.424 102.871L62.5 102.54L62.576 102.209L62.652 101.878L62.728 101.547L62.804 101.216L62.88 100.885L62.956 100.554L63.032 100.223L63.108 99.892L63.1839 99.561L63.2599 99.23L63.3359 98.899L63.4119 98.568L63.4879 98.237L63.5639 97.906L63.6399 97.575L63.716 97.244L63.792 96.913L63.868 96.582L63.944 96.251L64.02 95.92L64.096 95.589L64.172 95.258L64.248 94.927L64.324 94.596L64.4 94.265L64.476 93.934L64.5519 93.603L64.6279 93.272L64.7039 92.941L64.7799 92.61L64.8559 92.279L64.9319 91.948L65.0079 91.617L65.084 91.286L65.16 90.955L65.236 90.624L65.312 90.293L65.388 89.962L65.464 89.631L65.54 89.3L65.616 88.969L65.692 88.638L65.768 88.307L65.844 87.976L65.9199 87.645L65.9959 87.314L66.0719 86.983L66.1479 86.652L66.2239 86.321L66.2999 85.99L66.3759 85.659L66.452 85.328L66.528 84.997L66.604 84.666L66.68 84.335L66.756 84.004L66.832 83.673L66.908 83.342L66.984 83.011L67.06 82.68L67.136 82.349L67.212 82.018L67.2879 81.687L67.3639 81.356L67.4399 81.025L67.5159 80.694L67.5919 80.363L67.6679 80.032L67.7439 79.701L67.82 79.37L67.896 79.039L67.972 78.708L68.048 78.377L68.124 78.046L68.2 77.715L68.276 77.384L68.352 77.053L68.428 76.722L68.504 76.391L68.58 76.06L68.6559 75.729L68.7319 75.398L68.8079 75.067L68.8839 74.736L68.9599 74.405L69.0359 74.074L69.1119 73.743L69.188 73.412L69.264 73.081L69.34 72.75L69.416 72.419L69.492 72.088L69.568 71.757L69.644 71.426L69.72 71.095L69.796 70.764L69.872 70.433L69.948 70.102L69.9749 69.784Z" fill="#7DFF7A"/>
<path opacity="0.6" d="M69.975 69.784L70.403 70.118L70.831 70.452L71.259 70.786L71.687 71.12L72.115 71.454L72.543 71.788L72.971 72.122L73.399 72.456L73.827 72.79L74.255 73.124L74.683 73.458L75.111 73.792L75.539 74.126L75.967 74.46L76.4 74.79L76.828 75.124L77.256 75.458L77.684 75.792L78.112 76.126L78.54 76.46L78.968 76.794L79.396 77.128L79.824 77.462L80.252 77.796L80.68 78.13L81.108 78.464L81.536 78.798L81.964 79.132L82.392 79.466L82.82 79.8L83.248 80.134L83.676 80.468L84.104 80.802L84.532 81.136L84.96 81.47L85.388 81.804L85.816 82.138L86.244 82.472L86.672 82.806L87.1 83.14L87.528 83.474L87.956 83.808L88.384 84.142L88.812 84.476L89.24 84.81L89.668 85.144L90.096 85.478L90.524 85.812L90.952 86.146L91.38 86.48L91.808 86.814L92.236 87.148L92.664 87.482L93.092 87.816L93.52 88.15L93.948 88.484L94.376 88.818L94.804 89.152L95.232 89.486L95.66 89.82L96.088 90.154L96.516 90.488L96.944 90.822L97.372 91.156L97.8 91.49L98.228 91.824L98.656 92.158L99.084 92.492L99.512 92.826L99.94 93.16L100.368 93.494L100.796 93.828L101.224 94.162L101.652 94.496L102.08 94.83L102.508 95.164L102.936 95.498L103.364 95.832L103.792 96.166L104.22 96.5L104.648 96.834L105.076 97.168L105.504 97.502L105.932 97.836L106.36 98.17L106.788 98.504L107.216 98.838L107.644 99.172L108.072 99.506L108.5 99.84L108.928 100.174L109.356 100.508L109.784 100.842L110.212 101.176L110.64 101.51L111.068 101.844L111.496 102.178L111.924 102.512L112.352 102.846L112.78 103.18L112.701 103.281L112.622 103.382L112.543 103.482L112.464 103.582L112.384 103.682L112.304 103.782L112.224 103.882L112.144 103.982L112.063 104.081L111.982 104.18L111.901 104.279L111.82 104.378L111.738 104.477L111.656 104.575L111.574 104.673L111.492 104.771L111.409 104.869L111.326 104.967L111.243 105.064L111.16 105.161L111.077 105.258L110.993 105.355L110.909 105.452L110.825 105.548L110.741 105.644L110.656 105.74L110.571 105.836L110.486 105.932L110.401 106.027L110.316 106.122L110.23 106.217L110.144 106.312L110.058 106.407L109.972 106.501L109.885 106.595L109.798 106.689L109.711 106.783L109.624 106.877L109.537 106.97L109.449 107.063L109.361 107.156L109.273 107.249L109.185 107.342L109.096 107.434L109.007 107.526L108.918 107.618L108.829 107.71L108.74 107.802L108.65 107.893L108.56 107.984L108.47 108.075L108.38 108.166L108.29 108.256L108.199 108.346L108.108 108.436L108.017 108.526L107.926 108.616L107.834 108.705L107.742 108.794L107.65 108.883L107.558 108.972L107.466 109.061L107.373 109.149L107.28 109.237L107.187 109.325L107.094 109.413L107.001 109.5L106.907 109.587L106.813 109.674L106.719 109.761L106.625 109.848L106.531 109.934L106.463 110L106.368 110.086L106.273 110.172L106.178 110.257L106.083 110.342L105.987 110.427L105.891 110.512L105.795 110.596L105.699 110.68L105.603 110.764L105.506 110.848L105.409 110.932L105.312 111.015L105.215 111.098L105.118 111.181L105.02 111.264L104.922 111.346L104.824 111.428L104.726 111.51L104.628 111.592L104.529 111.674L104.43 111.755L104.331 111.836L104.232 111.917L104.133 111.998L104.033 112.078L103.933 112.158L103.833 112.238L103.494 111.813L103.156 111.389L102.817 110.964L102.478 110.539L102.139 110.114L101.8 109.689L101.461 109.264L101.122 108.839L100.783 108.414L100.444 107.989L100.105 107.564L99.766 107.139L99.427 106.714L99.088 106.289L98.749 105.864L98.41 105.439L98.071 105.014L97.732 104.589L97.393 104.164L97.054 103.739L96.715 103.314L96.376 102.889L96.037 102.464L95.698 102.039L95.359 101.614L95.029 101.2L94.69 100.775L94.351 100.35L94.012 99.925L93.673 99.5L93.334 99.075L92.995 98.65L92.656 98.225L92.317 97.8L91.978 97.375L91.639 96.95L91.3 96.525L90.961 96.1L90.622 95.675L90.283 95.25L89.944 94.825L89.605 94.4L89.266 93.975L88.927 93.55L88.588 93.125L88.249 92.7L87.91 92.275L87.571 91.85L87.232 91.425L86.893 91L86.554 90.575L86.215 90.15L85.876 89.725L85.537 89.3L85.198 88.875L84.859 88.45L84.52 88.025L84.181 87.6L83.842 87.175L83.503 86.75L83.164 86.325L82.825 85.9L82.486 85.475L82.147 85.05L81.808 84.625L81.469 84.2L81.13 83.775L80.791 83.35L80.452 82.925L80.113 82.5L79.774 82.075L79.435 81.65L79.096 81.225L78.757 80.8L78.418 80.375L78.079 79.95L77.74 79.525L77.401 79.1L77.062 78.675L76.723 78.25L76.384 77.825L76.045 77.4L75.706 76.975L75.367 76.55L75.028 76.125L74.689 75.7L74.35 75.275L74.011 74.85L73.672 74.425L73.333 74L72.994 73.575L72.655 73.15L72.316 72.725L71.977 72.3L71.638 71.875L71.299 71.45L70.96 71.025L70.621 70.6L70.282 70.175L69.975 69.784Z" fill="#FF6800"/>
<path d="M83.551 70.198L69.975 70.197C69.8773 70.1958 69.7832 70.1601 69.7093 70.0962C69.6354 70.0324 69.5865 69.9444 69.5712 69.8479C69.5558 69.7515 69.5751 69.6527 69.6256 69.5691C69.6761 69.4855 69.7545 69.4224 69.847 69.391L82.759 65.197C82.8106 65.1801 82.865 65.1736 82.9191 65.1778C82.9733 65.182 83.026 65.1968 83.0744 65.2215C83.1228 65.2461 83.1659 65.28 83.2011 65.3213C83.2364 65.3625 83.2632 65.4103 83.28 65.462C83.735 66.86 83.965 68.315 83.964 69.785C83.964 69.8392 83.9533 69.8929 83.9325 69.943C83.9118 69.9931 83.8814 70.0387 83.843 70.077C83.8047 70.1154 83.7591 70.1458 83.709 70.1665C83.6589 70.1873 83.6052 70.198 83.551 70.198ZM72.586 69.37H83.131C83.0968 68.2666 82.9234 67.1719 82.615 66.112L72.586 69.37Z" fill="#2C2C2C"/>
<path d="M69.975 70.197C69.9083 70.1968 69.8427 70.1805 69.7836 70.1495C69.7246 70.1185 69.6739 70.0737 69.6359 70.0189C69.5979 69.9642 69.5737 69.901 69.5654 69.8349C69.557 69.7687 69.5648 69.7015 69.588 69.639L83.899 31.51C83.9179 31.4591 83.9467 31.4124 83.9837 31.3726C84.0207 31.3329 84.0652 31.3008 84.1146 31.2783C84.1641 31.2559 84.2175 31.2434 84.2718 31.2416C84.3261 31.2398 84.3802 31.2488 84.431 31.268C88.4741 32.7823 92.2527 34.9257 95.627 37.619C95.7127 37.6874 95.7677 37.7869 95.7801 37.8959C95.7925 38.0048 95.7611 38.1142 95.693 38.2L70.298 70.041C70.2592 70.0895 70.2101 70.1287 70.1542 70.1557C70.0983 70.1827 70.0371 70.1968 69.975 70.197ZM84.527 32.189L71.28 67.484L94.787 38.009C91.6721 35.5746 88.2148 33.6135 84.527 32.189Z" fill="#2C2C2C"/>
<path d="M69.975 70.197C69.9146 70.1969 69.8549 70.1836 69.8002 70.158C69.7454 70.1325 69.6969 70.0953 69.658 70.049L34.857 28.364C34.8221 28.3224 34.7957 28.2744 34.7794 28.2226C34.7631 28.1708 34.7572 28.1163 34.762 28.0622C34.7668 28.0081 34.7823 27.9555 34.8076 27.9074C34.8328 27.8593 34.8673 27.8167 34.909 27.782C41.5392 22.2501 49.3832 18.3638 57.801 16.44C57.908 16.4158 58.0203 16.4351 58.1131 16.4936C58.2059 16.5521 58.2717 16.645 58.296 16.752L70.379 69.693C70.3995 69.7837 70.389 69.8786 70.3491 69.9625C70.3092 70.0465 70.2423 70.1146 70.159 70.156C70.1013 70.1827 70.0386 70.1967 69.975 70.197ZM35.757 28.152L69.188 68.196L57.581 17.339C49.5774 19.2332 42.1127 22.9318 35.757 28.152Z" fill="#2C2C2C"/>
<path d="M23.224 78.681C23.1273 78.6809 23.0338 78.647 22.9596 78.585C22.8854 78.5231 22.8353 78.4371 22.818 78.342C21.005 68.458 22.417 58.033 26.795 48.987C26.8427 48.8883 26.9276 48.8126 27.0311 48.7764C27.1346 48.7402 27.2482 48.7465 27.347 48.794L70.155 69.409C70.2342 69.4466 70.2994 69.5084 70.3411 69.5854C70.3829 69.6625 70.399 69.7509 70.3872 69.8378C70.3754 69.9246 70.3363 70.0055 70.2755 70.0686C70.2147 70.1318 70.1354 70.1739 70.049 70.189L23.299 78.674C23.2744 78.6793 23.2492 78.6816 23.224 78.681ZM27.36 49.721C23.257 58.399 21.912 68.331 23.559 77.788L68.649 69.605L27.36 49.721Z" fill="#2C2C2C"/>
<path d="M47.6571 85.659C47.5902 85.6586 47.5243 85.6423 47.465 85.6113C47.4057 85.5804 47.3546 85.5357 47.3161 85.481C46.494 84.2937 45.7661 83.0439 45.1391 81.743C45.1154 81.6941 45.1017 81.641 45.0986 81.5868C45.0955 81.5325 45.1031 81.4782 45.121 81.427C45.139 81.3757 45.1668 81.3284 45.203 81.288C45.2393 81.2475 45.2831 81.2145 45.3321 81.191L69.7941 69.411C69.8882 69.3623 69.9974 69.3516 70.0992 69.3812C70.201 69.4109 70.2875 69.4785 70.3408 69.5701C70.3941 69.6617 70.4102 69.7702 70.3856 69.8733C70.3611 69.9765 70.2979 70.0662 70.2091 70.124L47.8931 85.586C47.8237 85.6338 47.7413 85.6592 47.6571 85.659ZM46.0671 81.755C46.5716 82.7603 47.1384 83.7332 47.7641 84.668L65.4201 72.436L46.0671 81.755Z" fill="#2C2C2C"/>
<path d="M69.9901 104.132C67.4101 104.132 64.8251 103.845 62.3301 103.275C62.2232 103.25 62.1305 103.184 62.0722 103.091C62.0139 102.998 61.9948 102.886 62.0191 102.779L69.5711 69.691C69.6151 69.499 69.7941 69.337 69.9861 69.37C70.0817 69.3724 70.1736 69.4081 70.2459 69.4709C70.3181 69.5336 70.3663 69.6196 70.3821 69.714L76.0671 103.174C76.0853 103.282 76.0598 103.393 75.9963 103.483C75.9327 103.572 75.8362 103.633 75.7281 103.651C73.8323 103.972 71.9128 104.133 69.9901 104.132ZM62.9181 102.558C66.9181 103.418 71.1381 103.538 75.1821 102.902L69.9151 71.903L62.9181 102.558Z" fill="#2C2C2C"/>
<path d="M103.832 112.652C103.77 112.652 103.708 112.638 103.652 112.611C103.596 112.584 103.547 112.545 103.508 112.496L69.651 70.041C69.587 69.962 69.5543 69.8622 69.5593 69.7607C69.5643 69.6591 69.6066 69.563 69.678 69.4907C69.7495 69.4184 69.8451 69.375 69.9466 69.3688C70.048 69.3625 70.1482 69.3939 70.2279 69.457L113.061 102.836C113.148 102.903 113.204 103.003 113.217 103.112C113.231 103.221 113.2 103.33 113.133 103.417C110.488 106.811 107.452 109.881 104.088 112.563C104.015 112.621 103.925 112.652 103.832 112.652ZM72.4769 72.258L103.897 111.657C106.974 109.163 109.767 106.339 112.226 103.234L72.4769 72.258Z" fill="#2C2C2C"/>
</svg>
