<svg width="140" height="140" viewBox="0 0 140 140" fill="none" xmlns="http://www.w3.org/2000/svg">
<rect width="140" height="140" rx="20" fill="#242938"/>
<path d="M61.0121 32.006L39.6321 21.217L16.1541 32.93L38.1231 43.957L61.0121 32.006ZM70.8201 36.957L93.2411 48.28L69.9821 59.955L47.9821 48.912L70.8201 36.957ZM100.768 21.376L123.805 32.928L103.2 43.272L80.7351 31.938L100.768 21.376ZM90.8531 16.4L70.1131 6L49.5981 16.24L70.9701 27.014L90.8531 16.4ZM74.6401 105.702V134L99.7621 121.463L99.7391 93.153L74.6401 105.702ZM99.7271 83.27L99.6991 55.258L74.6391 67.716V95.74L99.7271 83.27ZM129.885 78.024V106.434L108.455 117.124L108.438 88.845L129.885 78.024ZM129.885 68.089V40.25L108.415 50.923L108.431 78.991L129.885 68.089Z" fill="#4DABCF"/>
<path d="M65.77 67.716L48.852 59.204V95.97C48.852 95.97 28.152 51.937 26.24 47.98C25.994 47.467 24.977 46.91 24.718 46.771C20.987 44.824 10.115 39.321 10.115 39.321V104.298L25.155 112.361V78.382C25.155 78.382 45.633 117.728 45.844 118.162C46.058 118.591 48.101 122.732 50.303 124.19C53.223 126.129 65.761 133.667 65.761 133.667L65.77 67.716Z" fill="#4C75CF"/>
</svg>
