<svg width="140" height="140" viewBox="0 0 140 140" fill="none" xmlns="http://www.w3.org/2000/svg">
<rect width="140" height="140" rx="20" fill="#242938"/>
<path d="M17.354 121.114C14.914 121.114 12.435 120.106 10.879 118.129V128.806H6V102.451H10.413L10.587 105.341C12.101 103.112 14.791 101.935 17.355 101.938C22.272 101.938 25.899 106.058 25.899 111.525C25.899 116.991 22.27 121.118 17.353 121.115L17.354 121.114ZM15.843 105.56C12.994 105.56 10.669 107.788 10.669 111.53C10.669 115.272 12.98 117.5 15.84 117.5C18.7 117.5 21.006 115.272 21.006 111.53C21.006 107.788 18.699 105.56 15.842 105.56H15.843ZM44.285 120.614L44.116 117.714C42.604 119.942 39.912 121.119 37.35 121.119C32.43 121.119 28.808 116.998 28.808 111.532C28.808 106.068 32.423 101.946 37.35 101.949C39.911 101.949 42.604 103.135 44.116 105.353L44.286 102.454H48.7V120.616L44.285 120.614ZM38.864 105.561C36.016 105.561 33.693 107.789 33.693 111.531C33.693 115.273 36.003 117.501 38.863 117.501C41.723 117.501 44.033 115.273 44.033 111.534C44.033 107.794 41.723 105.576 38.863 105.562L38.864 105.561ZM65.762 120.618V110.56C65.762 107.029 64.542 105.851 62.315 105.851C60.004 105.851 57.481 107.951 57.478 110.474V120.606H52.604V102.454H57.073L57.281 105.819C58.501 103.506 61.234 101.951 64.008 101.951C68.841 101.951 70.652 105.316 70.652 109.815V120.618H65.762ZM88.518 120.62L88.348 117.719C86.837 119.947 84.147 121.123 81.581 121.123C76.663 121.123 73.039 117.003 73.039 111.538C73.039 106.073 76.655 101.954 81.581 101.954C84.018 101.954 86.5 102.964 88.055 104.94V95.397H92.931V120.621L88.518 120.62ZM83.098 105.577C80.238 105.577 77.925 107.805 77.925 111.547C77.925 115.289 80.235 117.514 83.095 117.517C85.955 117.517 88.265 115.289 88.265 111.547C88.265 107.805 85.955 105.577 83.098 105.577ZM111.255 120.623L111.088 117.723C109.574 119.951 106.882 121.129 104.32 121.126C99.401 121.126 95.778 117.006 95.778 111.542C95.778 106.077 99.394 101.956 104.32 101.958C106.882 101.958 109.574 103.145 111.088 105.363L111.257 102.463H115.682V120.623H111.255ZM105.834 105.577C102.975 105.577 100.664 107.805 100.664 111.547C100.664 115.289 102.975 117.517 105.834 117.517C108.693 117.517 111.004 115.289 111.004 111.547C111.004 107.805 108.694 105.577 105.834 105.577ZM126.476 121.214C123.91 121.194 121.397 120.482 119.202 119.154L120 115.78C121.472 116.663 123.7 117.8 126.39 117.8C128.323 117.8 129.67 117.211 129.67 115.696C129.67 114.395 128.283 113.931 125.801 113.343C121.348 112.375 119.749 110.022 119.751 107.457C119.751 104.609 121.979 101.909 126.898 101.909C129.883 101.909 132.488 103.214 133.067 103.549L132.277 106.764C130.689 105.807 128.877 105.284 127.023 105.249C125.047 105.249 124.079 105.921 124.079 107.014C124.079 108.232 125.341 108.78 127.275 109.242C132.065 110.252 134 112.479 134 114.919C134 118.819 131.14 121.214 126.476 121.214ZM58.438 15.875H67.099V33.863H58.438V15.875ZM58.438 52.823H67.099V70.81H58.438V52.823Z" fill="#130754"/>
<path d="M58.438 39.116H67.1V47.602H58.438V39.116Z" fill="#FFCA00"/>
<path d="M44.522 30.665H53.184V90.455H44.522V30.665ZM72.066 67.663H80.729V85.65H72.066V67.663ZM72.066 30.687H80.729V48.674H72.066V30.687Z" fill="#130754"/>
<path d="M72.066 53.924H80.729V62.409H72.066V53.924Z" fill="#E70488"/>
<path d="M85.69 11.194H94.353V70.982H85.69V11.194Z" fill="#130754"/>
</svg>
