<svg width="140" height="140" viewBox="0 0 140 140" fill="none" xmlns="http://www.w3.org/2000/svg">
<rect width="140" height="140" rx="20" fill="#242938"/>
<g clip-path="url(#clip0_28_46)">
<path fill-rule="evenodd" clip-rule="evenodd" d="M10 17.3757C10 21.4471 13.5275 24.7493 17.877 24.7493H83.1547C90.5947 24.7493 96.7215 26.9007 101.535 31.2036C106.349 35.5064 108.755 41.0371 108.755 47.7979C108.755 54.0464 106.349 59.1679 101.533 63.1621C96.7215 67.0557 90.5947 69.0014 83.1547 69.0014H54.7849C50.4332 69.0014 46.9057 72.3014 46.9057 76.3771C46.9057 80.4486 50.4332 83.7507 54.7849 83.7507H86.1117L114.337 126.158C116.087 128.721 118.548 130 121.72 130C125.223 130 127.684 128.721 129.106 126.158C130.528 123.496 130.254 120.679 128.286 117.709L103.177 79.9086C109.96 77.0414 115.322 72.8414 119.259 67.3107C123.198 61.6771 125.168 55.1736 125.168 47.7979C125.168 40.3193 123.362 33.7643 119.752 28.1307C116.252 22.495 111.33 18.0914 104.983 14.9157C98.637 11.6371 91.3623 10 83.1547 10H17.8792C13.5275 10 10 13.3 10 17.3757Z" fill="white"/>
</g>
<defs>
<clipPath id="clip0_28_46">
<rect width="120" height="120" fill="white" transform="translate(10 10)"/>
</clipPath>
</defs>
</svg>
